  0
SECTION
  2
HEADER
  9
$ACADVER
  1
AC1014
  9
$HANDSEED
  5
FFFF
  9
$MEASUREMENT
 70
     1
  0
ENDSEC
  0
SECTION
  2
TABLES
  0
TABLE
  2
VPORT
  5
8
330
0
100
AcDbSymbolTable
 70
     4
  0
VPORT
  5
2E
330
8
100
AcDbSymbolTableRecord
100
AcDbViewportTableRecord
  2
*ACTIVE
 70
     0
 10
0.0
 20
0.0
 11
1.0
 21
1.0
 12
210.0
 22
148.5
 13
0.0
 23
0.0
 14
10.0
 24
10.0
 15
10.0
 25
10.0
 16
0.0
 26
0.0
 36
1.0
 17
0.0
 27
0.0
 37
0.0
 40
341.0
 41
1.24
 42
50.0
 43
0.0
 44
0.0
 50
0.0
 51
0.0
 71
     0
 72
   100
 73
     1
 74
     3
 75
     0
 76
     0
 77
     0
 78
     0
  0
ENDTAB
  0
TABLE
  2
LTYPE
  5
5
330
0
100
AcDbSymbolTable
 70
     1
  0
LTYPE
  5
14
330
5
100
AcDbSymbolTableRecord
100
AcDbLinetypeTableRecord
  2
BYBLOCK
 70
     0
  3

 72
    65
 73
     0
 40
0.0
  0
LTYPE
  5
15
330
5
100
AcDbSymbolTableRecord
100
AcDbLinetypeTableRecord
  2
BYLAYER
 70
     0
  3

 72
    65
 73
     0
 40
0.0
  0
LTYPE
  5
16
330
5
100
AcDbSymbolTableRecord
100
AcDbLinetypeTableRecord
  2
CONTINUOUS
 70
     0
  3
Solid line
 72
    65
 73
     0
 40
0.0
  0
ENDTAB
  0
TABLE
  2
LAYER
  5
2
100
AcDbSymbolTable
 70
4
  0
LAYER
  5
50
100
AcDbSymbolTableRecord
100
AcDbLayerTableRecord
  2
0
 70
0
  6
CONTINUOUS
  0
LAYER
  5
51
100
AcDbSymbolTableRecord
100
AcDbLayerTableRecord
  2
Layer_1
 70
0
  6
CONTINUOUS
  0
LAYER
  5
52
100
AcDbSymbolTableRecord
100
AcDbLayerTableRecord
  2
engravings
 70
0
  6
CONTINUOUS
  0
LAYER
  5
53
100
AcDbSymbolTableRecord
100
AcDbLayerTableRecord
  2
Layer_2
 70
0
  6
CONTINUOUS
  0
ENDTAB
  0
TABLE
  2
STYLE
  5
3
330
0
100
AcDbSymbolTable
 70
     1
  0
STYLE
  5
11
330
3
100
AcDbSymbolTableRecord
100
AcDbTextStyleTableRecord
  2
STANDARD
 70
     0
 40
0.0
 41
1.0
 50
0.0
 71
     0
 42
2.5
  3
txt
  4

  0
ENDTAB
  0
TABLE
  2
VIEW
  5
6
330
0
100
AcDbSymbolTable
 70
     0
  0
ENDTAB
  0
TABLE
  2
UCS
  5
7
330
0
100
AcDbSymbolTable
 70
     0
  0
ENDTAB
  0
TABLE
  2
APPID
  5
9
330
0
100
AcDbSymbolTable
 70
     2
  0
APPID
  5
12
330
9
100
AcDbSymbolTableRecord
100
AcDbRegAppTableRecord
  2
ACAD
 70
     0
  0
ENDTAB
  0
TABLE
  2
DIMSTYLE
  5
A
330
0
100
AcDbSymbolTable
 70
     1
  0
DIMSTYLE
105
27
330
A
100
AcDbSymbolTableRecord
100
AcDbDimStyleTableRecord
  2
ISO-25
 70
     0
  3

  4

  5

  6

  7

 40
1.0
 41
2.5
 42
0.625
 43
3.75
 44
1.25
 45
0.0
 46
0.0
 47
0.0
 48
0.0
140
2.5
141
2.5
142
0.0
143
0.03937007874016
144
1.0
145
0.0
146
1.0
147
0.625
 71
     0
 72
     0
 73
     0
 74
     0
 75
     0
 76
     0
 77
     1
 78
     8
170
     0
171
     3
172
     1
173
     0
174
     0
175
     0
176
     0
177
     0
178
     0
270
     2
271
     2
272
     2
273
     2
274
     3
340
11
275
     0
280
     0
281
     0
282
     0
283
     0
284
     8
285
     0
286
     0
287
     3
288
     0
  0
ENDTAB
  0
TABLE
  2
BLOCK_RECORD
  5
1
330
0
100
AcDbSymbolTable
 70
     1
  0
BLOCK_RECORD
  5
1F
330
1
100
AcDbSymbolTableRecord
100
AcDbBlockTableRecord
  2
*MODEL_SPACE
  0
BLOCK_RECORD
  5
1B
330
1
100
AcDbSymbolTableRecord
100
AcDbBlockTableRecord
  2
*PAPER_SPACE
  0
ENDTAB
  0
ENDSEC
  0
SECTION
  2
BLOCKS
  0
BLOCK
  5
20
330
1F
100
AcDbEntity
  8
0
100
AcDbBlockBegin
  2
*MODEL_SPACE
 70
     0
 10
0.0
 20
0.0
 30
0.0
  3
*MODEL_SPACE
  1

  0
ENDBLK
  5
21
330
1F
100
AcDbEntity
  8
0
100
AcDbBlockEnd
  0
BLOCK
  5
1C
330
1B
100
AcDbEntity
 67
     1
  8
0
100
AcDbBlockBegin
  2
*PAPER_SPACE
  1

  0
ENDBLK
  5
1D
330
1B
100
AcDbEntity
 67
     1
  8
0
100
AcDbBlockEnd
  0
ENDSEC
  0
SECTION
  2
ENTITIES
  0
LWPOLYLINE
  5
100
100
AcDbEntity
  8
Layer_2
 62
1
100
AcDbPolyline
 90
1
 70
1
 10
17.843906
 20
257.277370
 30
0.0
  0
LWPOLYLINE
  5
101
100
AcDbEntity
  8
Layer_2
 62
1
100
AcDbPolyline
 90
59
 70
1
 10
6.759867
 20
295.563710
 30
0.0
 10
8.459867
 20
295.563710
 30
0.0
 10
8.625317
 20
295.555710
 30
0.0
 10
8.785877
 20
295.531310
 30
0.0
 10
8.940767
 20
295.491710
 30
0.0
 10
9.089167
 20
295.437610
 30
0.0
 10
9.230287
 20
295.369810
 30
0.0
 10
9.363327
 20
295.289210
 30
0.0
 10
9.601977
 20
295.092460
 30
0.0
 10
9.798717
 20
294.853820
 30
0.0
 10
9.879417
 20
294.720770
 30
0.0
 10
9.947217
 20
294.579650
 30
0.0
 10
10.001317
 20
294.431250
 30
0.0
 10
10.040917
 20
294.276370
 30
0.0
 10
10.065317
 20
294.115800
 30
0.0
 10
10.073317
 20
293.950350
 30
0.0
 10
10.065317
 20
293.784900
 30
0.0
 10
10.040917
 20
293.624340
 30
0.0
 10
10.001317
 20
293.469450
 30
0.0
 10
9.947217
 20
293.321050
 30
0.0
 10
9.879417
 20
293.179930
 30
0.0
 10
9.798717
 20
293.046890
 30
0.0
 10
9.601977
 20
292.808240
 30
0.0
 10
9.363327
 20
292.611500
 30
0.0
 10
9.230287
 20
292.530800
 30
0.0
 10
9.089167
 20
292.463000
 30
0.0
 10
8.940767
 20
292.408900
 30
0.0
 10
8.785877
 20
292.369300
 30
0.0
 10
8.625317
 20
292.344900
 30
0.0
 10
8.459867
 20
292.336900
 30
0.0
 10
6.759867
 20
292.336900
 30
0.0
 10
6.594417
 20
292.344900
 30
0.0
 10
6.433847
 20
292.369300
 30
0.0
 10
6.278967
 20
292.408900
 30
0.0
 10
6.130567
 20
292.463000
 30
0.0
 10
5.989437
 20
292.530800
 30
0.0
 10
5.856397
 20
292.611500
 30
0.0
 10
5.617747
 20
292.808240
 30
0.0
 10
5.421007
 20
293.046890
 30
0.0
 10
5.340307
 20
293.179930
 30
0.0
 10
5.272507
 20
293.321050
 30
0.0
 10
5.218407
 20
293.469450
 30
0.0
 10
5.178807
 20
293.624330
 30
0.0
 10
5.154407
 20
293.784900
 30
0.0
 10
5.146407
 20
293.950350
 30
0.0
 10
5.154407
 20
294.115800
 30
0.0
 10
5.178807
 20
294.276370
 30
0.0
 10
5.218407
 20
294.431250
 30
0.0
 10
5.272507
 20
294.579650
 30
0.0
 10
5.340307
 20
294.720770
 30
0.0
 10
5.421007
 20
294.853810
 30
0.0
 10
5.617747
 20
295.092460
 30
0.0
 10
5.856397
 20
295.289200
 30
0.0
 10
5.989437
 20
295.369900
 30
0.0
 10
6.130567
 20
295.437700
 30
0.0
 10
6.278967
 20
295.491800
 30
0.0
 10
6.433847
 20
295.531400
 30
0.0
 10
6.594417
 20
295.555800
 30
0.0
 10
6.759867
 20
295.563800
 30
0.0
  0
LWPOLYLINE
  5
102
100
AcDbEntity
  8
Layer_2
 62
1
100
AcDbPolyline
 90
59
 70
1
 10
6.759867
 20
173.063720
 30
0.0
 10
8.459867
 20
173.063720
 30
0.0
 10
8.625317
 20
173.055720
 30
0.0
 10
8.785877
 20
173.031320
 30
0.0
 10
8.940767
 20
172.991720
 30
0.0
 10
9.089167
 20
172.937620
 30
0.0
 10
9.230287
 20
172.869820
 30
0.0
 10
9.363327
 20
172.789120
 30
0.0
 10
9.601977
 20
172.592380
 30
0.0
 10
9.798717
 20
172.353730
 30
0.0
 10
9.879417
 20
172.220690
 30
0.0
 10
9.947217
 20
172.079570
 30
0.0
 10
10.001317
 20
171.931170
 30
0.0
 10
10.040917
 20
171.776290
 30
0.0
 10
10.065317
 20
171.615720
 30
0.0
 10
10.073317
 20
171.450270
 30
0.0
 10
10.065317
 20
171.284820
 30
0.0
 10
10.040917
 20
171.124250
 30
0.0
 10
10.001317
 20
170.969370
 30
0.0
 10
9.947217
 20
170.820970
 30
0.0
 10
9.879417
 20
170.679850
 30
0.0
 10
9.798717
 20
170.546810
 30
0.0
 10
9.601977
 20
170.308160
 30
0.0
 10
9.363327
 20
170.111420
 30
0.0
 10
9.230287
 20
170.030720
 30
0.0
 10
9.089167
 20
169.962920
 30
0.0
 10
8.940767
 20
169.908820
 30
0.0
 10
8.785877
 20
169.869220
 30
0.0
 10
8.625317
 20
169.844820
 30
0.0
 10
8.459867
 20
169.836820
 30
0.0
 10
6.759867
 20
169.836820
 30
0.0
 10
6.594417
 20
169.844820
 30
0.0
 10
6.433847
 20
169.869220
 30
0.0
 10
6.278967
 20
169.908820
 30
0.0
 10
6.130567
 20
169.962920
 30
0.0
 10
5.989437
 20
170.030720
 30
0.0
 10
5.856397
 20
170.111420
 30
0.0
 10
5.617747
 20
170.308160
 30
0.0
 10
5.421007
 20
170.546810
 30
0.0
 10
5.340407
 20
170.679850
 30
0.0
 10
5.272607
 20
170.820970
 30
0.0
 10
5.218507
 20
170.969370
 30
0.0
 10
5.178907
 20
171.124250
 30
0.0
 10
5.154507
 20
171.284820
 30
0.0
 10
5.146507
 20
171.450270
 30
0.0
 10
5.154507
 20
171.615720
 30
0.0
 10
5.178907
 20
171.776290
 30
0.0
 10
5.218507
 20
171.931170
 30
0.0
 10
5.272607
 20
172.079570
 30
0.0
 10
5.340407
 20
172.220690
 30
0.0
 10
5.421007
 20
172.353730
 30
0.0
 10
5.617747
 20
172.592380
 30
0.0
 10
5.856397
 20
172.789120
 30
0.0
 10
5.989437
 20
172.869820
 30
0.0
 10
6.130567
 20
172.937620
 30
0.0
 10
6.278967
 20
172.991720
 30
0.0
 10
6.433847
 20
173.031320
 30
0.0
 10
6.594417
 20
173.055720
 30
0.0
 10
6.759867
 20
173.063720
 30
0.0
  0
LWPOLYLINE
  5
103
100
AcDbEntity
  8
Layer_2
 62
1
100
AcDbPolyline
 90
4
 70
1
 10
0.050000
 20
168.449990
 30
0.0
 10
60.755027
 20
168.449990
 30
0.0
 10
60.755027
 20
296.950000
 30
0.0
 10
0.050000
 20
296.950000
 30
0.0
  0
LWPOLYLINE
  5
104
100
AcDbEntity
  8
Layer_2
 62
1
100
AcDbPolyline
 90
59
 70
1
 10
52.489338
 20
173.063730
 30
0.0
 10
54.189338
 20
173.063730
 30
0.0
 10
54.354788
 20
173.055730
 30
0.0
 10
54.515348
 20
173.031330
 30
0.0
 10
54.670238
 20
172.991730
 30
0.0
 10
54.818638
 20
172.937630
 30
0.0
 10
54.959758
 20
172.869830
 30
0.0
 10
55.092798
 20
172.789130
 30
0.0
 10
55.331448
 20
172.592390
 30
0.0
 10
55.528188
 20
172.353740
 30
0.0
 10
55.608888
 20
172.220700
 30
0.0
 10
55.676688
 20
172.079580
 30
0.0
 10
55.730788
 20
171.931180
 30
0.0
 10
55.770388
 20
171.776300
 30
0.0
 10
55.794788
 20
171.615730
 30
0.0
 10
55.802788
 20
171.450280
 30
0.0
 10
55.794788
 20
171.284830
 30
0.0
 10
55.770388
 20
171.124260
 30
0.0
 10
55.730788
 20
170.969380
 30
0.0
 10
55.676688
 20
170.820980
 30
0.0
 10
55.608888
 20
170.679860
 30
0.0
 10
55.528188
 20
170.546820
 30
0.0
 10
55.331448
 20
170.308170
 30
0.0
 10
55.092798
 20
170.111430
 30
0.0
 10
54.959758
 20
170.030730
 30
0.0
 10
54.818638
 20
169.962930
 30
0.0
 10
54.670238
 20
169.908830
 30
0.0
 10
54.515348
 20
169.869230
 30
0.0
 10
54.354788
 20
169.844830
 30
0.0
 10
54.189338
 20
169.836830
 30
0.0
 10
52.489338
 20
169.836830
 30
0.0
 10
52.323888
 20
169.844830
 30
0.0
 10
52.163318
 20
169.869230
 30
0.0
 10
52.008438
 20
169.908830
 30
0.0
 10
51.860038
 20
169.962930
 30
0.0
 10
51.718908
 20
170.030730
 30
0.0
 10
51.585868
 20
170.111430
 30
0.0
 10
51.347218
 20
170.308170
 30
0.0
 10
51.150478
 20
170.546820
 30
0.0
 10
51.069878
 20
170.679860
 30
0.0
 10
51.002078
 20
170.820980
 30
0.0
 10
50.947978
 20
170.969380
 30
0.0
 10
50.908378
 20
171.124260
 30
0.0
 10
50.883978
 20
171.284830
 30
0.0
 10
50.875978
 20
171.450280
 30
0.0
 10
50.883978
 20
171.615730
 30
0.0
 10
50.908378
 20
171.776300
 30
0.0
 10
50.947978
 20
171.931180
 30
0.0
 10
51.002078
 20
172.079580
 30
0.0
 10
51.069878
 20
172.220700
 30
0.0
 10
51.150478
 20
172.353740
 30
0.0
 10
51.347218
 20
172.592390
 30
0.0
 10
51.585868
 20
172.789130
 30
0.0
 10
51.718908
 20
172.869830
 30
0.0
 10
51.860038
 20
172.937630
 30
0.0
 10
52.008438
 20
172.991730
 30
0.0
 10
52.163318
 20
173.031330
 30
0.0
 10
52.323888
 20
173.055730
 30
0.0
 10
52.489338
 20
173.063730
 30
0.0
  0
LWPOLYLINE
  5
105
100
AcDbEntity
  8
Layer_2
 62
1
100
AcDbPolyline
 90
59
 70
1
 10
52.418628
 20
295.563720
 30
0.0
 10
54.118628
 20
295.563720
 30
0.0
 10
54.284078
 20
295.555720
 30
0.0
 10
54.444638
 20
295.531320
 30
0.0
 10
54.599528
 20
295.491720
 30
0.0
 10
54.747928
 20
295.437620
 30
0.0
 10
54.889048
 20
295.369820
 30
0.0
 10
55.022088
 20
295.289220
 30
0.0
 10
55.260738
 20
295.092470
 30
0.0
 10
55.457478
 20
294.853830
 30
0.0
 10
55.538178
 20
294.720780
 30
0.0
 10
55.605978
 20
294.579660
 30
0.0
 10
55.660078
 20
294.431260
 30
0.0
 10
55.699678
 20
294.276380
 30
0.0
 10
55.724078
 20
294.115810
 30
0.0
 10
55.732078
 20
293.950360
 30
0.0
 10
55.724078
 20
293.784910
 30
0.0
 10
55.699678
 20
293.624350
 30
0.0
 10
55.660078
 20
293.469460
 30
0.0
 10
55.605978
 20
293.321060
 30
0.0
 10
55.538178
 20
293.179940
 30
0.0
 10
55.457478
 20
293.046900
 30
0.0
 10
55.260738
 20
292.808250
 30
0.0
 10
55.022088
 20
292.611510
 30
0.0
 10
54.889048
 20
292.530810
 30
0.0
 10
54.747928
 20
292.463010
 30
0.0
 10
54.599528
 20
292.408910
 30
0.0
 10
54.444638
 20
292.369310
 30
0.0
 10
54.284078
 20
292.344910
 30
0.0
 10
54.118628
 20
292.336910
 30
0.0
 10
52.418628
 20
292.336910
 30
0.0
 10
52.253178
 20
292.344910
 30
0.0
 10
52.092608
 20
292.369310
 30
0.0
 10
51.937728
 20
292.408910
 30
0.0
 10
51.789328
 20
292.463010
 30
0.0
 10
51.648198
 20
292.530810
 30
0.0
 10
51.515158
 20
292.611510
 30
0.0
 10
51.276508
 20
292.808250
 30
0.0
 10
51.079768
 20
293.046900
 30
0.0
 10
50.999068
 20
293.179940
 30
0.0
 10
50.931268
 20
293.321060
 30
0.0
 10
50.877168
 20
293.469460
 30
0.0
 10
50.837568
 20
293.624340
 30
0.0
 10
50.813168
 20
293.784910
 30
0.0
 10
50.805168
 20
293.950360
 30
0.0
 10
50.813168
 20
294.115810
 30
0.0
 10
50.837568
 20
294.276380
 30
0.0
 10
50.877168
 20
294.431260
 30
0.0
 10
50.931268
 20
294.579660
 30
0.0
 10
50.999068
 20
294.720780
 30
0.0
 10
51.079768
 20
294.853820
 30
0.0
 10
51.276508
 20
295.092470
 30
0.0
 10
51.515158
 20
295.289210
 30
0.0
 10
51.648198
 20
295.369910
 30
0.0
 10
51.789328
 20
295.437710
 30
0.0
 10
51.937728
 20
295.491810
 30
0.0
 10
52.092608
 20
295.531410
 30
0.0
 10
52.253178
 20
295.555810
 30
0.0
 10
52.418628
 20
295.563810
 30
0.0
  0
LWPOLYLINE
  5
106
100
AcDbEntity
  8
Layer_2
 62
1
100
AcDbPolyline
 90
4
 70
1
 10
18.395177
 20
276.457800
 30
0.0
 10
42.360176
 20
276.457800
 30
0.0
 10
42.360176
 20
268.456410
 30
0.0
 10
18.395177
 20
268.456410
 30
0.0
  0
SPLINE
  5
107
100
AcDbEntity
  8
Layer_2
 62
1
100
AcDbSpline
 70
0
 71
3
 72
25
 73
21
 74
19
 40
0.000000
 40
0.000000
 40
0.000000
 40
0.000000
 40
0.783256
 40
1.560030
 40
2.343287
 40
3.126543
 40
3.903317
 40
4.686573
 40
5.469829
 40
6.246604
 40
7.029860
 40
7.813116
 40
8.589890
 40
9.373146
 40
10.937589
 40
12.455630
 40
14.020073
 40
15.584515
 40
17.102557
 40
18.666999
 40
18.666999
 40
18.666999
 40
18.666999
 10
17.843906
 20
257.277370
 30
0.0
 10
17.823961
 20
257.015537
 30
0.0
 10
17.784235
 20
256.494036
 30
0.0
 10
17.470290
 20
255.764219
 30
0.0
 10
16.992652
 20
255.137193
 30
0.0
 10
16.364786
 20
254.656417
 30
0.0
 10
15.635194
 20
254.354117
 30
0.0
 10
14.851800
 20
254.250702
 30
0.0
 10
14.068484
 20
254.354118
 30
0.0
 10
13.338658
 20
254.656410
 30
0.0
 10
12.711655
 20
255.137218
 30
0.0
 10
12.230805
 20
255.764126
 30
0.0
 10
11.928784
 20
256.494381
 30
0.0
 10
11.789509
 20
257.536665
 30
0.0
 10
12.140720
 20
258.845436
 30
0.0
 10
13.284490
 20
259.987877
 30
0.0
 10
14.854528
 20
260.412286
 30
0.0
 10
16.408439
 20
259.988218
 30
0.0
 10
17.599631
 20
258.844101
 30
0.0
 10
17.761668
 20
257.804829
 30
0.0
 10
17.843906
 20
257.277370
 30
0.0
 11
17.843906
 21
257.277370
 31
0.0
 11
17.741397
 21
256.500851
 31
0.0
 11
17.444140
 21
255.783204
 31
0.0
 11
16.967545
 21
255.161636
 31
0.0
 11
16.345978
 21
254.685039
 31
0.0
 11
15.628332
 21
254.387780
 31
0.0
 11
14.851813
 21
254.285269
 31
0.0
 11
14.075294
 21
254.387780
 31
0.0
 11
13.357648
 21
254.685039
 31
0.0
 11
12.736081
 21
255.161636
 31
0.0
 11
12.259486
 21
255.783204
 31
0.0
 11
11.962229
 21
256.500851
 31
0.0
 11
11.859720
 21
257.277370
 31
0.0
 11
12.268229
 21
258.787536
 31
0.0
 11
13.341647
 21
259.860953
 31
0.0
 11
14.851813
 21
260.269461
 31
0.0
 11
16.361979
 21
259.860953
 31
0.0
 11
17.435397
 21
258.787536
 31
0.0
 11
17.843906
 21
257.277370
 31
0.0
  0
LWPOLYLINE
  5
108
100
AcDbEntity
  8
Layer_2
 62
1
100
AcDbPolyline
 90
32
 70
1
 10
52.339182
 20
277.242804
 30
0.0
 10
52.888653
 20
277.242804
 30
0.0
 10
53.438143
 20
277.242804
 30
0.0
 10
53.987613
 20
277.242804
 30
0.0
 10
54.537102
 20
277.242804
 30
0.0
 10
55.086591
 20
277.242804
 30
0.0
 10
55.636061
 20
277.242804
 30
0.0
 10
56.185551
 20
277.242804
 30
0.0
 10
56.735022
 20
277.242804
 30
0.0
 10
56.735022
 20
276.693324
 30
0.0
 10
56.735022
 20
276.143844
 30
0.0
 10
56.735022
 20
275.594364
 30
0.0
 10
56.735022
 20
275.044883
 30
0.0
 10
56.735022
 20
274.495404
 30
0.0
 10
56.735022
 20
273.945924
 30
0.0
 10
56.735022
 20
273.396444
 30
0.0
 10
56.735022
 20
272.846964
 30
0.0
 10
56.185551
 20
272.846964
 30
0.0
 10
55.636061
 20
272.846964
 30
0.0
 10
55.086591
 20
272.846964
 30
0.0
 10
54.537102
 20
272.846964
 30
0.0
 10
53.987613
 20
272.846964
 30
0.0
 10
53.438143
 20
272.846964
 30
0.0
 10
52.888653
 20
272.846964
 30
0.0
 10
52.339182
 20
272.846964
 30
0.0
 10
52.339182
 20
273.396444
 30
0.0
 10
52.339182
 20
273.945924
 30
0.0
 10
52.339182
 20
274.495404
 30
0.0
 10
52.339182
 20
275.044883
 30
0.0
 10
52.339182
 20
275.594364
 30
0.0
 10
52.339182
 20
276.143844
 30
0.0
 10
52.339182
 20
276.693324
 30
0.0
  0
SPLINE
  5
109
100
AcDbEntity
  8
Layer_2
 62
6
100
AcDbSpline
 70
0
 71
3
 72
25
 73
21
 74
19
 40
0.000000
 40
0.000000
 40
0.000000
 40
0.000000
 40
1.748587
 40
3.445311
 40
5.193897
 40
6.942484
 40
8.639208
 40
10.387794
 40
11.263244
 40
12.131449
 40
13.006899
 40
13.882349
 40
14.750554
 40
15.626004
 40
16.501454
 40
17.369659
 40
18.245108
 40
19.120558
 40
19.988763
 40
20.864213
 40
20.864213
 40
20.864213
 40
20.864213
 10
18.196093
 20
214.733020
 30
0.0
 10
18.104175
 20
214.143476
 30
0.0
 10
17.923065
 20
212.981875
 30
0.0
 10
16.591663
 20
211.703089
 30
0.0
 10
14.854847
 20
211.229106
 30
0.0
 10
13.100007
 20
211.703470
 30
0.0
 10
11.821608
 20
212.980384
 30
0.0
 10
11.429057
 20
214.443204
 30
0.0
 10
11.584726
 20
215.608171
 30
0.0
 10
11.922297
 20
216.424381
 30
0.0
 10
12.459746
 20
217.125079
 30
0.0
 10
13.160551
 20
217.662481
 30
0.0
 10
13.976282
 20
218.000355
 30
0.0
 10
14.851798
 20
218.115944
 30
0.0
 10
15.727403
 20
218.000356
 30
0.0
 10
16.542872
 20
217.662474
 30
0.0
 10
17.244641
 20
217.125107
 30
0.0
 10
17.778499
 20
216.424277
 30
0.0
 10
18.129398
 20
215.608556
 30
0.0
 10
18.173800
 20
215.025673
 30
0.0
 10
18.196093
 20
214.733020
 30
0.0
 11
18.196093
 21
214.733020
 31
0.0
 11
17.739500
 21
213.045099
 31
0.0
 11
16.539734
 21
211.845334
 31
0.0
 11
14.851813
 21
211.388742
 31
0.0
 11
13.163892
 21
211.845334
 31
0.0
 11
11.964126
 21
213.045099
 31
0.0
 11
11.507533
 21
214.733020
 31
0.0
 11
11.622108
 21
215.600940
 31
0.0
 11
11.954355
 21
216.403057
 31
0.0
 11
12.487047
 21
217.097788
 31
0.0
 11
13.181777
 21
217.630482
 31
0.0
 11
13.983893
 21
217.962731
 31
0.0
 11
14.851813
 21
218.077308
 31
0.0
 11
15.719733
 21
217.962731
 31
0.0
 11
16.521849
 21
217.630482
 31
0.0
 11
17.216579
 21
217.097788
 31
0.0
 11
17.749271
 21
216.403057
 31
0.0
 11
18.081518
 21
215.600940
 31
0.0
 11
18.196093
 21
214.733020
 31
0.0
  0
LWPOLYLINE
  5
10a
100
AcDbEntity
  8
Layer_2
 62
6
100
AcDbPolyline
 90
1
 70
1
 10
18.196093
 20
214.733020
 30
0.0
  0
SPLINE
  5
10b
100
AcDbEntity
  8
Layer_2
 62
1
100
AcDbSpline
 70
0
 71
3
 72
25
 73
21
 74
19
 40
0.000000
 40
0.000000
 40
0.000000
 40
0.000000
 40
0.783302
 40
1.560122
 40
2.343424
 40
3.126727
 40
3.903547
 40
4.686849
 40
5.470151
 40
6.246971
 40
7.030273
 40
7.813576
 40
8.590396
 40
9.373698
 40
10.938231
 40
12.456361
 40
14.020894
 40
15.585427
 40
17.103557
 40
18.668090
 40
18.668090
 40
18.668090
 40
18.668090
 10
48.035158
 20
197.262269
 30
0.0
 10
48.015212
 20
197.000420
 30
0.0
 10
47.975485
 20
196.478889
 30
0.0
 10
47.661522
 20
195.749029
 30
0.0
 10
47.183857
 20
195.121965
 30
0.0
 10
46.555954
 20
194.641160
 30
0.0
 10
45.826319
 20
194.338842
 30
0.0
 10
45.042879
 20
194.235421
 30
0.0
 10
44.259517
 20
194.338844
 30
0.0
 10
43.529648
 20
194.641154
 30
0.0
 10
42.902608
 20
195.121990
 30
0.0
 10
42.421731
 20
195.748936
 30
0.0
 10
42.119693
 20
196.479234
 30
0.0
 10
41.980412
 20
197.521579
 30
0.0
 10
42.331641
 20
198.830426
 30
0.0
 10
43.475479
 20
199.972934
 30
0.0
 10
45.045607
 20
200.397367
 30
0.0
 10
46.599608
 20
199.973275
 30
0.0
 10
47.790869
 20
198.829091
 30
0.0
 10
47.952915
 20
197.789758
 30
0.0
 10
48.035158
 20
197.262269
 30
0.0
 11
48.035158
 21
197.262269
 31
0.0
 11
47.932644
 21
196.485704
 31
0.0
 11
47.635370
 21
195.768015
 31
0.0
 11
47.158748
 21
195.146409
 31
0.0
 11
46.537144
 21
194.669784
 31
0.0
 11
45.819457
 21
194.372507
 31
0.0
 11
45.042892
 21
194.269990
 31
0.0
 11
44.266327
 21
194.372507
 31
0.0
 11
43.548640
 21
194.669784
 31
0.0
 11
42.927036
 21
195.146409
 31
0.0
 11
42.450414
 21
195.768015
 31
0.0
 11
42.153140
 21
196.485704
 31
0.0
 11
42.050626
 21
197.262269
 31
0.0
 11
42.459159
 21
198.772522
 31
0.0
 11
43.532638
 21
199.846002
 31
0.0
 11
45.042892
 21
200.254534
 31
0.0
 11
46.553146
 21
199.846002
 31
0.0
 11
47.626625
 21
198.772522
 31
0.0
 11
48.035158
 21
197.262269
 31
0.0
  0
LWPOLYLINE
  5
10c
100
AcDbEntity
  8
Layer_2
 62
1
100
AcDbPolyline
 90
1
 70
1
 10
48.035158
 20
197.262269
 30
0.0
  0
SPLINE
  5
10d
100
AcDbEntity
  8
Layer_2
 62
1
100
AcDbSpline
 70
0
 71
3
 72
25
 73
21
 74
19
 40
0.000000
 40
0.000000
 40
0.000000
 40
0.000000
 40
0.389745
 40
0.776265
 40
1.166011
 40
1.555756
 40
1.942276
 40
2.332022
 40
2.721767
 40
3.108287
 40
3.498033
 40
3.887778
 40
4.274298
 40
4.664044
 40
5.442503
 40
6.197873
 40
6.976332
 40
7.754792
 40
8.510162
 40
9.288621
 40
9.288621
 40
9.288621
 40
9.288621
 10
31.326219
 20
257.277370
 30
0.0
 10
31.316295
 20
257.147083
 30
0.0
 10
31.296528
 20
256.887586
 30
0.0
 10
31.140311
 20
256.524431
 30
0.0
 10
30.902641
 20
256.212425
 30
0.0
 10
30.590217
 20
255.973192
 30
0.0
 10
30.227175
 20
255.822768
 30
0.0
 10
29.837360
 20
255.771309
 30
0.0
 10
29.447585
 20
255.822769
 30
0.0
 10
29.084427
 20
255.973189
 30
0.0
 10
28.772432
 20
256.212437
 30
0.0
 10
28.533164
 20
256.524385
 30
0.0
 10
28.382880
 20
256.887757
 30
0.0
 10
28.313579
 20
257.406394
 30
0.0
 10
28.488339
 20
258.057632
 30
0.0
 10
29.057475
 20
258.626105
 30
0.0
 10
29.838718
 20
258.837289
 30
0.0
 10
30.611937
 20
258.626275
 30
0.0
 10
31.204668
 20
258.056968
 30
0.0
 10
31.285298
 20
257.539831
 30
0.0
 10
31.326219
 20
257.277370
 30
0.0
 11
31.326219
 21
257.277370
 31
0.0
 11
31.275212
 21
256.890977
 31
0.0
 11
31.127299
 21
256.533878
 31
0.0
 11
30.890147
 21
256.224587
 31
0.0
 11
30.580858
 21
255.987434
 31
0.0
 11
30.223760
 21
255.839519
 31
0.0
 11
29.837367
 21
255.788510
 31
0.0
 11
29.450974
 21
255.839519
 31
0.0
 11
29.093876
 21
255.987434
 31
0.0
 11
28.784587
 21
256.224587
 31
0.0
 11
28.547435
 21
256.533878
 31
0.0
 11
28.399522
 21
256.890977
 31
0.0
 11
28.348515
 21
257.277370
 31
0.0
 11
28.551788
 21
258.028821
 31
0.0
 11
29.085915
 21
258.562948
 31
0.0
 11
29.837367
 21
258.766220
 31
0.0
 11
30.588819
 21
258.562948
 31
0.0
 11
31.122946
 21
258.028821
 31
0.0
 11
31.326219
 21
257.277370
 31
0.0
  0
LWPOLYLINE
  5
10e
100
AcDbEntity
  8
Layer_2
 62
1
100
AcDbPolyline
 90
1
 70
1
 10
31.326219
 20
257.277370
 30
0.0
  0
SPLINE
  5
10f
100
AcDbEntity
  8
Layer_2
 62
1
100
AcDbSpline
 70
0
 71
3
 72
25
 73
21
 74
19
 40
0.000000
 40
0.000000
 40
0.000000
 40
0.000000
 40
1.566829
 40
3.087186
 40
4.654015
 40
6.220844
 40
7.741201
 40
9.308030
 40
10.092481
 40
10.870440
 40
11.654891
 40
12.439342
 40
13.217301
 40
14.001752
 40
14.786203
 40
15.564162
 40
16.348613
 40
17.133063
 40
17.911023
 40
18.695474
 40
18.695474
 40
18.695474
 40
18.695474
 10
48.039549
 20
214.733020
 30
0.0
 10
47.957185
 20
214.204757
 30
0.0
 10
47.794901
 20
213.163899
 30
0.0
 10
46.601892
 20
212.018036
 30
0.0
 10
45.045611
 20
211.593323
 30
0.0
 10
43.473179
 20
212.018378
 30
0.0
 10
42.327663
 20
213.162562
 30
0.0
 10
41.975917
 20
214.473329
 30
0.0
 10
42.115404
 20
215.517203
 30
0.0
 10
42.417886
 20
216.248572
 30
0.0
 10
42.899469
 20
216.876436
 30
0.0
 10
43.527429
 20
217.357978
 30
0.0
 10
44.258368
 20
217.660731
 30
0.0
 10
45.042879
 20
217.764305
 30
0.0
 10
45.827468
 20
217.660732
 30
0.0
 10
46.558173
 20
217.357971
 30
0.0
 10
47.186997
 20
216.876461
 30
0.0
 10
47.665363
 20
216.248479
 30
0.0
 10
47.979787
 20
215.517549
 30
0.0
 10
48.019573
 20
214.995253
 30
0.0
 10
48.039549
 20
214.733020
 30
0.0
 11
48.039549
 21
214.733020
 31
0.0
 11
47.630417
 21
213.220551
 31
0.0
 11
46.555362
 21
212.145496
 31
0.0
 11
45.042892
 21
211.736365
 31
0.0
 11
43.530422
 21
212.145496
 31
0.0
 11
42.455367
 21
213.220551
 31
0.0
 11
42.046235
 21
214.733020
 31
0.0
 11
42.148900
 21
215.510724
 31
0.0
 11
42.446611
 21
216.229465
 31
0.0
 11
42.923933
 21
216.851982
 31
0.0
 11
43.546448
 21
217.329305
 31
0.0
 11
44.265189
 21
217.627018
 31
0.0
 11
45.042892
 21
217.729685
 31
0.0
 11
45.820595
 21
217.627018
 31
0.0
 11
46.539336
 21
217.329305
 31
0.0
 11
47.161851
 21
216.851982
 31
0.0
 11
47.639173
 21
216.229465
 31
0.0
 11
47.936884
 21
215.510724
 31
0.0
 11
48.039549
 21
214.733020
 31
0.0
  0
LWPOLYLINE
  5
110
100
AcDbEntity
  8
Layer_2
 62
1
100
AcDbPolyline
 90
1
 70
1
 10
48.039549
 20
214.733020
 30
0.0
  0
SPLINE
  5
111
100
AcDbEntity
  8
Layer_2
 62
1
100
AcDbSpline
 70
0
 71
3
 72
19
 73
15
 74
13
 40
0.000000
 40
0.000000
 40
0.000000
 40
0.000000
 40
1.566750
 40
3.087030
 40
4.653780
 40
6.220530
 40
7.740811
 40
9.307560
 40
10.874310
 40
12.394591
 40
13.961341
 40
15.528091
 40
17.048371
 40
18.615121
 40
18.615121
 40
18.615121
 40
18.615121
 10
17.848319
 20
239.684560
 30
0.0
 10
17.765960
 20
239.156326
 30
0.0
 10
17.603686
 20
238.115524
 30
0.0
 10
16.410726
 20
236.969688
 30
0.0
 10
14.854563
 20
236.545120
 30
0.0
 10
13.282062
 20
236.969688
 30
0.0
 10
12.137148
 20
238.115524
 30
0.0
 10
11.712265
 20
239.684560
 30
0.0
 10
12.137148
 20
241.253596
 30
0.0
 10
13.282062
 20
242.399432
 30
0.0
 10
14.854563
 20
242.824000
 30
0.0
 10
16.410726
 20
242.399432
 30
0.0
 10
17.603686
 20
241.253596
 30
0.0
 10
17.765960
 20
240.212794
 30
0.0
 10
17.848319
 20
239.684560
 30
0.0
 11
17.848319
 21
239.684560
 31
0.0
 11
17.439207
 21
238.172167
 31
0.0
 11
16.364206
 21
237.097167
 31
0.0
 11
14.851813
 21
236.688056
 31
0.0
 11
13.339420
 21
237.097167
 31
0.0
 11
12.264419
 21
238.172167
 31
0.0
 11
11.855307
 21
239.684560
 31
0.0
 11
12.264419
 21
241.196953
 31
0.0
 11
13.339420
 21
242.271953
 31
0.0
 11
14.851813
 21
242.681064
 31
0.0
 11
16.364206
 21
242.271953
 31
0.0
 11
17.439207
 21
241.196953
 31
0.0
 11
17.848319
 21
239.684560
 31
0.0
  0
LWPOLYLINE
  5
112
100
AcDbEntity
  8
Layer_2
 62
1
100
AcDbPolyline
 90
1
 70
1
 10
17.848319
 20
239.684560
 30
0.0
  0
LWPOLYLINE
  5
113
100
AcDbEntity
  8
Layer_2
 62
1
100
AcDbPolyline
 90
1
 70
1
 10
9.890240
 20
268.523640
 30
0.0
  0
LWPOLYLINE
  5
114
100
AcDbEntity
  8
Layer_2
 62
1
100
AcDbPolyline
 90
32
 70
1
 10
52.339182
 20
241.869720
 30
0.0
 10
52.888653
 20
241.869720
 30
0.0
 10
53.438143
 20
241.869720
 30
0.0
 10
53.987613
 20
241.869720
 30
0.0
 10
54.537102
 20
241.869720
 30
0.0
 10
55.086591
 20
241.869720
 30
0.0
 10
55.636061
 20
241.869720
 30
0.0
 10
56.185551
 20
241.869720
 30
0.0
 10
56.735022
 20
241.869720
 30
0.0
 10
56.735022
 20
241.320240
 30
0.0
 10
56.735022
 20
240.770760
 30
0.0
 10
56.735022
 20
240.221280
 30
0.0
 10
56.735022
 20
239.671799
 30
0.0
 10
56.735022
 20
239.122320
 30
0.0
 10
56.735022
 20
238.572840
 30
0.0
 10
56.735022
 20
238.023360
 30
0.0
 10
56.735022
 20
237.473880
 30
0.0
 10
56.185551
 20
237.473880
 30
0.0
 10
55.636061
 20
237.473880
 30
0.0
 10
55.086591
 20
237.473880
 30
0.0
 10
54.537102
 20
237.473880
 30
0.0
 10
53.987613
 20
237.473880
 30
0.0
 10
53.438143
 20
237.473880
 30
0.0
 10
52.888653
 20
237.473880
 30
0.0
 10
52.339182
 20
237.473880
 30
0.0
 10
52.339182
 20
238.023360
 30
0.0
 10
52.339182
 20
238.572840
 30
0.0
 10
52.339182
 20
239.122320
 30
0.0
 10
52.339182
 20
239.671799
 30
0.0
 10
52.339182
 20
240.221280
 30
0.0
 10
52.339182
 20
240.770760
 30
0.0
 10
52.339182
 20
241.320240
 30
0.0
  0
LWPOLYLINE
  5
115
100
AcDbEntity
  8
Layer_2
 62
1
100
AcDbPolyline
 90
32
 70
1
 10
52.339182
 20
248.944337
 30
0.0
 10
52.888653
 20
248.944337
 30
0.0
 10
53.438143
 20
248.944337
 30
0.0
 10
53.987613
 20
248.944337
 30
0.0
 10
54.537102
 20
248.944337
 30
0.0
 10
55.086591
 20
248.944337
 30
0.0
 10
55.636061
 20
248.944337
 30
0.0
 10
56.185551
 20
248.944337
 30
0.0
 10
56.735022
 20
248.944337
 30
0.0
 10
56.735022
 20
248.394857
 30
0.0
 10
56.735022
 20
247.845377
 30
0.0
 10
56.735022
 20
247.295897
 30
0.0
 10
56.735022
 20
246.746416
 30
0.0
 10
56.735022
 20
246.196937
 30
0.0
 10
56.735022
 20
245.647457
 30
0.0
 10
56.735022
 20
245.097977
 30
0.0
 10
56.735022
 20
244.548497
 30
0.0
 10
56.185551
 20
244.548497
 30
0.0
 10
55.636061
 20
244.548497
 30
0.0
 10
55.086591
 20
244.548497
 30
0.0
 10
54.537102
 20
244.548497
 30
0.0
 10
53.987613
 20
244.548497
 30
0.0
 10
53.438143
 20
244.548497
 30
0.0
 10
52.888653
 20
244.548497
 30
0.0
 10
52.339182
 20
244.548497
 30
0.0
 10
52.339182
 20
245.097977
 30
0.0
 10
52.339182
 20
245.647457
 30
0.0
 10
52.339182
 20
246.196937
 30
0.0
 10
52.339182
 20
246.746416
 30
0.0
 10
52.339182
 20
247.295897
 30
0.0
 10
52.339182
 20
247.845377
 30
0.0
 10
52.339182
 20
248.394857
 30
0.0
  0
LWPOLYLINE
  5
116
100
AcDbEntity
  8
Layer_2
 62
1
100
AcDbPolyline
 90
32
 70
1
 10
52.339182
 20
256.018956
 30
0.0
 10
52.888653
 20
256.018956
 30
0.0
 10
53.438143
 20
256.018956
 30
0.0
 10
53.987613
 20
256.018956
 30
0.0
 10
54.537102
 20
256.018956
 30
0.0
 10
55.086591
 20
256.018956
 30
0.0
 10
55.636061
 20
256.018956
 30
0.0
 10
56.185551
 20
256.018956
 30
0.0
 10
56.735022
 20
256.018956
 30
0.0
 10
56.735022
 20
255.469476
 30
0.0
 10
56.735022
 20
254.919996
 30
0.0
 10
56.735022
 20
254.370516
 30
0.0
 10
56.735022
 20
253.821035
 30
0.0
 10
56.735022
 20
253.271556
 30
0.0
 10
56.735022
 20
252.722076
 30
0.0
 10
56.735022
 20
252.172596
 30
0.0
 10
56.735022
 20
251.623116
 30
0.0
 10
56.185551
 20
251.623116
 30
0.0
 10
55.636061
 20
251.623116
 30
0.0
 10
55.086591
 20
251.623116
 30
0.0
 10
54.537102
 20
251.623116
 30
0.0
 10
53.987613
 20
251.623116
 30
0.0
 10
53.438143
 20
251.623116
 30
0.0
 10
52.888653
 20
251.623116
 30
0.0
 10
52.339182
 20
251.623116
 30
0.0
 10
52.339182
 20
252.172596
 30
0.0
 10
52.339182
 20
252.722076
 30
0.0
 10
52.339182
 20
253.271556
 30
0.0
 10
52.339182
 20
253.821035
 30
0.0
 10
52.339182
 20
254.370516
 30
0.0
 10
52.339182
 20
254.919996
 30
0.0
 10
52.339182
 20
255.469476
 30
0.0
  0
LWPOLYLINE
  5
117
100
AcDbEntity
  8
Layer_2
 62
1
100
AcDbPolyline
 90
32
 70
1
 10
52.339182
 20
263.093573
 30
0.0
 10
52.888653
 20
263.093573
 30
0.0
 10
53.438143
 20
263.093573
 30
0.0
 10
53.987613
 20
263.093573
 30
0.0
 10
54.537102
 20
263.093573
 30
0.0
 10
55.086591
 20
263.093573
 30
0.0
 10
55.636061
 20
263.093573
 30
0.0
 10
56.185551
 20
263.093573
 30
0.0
 10
56.735022
 20
263.093573
 30
0.0
 10
56.735022
 20
262.544093
 30
0.0
 10
56.735022
 20
261.994613
 30
0.0
 10
56.735022
 20
261.445133
 30
0.0
 10
56.735022
 20
260.895652
 30
0.0
 10
56.735022
 20
260.346173
 30
0.0
 10
56.735022
 20
259.796693
 30
0.0
 10
56.735022
 20
259.247213
 30
0.0
 10
56.735022
 20
258.697733
 30
0.0
 10
56.185551
 20
258.697733
 30
0.0
 10
55.636061
 20
258.697733
 30
0.0
 10
55.086591
 20
258.697733
 30
0.0
 10
54.537102
 20
258.697733
 30
0.0
 10
53.987613
 20
258.697733
 30
0.0
 10
53.438143
 20
258.697733
 30
0.0
 10
52.888653
 20
258.697733
 30
0.0
 10
52.339182
 20
258.697733
 30
0.0
 10
52.339182
 20
259.247213
 30
0.0
 10
52.339182
 20
259.796693
 30
0.0
 10
52.339182
 20
260.346173
 30
0.0
 10
52.339182
 20
260.895652
 30
0.0
 10
52.339182
 20
261.445133
 30
0.0
 10
52.339182
 20
261.994613
 30
0.0
 10
52.339182
 20
262.544093
 30
0.0
  0
SPLINE
  5
118
100
AcDbEntity
  8
Layer_2
 62
1
100
AcDbSpline
 70
0
 71
3
 72
25
 73
21
 74
19
 40
0.000000
 40
0.000000
 40
0.000000
 40
0.000000
 40
0.389745
 40
0.776265
 40
1.166011
 40
1.555756
 40
1.942276
 40
2.332022
 40
2.721767
 40
3.108287
 40
3.498033
 40
3.887778
 40
4.274298
 40
4.664044
 40
5.442503
 40
6.197873
 40
6.976332
 40
7.754792
 40
8.510162
 40
9.288621
 40
9.288621
 40
9.288621
 40
9.288621
 10
9.890240
 20
268.523640
 30
0.0
 10
9.880316
 20
268.393353
 30
0.0
 10
9.860549
 20
268.133856
 30
0.0
 10
9.704332
 20
267.770701
 30
0.0
 10
9.466662
 20
267.458695
 30
0.0
 10
9.154238
 20
267.219462
 30
0.0
 10
8.791196
 20
267.069038
 30
0.0
 10
8.401381
 20
267.017579
 30
0.0
 10
8.011606
 20
267.069039
 30
0.0
 10
7.648448
 20
267.219459
 30
0.0
 10
7.336453
 20
267.458707
 30
0.0
 10
7.097185
 20
267.770655
 30
0.0
 10
6.946901
 20
268.134027
 30
0.0
 10
6.877600
 20
268.652664
 30
0.0
 10
7.052360
 20
269.303902
 30
0.0
 10
7.621496
 20
269.872375
 30
0.0
 10
8.402739
 20
270.083559
 30
0.0
 10
9.175958
 20
269.872545
 30
0.0
 10
9.768689
 20
269.303238
 30
0.0
 10
9.849319
 20
268.786101
 30
0.0
 10
9.890240
 20
268.523640
 30
0.0
 11
9.890240
 21
268.523640
 31
0.0
 11
9.839233
 21
268.137247
 31
0.0
 11
9.691320
 21
267.780148
 31
0.0
 11
9.454168
 21
267.470857
 31
0.0
 11
9.144879
 21
267.233704
 31
0.0
 11
8.787781
 21
267.085789
 31
0.0
 11
8.401388
 21
267.034780
 31
0.0
 11
8.014995
 21
267.085789
 31
0.0
 11
7.657897
 21
267.233704
 31
0.0
 11
7.348608
 21
267.470857
 31
0.0
 11
7.111456
 21
267.780148
 31
0.0
 11
6.963543
 21
268.137247
 31
0.0
 11
6.912536
 21
268.523640
 31
0.0
 11
7.115809
 21
269.275091
 31
0.0
 11
7.649936
 21
269.809218
 31
0.0
 11
8.401388
 21
270.012490
 31
0.0
 11
9.152840
 21
269.809218
 31
0.0
 11
9.686967
 21
269.275091
 31
0.0
 11
9.890240
 21
268.523640
 31
0.0
  0
LWPOLYLINE
  5
119
100
AcDbEntity
  8
Layer_2
 62
1
100
AcDbPolyline
 90
32
 70
1
 10
52.339182
 20
270.168188
 30
0.0
 10
52.888653
 20
270.168188
 30
0.0
 10
53.438143
 20
270.168188
 30
0.0
 10
53.987613
 20
270.168188
 30
0.0
 10
54.537102
 20
270.168188
 30
0.0
 10
55.086591
 20
270.168188
 30
0.0
 10
55.636061
 20
270.168188
 30
0.0
 10
56.185551
 20
270.168188
 30
0.0
 10
56.735022
 20
270.168188
 30
0.0
 10
56.735022
 20
269.618708
 30
0.0
 10
56.735022
 20
269.069228
 30
0.0
 10
56.735022
 20
268.519748
 30
0.0
 10
56.735022
 20
267.970267
 30
0.0
 10
56.735022
 20
267.420788
 30
0.0
 10
56.735022
 20
266.871308
 30
0.0
 10
56.735022
 20
266.321828
 30
0.0
 10
56.735022
 20
265.772348
 30
0.0
 10
56.185551
 20
265.772348
 30
0.0
 10
55.636061
 20
265.772348
 30
0.0
 10
55.086591
 20
265.772348
 30
0.0
 10
54.537102
 20
265.772348
 30
0.0
 10
53.987613
 20
265.772348
 30
0.0
 10
53.438143
 20
265.772348
 30
0.0
 10
52.888653
 20
265.772348
 30
0.0
 10
52.339182
 20
265.772348
 30
0.0
 10
52.339182
 20
266.321828
 30
0.0
 10
52.339182
 20
266.871308
 30
0.0
 10
52.339182
 20
267.420788
 30
0.0
 10
52.339182
 20
267.970267
 30
0.0
 10
52.339182
 20
268.519748
 30
0.0
 10
52.339182
 20
269.069228
 30
0.0
 10
52.339182
 20
269.618708
 30
0.0
  0
ENDSEC
  0
SECTION
  2
OBJECTS
  0
DICTIONARY
  5
C
330
0
100
AcDbDictionary
  3
ACAD_GROUP
350
D
  3
ACAD_MLINESTYLE
350
17
  0
DICTIONARY
  5
D
330
C
100
AcDbDictionary
  0
DICTIONARY
  5
1A
330
C
100
AcDbDictionary
  0
DICTIONARY
  5
17
330
C
100
AcDbDictionary
  3
STANDARD
350
18
  0
DICTIONARY
  5
19
330
C
100
AcDbDictionary
  0
ENDSEC
  0
EOF
