<?xml version="1.0" encoding="UTF-8" standalone="no"?>
<!-- Created with Inkscape (http://www.inkscape.org/) -->

<svg
   width="210mm"
   height="297mm"
   viewBox="0 0 210 297"
   version="1.1"
   id="svg52274"
   inkscape:version="1.1 (c4e8f9e, 2021-05-24)"
   sodipodi:docname="bioamp_frontplate.svg"
   xmlns:inkscape="http://www.inkscape.org/namespaces/inkscape"
   xmlns:sodipodi="http://sodipodi.sourceforge.net/DTD/sodipodi-0.dtd"
   xmlns="http://www.w3.org/2000/svg"
   xmlns:svg="http://www.w3.org/2000/svg">
  <sodipodi:namedview
     id="namedview52276"
     pagecolor="#ffffff"
     bordercolor="#666666"
     borderopacity="1.0"
     inkscape:pageshadow="2"
     inkscape:pageopacity="0.0"
     inkscape:pagecheckerboard="0"
     inkscape:document-units="mm"
     showgrid="false"
     inkscape:zoom="0.75187993"
     inkscape:cx="-111.05497"
     inkscape:cy="378.38488"
     inkscape:window-width="1864"
     inkscape:window-height="1016"
     inkscape:window-x="56"
     inkscape:window-y="27"
     inkscape:window-maximized="1"
     inkscape:current-layer="layer4"
     inkscape:snap-global="false"
     showguides="true"
     inkscape:guide-bbox="true" />
  <defs
     id="defs52271" />
  <g
     inkscape:label="Layer 1"
     inkscape:groupmode="layer"
     id="layer1"
     style="display:inline" />
  <g
     inkscape:groupmode="layer"
     id="layer4"
     inkscape:label="engravings"
     style="display:inline" />
  <g
     inkscape:groupmode="layer"
     id="layer2"
     inkscape:label="Layer 2"
     style="display:inline">
    <path
       id="circle9074-0"
       style="display:inline;fill:none;stroke:#ff0000;stroke-width:0.0945987;stroke-linecap:round;stroke-linejoin:round;stroke-miterlimit:9.25"
       d="m 17.843906,39.72263 a 2.9920932,2.9920932 0 0 1 -2.992093,2.992101 2.9920932,2.9920932 0 0 1 -2.992093,-2.992101 2.9920932,2.9920932 0 0 1 2.992093,-2.992091 2.9920932,2.9920932 0 0 1 2.992093,2.992091 z" />
    <path
       id="path2470"
       d="m 6.759867,1.43629 h 1.7 l 0.16545,0.008 0.16056,0.0244 0.15489,0.0396 0.1484,0.0541 0.14112,0.0678 0.13304,0.0806 0.23865,0.19675 0.19674,0.23864 0.0807,0.13305 0.0678,0.14112 0.0541,0.1484 0.0396,0.15488 0.0244,0.16057 0.008,0.16545 -0.008,0.16545 -0.0244,0.16056 -0.0396,0.15489 -0.0541,0.1484 -0.0678,0.14112 -0.0807,0.13304 -0.19674,0.23865 -0.23865,0.19674 -0.13304,0.0807 -0.14112,0.0678 -0.1484,0.0541 -0.15489,0.0396 -0.16056,0.0244 -0.16545,0.008 h -1.7 L 6.594417,4.6551 6.433847,4.6307 6.278967,4.5911 6.130567,4.537 5.989437,4.4692 5.856397,4.3885 5.617747,4.19176 5.421007,3.95311 l -0.0807,-0.13304 -0.0678,-0.14112 -0.0541,-0.1484 -0.0396,-0.15488 -0.0244,-0.16057 -0.008,-0.16545 0.008,-0.16545 0.0244,-0.16057 0.0396,-0.15488 0.0541,-0.1484 0.0678,-0.14112 0.0807,-0.13304 0.19674,-0.23865 0.23865,-0.19674 0.13304,-0.0807 0.14113,-0.0678 0.1484,-0.0541 0.15488,-0.0396 0.16057,-0.0244 0.16545,-0.008 v 0"
       style="display:inline;fill:none;fill-opacity:1;stroke:#ff0000;stroke-width:0.1;stroke-linecap:round;stroke-linejoin:miter;stroke-miterlimit:9.25;stroke-dasharray:none;stroke-opacity:1;paint-order:normal"
       inkscape:connector-curvature="0" />
    <path
       id="path2472"
       d="m 6.759867,123.93628 h 1.7 l 0.16545,0.008 0.16056,0.0244 0.15489,0.0396 0.1484,0.0541 0.14112,0.0678 0.13304,0.0807 0.23865,0.19674 0.19674,0.23865 0.0807,0.13304 0.0678,0.14112 0.0541,0.1484 0.0396,0.15488 0.0244,0.16057 0.008,0.16545 -0.008,0.16545 -0.0244,0.16057 -0.0396,0.15488 -0.0541,0.1484 -0.0678,0.14112 -0.0807,0.13304 -0.19674,0.23865 -0.23865,0.19674 -0.13304,0.0807 -0.14112,0.0678 -0.1484,0.0541 -0.15489,0.0396 -0.16056,0.0244 -0.16545,0.008 h -1.7 l -0.16545,-0.008 -0.16057,-0.0244 -0.15488,-0.0396 -0.1484,-0.0541 -0.14113,-0.0678 -0.13304,-0.0807 -0.23865,-0.19674 -0.19674,-0.23865 -0.0806,-0.13304 -0.0678,-0.14112 -0.0541,-0.1484 -0.0396,-0.15488 -0.0244,-0.16057 -0.008,-0.16545 0.008,-0.16545 0.0244,-0.16057 0.0396,-0.15488 0.0541,-0.1484 0.0678,-0.14112 0.0806,-0.13304 0.19674,-0.23865 0.23865,-0.19674 0.13304,-0.0807 0.14113,-0.0678 0.1484,-0.0541 0.15488,-0.0396 0.16057,-0.0244 0.16545,-0.008 v 0"
       style="display:inline;fill:none;fill-opacity:1;stroke:#ff0000;stroke-width:0.1;stroke-linecap:round;stroke-linejoin:miter;stroke-miterlimit:9.25;stroke-dasharray:none;stroke-opacity:1;paint-order:normal"
       inkscape:connector-curvature="0" />
    <path
       sodipodi:nodetypes="ccccc"
       inkscape:connector-curvature="0"
       id="path2474"
       style="display:inline;fill:none;stroke:#ff0000;stroke-width:0.1;stroke-linecap:round;stroke-linejoin:round;stroke-miterlimit:9.25;stroke-dasharray:none;stroke-opacity:1"
       d="M 0.05,128.55001 H 60.755027 V 0.05 H 0.05 v 128.50001" />
    <path
       id="path2482"
       d="m 52.489338,123.93627 h 1.7 l 0.16545,0.008 0.16056,0.0244 0.15489,0.0396 0.1484,0.0541 0.14112,0.0678 0.13304,0.0807 0.23865,0.19674 0.19674,0.23865 0.0807,0.13304 0.0678,0.14112 0.0541,0.1484 0.0396,0.15488 0.0244,0.16057 0.008,0.16545 -0.008,0.16545 -0.0244,0.16057 -0.0396,0.15488 -0.0541,0.1484 -0.0678,0.14112 -0.0807,0.13304 -0.19674,0.23865 -0.23865,0.19674 -0.13304,0.0807 -0.14112,0.0678 -0.1484,0.0541 -0.15489,0.0396 -0.16056,0.0244 -0.16545,0.008 h -1.7 l -0.16545,-0.008 -0.16057,-0.0244 -0.15488,-0.0396 -0.1484,-0.0541 -0.14113,-0.0678 -0.13304,-0.0807 -0.23865,-0.19674 -0.19674,-0.23865 -0.0806,-0.13304 -0.0678,-0.14112 -0.0541,-0.1484 -0.0396,-0.15488 -0.0244,-0.16057 -0.008,-0.16545 0.008,-0.16545 0.0244,-0.16057 0.0396,-0.15488 0.0541,-0.1484 0.0678,-0.14112 0.0806,-0.13304 0.19674,-0.23865 0.23865,-0.19674 0.13304,-0.0807 0.14113,-0.0678 0.1484,-0.0541 0.15488,-0.0396 0.16057,-0.0244 0.16545,-0.008 v 0"
       style="display:inline;fill:none;fill-opacity:1;stroke:#ff0000;stroke-width:0.1;stroke-linecap:round;stroke-linejoin:miter;stroke-miterlimit:9.25;stroke-dasharray:none;stroke-opacity:1;paint-order:normal"
       inkscape:connector-curvature="0" />
    <path
       id="path2484"
       d="m 52.418628,1.43628 h 1.7 l 0.16545,0.008 0.16056,0.0244 0.15489,0.0396 0.1484,0.0541 0.14112,0.0678 0.13304,0.0806 0.23865,0.19675 0.19674,0.23864 0.0807,0.13305 0.0678,0.14112 0.0541,0.1484 0.0396,0.15488 0.0244,0.16057 0.008,0.16545 -0.008,0.16545 -0.0244,0.16056 -0.0396,0.15489 -0.0541,0.1484 -0.0678,0.14112 -0.0807,0.13304 -0.19674,0.23865 -0.23865,0.19674 -0.13304,0.0807 -0.14112,0.0678 -0.1484,0.0541 -0.15489,0.0396 -0.16056,0.0244 -0.16545,0.008 h -1.7 l -0.16545,-0.008 -0.16057,-0.0244 -0.15488,-0.0396 -0.1484,-0.0541 -0.14113,-0.0678 -0.13304,-0.0807 -0.23865,-0.19674 -0.19674,-0.23865 -0.0807,-0.13304 -0.0678,-0.14112 -0.0541,-0.1484 -0.0396,-0.15488 -0.0244,-0.16057 -0.008,-0.16545 0.008,-0.16545 0.0244,-0.16057 0.0396,-0.15488 0.0541,-0.1484 0.0678,-0.14112 0.0807,-0.13304 0.19674,-0.23865 0.23865,-0.19674 0.13304,-0.0807 0.14113,-0.0678 0.1484,-0.0541 0.15488,-0.0396 0.16057,-0.0244 0.16545,-0.008 v 0"
       style="display:inline;fill:none;fill-opacity:1;stroke:#ff0000;stroke-width:0.1;stroke-linecap:round;stroke-linejoin:miter;stroke-miterlimit:9.25;stroke-dasharray:none;stroke-opacity:1;paint-order:normal"
       inkscape:connector-curvature="0" />
    <path
       id="rect8770"
       style="display:inline;fill:none;stroke:#ff0000;stroke-width:0.074;stroke-linecap:round;stroke-linejoin:round;stop-color:#000000"
       d="m 18.395177,20.5422 h 23.964999 v 8.00139 H 18.395177 Z" />
    <path
       id="path71970-6"
       style="display:inline;vector-effect:none;fill:none;fill-opacity:0.298039;stroke:#ff0000;stroke-width:0.032332;stroke-linecap:round;stroke-linejoin:round;stop-color:#000000"
       d="m 52.339182,19.757196 h 0.549471 0.54949 0.54947 0.549489 0.549489 0.54947 0.54949 0.549471 v 0.54948 0.54948 0.54948 0.549481 0.549479 0.54948 0.54948 0.54948 h -0.549471 -0.54949 -0.54947 -0.549489 -0.549489 -0.54947 -0.54949 -0.549471 v -0.54948 -0.54948 -0.54948 -0.549479 -0.549481 -0.54948 -0.54948 z"
       sodipodi:nodetypes="ccccccccccccccccccccccccccccccccc" />
    <path
       id="circle84396"
       style="display:inline;fill:none;stroke:#ff00ff;stroke-width:0.105734;stroke-linecap:round;stroke-linejoin:round;stroke-miterlimit:9.25"
       d="m 18.196093,82.26698 a 3.3442807,3.3442807 0 0 1 -3.34428,3.344278 3.3442807,3.3442807 0 0 1 -3.34428,-3.344278 3.3442807,3.3442807 0 0 1 3.34428,-3.344288 3.3442807,3.3442807 0 0 1 3.34428,3.344288 z" />
    <path
       id="circle84396-2"
       style="display:inline;fill:none;stroke:#ff0000;stroke-width:0.0946042;stroke-linecap:round;stroke-linejoin:round;stroke-miterlimit:9.25"
       d="m 48.035158,99.737731 a 2.9922665,2.9922665 0 0 1 -2.992266,2.992279 2.9922665,2.9922665 0 0 1 -2.992266,-2.992279 2.9922665,2.9922665 0 0 1 2.992266,-2.992265 2.9922665,2.9922665 0 0 1 2.992266,2.992265 z" />
    <path
       id="path103462-3"
       style="display:inline;fill:none;stroke:#ff0000;stroke-width:0.0470719;stroke-linecap:round;stroke-linejoin:round;stroke-miterlimit:9.25"
       d="m 31.326219,39.72263 a 1.4888519,1.4888519 0 0 1 -1.488852,1.48886 1.4888519,1.4888519 0 0 1 -1.488852,-1.48886 1.4888519,1.4888519 0 0 1 1.488852,-1.48885 1.4888519,1.4888519 0 0 1 1.488852,1.48885 z" />
    <path
       id="path104379"
       style="display:inline;fill:none;stroke:#ff0000;stroke-width:0.094743;stroke-linecap:round;stroke-linejoin:round;stroke-miterlimit:9.25"
       d="m 48.039549,82.26698 a 2.9966569,2.9966569 0 0 1 -2.996657,2.996655 2.9966569,2.9966569 0 0 1 -2.996657,-2.996655 2.9966569,2.9966569 0 0 1 2.996657,-2.996665 2.9966569,2.9966569 0 0 1 2.996657,2.996665 z" />
    <path
       id="path104894"
       style="display:inline;fill:none;stroke:#ff0000;stroke-width:0.0947382;stroke-linecap:round;stroke-linejoin:round;stroke-miterlimit:9.25"
       d="m 17.848319,57.31544 a 2.9965062,2.9965062 0 0 1 -2.996506,2.996504 2.9965062,2.9965062 0 0 1 -2.996506,-2.996504 2.9965062,2.9965062 0 0 1 2.996506,-2.996504 2.9965062,2.9965062 0 0 1 2.996506,2.996504 z" />
    <path
       id="path108343"
       style="display:inline;fill:none;stroke:#ff0000;stroke-width:0.0470719;stroke-linecap:round;stroke-linejoin:round;stroke-miterlimit:9.25"
       d="M 9.89024,28.47636 A 1.4888519,1.4888519 0 0 1 8.401388,29.96522 1.4888519,1.4888519 0 0 1 6.912536,28.47636 1.4888519,1.4888519 0 0 1 8.401388,26.98751 1.4888519,1.4888519 0 0 1 9.89024,28.47636 Z" />
    <path
       id="path40323"
       style="display:inline;vector-effect:none;fill:none;fill-opacity:0.298039;stroke:#ff0000;stroke-width:0.032332;stroke-linecap:round;stroke-linejoin:round;stop-color:#000000"
       d="m 52.339182,55.13028 h 0.549471 0.54949 0.54947 0.549489 0.549489 0.54947 0.54949 0.549471 v 0.54948 0.54948 0.54948 0.549481 0.549479 0.54948 0.54948 0.54948 h -0.549471 -0.54949 -0.54947 -0.549489 -0.549489 -0.54947 -0.54949 -0.549471 V 58.97664 58.42716 57.87768 57.328201 56.77872 56.22924 55.67976 Z"
       sodipodi:nodetypes="ccccccccccccccccccccccccccccccccc" />
    <path
       id="path40325"
       style="display:inline;vector-effect:none;fill:none;fill-opacity:0.298039;stroke:#ff0000;stroke-width:0.032332;stroke-linecap:round;stroke-linejoin:round;stop-color:#000000"
       d="m 52.339182,48.055663 h 0.549471 0.54949 0.54947 0.549489 0.549489 0.54947 0.54949 0.549471 v 0.54948 0.54948 0.54948 0.549481 0.549479 0.54948 0.54948 0.54948 h -0.549471 -0.54949 -0.54947 -0.549489 -0.549489 -0.54947 -0.54949 -0.549471 v -0.54948 -0.54948 -0.54948 -0.549479 -0.549481 -0.54948 -0.54948 z"
       sodipodi:nodetypes="ccccccccccccccccccccccccccccccccc" />
    <path
       id="path40327"
       style="display:inline;vector-effect:none;fill:none;fill-opacity:0.298039;stroke:#ff0000;stroke-width:0.032332;stroke-linecap:round;stroke-linejoin:round;stop-color:#000000"
       d="m 52.339182,40.981044 h 0.549471 0.54949 0.54947 0.549489 0.549489 0.54947 0.54949 0.549471 v 0.54948 0.54948 0.54948 0.549481 0.549479 0.54948 0.54948 0.54948 h -0.549471 -0.54949 -0.54947 -0.549489 -0.549489 -0.54947 -0.54949 -0.549471 v -0.54948 -0.54948 -0.54948 -0.549479 -0.549481 -0.54948 -0.54948 z"
       sodipodi:nodetypes="ccccccccccccccccccccccccccccccccc" />
    <path
       id="path40329"
       style="display:inline;vector-effect:none;fill:none;fill-opacity:0.298039;stroke:#ff0000;stroke-width:0.032332;stroke-linecap:round;stroke-linejoin:round;stop-color:#000000"
       d="m 52.339182,33.906427 h 0.549471 0.54949 0.54947 0.549489 0.549489 0.54947 0.54949 0.549471 v 0.54948 0.54948 0.54948 0.549481 0.549479 0.54948 0.54948 0.54948 h -0.549471 -0.54949 -0.54947 -0.549489 -0.549489 -0.54947 -0.54949 -0.549471 v -0.54948 -0.54948 -0.54948 -0.549479 -0.549481 -0.54948 -0.54948 z"
       sodipodi:nodetypes="ccccccccccccccccccccccccccccccccc" />
    <path
       id="path40331"
       style="display:inline;vector-effect:none;fill:none;fill-opacity:0.298039;stroke:#ff0000;stroke-width:0.032332;stroke-linecap:round;stroke-linejoin:round;stop-color:#000000"
       d="m 52.339182,26.831812 h 0.549471 0.54949 0.54947 0.549489 0.549489 0.54947 0.54949 0.549471 v 0.54948 0.54948 0.54948 0.549481 0.549479 0.54948 0.54948 0.54948 h -0.549471 -0.54949 -0.54947 -0.549489 -0.549489 -0.54947 -0.54949 -0.549471 v -0.54948 -0.54948 -0.54948 -0.549479 -0.549481 -0.54948 -0.54948 z"
       sodipodi:nodetypes="ccccccccccccccccccccccccccccccccc" />
  </g>
</svg>
