999
"DXF R12 Output" (www.mydxf.blogspot.com)
 0 
SECTION
 2 
HEADER
 9 
$ACADVER
 1 
AC1009
 9 
$EXTMIN
 10 
 0 
 20 
 0 
 9 
$EXTMAX
 10 
 8.5 
 20 
 11 
 0 
ENDSEC
 0 
SECTION
 2 
ENTITIES
0
LINE
8
Layer 1
10
0.846666
20
317.647000
11
-0.846666
21
315.953000
0
LINE
8
Layer 1
10
0.000000
20
318.211000
11
0.000000
21
315.389000
0
LINE
8
Layer 1
10
2.257780
20
315.671000
11
1.128890
21
314.542110
0
LINE
8
Layer 1
10
1.693330
20
316.236000
11
0.564440
21
315.107110
0
LINE
8
Layer 1
10
1.128890
20
316.800000
11
0.000000
21
315.671110
0
LINE
8
0
10
10.989300
20
220.425000
11
9.923430
21
220.758000
0
LINE
8
0
10
9.923430
20
220.758000
11
8.959360
21
221.281000
0
LINE
8
0
10
8.959360
20
221.281000
11
8.118790
21
221.974000
0
LINE
8
0
10
8.118790
20
221.974000
11
7.425880
21
222.814000
0
LINE
8
0
10
7.425880
20
222.814000
11
6.902190
21
223.778000
0
LINE
8
0
10
6.902190
20
223.778000
11
6.570810
21
224.844000
0
LINE
8
0
10
6.570810
20
224.844000
11
6.456080
21
225.987000
0
LINE
8
0
10
6.456080
20
225.987000
11
6.570810
21
227.131000
0
LINE
8
0
10
6.570810
20
227.131000
11
6.902190
21
228.198000
0
LINE
8
0
10
6.902190
20
228.198000
11
7.425880
21
229.162000
0
LINE
8
0
10
7.425880
20
229.162000
11
8.118790
21
230.002000
0
LINE
8
0
10
8.118790
20
230.002000
11
8.959360
21
230.695000
0
LINE
8
0
10
8.959360
20
230.695000
11
9.923430
21
231.220000
0
LINE
8
0
10
9.923430
20
231.220000
11
10.989300
21
231.549000
0
LINE
8
0
10
10.989300
20
231.549000
11
12.132600
21
231.665000
0
LINE
8
0
10
12.132600
20
231.665000
11
13.277400
21
231.549000
0
LINE
8
0
10
13.277400
20
231.549000
11
14.343300
21
231.220000
0
LINE
8
0
10
14.343300
20
231.220000
11
15.307200
21
230.695000
0
LINE
8
0
10
15.307200
20
230.695000
11
16.147900
21
230.002000
0
LINE
8
0
10
16.147900
20
230.002000
11
16.840800
21
229.162000
0
LINE
8
0
10
16.840800
20
229.162000
11
17.364400
21
228.198000
0
LINE
8
0
10
17.364400
20
228.198000
11
17.694300
21
227.131000
0
LINE
8
0
10
17.694300
20
227.131000
11
17.810500
21
225.987000
0
LINE
8
0
10
17.810500
20
225.987000
11
17.694300
21
224.844000
0
LINE
8
0
10
17.694300
20
224.844000
11
17.364400
21
223.778000
0
LINE
8
0
10
17.364400
20
223.778000
11
16.840800
21
222.814000
0
LINE
8
0
10
16.840800
20
222.814000
11
16.147900
21
221.974000
0
LINE
8
0
10
16.147900
20
221.974000
11
15.307200
21
221.281000
0
LINE
8
0
10
15.307200
20
221.281000
11
14.343300
21
220.758000
0
LINE
8
0
10
14.343300
20
220.758000
11
13.277400
21
220.425000
0
LINE
8
0
10
13.277400
20
220.425000
11
12.132600
21
220.311000
0
LINE
8
0
10
12.132600
20
220.311000
11
10.989300
21
220.425000
0
LINE
8
0
10
10.620400
20
36.832200
11
10.913500
21
36.832200
0
LINE
8
0
10
10.913500
20
36.832200
11
11.206600
21
36.832200
0
LINE
8
0
10
11.206600
20
36.832200
11
11.499700
21
36.832200
0
LINE
8
0
10
11.499700
20
36.832200
11
11.792800
21
36.832200
0
LINE
8
0
10
11.792800
20
36.832200
11
12.086000
21
36.832200
0
LINE
8
0
10
12.086000
20
36.832200
11
12.379100
21
36.832200
0
LINE
8
0
10
12.379100
20
36.832200
11
12.672200
21
36.832200
0
LINE
8
0
10
12.672200
20
36.832200
11
12.965300
21
36.832200
0
LINE
8
0
10
12.965300
20
36.832200
11
13.355500
21
36.792689
0
LINE
8
0
10
13.355500
20
36.792700
11
13.718494
21
36.682633
0
LINE
8
0
10
13.718500
20
36.682600
11
14.046640
21
36.504800
0
LINE
8
0
10
14.046600
20
36.504800
11
14.332237
21
36.267734
0
LINE
8
0
10
14.332300
20
36.267800
11
14.567758
21
35.982756
0
LINE
8
0
10
14.567700
20
35.982700
11
14.745359
21
35.655322
0
LINE
8
0
10
14.745400
20
35.655300
11
14.857611
21
35.291234
0
LINE
8
0
10
14.857600
20
35.291300
11
14.896716
21
34.901834
0
LINE
8
0
10
14.896700
20
34.901800
11
14.896700
21
33.792700
0
LINE
8
0
10
14.896700
20
33.792700
11
14.896700
21
32.683500
0
LINE
8
0
10
14.896700
20
32.683500
11
14.896700
21
31.574400
0
LINE
8
0
10
14.896700
20
31.574400
11
14.896700
21
30.465300
0
LINE
8
0
10
14.896700
20
30.465300
11
14.896700
21
29.359000
0
LINE
8
0
10
14.896700
20
29.359000
11
14.896700
21
28.249800
0
LINE
8
0
10
14.896700
20
28.249800
11
14.896700
21
27.140700
0
LINE
8
0
10
14.896700
20
27.140700
11
14.896700
21
26.031600
0
LINE
8
0
10
14.896700
20
26.031600
11
14.857584
21
25.642134
0
LINE
8
0
10
14.857600
20
25.642100
11
14.745389
21
25.278034
0
LINE
8
0
10
14.745400
20
25.278000
11
14.567741
21
24.950622
0
LINE
8
0
10
14.567700
20
24.950600
11
14.332242
21
24.665556
0
LINE
8
0
10
14.332300
20
24.665600
11
14.046663
21
24.428534
0
LINE
8
0
10
14.046600
20
24.428500
11
13.718460
21
24.250700
0
LINE
8
0
10
13.718500
20
24.250700
11
13.355506
21
24.137811
0
LINE
8
0
10
13.355500
20
24.137800
11
12.965300
21
24.101111
0
LINE
8
0
10
12.965300
20
24.101200
11
12.672200
21
24.101200
0
LINE
8
0
10
12.672200
20
24.101200
11
12.379100
21
24.101200
0
LINE
8
0
10
12.379100
20
24.101200
11
12.086000
21
24.101200
0
LINE
8
0
10
12.086000
20
24.101200
11
11.792800
21
24.101200
0
LINE
8
0
10
11.792800
20
24.101200
11
11.499700
21
24.101200
0
LINE
8
0
10
11.499700
20
24.101200
11
11.206600
21
24.101200
0
LINE
8
0
10
11.206600
20
24.101200
11
10.913500
21
24.101200
0
LINE
8
0
10
10.913500
20
24.101200
11
10.620400
21
24.101200
0
LINE
8
0
10
10.620400
20
24.101200
11
10.230200
21
24.137889
0
LINE
8
0
10
10.230200
20
24.137800
11
9.867234
21
24.250689
0
LINE
8
0
10
9.867190
20
24.250700
11
9.539050
21
24.428500
0
LINE
8
0
10
9.539050
20
24.428500
11
9.253413
21
24.665566
0
LINE
8
0
10
9.253410
20
24.665600
11
9.017924
21
24.950644
0
LINE
8
0
10
9.017920
20
24.950600
11
8.840261
21
25.277978
0
LINE
8
0
10
8.840270
20
25.278000
11
8.728059
21
25.642066
0
LINE
8
0
10
8.728050
20
25.642100
11
8.688962
21
26.031566
0
LINE
8
0
10
8.688970
20
26.031600
11
8.688970
21
27.140700
0
LINE
8
0
10
8.688970
20
27.140700
11
8.688970
21
28.249800
0
LINE
8
0
10
8.688970
20
28.249800
11
8.688970
21
29.359000
0
LINE
8
0
10
8.688970
20
29.359000
11
8.688970
21
30.465300
0
LINE
8
0
10
8.688970
20
30.465300
11
8.688970
21
31.574400
0
LINE
8
0
10
8.688970
20
31.574400
11
8.688970
21
32.683500
0
LINE
8
0
10
8.688970
20
32.683500
11
8.688970
21
33.792700
0
LINE
8
0
10
8.688970
20
33.792700
11
8.688970
21
34.901800
0
LINE
8
0
10
8.688970
20
34.901800
11
8.728058
21
35.291266
0
LINE
8
0
10
8.728050
20
35.291300
11
8.840261
21
35.655366
0
LINE
8
0
10
8.840270
20
35.655300
11
9.017929
21
35.982678
0
LINE
8
0
10
9.017920
20
35.982700
11
9.253406
21
36.267744
0
LINE
8
0
10
9.253410
20
36.267800
11
9.539047
21
36.504866
0
LINE
8
0
10
9.539050
20
36.504800
11
9.867190
21
36.682600
0
LINE
8
0
10
9.867190
20
36.682600
11
10.230156
21
36.792667
0
LINE
8
0
10
10.230200
20
36.792700
11
10.620400
21
36.832211
0
LINE
8
0
10
10.620400
20
36.832200
11
10.620400
21
36.832200
0
LINE
8
0
10
11.331100
20
8.672190
11
10.609956
21
8.896500
0
LINE
8
0
10
10.609900
20
8.896500
11
9.957690
21
9.250550
0
LINE
8
0
10
9.957690
20
9.250550
11
9.389035
21
9.719659
0
LINE
8
0
10
9.389030
20
9.719660
11
8.920219
21
10.288083
0
LINE
8
0
10
8.920220
20
10.288100
11
8.565928
21
10.939835
0
LINE
8
0
10
8.565930
20
10.939800
11
8.341730
21
11.661413
0
LINE
8
0
10
8.341730
20
11.661400
11
8.264092
21
12.434575
0
LINE
8
0
10
8.264090
20
12.434600
11
8.341728
21
13.208735
0
LINE
8
0
10
8.341730
20
13.208700
11
8.565930
21
13.930285
0
LINE
8
0
10
8.565930
20
13.930300
11
8.920222
21
14.582374
0
LINE
8
0
10
8.920220
20
14.582400
11
9.389031
21
15.150823
0
LINE
8
0
10
9.389030
20
15.150800
11
9.957685
21
15.619909
0
LINE
8
0
10
9.957690
20
15.619900
11
10.609944
21
15.974597
0
LINE
8
0
10
10.609900
20
15.974600
11
11.331044
21
16.197301
0
LINE
8
0
10
11.331100
20
16.197300
11
12.104602
21
16.275814
0
LINE
8
0
10
12.104600
20
16.275800
11
12.879095
21
16.197286
0
LINE
8
0
10
12.879100
20
16.197300
11
13.600212
21
15.974599
0
LINE
8
0
10
13.600200
20
15.974600
11
14.252357
21
15.619903
0
LINE
8
0
10
14.252400
20
15.619900
11
14.821183
21
15.150791
0
LINE
8
0
10
14.821100
20
15.150800
11
15.289879
21
14.582377
0
LINE
8
0
10
15.289900
20
14.582400
11
15.644096
21
13.930326
0
LINE
8
0
10
15.644100
20
13.930300
11
15.867307
21
13.208715
0
LINE
8
0
10
15.867300
20
13.208700
11
15.945932
21
12.434565
0
LINE
8
0
10
15.946000
20
12.434600
11
15.867368
21
11.661425
0
LINE
8
0
10
15.867300
20
11.661400
11
15.644093
21
10.939787
0
LINE
8
0
10
15.644100
20
10.939800
11
15.289904
21
10.288065
0
LINE
8
0
10
15.289900
20
10.288100
11
14.821121
21
9.719677
0
LINE
8
0
10
14.821100
20
9.719660
11
14.252317
21
9.250551
0
LINE
8
0
10
14.252400
20
9.250550
11
13.600243
21
8.896503
0
LINE
8
0
10
13.600200
20
8.896500
11
12.879088
21
8.672190
0
LINE
8
0
10
12.879100
20
8.672190
11
12.104605
21
8.594635
0
LINE
8
0
10
12.104600
20
8.594640
11
11.331098
21
8.672195
0
LINE
8
0
10
10.900800
20
104.976000
11
10.275833
21
105.170660
0
LINE
8
0
10
10.275800
20
105.171000
11
9.710536
21
105.477569
0
LINE
8
0
10
9.710560
20
105.477000
11
9.217745
21
105.883535
0
LINE
8
0
10
9.217740
20
105.884000
11
8.811453
21
106.376621
0
LINE
8
0
10
8.811460
20
106.376000
11
8.504419
21
106.941096
0
LINE
8
0
10
8.504420
20
106.941000
11
8.310121
21
107.566356
0
LINE
8
0
10
8.310120
20
107.567000
11
8.242836
21
108.237063
0
LINE
8
0
10
8.242830
20
108.237000
11
8.310114
21
108.907898
0
LINE
8
0
10
8.310120
20
108.908000
11
8.504419
21
109.533353
0
LINE
8
0
10
8.504420
20
109.533000
11
8.811461
21
110.098099
0
LINE
8
0
10
8.811460
20
110.098000
11
9.217747
21
110.590619
0
LINE
8
0
10
9.217740
20
110.591000
11
9.710555
21
110.997538
0
LINE
8
0
10
9.710560
20
110.997000
11
10.275824
21
111.304402
0
LINE
8
0
10
10.275800
20
111.305000
11
10.900767
21
111.497992
0
LINE
8
0
10
10.900800
20
111.498000
11
11.571141
21
111.566035
0
LINE
8
0
10
11.571100
20
111.566000
11
12.242302
21
111.497965
0
LINE
8
0
10
12.242300
20
111.498000
11
12.867239
21
111.305008
0
LINE
8
0
10
12.867300
20
111.305000
11
13.432481
21
110.997598
0
LINE
8
0
10
13.432500
20
110.997000
11
13.925426
21
110.590462
0
LINE
8
0
10
13.925400
20
110.591000
11
14.331659
21
110.098381
0
LINE
8
0
10
14.331600
20
110.098000
11
14.638557
21
109.532901
0
LINE
8
0
10
14.638600
20
109.533000
11
14.832038
21
108.907647
0
LINE
8
0
10
14.832000
20
108.908000
11
14.900145
21
108.237102
0
LINE
8
0
10
14.900200
20
108.237000
11
14.832055
21
107.566937
0
LINE
8
0
10
14.832000
20
107.567000
11
14.638562
21
106.941644
0
LINE
8
0
10
14.638600
20
106.941000
11
14.331643
21
106.375904
0
LINE
8
0
10
14.331600
20
106.376000
11
13.925341
21
105.883379
0
LINE
8
0
10
13.925400
20
105.884000
11
13.432474
21
105.477465
0
LINE
8
0
10
13.432500
20
105.477000
11
12.867319
21
105.170431
0
LINE
8
0
10
12.867300
20
105.171000
11
12.242361
21
104.976340
0
LINE
8
0
10
12.242300
20
104.976000
11
11.571098
21
104.908800
0
LINE
8
0
10
11.571100
20
104.909000
11
10.900759
21
104.976200
0
LINE
8
Layer_1
10
0.166848
20
0.166672
11
23.761600
21
0.166672
0
LINE
8
Layer_1
10
23.761600
20
0.166672
11
23.761600
21
252.405000
0
LINE
8
Layer_1
10
23.761600
20
252.405000
11
0.166848
21
252.405000
0
LINE
8
Layer_1
10
0.166848
20
252.405000
11
0.166848
21
0.166672
0
LINE
8
Layer_1
10
0.192017
20
0.192072
11
0.192017
21
0.192072
0
LINE
8
Layer_1
10
0.192017
20
0.192072
11
0.192017
21
0.192072
0
LINE
8
Layer_1
10
0.192017
20
0.192072
11
0.192017
21
0.192072
0
LINE
8
Layer_1
10
0.192017
20
0.192072
11
0.192017
21
0.192072
0
LINE
8
Layer_1
10
0.192017
20
0.192072
11
0.192017
21
0.192072
0
LINE
8
Layer_1
10
0.192017
20
0.192072
11
0.192017
21
0.192072
0
LINE
8
Layer_1
10
0.192017
20
0.192072
11
0.192017
21
0.192072
0
LINE
8
Layer_1
10
1.570100
20
2.949380
11
1.570100
21
2.949380
0
LINE
8
Layer_1
10
1.570100
20
2.949380
11
1.570100
21
2.949380
0
LINE
8
Layer_1
10
1.570100
20
2.949380
11
1.570100
21
2.949380
0
LINE
8
Layer_1
10
1.570100
20
2.949380
11
1.570100
21
2.949380
0
LINE
8
Layer_1
10
1.570100
20
2.949380
11
1.570100
21
2.949380
0
LINE
8
Layer_1
10
1.570100
20
2.949380
11
1.570100
21
2.949380
0
LINE
8
Layer_1
10
1.570100
20
2.949380
11
1.570100
21
2.949380
 0 
ENDSEC
 0 
EOF