  0
SECTION
  2
BLOCKS
  0
ENDSEC
  0
SECTION
  2
ENTITIES
  0
LINE
  8
0
 10
-8
 20
-75
 11
-3
 21
-75
  0
LINE
  8
0
 10
-3
 20
-75
 11
-3
 21
-78
  0
LINE
  8
0
 10
-3
 20
-78
 11
3
 21
-78
  0
LINE
  8
0
 10
3
 20
-78
 11
3
 21
-75
  0
LINE
  8
0
 10
3
 20
-75
 11
8
 21
-75
  0
LINE
  8
0
 10
8
 20
-75
 11
8
 21
-78
  0
LINE
  8
0
 10
8
 20
-78
 11
14
 21
-78
  0
LINE
  8
0
 10
14
 20
-78
 11
14
 21
-65
  0
LINE
  8
0
 10
14
 20
-65
 11
11
 21
-65
  0
LINE
  8
0
 10
11
 20
-65
 11
11
 21
-60
  0
LINE
  8
0
 10
11
 20
-60
 11
14
 21
-60
  0
LINE
  8
0
 10
14
 20
-60
 11
14
 21
-23.3333
  0
LINE
  8
0
 10
14
 20
-23.3333
 11
11
 21
-23.3333
  0
LINE
  8
0
 10
11
 20
-23.3333
 11
11
 21
-18.3333
  0
LINE
  8
0
 10
11
 20
-18.3333
 11
14
 21
-18.3333
  0
LINE
  8
0
 10
14
 20
-18.3333
 11
14
 21
18.3333
  0
LINE
  8
0
 10
14
 20
18.3333
 11
11
 21
18.3333
  0
LINE
  8
0
 10
11
 20
18.3333
 11
11
 21
23.3333
  0
LINE
  8
0
 10
11
 20
23.3333
 11
14
 21
23.3333
  0
LINE
  8
0
 10
14
 20
23.3333
 11
14
 21
60
  0
LINE
  8
0
 10
14
 20
60
 11
11
 21
60
  0
LINE
  8
0
 10
11
 20
60
 11
11
 21
65
  0
LINE
  8
0
 10
11
 20
65
 11
14
 21
65
  0
LINE
  8
0
 10
14
 20
65
 11
14
 21
78
  0
LINE
  8
0
 10
14
 20
78
 11
8
 21
78
  0
LINE
  8
0
 10
8
 20
78
 11
8
 21
75
  0
LINE
  8
0
 10
8
 20
75
 11
3
 21
75
  0
LINE
  8
0
 10
3
 20
75
 11
3
 21
78
  0
LINE
  8
0
 10
3
 20
78
 11
-3
 21
78
  0
LINE
  8
0
 10
-3
 20
78
 11
-3
 21
75
  0
LINE
  8
0
 10
-3
 20
75
 11
-8
 21
75
  0
LINE
  8
0
 10
-8
 20
75
 11
-8
 21
78
  0
LINE
  8
0
 10
-8
 20
78
 11
-14
 21
78
  0
LINE
  8
0
 10
-14
 20
78
 11
-14
 21
65
  0
LINE
  8
0
 10
-14
 20
65
 11
-11
 21
65
  0
LINE
  8
0
 10
-11
 20
65
 11
-11
 21
60
  0
LINE
  8
0
 10
-11
 20
60
 11
-14
 21
60
  0
LINE
  8
0
 10
-14
 20
60
 11
-14
 21
23.3333
  0
LINE
  8
0
 10
-14
 20
23.3333
 11
-11
 21
23.3333
  0
LINE
  8
0
 10
-11
 20
23.3333
 11
-11
 21
18.3333
  0
LINE
  8
0
 10
-11
 20
18.3333
 11
-14
 21
18.3333
  0
LINE
  8
0
 10
-14
 20
18.3333
 11
-14
 21
-18.3333
  0
LINE
  8
0
 10
-14
 20
-18.3333
 11
-11
 21
-18.3333
  0
LINE
  8
0
 10
-11
 20
-18.3333
 11
-11
 21
-23.3333
  0
LINE
  8
0
 10
-11
 20
-23.3333
 11
-14
 21
-23.3333
  0
LINE
  8
0
 10
-14
 20
-23.3333
 11
-14
 21
-60
  0
LINE
  8
0
 10
-14
 20
-60
 11
-11
 21
-60
  0
LINE
  8
0
 10
-11
 20
-60
 11
-11
 21
-65
  0
LINE
  8
0
 10
-11
 20
-65
 11
-14
 21
-65
  0
LINE
  8
0
 10
-14
 20
-65
 11
-14
 21
-78
  0
LINE
  8
0
 10
-14
 20
-78
 11
-8
 21
-78
  0
LINE
  8
0
 10
-8
 20
-78
 11
-8
 21
-75
  0
LINE
  8
0
 10
-8.25586
 20
-19.2959
 11
-8.25586
 21
-16.9941
  0
LINE
  8
0
 10
-8.25586
 20
-16.9941
 11
8.6377
 21
-16.9941
  0
LINE
  8
0
 10
8.6377
 20
-16.9941
 11
8.6377
 21
-19.2959
  0
LINE
  8
0
 10
8.6377
 20
-19.2959
 11
-8.25586
 21
-19.2959
  0
LINE
  8
0
 10
-8.25586
 20
-32.0264
 11
-8.25586
 21
-29.7236
  0
LINE
  8
0
 10
-8.25586
 20
-29.7236
 11
8.6377
 21
-29.7236
  0
LINE
  8
0
 10
8.6377
 20
-29.7236
 11
8.6377
 21
-32.0264
  0
LINE
  8
0
 10
8.6377
 20
-32.0264
 11
-8.25586
 21
-32.0264
  0
LINE
  8
0
 10
-8.25586
 20
-48.583
 11
-8.25586
 21
-46.2812
  0
LINE
  8
0
 10
-8.25586
 20
-46.2812
 11
8.6377
 21
-46.2812
  0
LINE
  8
0
 10
8.6377
 20
-46.2812
 11
8.6377
 21
-48.583
  0
LINE
  8
0
 10
8.6377
 20
-48.583
 11
-8.25586
 21
-48.583
  0
LINE
  8
0
 10
-8
 20
-236
 11
-3
 21
-236
  0
LINE
  8
0
 10
-3
 20
-236
 11
-3
 21
-239
  0
LINE
  8
0
 10
-3
 20
-239
 11
3
 21
-239
  0
LINE
  8
0
 10
3
 20
-239
 11
3
 21
-236
  0
LINE
  8
0
 10
3
 20
-236
 11
8
 21
-236
  0
LINE
  8
0
 10
8
 20
-236
 11
8
 21
-239
  0
LINE
  8
0
 10
8
 20
-239
 11
14
 21
-239
  0
LINE
  8
0
 10
14
 20
-239
 11
14
 21
-226
  0
LINE
  8
0
 10
14
 20
-226
 11
11
 21
-226
  0
LINE
  8
0
 10
11
 20
-226
 11
11
 21
-221
  0
LINE
  8
0
 10
11
 20
-221
 11
14
 21
-221
  0
LINE
  8
0
 10
14
 20
-221
 11
14
 21
-184.333
  0
LINE
  8
0
 10
14
 20
-184.333
 11
11
 21
-184.333
  0
LINE
  8
0
 10
11
 20
-184.333
 11
11
 21
-179.333
  0
LINE
  8
0
 10
11
 20
-179.333
 11
14
 21
-179.333
  0
LINE
  8
0
 10
14
 20
-179.333
 11
14
 21
-142.667
  0
LINE
  8
0
 10
14
 20
-142.667
 11
11
 21
-142.667
  0
LINE
  8
0
 10
11
 20
-142.667
 11
11
 21
-137.667
  0
LINE
  8
0
 10
11
 20
-137.667
 11
14
 21
-137.667
  0
LINE
  8
0
 10
14
 20
-137.667
 11
14
 21
-101
  0
LINE
  8
0
 10
14
 20
-101
 11
11
 21
-101
  0
LINE
  8
0
 10
11
 20
-101
 11
11
 21
-96
  0
LINE
  8
0
 10
11
 20
-96
 11
14
 21
-96
  0
LINE
  8
0
 10
14
 20
-96
 11
14
 21
-83
  0
LINE
  8
0
 10
14
 20
-83
 11
8
 21
-83
  0
LINE
  8
0
 10
8
 20
-83
 11
8
 21
-86
  0
LINE
  8
0
 10
8
 20
-86
 11
3
 21
-86
  0
LINE
  8
0
 10
3
 20
-86
 11
3
 21
-83
  0
LINE
  8
0
 10
3
 20
-83
 11
-3
 21
-83
  0
LINE
  8
0
 10
-3
 20
-83
 11
-3
 21
-86
  0
LINE
  8
0
 10
-3
 20
-86
 11
-8
 21
-86
  0
LINE
  8
0
 10
-8
 20
-86
 11
-8
 21
-83
  0
LINE
  8
0
 10
-8
 20
-83
 11
-14
 21
-83
  0
LINE
  8
0
 10
-14
 20
-83
 11
-14
 21
-96
  0
LINE
  8
0
 10
-14
 20
-96
 11
-11
 21
-96
  0
LINE
  8
0
 10
-11
 20
-96
 11
-11
 21
-101
  0
LINE
  8
0
 10
-11
 20
-101
 11
-14
 21
-101
  0
LINE
  8
0
 10
-14
 20
-101
 11
-14
 21
-137.667
  0
LINE
  8
0
 10
-14
 20
-137.667
 11
-11
 21
-137.667
  0
LINE
  8
0
 10
-11
 20
-137.667
 11
-11
 21
-142.667
  0
LINE
  8
0
 10
-11
 20
-142.667
 11
-14
 21
-142.667
  0
LINE
  8
0
 10
-14
 20
-142.667
 11
-14
 21
-179.333
  0
LINE
  8
0
 10
-14
 20
-179.333
 11
-11
 21
-179.333
  0
LINE
  8
0
 10
-11
 20
-179.333
 11
-11
 21
-184.333
  0
LINE
  8
0
 10
-11
 20
-184.333
 11
-14
 21
-184.333
  0
LINE
  8
0
 10
-14
 20
-184.333
 11
-14
 21
-221
  0
LINE
  8
0
 10
-14
 20
-221
 11
-11
 21
-221
  0
LINE
  8
0
 10
-11
 20
-221
 11
-11
 21
-226
  0
LINE
  8
0
 10
-11
 20
-226
 11
-14
 21
-226
  0
LINE
  8
0
 10
-14
 20
-226
 11
-14
 21
-239
  0
LINE
  8
0
 10
-14
 20
-239
 11
-8
 21
-239
  0
LINE
  8
0
 10
-8
 20
-239
 11
-8
 21
-236
  0
LINE
  8
0
 10
-8.6377
 20
-180.296
 11
-8.6377
 21
-177.994
  0
LINE
  8
0
 10
-8.6377
 20
-177.994
 11
8.25586
 21
-177.994
  0
LINE
  8
0
 10
8.25586
 20
-177.994
 11
8.25586
 21
-180.296
  0
LINE
  8
0
 10
8.25586
 20
-180.296
 11
-8.6377
 21
-180.296
  0
LINE
  8
0
 10
-8.6377
 20
-193.026
 11
-8.6377
 21
-190.724
  0
LINE
  8
0
 10
-8.6377
 20
-190.724
 11
8.25586
 21
-190.724
  0
LINE
  8
0
 10
8.25586
 20
-190.724
 11
8.25586
 21
-193.026
  0
LINE
  8
0
 10
8.25586
 20
-193.026
 11
-8.6377
 21
-193.026
  0
LINE
  8
0
 10
-8.6377
 20
-209.583
 11
-8.6377
 21
-207.281
  0
LINE
  8
0
 10
-8.6377
 20
-207.281
 11
8.25586
 21
-207.281
  0
LINE
  8
0
 10
8.25586
 20
-207.281
 11
8.25586
 21
-209.583
  0
LINE
  8
0
 10
8.25586
 20
-209.583
 11
-8.6377
 21
-209.583
  0
LINE
  8
0
 10
-3
 20
-367
 11
3
 21
-367
  0
LINE
  8
0
 10
3
 20
-367
 11
3
 21
-370
  0
LINE
  8
0
 10
3
 20
-370
 11
8
 21
-370
  0
LINE
  8
0
 10
8
 20
-370
 11
8
 21
-367
  0
LINE
  8
0
 10
8
 20
-367
 11
14
 21
-367
  0
LINE
  8
0
 10
14
 20
-367
 11
14
 21
-357
  0
LINE
  8
0
 10
14
 20
-357
 11
11
 21
-357
  0
LINE
  8
0
 10
11
 20
-357
 11
11
 21
-352
  0
LINE
  8
0
 10
11
 20
-352
 11
14
 21
-352
  0
LINE
  8
0
 10
14
 20
-352
 11
14
 21
-325.333
  0
LINE
  8
0
 10
14
 20
-325.333
 11
11
 21
-325.333
  0
LINE
  8
0
 10
11
 20
-325.333
 11
11
 21
-320.333
  0
LINE
  8
0
 10
11
 20
-320.333
 11
14
 21
-320.333
  0
LINE
  8
0
 10
14
 20
-320.333
 11
14
 21
-293.667
  0
LINE
  8
0
 10
14
 20
-293.667
 11
11
 21
-293.667
  0
LINE
  8
0
 10
11
 20
-293.667
 11
11
 21
-288.667
  0
LINE
  8
0
 10
11
 20
-288.667
 11
14
 21
-288.667
  0
LINE
  8
0
 10
14
 20
-288.667
 11
14
 21
-262
  0
LINE
  8
0
 10
14
 20
-262
 11
11
 21
-262
  0
LINE
  8
0
 10
11
 20
-262
 11
11
 21
-257
  0
LINE
  8
0
 10
11
 20
-257
 11
14
 21
-257
  0
LINE
  8
0
 10
14
 20
-257
 11
14
 21
-247
  0
LINE
  8
0
 10
14
 20
-247
 11
8
 21
-247
  0
LINE
  8
0
 10
8
 20
-247
 11
8
 21
-244
  0
LINE
  8
0
 10
8
 20
-244
 11
3
 21
-244
  0
LINE
  8
0
 10
3
 20
-244
 11
3
 21
-247
  0
LINE
  8
0
 10
3
 20
-247
 11
-3
 21
-247
  0
LINE
  8
0
 10
-3
 20
-247
 11
-3
 21
-244
  0
LINE
  8
0
 10
-3
 20
-244
 11
-8
 21
-244
  0
LINE
  8
0
 10
-8
 20
-244
 11
-8
 21
-247
  0
LINE
  8
0
 10
-8
 20
-247
 11
-14
 21
-247
  0
LINE
  8
0
 10
-14
 20
-247
 11
-14
 21
-257
  0
LINE
  8
0
 10
-14
 20
-257
 11
-11
 21
-257
  0
LINE
  8
0
 10
-11
 20
-257
 11
-11
 21
-262
  0
LINE
  8
0
 10
-11
 20
-262
 11
-14
 21
-262
  0
LINE
  8
0
 10
-14
 20
-262
 11
-14
 21
-288.667
  0
LINE
  8
0
 10
-14
 20
-288.667
 11
-11
 21
-288.667
  0
LINE
  8
0
 10
-11
 20
-288.667
 11
-11
 21
-293.667
  0
LINE
  8
0
 10
-11
 20
-293.667
 11
-14
 21
-293.667
  0
LINE
  8
0
 10
-14
 20
-293.667
 11
-14
 21
-320.333
  0
LINE
  8
0
 10
-14
 20
-320.333
 11
-11
 21
-320.333
  0
LINE
  8
0
 10
-11
 20
-320.333
 11
-11
 21
-325.333
  0
LINE
  8
0
 10
-11
 20
-325.333
 11
-14
 21
-325.333
  0
LINE
  8
0
 10
-14
 20
-325.333
 11
-14
 21
-352
  0
LINE
  8
0
 10
-14
 20
-352
 11
-11
 21
-352
  0
LINE
  8
0
 10
-11
 20
-352
 11
-11
 21
-357
  0
LINE
  8
0
 10
-11
 20
-357
 11
-14
 21
-357
  0
LINE
  8
0
 10
-14
 20
-357
 11
-14
 21
-367
  0
LINE
  8
0
 10
-14
 20
-367
 11
-8
 21
-367
  0
LINE
  8
0
 10
-8
 20
-367
 11
-8
 21
-370
  0
LINE
  8
0
 10
-8
 20
-370
 11
-3
 21
-370
  0
LINE
  8
0
 10
-3
 20
-370
 11
-3
 21
-367
  0
LINE
  8
0
 10
-3
 20
-498
 11
3
 21
-498
  0
LINE
  8
0
 10
3
 20
-498
 11
3
 21
-501
  0
LINE
  8
0
 10
3
 20
-501
 11
8
 21
-501
  0
LINE
  8
0
 10
8
 20
-501
 11
8
 21
-498
  0
LINE
  8
0
 10
8
 20
-498
 11
14
 21
-498
  0
LINE
  8
0
 10
14
 20
-498
 11
14
 21
-488
  0
LINE
  8
0
 10
14
 20
-488
 11
11
 21
-488
  0
LINE
  8
0
 10
11
 20
-488
 11
11
 21
-483
  0
LINE
  8
0
 10
11
 20
-483
 11
14
 21
-483
  0
LINE
  8
0
 10
14
 20
-483
 11
14
 21
-456.333
  0
LINE
  8
0
 10
14
 20
-456.333
 11
11
 21
-456.333
  0
LINE
  8
0
 10
11
 20
-456.333
 11
11
 21
-451.333
  0
LINE
  8
0
 10
11
 20
-451.333
 11
14
 21
-451.333
  0
LINE
  8
0
 10
14
 20
-451.333
 11
14
 21
-424.667
  0
LINE
  8
0
 10
14
 20
-424.667
 11
11
 21
-424.667
  0
LINE
  8
0
 10
11
 20
-424.667
 11
11
 21
-419.667
  0
LINE
  8
0
 10
11
 20
-419.667
 11
14
 21
-419.667
  0
LINE
  8
0
 10
14
 20
-419.667
 11
14
 21
-393
  0
LINE
  8
0
 10
14
 20
-393
 11
11
 21
-393
  0
LINE
  8
0
 10
11
 20
-393
 11
11
 21
-388
  0
LINE
  8
0
 10
11
 20
-388
 11
14
 21
-388
  0
LINE
  8
0
 10
14
 20
-388
 11
14
 21
-378
  0
LINE
  8
0
 10
14
 20
-378
 11
8
 21
-378
  0
LINE
  8
0
 10
8
 20
-378
 11
8
 21
-375
  0
LINE
  8
0
 10
8
 20
-375
 11
3
 21
-375
  0
LINE
  8
0
 10
3
 20
-375
 11
3
 21
-378
  0
LINE
  8
0
 10
3
 20
-378
 11
-3
 21
-378
  0
LINE
  8
0
 10
-3
 20
-378
 11
-3
 21
-375
  0
LINE
  8
0
 10
-3
 20
-375
 11
-8
 21
-375
  0
LINE
  8
0
 10
-8
 20
-375
 11
-8
 21
-378
  0
LINE
  8
0
 10
-8
 20
-378
 11
-14
 21
-378
  0
LINE
  8
0
 10
-14
 20
-378
 11
-14
 21
-388
  0
LINE
  8
0
 10
-14
 20
-388
 11
-11
 21
-388
  0
LINE
  8
0
 10
-11
 20
-388
 11
-11
 21
-393
  0
LINE
  8
0
 10
-11
 20
-393
 11
-14
 21
-393
  0
LINE
  8
0
 10
-14
 20
-393
 11
-14
 21
-419.667
  0
LINE
  8
0
 10
-14
 20
-419.667
 11
-11
 21
-419.667
  0
LINE
  8
0
 10
-11
 20
-419.667
 11
-11
 21
-424.667
  0
LINE
  8
0
 10
-11
 20
-424.667
 11
-14
 21
-424.667
  0
LINE
  8
0
 10
-14
 20
-424.667
 11
-14
 21
-451.333
  0
LINE
  8
0
 10
-14
 20
-451.333
 11
-11
 21
-451.333
  0
LINE
  8
0
 10
-11
 20
-451.333
 11
-11
 21
-456.333
  0
LINE
  8
0
 10
-11
 20
-456.333
 11
-14
 21
-456.333
  0
LINE
  8
0
 10
-14
 20
-456.333
 11
-14
 21
-483
  0
LINE
  8
0
 10
-14
 20
-483
 11
-11
 21
-483
  0
LINE
  8
0
 10
-11
 20
-483
 11
-11
 21
-488
  0
LINE
  8
0
 10
-11
 20
-488
 11
-14
 21
-488
  0
LINE
  8
0
 10
-14
 20
-488
 11
-14
 21
-498
  0
LINE
  8
0
 10
-14
 20
-498
 11
-8
 21
-498
  0
LINE
  8
0
 10
-8
 20
-498
 11
-8
 21
-501
  0
LINE
  8
0
 10
-8
 20
-501
 11
-3
 21
-501
  0
LINE
  8
0
 10
-3
 20
-501
 11
-3
 21
-498
  0
LINE
  8
0
 10
-0.0996094
 20
-393.024
 11
-0.724609
 21
-392.829
  0
LINE
  8
0
 10
-0.724609
 20
-392.829
 11
-1.28906
 21
-392.522
  0
LINE
  8
0
 10
-1.28906
 20
-392.522
 11
-1.78223
 21
-392.116
  0
LINE
  8
0
 10
-1.78223
 20
-392.116
 11
-2.18848
 21
-391.623
  0
LINE
  8
0
 10
-2.18848
 20
-391.623
 11
-2.49512
 21
-391.059
  0
LINE
  8
0
 10
-2.49512
 20
-391.059
 11
-2.68945
 21
-390.434
  0
LINE
  8
0
 10
-2.68945
 20
-390.434
 11
-2.75684
 21
-389.763
  0
LINE
  8
0
 10
-2.75684
 20
-389.763
 11
-2.68945
 21
-389.092
  0
LINE
  8
0
 10
-2.68945
 20
-389.092
 11
-2.49512
 21
-388.467
  0
LINE
  8
0
 10
-2.49512
 20
-388.467
 11
-2.18848
 21
-387.902
  0
LINE
  8
0
 10
-2.18848
 20
-387.902
 11
-1.78223
 21
-387.409
  0
LINE
  8
0
 10
-1.78223
 20
-387.409
 11
-1.28906
 21
-387.003
  0
LINE
  8
0
 10
-1.28906
 20
-387.003
 11
-0.724609
 21
-386.695
  0
LINE
  8
0
 10
-0.724609
 20
-386.695
 11
-0.0996094
 21
-386.502
  0
LINE
  8
0
 10
-0.0996094
 20
-386.502
 11
0.571289
 21
-386.434
  0
LINE
  8
0
 10
0.571289
 20
-386.434
 11
1.24219
 21
-386.502
  0
LINE
  8
0
 10
1.24219
 20
-386.502
 11
1.86719
 21
-386.695
  0
LINE
  8
0
 10
1.86719
 20
-386.695
 11
2.43262
 21
-387.002
  0
LINE
  8
0
 10
2.43262
 20
-387.002
 11
2.92578
 21
-387.409
  0
LINE
  8
0
 10
2.92578
 20
-387.409
 11
3.33203
 21
-387.901
  0
LINE
  8
0
 10
3.33203
 20
-387.901
 11
3.63867
 21
-388.467
  0
LINE
  8
0
 10
3.63867
 20
-388.467
 11
3.83203
 21
-389.093
  0
LINE
  8
0
 10
3.83203
 20
-389.093
 11
3.90039
 21
-389.763
  0
LINE
  8
0
 10
3.90039
 20
-389.763
 11
3.83203
 21
-390.433
  0
LINE
  8
0
 10
3.83203
 20
-390.433
 11
3.63867
 21
-391.059
  0
LINE
  8
0
 10
3.63867
 20
-391.059
 11
3.33203
 21
-391.624
  0
LINE
  8
0
 10
3.33203
 20
-391.624
 11
2.92578
 21
-392.116
  0
LINE
  8
0
 10
2.92578
 20
-392.116
 11
2.43262
 21
-392.522
  0
LINE
  8
0
 10
2.43262
 20
-392.522
 11
1.86719
 21
-392.829
  0
LINE
  8
0
 10
1.86719
 20
-392.829
 11
1.24219
 21
-393.023
  0
LINE
  8
0
 10
1.24219
 20
-393.023
 11
0.571289
 21
-393.091
  0
LINE
  8
0
 10
0.571289
 20
-393.091
 11
-0.0996094
 21
-393.024
  0
LINE
  8
0
 10
-0.379883
 20
-473.898
 11
-0.769531
 21
-473.862
  0
LINE
  8
0
 10
-0.769531
 20
-473.862
 11
-1.13281
 21
-473.749
  0
LINE
  8
0
 10
-1.13281
 20
-473.749
 11
-1.46094
 21
-473.571
  0
LINE
  8
0
 10
-1.46094
 20
-473.571
 11
-1.74707
 21
-473.334
  0
LINE
  8
0
 10
-1.74707
 20
-473.334
 11
-1.98242
 21
-473.05
  0
LINE
  8
0
 10
-1.98242
 20
-473.05
 11
-2.16016
 21
-472.722
  0
LINE
  8
0
 10
-2.16016
 20
-472.722
 11
-2.27148
 21
-472.358
  0
LINE
  8
0
 10
-2.27148
 20
-472.358
 11
-2.31152
 21
-471.969
  0
LINE
  8
0
 10
-2.31152
 20
-471.969
 11
-2.31055
 21
-470.859
  0
LINE
  8
0
 10
-2.31055
 20
-470.859
 11
-2.31055
 21
-463.099
  0
LINE
  8
0
 10
-2.31055
 20
-463.099
 11
-2.27148
 21
-462.709
  0
LINE
  8
0
 10
-2.27148
 20
-462.709
 11
-2.16016
 21
-462.345
  0
LINE
  8
0
 10
-2.16016
 20
-462.345
 11
-1.98242
 21
-462.018
  0
LINE
  8
0
 10
-1.98242
 20
-462.018
 11
-1.74707
 21
-461.732
  0
LINE
  8
0
 10
-1.74707
 20
-461.732
 11
-1.46094
 21
-461.495
  0
LINE
  8
0
 10
-1.46094
 20
-461.495
 11
-1.13281
 21
-461.317
  0
LINE
  8
0
 10
-1.13281
 20
-461.317
 11
-0.769531
 21
-461.207
  0
LINE
  8
0
 10
-0.769531
 20
-461.207
 11
-0.379883
 21
-461.168
  0
LINE
  8
0
 10
-0.379883
 20
-461.168
 11
1.96484
 21
-461.168
  0
LINE
  8
0
 10
1.96484
 20
-461.168
 11
2.35547
 21
-461.207
  0
LINE
  8
0
 10
2.35547
 20
-461.207
 11
2.71875
 21
-461.317
  0
LINE
  8
0
 10
2.71875
 20
-461.317
 11
3.04688
 21
-461.495
  0
LINE
  8
0
 10
3.04688
 20
-461.495
 11
3.33203
 21
-461.732
  0
LINE
  8
0
 10
3.33203
 20
-461.732
 11
3.56738
 21
-462.018
  0
LINE
  8
0
 10
3.56738
 20
-462.018
 11
3.74512
 21
-462.345
  0
LINE
  8
0
 10
3.74512
 20
-462.345
 11
3.85742
 21
-462.709
  0
LINE
  8
0
 10
3.85742
 20
-462.709
 11
3.89648
 21
-463.099
  0
LINE
  8
0
 10
3.89648
 20
-463.099
 11
3.89648
 21
-471.969
  0
LINE
  8
0
 10
3.89648
 20
-471.969
 11
3.85742
 21
-472.357
  0
LINE
  8
0
 10
3.85742
 20
-472.357
 11
3.74512
 21
-472.722
  0
LINE
  8
0
 10
3.74512
 20
-472.722
 11
3.56738
 21
-473.05
  0
LINE
  8
0
 10
3.56738
 20
-473.05
 11
3.33203
 21
-473.334
  0
LINE
  8
0
 10
3.33203
 20
-473.334
 11
3.04688
 21
-473.571
  0
LINE
  8
0
 10
3.04688
 20
-473.571
 11
2.71875
 21
-473.749
  0
LINE
  8
0
 10
2.71875
 20
-473.749
 11
2.35547
 21
-473.862
  0
LINE
  8
0
 10
2.35547
 20
-473.862
 11
1.96484
 21
-473.898
  0
LINE
  8
0
 10
1.96484
 20
-473.898
 11
-0.379883
 21
-473.898
  0
LINE
  8
0
 10
0.331055
 20
-489.328
 11
-0.389648
 21
-489.104
  0
LINE
  8
0
 10
-0.389648
 20
-489.104
 11
-1.04199
 21
-488.749
  0
LINE
  8
0
 10
-1.04199
 20
-488.749
 11
-1.61133
 21
-488.28
  0
LINE
  8
0
 10
-1.61133
 20
-488.28
 11
-2.08008
 21
-487.712
  0
LINE
  8
0
 10
-2.08008
 20
-487.712
 11
-2.43359
 21
-487.061
  0
LINE
  8
0
 10
-2.43359
 20
-487.061
 11
-2.6582
 21
-486.339
  0
LINE
  8
0
 10
-2.6582
 20
-486.339
 11
-2.73633
 21
-485.565
  0
LINE
  8
0
 10
-2.73633
 20
-485.565
 11
-2.6582
 21
-484.791
  0
LINE
  8
0
 10
-2.6582
 20
-484.791
 11
-2.43359
 21
-484.069
  0
LINE
  8
0
 10
-2.43359
 20
-484.069
 11
-2.08008
 21
-483.418
  0
LINE
  8
0
 10
-2.08008
 20
-483.418
 11
-1.61133
 21
-482.85
  0
LINE
  8
0
 10
-1.61133
 20
-482.85
 11
-1.04199
 21
-482.38
  0
LINE
  8
0
 10
-1.04199
 20
-482.38
 11
-0.389648
 21
-482.025
  0
LINE
  8
0
 10
-0.389648
 20
-482.025
 11
0.331055
 21
-481.803
  0
LINE
  8
0
 10
0.331055
 20
-481.803
 11
1.10449
 21
-481.725
  0
LINE
  8
0
 10
1.10449
 20
-481.725
 11
1.87891
 21
-481.803
  0
LINE
  8
0
 10
1.87891
 20
-481.803
 11
2.60059
 21
-482.025
  0
LINE
  8
0
 10
2.60059
 20
-482.025
 11
3.25195
 21
-482.38
  0
LINE
  8
0
 10
3.25195
 20
-482.38
 11
3.82129
 21
-482.85
  0
LINE
  8
0
 10
3.82129
 20
-482.85
 11
4.29004
 21
-483.418
  0
LINE
  8
0
 10
4.29004
 20
-483.418
 11
4.64453
 21
-484.069
  0
LINE
  8
0
 10
4.64453
 20
-484.069
 11
4.86719
 21
-484.791
  0
LINE
  8
0
 10
4.86719
 20
-484.791
 11
4.94629
 21
-485.565
  0
LINE
  8
0
 10
4.94629
 20
-485.565
 11
4.86719
 21
-486.339
  0
LINE
  8
0
 10
4.86719
 20
-486.339
 11
4.64453
 21
-487.061
  0
LINE
  8
0
 10
4.64453
 20
-487.061
 11
4.29004
 21
-487.712
  0
LINE
  8
0
 10
4.29004
 20
-487.712
 11
3.82129
 21
-488.28
  0
LINE
  8
0
 10
3.82129
 20
-488.28
 11
3.25195
 21
-488.749
  0
LINE
  8
0
 10
3.25195
 20
-488.749
 11
2.60059
 21
-489.104
  0
LINE
  8
0
 10
2.60059
 20
-489.104
 11
1.87891
 21
-489.328
  0
LINE
  8
0
 10
1.87891
 20
-489.328
 11
1.10449
 21
-489.405
  0
LINE
  8
0
 10
1.10449
 20
-489.405
 11
0.331055
 21
-489.328
  0
LINE
  8
0
 10
-60
 20
-629
 11
-23.3333
 21
-629
  0
LINE
  8
0
 10
-23.3333
 20
-629
 11
-23.3333
 21
-632
  0
LINE
  8
0
 10
-23.3333
 20
-632
 11
-18.3333
 21
-632
  0
LINE
  8
0
 10
-18.3333
 20
-632
 11
-18.3333
 21
-629
  0
LINE
  8
0
 10
-18.3333
 20
-629
 11
18.3333
 21
-629
  0
LINE
  8
0
 10
18.3333
 20
-629
 11
18.3333
 21
-632
  0
LINE
  8
0
 10
18.3333
 20
-632
 11
23.3333
 21
-632
  0
LINE
  8
0
 10
23.3333
 20
-632
 11
23.3333
 21
-629
  0
LINE
  8
0
 10
23.3333
 20
-629
 11
60
 21
-629
  0
LINE
  8
0
 10
60
 20
-629
 11
60
 21
-632
  0
LINE
  8
0
 10
60
 20
-632
 11
65
 21
-632
  0
LINE
  8
0
 10
65
 20
-632
 11
65
 21
-629
  0
LINE
  8
0
 10
65
 20
-629
 11
75
 21
-629
  0
LINE
  8
0
 10
75
 20
-629
 11
75
 21
-619
  0
LINE
  8
0
 10
75
 20
-619
 11
78
 21
-619
  0
LINE
  8
0
 10
78
 20
-619
 11
78
 21
-614
  0
LINE
  8
0
 10
78
 20
-614
 11
75
 21
-614
  0
LINE
  8
0
 10
75
 20
-614
 11
75
 21
-587.333
  0
LINE
  8
0
 10
75
 20
-587.333
 11
78
 21
-587.333
  0
LINE
  8
0
 10
78
 20
-587.333
 11
78
 21
-582.333
  0
LINE
  8
0
 10
78
 20
-582.333
 11
75
 21
-582.333
  0
LINE
  8
0
 10
75
 20
-582.333
 11
75
 21
-555.667
  0
LINE
  8
0
 10
75
 20
-555.667
 11
78
 21
-555.667
  0
LINE
  8
0
 10
78
 20
-555.667
 11
78
 21
-550.667
  0
LINE
  8
0
 10
78
 20
-550.667
 11
75
 21
-550.667
  0
LINE
  8
0
 10
75
 20
-550.667
 11
75
 21
-524
  0
LINE
  8
0
 10
75
 20
-524
 11
78
 21
-524
  0
LINE
  8
0
 10
78
 20
-524
 11
78
 21
-519
  0
LINE
  8
0
 10
78
 20
-519
 11
75
 21
-519
  0
LINE
  8
0
 10
75
 20
-519
 11
75
 21
-509
  0
LINE
  8
0
 10
75
 20
-509
 11
65
 21
-509
  0
LINE
  8
0
 10
65
 20
-509
 11
65
 21
-506
  0
LINE
  8
0
 10
65
 20
-506
 11
60
 21
-506
  0
LINE
  8
0
 10
60
 20
-506
 11
60
 21
-509
  0
LINE
  8
0
 10
60
 20
-509
 11
23.3333
 21
-509
  0
LINE
  8
0
 10
23.3333
 20
-509
 11
23.3333
 21
-506
  0
LINE
  8
0
 10
23.3333
 20
-506
 11
18.3333
 21
-506
  0
LINE
  8
0
 10
18.3333
 20
-506
 11
18.3333
 21
-509
  0
LINE
  8
0
 10
18.3333
 20
-509
 11
-18.3333
 21
-509
  0
LINE
  8
0
 10
-18.3333
 20
-509
 11
-18.3333
 21
-506
  0
LINE
  8
0
 10
-18.3333
 20
-506
 11
-23.3333
 21
-506
  0
LINE
  8
0
 10
-23.3333
 20
-506
 11
-23.3333
 21
-509
  0
LINE
  8
0
 10
-23.3333
 20
-509
 11
-60
 21
-509
  0
LINE
  8
0
 10
-60
 20
-509
 11
-60
 21
-506
  0
LINE
  8
0
 10
-60
 20
-506
 11
-65
 21
-506
  0
LINE
  8
0
 10
-65
 20
-506
 11
-65
 21
-509
  0
LINE
  8
0
 10
-65
 20
-509
 11
-75
 21
-509
  0
LINE
  8
0
 10
-75
 20
-509
 11
-75
 21
-519
  0
LINE
  8
0
 10
-75
 20
-519
 11
-78
 21
-519
  0
LINE
  8
0
 10
-78
 20
-519
 11
-78
 21
-524
  0
LINE
  8
0
 10
-78
 20
-524
 11
-75
 21
-524
  0
LINE
  8
0
 10
-75
 20
-524
 11
-75
 21
-550.667
  0
LINE
  8
0
 10
-75
 20
-550.667
 11
-78
 21
-550.667
  0
LINE
  8
0
 10
-78
 20
-550.667
 11
-78
 21
-555.667
  0
LINE
  8
0
 10
-78
 20
-555.667
 11
-75
 21
-555.667
  0
LINE
  8
0
 10
-75
 20
-555.667
 11
-75
 21
-582.333
  0
LINE
  8
0
 10
-75
 20
-582.333
 11
-78
 21
-582.333
  0
LINE
  8
0
 10
-78
 20
-582.333
 11
-78
 21
-587.333
  0
LINE
  8
0
 10
-78
 20
-587.333
 11
-75
 21
-587.333
  0
LINE
  8
0
 10
-75
 20
-587.333
 11
-75
 21
-614
  0
LINE
  8
0
 10
-75
 20
-614
 11
-78
 21
-614
  0
LINE
  8
0
 10
-78
 20
-614
 11
-78
 21
-619
  0
LINE
  8
0
 10
-78
 20
-619
 11
-75
 21
-619
  0
LINE
  8
0
 10
-75
 20
-619
 11
-75
 21
-629
  0
LINE
  8
0
 10
-75
 20
-629
 11
-65
 21
-629
  0
LINE
  8
0
 10
-65
 20
-629
 11
-65
 21
-632
  0
LINE
  8
0
 10
-65
 20
-632
 11
-60
 21
-632
  0
LINE
  8
0
 10
-60
 20
-632
 11
-60
 21
-629
  0
LINE
  8
0
 10
-60
 20
-760
 11
-23.3333
 21
-760
  0
LINE
  8
0
 10
-23.3333
 20
-760
 11
-23.3333
 21
-763
  0
LINE
  8
0
 10
-23.3333
 20
-763
 11
-18.3333
 21
-763
  0
LINE
  8
0
 10
-18.3333
 20
-763
 11
-18.3333
 21
-760
  0
LINE
  8
0
 10
-18.3333
 20
-760
 11
18.3333
 21
-760
  0
LINE
  8
0
 10
18.3333
 20
-760
 11
18.3333
 21
-763
  0
LINE
  8
0
 10
18.3333
 20
-763
 11
23.3333
 21
-763
  0
LINE
  8
0
 10
23.3333
 20
-763
 11
23.3333
 21
-760
  0
LINE
  8
0
 10
23.3333
 20
-760
 11
60
 21
-760
  0
LINE
  8
0
 10
60
 20
-760
 11
60
 21
-763
  0
LINE
  8
0
 10
60
 20
-763
 11
65
 21
-763
  0
LINE
  8
0
 10
65
 20
-763
 11
65
 21
-760
  0
LINE
  8
0
 10
65
 20
-760
 11
75
 21
-760
  0
LINE
  8
0
 10
75
 20
-760
 11
75
 21
-750
  0
LINE
  8
0
 10
75
 20
-750
 11
78
 21
-750
  0
LINE
  8
0
 10
78
 20
-750
 11
78
 21
-745
  0
LINE
  8
0
 10
78
 20
-745
 11
75
 21
-745
  0
LINE
  8
0
 10
75
 20
-745
 11
75
 21
-718.333
  0
LINE
  8
0
 10
75
 20
-718.333
 11
78
 21
-718.333
  0
LINE
  8
0
 10
78
 20
-718.333
 11
78
 21
-713.333
  0
LINE
  8
0
 10
78
 20
-713.333
 11
75
 21
-713.333
  0
LINE
  8
0
 10
75
 20
-713.333
 11
75
 21
-686.667
  0
LINE
  8
0
 10
75
 20
-686.667
 11
78
 21
-686.667
  0
LINE
  8
0
 10
78
 20
-686.667
 11
78
 21
-681.667
  0
LINE
  8
0
 10
78
 20
-681.667
 11
75
 21
-681.667
  0
LINE
  8
0
 10
75
 20
-681.667
 11
75
 21
-655
  0
LINE
  8
0
 10
75
 20
-655
 11
78
 21
-655
  0
LINE
  8
0
 10
78
 20
-655
 11
78
 21
-650
  0
LINE
  8
0
 10
78
 20
-650
 11
75
 21
-650
  0
LINE
  8
0
 10
75
 20
-650
 11
75
 21
-640
  0
LINE
  8
0
 10
75
 20
-640
 11
65
 21
-640
  0
LINE
  8
0
 10
65
 20
-640
 11
65
 21
-637
  0
LINE
  8
0
 10
65
 20
-637
 11
60
 21
-637
  0
LINE
  8
0
 10
60
 20
-637
 11
60
 21
-640
  0
LINE
  8
0
 10
60
 20
-640
 11
23.3333
 21
-640
  0
LINE
  8
0
 10
23.3333
 20
-640
 11
23.3333
 21
-637
  0
LINE
  8
0
 10
23.3333
 20
-637
 11
18.3333
 21
-637
  0
LINE
  8
0
 10
18.3333
 20
-637
 11
18.3333
 21
-640
  0
LINE
  8
0
 10
18.3333
 20
-640
 11
-18.3333
 21
-640
  0
LINE
  8
0
 10
-18.3333
 20
-640
 11
-18.3333
 21
-637
  0
LINE
  8
0
 10
-18.3333
 20
-637
 11
-23.3333
 21
-637
  0
LINE
  8
0
 10
-23.3333
 20
-637
 11
-23.3333
 21
-640
  0
LINE
  8
0
 10
-23.3333
 20
-640
 11
-60
 21
-640
  0
LINE
  8
0
 10
-60
 20
-640
 11
-60
 21
-637
  0
LINE
  8
0
 10
-60
 20
-637
 11
-65
 21
-637
  0
LINE
  8
0
 10
-65
 20
-637
 11
-65
 21
-640
  0
LINE
  8
0
 10
-65
 20
-640
 11
-75
 21
-640
  0
LINE
  8
0
 10
-75
 20
-640
 11
-75
 21
-650
  0
LINE
  8
0
 10
-75
 20
-650
 11
-78
 21
-650
  0
LINE
  8
0
 10
-78
 20
-650
 11
-78
 21
-655
  0
LINE
  8
0
 10
-78
 20
-655
 11
-75
 21
-655
  0
LINE
  8
0
 10
-75
 20
-655
 11
-75
 21
-681.667
  0
LINE
  8
0
 10
-75
 20
-681.667
 11
-78
 21
-681.667
  0
LINE
  8
0
 10
-78
 20
-681.667
 11
-78
 21
-686.667
  0
LINE
  8
0
 10
-78
 20
-686.667
 11
-75
 21
-686.667
  0
LINE
  8
0
 10
-75
 20
-686.667
 11
-75
 21
-713.333
  0
LINE
  8
0
 10
-75
 20
-713.333
 11
-78
 21
-713.333
  0
LINE
  8
0
 10
-78
 20
-713.333
 11
-78
 21
-718.333
  0
LINE
  8
0
 10
-78
 20
-718.333
 11
-75
 21
-718.333
  0
LINE
  8
0
 10
-75
 20
-718.333
 11
-75
 21
-745
  0
LINE
  8
0
 10
-75
 20
-745
 11
-78
 21
-745
  0
LINE
  8
0
 10
-78
 20
-745
 11
-78
 21
-750
  0
LINE
  8
0
 10
-78
 20
-750
 11
-75
 21
-750
  0
LINE
  8
0
 10
-75
 20
-750
 11
-75
 21
-760
  0
LINE
  8
0
 10
-75
 20
-760
 11
-65
 21
-760
  0
LINE
  8
0
 10
-65
 20
-760
 11
-65
 21
-763
  0
LINE
  8
0
 10
-65
 20
-763
 11
-60
 21
-763
  0
LINE
  8
0
 10
-60
 20
-763
 11
-60
 21
-760
  0
LINE
  8
0
 10
-50.5
 20
-746.22
 11
-50.5
 21
-653.78
  0
LINE
  8
0
 10
-50.5
 20
-653.78
 11
58.5
 21
-653.78
  0
LINE
  8
0
 10
58.5
 20
-653.78
 11
58.5
 21
-746.22
  0
LINE
  8
0
 10
58.5
 20
-746.22
 11
-50.5
 21
-746.22
  0
LINE
  8
0
 10
65.0213
 20
-657.936
 11
64.8026
 21
-657.865
  0
LINE
  8
0
 10
64.8026
 20
-657.865
 11
64.6034
 21
-657.75
  0
LINE
  8
0
 10
64.6034
 20
-657.75
 11
64.4325
 21
-657.596
  0
LINE
  8
0
 10
64.4325
 20
-657.596
 11
64.2974
 21
-657.41
  0
LINE
  8
0
 10
64.2974
 20
-657.41
 11
64.2038
 21
-657.2
  0
LINE
  8
0
 10
64.2038
 20
-657.2
 11
64.156
 21
-656.975
  0
LINE
  8
0
 10
64.156
 20
-656.975
 11
64.156
 21
-656.745
  0
LINE
  8
0
 10
64.156
 20
-656.745
 11
64.2038
 21
-656.52
  0
LINE
  8
0
 10
64.2038
 20
-656.52
 11
64.2974
 21
-656.31
  0
LINE
  8
0
 10
64.2974
 20
-656.31
 11
64.4325
 21
-656.124
  0
LINE
  8
0
 10
64.4325
 20
-656.124
 11
64.6034
 21
-655.97
  0
LINE
  8
0
 10
64.6034
 20
-655.97
 11
64.8026
 21
-655.855
  0
LINE
  8
0
 10
64.8026
 20
-655.855
 11
65.0213
 21
-655.784
  0
LINE
  8
0
 10
65.0213
 20
-655.784
 11
65.25
 21
-655.76
  0
LINE
  8
0
 10
65.25
 20
-655.76
 11
65.4787
 21
-655.784
  0
LINE
  8
0
 10
65.4787
 20
-655.784
 11
65.6974
 21
-655.855
  0
LINE
  8
0
 10
65.6974
 20
-655.855
 11
65.8966
 21
-655.97
  0
LINE
  8
0
 10
65.8966
 20
-655.97
 11
66.0675
 21
-656.124
  0
LINE
  8
0
 10
66.0675
 20
-656.124
 11
66.2026
 21
-656.31
  0
LINE
  8
0
 10
66.2026
 20
-656.31
 11
66.2962
 21
-656.52
  0
LINE
  8
0
 10
66.2962
 20
-656.52
 11
66.344
 21
-656.745
  0
LINE
  8
0
 10
66.344
 20
-656.745
 11
66.344
 21
-656.975
  0
LINE
  8
0
 10
66.344
 20
-656.975
 11
66.2962
 21
-657.2
  0
LINE
  8
0
 10
66.2962
 20
-657.2
 11
66.2026
 21
-657.41
  0
LINE
  8
0
 10
66.2026
 20
-657.41
 11
66.0675
 21
-657.596
  0
LINE
  8
0
 10
66.0675
 20
-657.596
 11
65.8966
 21
-657.75
  0
LINE
  8
0
 10
65.8966
 20
-657.75
 11
65.6974
 21
-657.865
  0
LINE
  8
0
 10
65.6974
 20
-657.865
 11
65.4787
 21
-657.936
  0
LINE
  8
0
 10
65.4787
 20
-657.936
 11
65.25
 21
-657.96
  0
LINE
  8
0
 10
65.25
 20
-657.96
 11
65.0213
 21
-657.936
  0
LINE
  8
0
 10
-57.4787
 20
-657.936
 11
-57.6974
 21
-657.865
  0
LINE
  8
0
 10
-57.6974
 20
-657.865
 11
-57.8966
 21
-657.75
  0
LINE
  8
0
 10
-57.8966
 20
-657.75
 11
-58.0675
 21
-657.596
  0
LINE
  8
0
 10
-58.0675
 20
-657.596
 11
-58.2026
 21
-657.41
  0
LINE
  8
0
 10
-58.2026
 20
-657.41
 11
-58.2962
 21
-657.2
  0
LINE
  8
0
 10
-58.2962
 20
-657.2
 11
-58.344
 21
-656.975
  0
LINE
  8
0
 10
-58.344
 20
-656.975
 11
-58.344
 21
-656.745
  0
LINE
  8
0
 10
-58.344
 20
-656.745
 11
-58.2962
 21
-656.52
  0
LINE
  8
0
 10
-58.2962
 20
-656.52
 11
-58.2026
 21
-656.31
  0
LINE
  8
0
 10
-58.2026
 20
-656.31
 11
-58.0675
 21
-656.124
  0
LINE
  8
0
 10
-58.0675
 20
-656.124
 11
-57.8966
 21
-655.97
  0
LINE
  8
0
 10
-57.8966
 20
-655.97
 11
-57.6974
 21
-655.855
  0
LINE
  8
0
 10
-57.6974
 20
-655.855
 11
-57.4787
 21
-655.784
  0
LINE
  8
0
 10
-57.4787
 20
-655.784
 11
-57.25
 21
-655.76
  0
LINE
  8
0
 10
-57.25
 20
-655.76
 11
-57.0213
 21
-655.784
  0
LINE
  8
0
 10
-57.0213
 20
-655.784
 11
-56.8026
 21
-655.855
  0
LINE
  8
0
 10
-56.8026
 20
-655.855
 11
-56.6034
 21
-655.97
  0
LINE
  8
0
 10
-56.6034
 20
-655.97
 11
-56.4325
 21
-656.124
  0
LINE
  8
0
 10
-56.4325
 20
-656.124
 11
-56.2974
 21
-656.31
  0
LINE
  8
0
 10
-56.2974
 20
-656.31
 11
-56.2038
 21
-656.52
  0
LINE
  8
0
 10
-56.2038
 20
-656.52
 11
-56.156
 21
-656.745
  0
LINE
  8
0
 10
-56.156
 20
-656.745
 11
-56.156
 21
-656.975
  0
LINE
  8
0
 10
-56.156
 20
-656.975
 11
-56.2038
 21
-657.2
  0
LINE
  8
0
 10
-56.2038
 20
-657.2
 11
-56.2974
 21
-657.41
  0
LINE
  8
0
 10
-56.2974
 20
-657.41
 11
-56.4325
 21
-657.596
  0
LINE
  8
0
 10
-56.4325
 20
-657.596
 11
-56.6034
 21
-657.75
  0
LINE
  8
0
 10
-56.6034
 20
-657.75
 11
-56.8026
 21
-657.865
  0
LINE
  8
0
 10
-56.8026
 20
-657.865
 11
-57.0213
 21
-657.936
  0
LINE
  8
0
 10
-57.0213
 20
-657.936
 11
-57.25
 21
-657.96
  0
LINE
  8
0
 10
-57.25
 20
-657.96
 11
-57.4787
 21
-657.936
  0
LINE
  8
0
 10
-57.4787
 20
-663.016
 11
-57.6974
 21
-662.945
  0
LINE
  8
0
 10
-57.6974
 20
-662.945
 11
-57.8966
 21
-662.83
  0
LINE
  8
0
 10
-57.8966
 20
-662.83
 11
-58.0675
 21
-662.676
  0
LINE
  8
0
 10
-58.0675
 20
-662.676
 11
-58.2026
 21
-662.49
  0
LINE
  8
0
 10
-58.2026
 20
-662.49
 11
-58.2962
 21
-662.28
  0
LINE
  8
0
 10
-58.2962
 20
-662.28
 11
-58.344
 21
-662.055
  0
LINE
  8
0
 10
-58.344
 20
-662.055
 11
-58.344
 21
-661.825
  0
LINE
  8
0
 10
-58.344
 20
-661.825
 11
-58.2962
 21
-661.6
  0
LINE
  8
0
 10
-58.2962
 20
-661.6
 11
-58.2026
 21
-661.39
  0
LINE
  8
0
 10
-58.2026
 20
-661.39
 11
-58.0675
 21
-661.204
  0
LINE
  8
0
 10
-58.0675
 20
-661.204
 11
-57.8966
 21
-661.05
  0
LINE
  8
0
 10
-57.8966
 20
-661.05
 11
-57.6974
 21
-660.935
  0
LINE
  8
0
 10
-57.6974
 20
-660.935
 11
-57.4787
 21
-660.864
  0
LINE
  8
0
 10
-57.4787
 20
-660.864
 11
-57.25
 21
-660.84
  0
LINE
  8
0
 10
-57.25
 20
-660.84
 11
-57.0213
 21
-660.864
  0
LINE
  8
0
 10
-57.0213
 20
-660.864
 11
-56.8026
 21
-660.935
  0
LINE
  8
0
 10
-56.8026
 20
-660.935
 11
-56.6034
 21
-661.05
  0
LINE
  8
0
 10
-56.6034
 20
-661.05
 11
-56.4325
 21
-661.204
  0
LINE
  8
0
 10
-56.4325
 20
-661.204
 11
-56.2974
 21
-661.39
  0
LINE
  8
0
 10
-56.2974
 20
-661.39
 11
-56.2038
 21
-661.6
  0
LINE
  8
0
 10
-56.2038
 20
-661.6
 11
-56.156
 21
-661.825
  0
LINE
  8
0
 10
-56.156
 20
-661.825
 11
-56.156
 21
-662.055
  0
LINE
  8
0
 10
-56.156
 20
-662.055
 11
-56.2038
 21
-662.28
  0
LINE
  8
0
 10
-56.2038
 20
-662.28
 11
-56.2974
 21
-662.49
  0
LINE
  8
0
 10
-56.2974
 20
-662.49
 11
-56.4325
 21
-662.676
  0
LINE
  8
0
 10
-56.4325
 20
-662.676
 11
-56.6034
 21
-662.83
  0
LINE
  8
0
 10
-56.6034
 20
-662.83
 11
-56.8026
 21
-662.945
  0
LINE
  8
0
 10
-56.8026
 20
-662.945
 11
-57.0213
 21
-663.016
  0
LINE
  8
0
 10
-57.0213
 20
-663.016
 11
-57.25
 21
-663.04
  0
LINE
  8
0
 10
-57.25
 20
-663.04
 11
-57.4787
 21
-663.016
  0
LINE
  8
0
 10
65.0213
 20
-663.016
 11
64.8026
 21
-662.945
  0
LINE
  8
0
 10
64.8026
 20
-662.945
 11
64.6034
 21
-662.83
  0
LINE
  8
0
 10
64.6034
 20
-662.83
 11
64.4325
 21
-662.676
  0
LINE
  8
0
 10
64.4325
 20
-662.676
 11
64.2974
 21
-662.49
  0
LINE
  8
0
 10
64.2974
 20
-662.49
 11
64.2038
 21
-662.28
  0
LINE
  8
0
 10
64.2038
 20
-662.28
 11
64.156
 21
-662.055
  0
LINE
  8
0
 10
64.156
 20
-662.055
 11
64.156
 21
-661.825
  0
LINE
  8
0
 10
64.156
 20
-661.825
 11
64.2038
 21
-661.6
  0
LINE
  8
0
 10
64.2038
 20
-661.6
 11
64.2974
 21
-661.39
  0
LINE
  8
0
 10
64.2974
 20
-661.39
 11
64.4325
 21
-661.204
  0
LINE
  8
0
 10
64.4325
 20
-661.204
 11
64.6034
 21
-661.05
  0
LINE
  8
0
 10
64.6034
 20
-661.05
 11
64.8026
 21
-660.935
  0
LINE
  8
0
 10
64.8026
 20
-660.935
 11
65.0213
 21
-660.864
  0
LINE
  8
0
 10
65.0213
 20
-660.864
 11
65.25
 21
-660.84
  0
LINE
  8
0
 10
65.25
 20
-660.84
 11
65.4787
 21
-660.864
  0
LINE
  8
0
 10
65.4787
 20
-660.864
 11
65.6974
 21
-660.935
  0
LINE
  8
0
 10
65.6974
 20
-660.935
 11
65.8966
 21
-661.05
  0
LINE
  8
0
 10
65.8966
 20
-661.05
 11
66.0675
 21
-661.204
  0
LINE
  8
0
 10
66.0675
 20
-661.204
 11
66.2026
 21
-661.39
  0
LINE
  8
0
 10
66.2026
 20
-661.39
 11
66.2962
 21
-661.6
  0
LINE
  8
0
 10
66.2962
 20
-661.6
 11
66.344
 21
-661.825
  0
LINE
  8
0
 10
66.344
 20
-661.825
 11
66.344
 21
-662.055
  0
LINE
  8
0
 10
66.344
 20
-662.055
 11
66.2962
 21
-662.28
  0
LINE
  8
0
 10
66.2962
 20
-662.28
 11
66.2026
 21
-662.49
  0
LINE
  8
0
 10
66.2026
 20
-662.49
 11
66.0675
 21
-662.676
  0
LINE
  8
0
 10
66.0675
 20
-662.676
 11
65.8966
 21
-662.83
  0
LINE
  8
0
 10
65.8966
 20
-662.83
 11
65.6974
 21
-662.945
  0
LINE
  8
0
 10
65.6974
 20
-662.945
 11
65.4787
 21
-663.016
  0
LINE
  8
0
 10
65.4787
 20
-663.016
 11
65.25
 21
-663.04
  0
LINE
  8
0
 10
65.25
 20
-663.04
 11
65.0213
 21
-663.016
  0
LINE
  8
0
 10
65.0213
 20
-668.096
 11
64.8026
 21
-668.025
  0
LINE
  8
0
 10
64.8026
 20
-668.025
 11
64.6034
 21
-667.91
  0
LINE
  8
0
 10
64.6034
 20
-667.91
 11
64.4325
 21
-667.756
  0
LINE
  8
0
 10
64.4325
 20
-667.756
 11
64.2974
 21
-667.57
  0
LINE
  8
0
 10
64.2974
 20
-667.57
 11
64.2038
 21
-667.36
  0
LINE
  8
0
 10
64.2038
 20
-667.36
 11
64.156
 21
-667.135
  0
LINE
  8
0
 10
64.156
 20
-667.135
 11
64.156
 21
-666.905
  0
LINE
  8
0
 10
64.156
 20
-666.905
 11
64.2038
 21
-666.68
  0
LINE
  8
0
 10
64.2038
 20
-666.68
 11
64.2974
 21
-666.47
  0
LINE
  8
0
 10
64.2974
 20
-666.47
 11
64.4325
 21
-666.284
  0
LINE
  8
0
 10
64.4325
 20
-666.284
 11
64.6034
 21
-666.13
  0
LINE
  8
0
 10
64.6034
 20
-666.13
 11
64.8026
 21
-666.015
  0
LINE
  8
0
 10
64.8026
 20
-666.015
 11
65.0213
 21
-665.944
  0
LINE
  8
0
 10
65.0213
 20
-665.944
 11
65.25
 21
-665.92
  0
LINE
  8
0
 10
65.25
 20
-665.92
 11
65.4787
 21
-665.944
  0
LINE
  8
0
 10
65.4787
 20
-665.944
 11
65.6974
 21
-666.015
  0
LINE
  8
0
 10
65.6974
 20
-666.015
 11
65.8966
 21
-666.13
  0
LINE
  8
0
 10
65.8966
 20
-666.13
 11
66.0675
 21
-666.284
  0
LINE
  8
0
 10
66.0675
 20
-666.284
 11
66.2026
 21
-666.47
  0
LINE
  8
0
 10
66.2026
 20
-666.47
 11
66.2962
 21
-666.68
  0
LINE
  8
0
 10
66.2962
 20
-666.68
 11
66.344
 21
-666.905
  0
LINE
  8
0
 10
66.344
 20
-666.905
 11
66.344
 21
-667.135
  0
LINE
  8
0
 10
66.344
 20
-667.135
 11
66.2962
 21
-667.36
  0
LINE
  8
0
 10
66.2962
 20
-667.36
 11
66.2026
 21
-667.57
  0
LINE
  8
0
 10
66.2026
 20
-667.57
 11
66.0675
 21
-667.756
  0
LINE
  8
0
 10
66.0675
 20
-667.756
 11
65.8966
 21
-667.91
  0
LINE
  8
0
 10
65.8966
 20
-667.91
 11
65.6974
 21
-668.025
  0
LINE
  8
0
 10
65.6974
 20
-668.025
 11
65.4787
 21
-668.096
  0
LINE
  8
0
 10
65.4787
 20
-668.096
 11
65.25
 21
-668.12
  0
LINE
  8
0
 10
65.25
 20
-668.12
 11
65.0213
 21
-668.096
  0
LINE
  8
0
 10
-57.4787
 20
-668.096
 11
-57.6974
 21
-668.025
  0
LINE
  8
0
 10
-57.6974
 20
-668.025
 11
-57.8966
 21
-667.91
  0
LINE
  8
0
 10
-57.8966
 20
-667.91
 11
-58.0675
 21
-667.756
  0
LINE
  8
0
 10
-58.0675
 20
-667.756
 11
-58.2026
 21
-667.57
  0
LINE
  8
0
 10
-58.2026
 20
-667.57
 11
-58.2962
 21
-667.36
  0
LINE
  8
0
 10
-58.2962
 20
-667.36
 11
-58.344
 21
-667.135
  0
LINE
  8
0
 10
-58.344
 20
-667.135
 11
-58.344
 21
-666.905
  0
LINE
  8
0
 10
-58.344
 20
-666.905
 11
-58.2962
 21
-666.68
  0
LINE
  8
0
 10
-58.2962
 20
-666.68
 11
-58.2026
 21
-666.47
  0
LINE
  8
0
 10
-58.2026
 20
-666.47
 11
-58.0675
 21
-666.284
  0
LINE
  8
0
 10
-58.0675
 20
-666.284
 11
-57.8966
 21
-666.13
  0
LINE
  8
0
 10
-57.8966
 20
-666.13
 11
-57.6974
 21
-666.015
  0
LINE
  8
0
 10
-57.6974
 20
-666.015
 11
-57.4787
 21
-665.944
  0
LINE
  8
0
 10
-57.4787
 20
-665.944
 11
-57.25
 21
-665.92
  0
LINE
  8
0
 10
-57.25
 20
-665.92
 11
-57.0213
 21
-665.944
  0
LINE
  8
0
 10
-57.0213
 20
-665.944
 11
-56.8026
 21
-666.015
  0
LINE
  8
0
 10
-56.8026
 20
-666.015
 11
-56.6034
 21
-666.13
  0
LINE
  8
0
 10
-56.6034
 20
-666.13
 11
-56.4325
 21
-666.284
  0
LINE
  8
0
 10
-56.4325
 20
-666.284
 11
-56.2974
 21
-666.47
  0
LINE
  8
0
 10
-56.2974
 20
-666.47
 11
-56.2038
 21
-666.68
  0
LINE
  8
0
 10
-56.2038
 20
-666.68
 11
-56.156
 21
-666.905
  0
LINE
  8
0
 10
-56.156
 20
-666.905
 11
-56.156
 21
-667.135
  0
LINE
  8
0
 10
-56.156
 20
-667.135
 11
-56.2038
 21
-667.36
  0
LINE
  8
0
 10
-56.2038
 20
-667.36
 11
-56.2974
 21
-667.57
  0
LINE
  8
0
 10
-56.2974
 20
-667.57
 11
-56.4325
 21
-667.756
  0
LINE
  8
0
 10
-56.4325
 20
-667.756
 11
-56.6034
 21
-667.91
  0
LINE
  8
0
 10
-56.6034
 20
-667.91
 11
-56.8026
 21
-668.025
  0
LINE
  8
0
 10
-56.8026
 20
-668.025
 11
-57.0213
 21
-668.096
  0
LINE
  8
0
 10
-57.0213
 20
-668.096
 11
-57.25
 21
-668.12
  0
LINE
  8
0
 10
-57.25
 20
-668.12
 11
-57.4787
 21
-668.096
  0
LINE
  8
0
 10
-57.4787
 20
-673.176
 11
-57.6974
 21
-673.105
  0
LINE
  8
0
 10
-57.6974
 20
-673.105
 11
-57.8966
 21
-672.99
  0
LINE
  8
0
 10
-57.8966
 20
-672.99
 11
-58.0675
 21
-672.836
  0
LINE
  8
0
 10
-58.0675
 20
-672.836
 11
-58.2026
 21
-672.65
  0
LINE
  8
0
 10
-58.2026
 20
-672.65
 11
-58.2962
 21
-672.44
  0
LINE
  8
0
 10
-58.2962
 20
-672.44
 11
-58.344
 21
-672.215
  0
LINE
  8
0
 10
-58.344
 20
-672.215
 11
-58.344
 21
-671.985
  0
LINE
  8
0
 10
-58.344
 20
-671.985
 11
-58.2962
 21
-671.76
  0
LINE
  8
0
 10
-58.2962
 20
-671.76
 11
-58.2026
 21
-671.55
  0
LINE
  8
0
 10
-58.2026
 20
-671.55
 11
-58.0675
 21
-671.364
  0
LINE
  8
0
 10
-58.0675
 20
-671.364
 11
-57.8966
 21
-671.21
  0
LINE
  8
0
 10
-57.8966
 20
-671.21
 11
-57.6974
 21
-671.095
  0
LINE
  8
0
 10
-57.6974
 20
-671.095
 11
-57.4787
 21
-671.024
  0
LINE
  8
0
 10
-57.4787
 20
-671.024
 11
-57.25
 21
-671
  0
LINE
  8
0
 10
-57.25
 20
-671
 11
-57.0213
 21
-671.024
  0
LINE
  8
0
 10
-57.0213
 20
-671.024
 11
-56.8026
 21
-671.095
  0
LINE
  8
0
 10
-56.8026
 20
-671.095
 11
-56.6034
 21
-671.21
  0
LINE
  8
0
 10
-56.6034
 20
-671.21
 11
-56.4325
 21
-671.364
  0
LINE
  8
0
 10
-56.4325
 20
-671.364
 11
-56.2974
 21
-671.55
  0
LINE
  8
0
 10
-56.2974
 20
-671.55
 11
-56.2038
 21
-671.76
  0
LINE
  8
0
 10
-56.2038
 20
-671.76
 11
-56.156
 21
-671.985
  0
LINE
  8
0
 10
-56.156
 20
-671.985
 11
-56.156
 21
-672.215
  0
LINE
  8
0
 10
-56.156
 20
-672.215
 11
-56.2038
 21
-672.44
  0
LINE
  8
0
 10
-56.2038
 20
-672.44
 11
-56.2974
 21
-672.65
  0
LINE
  8
0
 10
-56.2974
 20
-672.65
 11
-56.4325
 21
-672.836
  0
LINE
  8
0
 10
-56.4325
 20
-672.836
 11
-56.6034
 21
-672.99
  0
LINE
  8
0
 10
-56.6034
 20
-672.99
 11
-56.8026
 21
-673.105
  0
LINE
  8
0
 10
-56.8026
 20
-673.105
 11
-57.0213
 21
-673.176
  0
LINE
  8
0
 10
-57.0213
 20
-673.176
 11
-57.25
 21
-673.2
  0
LINE
  8
0
 10
-57.25
 20
-673.2
 11
-57.4787
 21
-673.176
  0
LINE
  8
0
 10
65.0213
 20
-673.176
 11
64.8026
 21
-673.105
  0
LINE
  8
0
 10
64.8026
 20
-673.105
 11
64.6034
 21
-672.99
  0
LINE
  8
0
 10
64.6034
 20
-672.99
 11
64.4325
 21
-672.836
  0
LINE
  8
0
 10
64.4325
 20
-672.836
 11
64.2974
 21
-672.65
  0
LINE
  8
0
 10
64.2974
 20
-672.65
 11
64.2038
 21
-672.44
  0
LINE
  8
0
 10
64.2038
 20
-672.44
 11
64.156
 21
-672.215
  0
LINE
  8
0
 10
64.156
 20
-672.215
 11
64.156
 21
-671.985
  0
LINE
  8
0
 10
64.156
 20
-671.985
 11
64.2038
 21
-671.76
  0
LINE
  8
0
 10
64.2038
 20
-671.76
 11
64.2974
 21
-671.55
  0
LINE
  8
0
 10
64.2974
 20
-671.55
 11
64.4325
 21
-671.364
  0
LINE
  8
0
 10
64.4325
 20
-671.364
 11
64.6034
 21
-671.21
  0
LINE
  8
0
 10
64.6034
 20
-671.21
 11
64.8026
 21
-671.095
  0
LINE
  8
0
 10
64.8026
 20
-671.095
 11
65.0213
 21
-671.024
  0
LINE
  8
0
 10
65.0213
 20
-671.024
 11
65.25
 21
-671
  0
LINE
  8
0
 10
65.25
 20
-671
 11
65.4787
 21
-671.024
  0
LINE
  8
0
 10
65.4787
 20
-671.024
 11
65.6974
 21
-671.095
  0
LINE
  8
0
 10
65.6974
 20
-671.095
 11
65.8966
 21
-671.21
  0
LINE
  8
0
 10
65.8966
 20
-671.21
 11
66.0675
 21
-671.364
  0
LINE
  8
0
 10
66.0675
 20
-671.364
 11
66.2026
 21
-671.55
  0
LINE
  8
0
 10
66.2026
 20
-671.55
 11
66.2962
 21
-671.76
  0
LINE
  8
0
 10
66.2962
 20
-671.76
 11
66.344
 21
-671.985
  0
LINE
  8
0
 10
66.344
 20
-671.985
 11
66.344
 21
-672.215
  0
LINE
  8
0
 10
66.344
 20
-672.215
 11
66.2962
 21
-672.44
  0
LINE
  8
0
 10
66.2962
 20
-672.44
 11
66.2026
 21
-672.65
  0
LINE
  8
0
 10
66.2026
 20
-672.65
 11
66.0675
 21
-672.836
  0
LINE
  8
0
 10
66.0675
 20
-672.836
 11
65.8966
 21
-672.99
  0
LINE
  8
0
 10
65.8966
 20
-672.99
 11
65.6974
 21
-673.105
  0
LINE
  8
0
 10
65.6974
 20
-673.105
 11
65.4787
 21
-673.176
  0
LINE
  8
0
 10
65.4787
 20
-673.176
 11
65.25
 21
-673.2
  0
LINE
  8
0
 10
65.25
 20
-673.2
 11
65.0213
 21
-673.176
  0
LINE
  8
0
 10
65.0213
 20
-678.256
 11
64.8026
 21
-678.185
  0
LINE
  8
0
 10
64.8026
 20
-678.185
 11
64.6034
 21
-678.07
  0
LINE
  8
0
 10
64.6034
 20
-678.07
 11
64.4325
 21
-677.916
  0
LINE
  8
0
 10
64.4325
 20
-677.916
 11
64.2974
 21
-677.73
  0
LINE
  8
0
 10
64.2974
 20
-677.73
 11
64.2038
 21
-677.52
  0
LINE
  8
0
 10
64.2038
 20
-677.52
 11
64.156
 21
-677.295
  0
LINE
  8
0
 10
64.156
 20
-677.295
 11
64.156
 21
-677.065
  0
LINE
  8
0
 10
64.156
 20
-677.065
 11
64.2038
 21
-676.84
  0
LINE
  8
0
 10
64.2038
 20
-676.84
 11
64.2974
 21
-676.63
  0
LINE
  8
0
 10
64.2974
 20
-676.63
 11
64.4325
 21
-676.444
  0
LINE
  8
0
 10
64.4325
 20
-676.444
 11
64.6034
 21
-676.29
  0
LINE
  8
0
 10
64.6034
 20
-676.29
 11
64.8026
 21
-676.175
  0
LINE
  8
0
 10
64.8026
 20
-676.175
 11
65.0213
 21
-676.104
  0
LINE
  8
0
 10
65.0213
 20
-676.104
 11
65.25
 21
-676.08
  0
LINE
  8
0
 10
65.25
 20
-676.08
 11
65.4787
 21
-676.104
  0
LINE
  8
0
 10
65.4787
 20
-676.104
 11
65.6974
 21
-676.175
  0
LINE
  8
0
 10
65.6974
 20
-676.175
 11
65.8966
 21
-676.29
  0
LINE
  8
0
 10
65.8966
 20
-676.29
 11
66.0675
 21
-676.444
  0
LINE
  8
0
 10
66.0675
 20
-676.444
 11
66.2026
 21
-676.63
  0
LINE
  8
0
 10
66.2026
 20
-676.63
 11
66.2962
 21
-676.84
  0
LINE
  8
0
 10
66.2962
 20
-676.84
 11
66.344
 21
-677.065
  0
LINE
  8
0
 10
66.344
 20
-677.065
 11
66.344
 21
-677.295
  0
LINE
  8
0
 10
66.344
 20
-677.295
 11
66.2962
 21
-677.52
  0
LINE
  8
0
 10
66.2962
 20
-677.52
 11
66.2026
 21
-677.73
  0
LINE
  8
0
 10
66.2026
 20
-677.73
 11
66.0675
 21
-677.916
  0
LINE
  8
0
 10
66.0675
 20
-677.916
 11
65.8966
 21
-678.07
  0
LINE
  8
0
 10
65.8966
 20
-678.07
 11
65.6974
 21
-678.185
  0
LINE
  8
0
 10
65.6974
 20
-678.185
 11
65.4787
 21
-678.256
  0
LINE
  8
0
 10
65.4787
 20
-678.256
 11
65.25
 21
-678.28
  0
LINE
  8
0
 10
65.25
 20
-678.28
 11
65.0213
 21
-678.256
  0
LINE
  8
0
 10
-57.4787
 20
-678.256
 11
-57.6974
 21
-678.185
  0
LINE
  8
0
 10
-57.6974
 20
-678.185
 11
-57.8966
 21
-678.07
  0
LINE
  8
0
 10
-57.8966
 20
-678.07
 11
-58.0675
 21
-677.916
  0
LINE
  8
0
 10
-58.0675
 20
-677.916
 11
-58.2026
 21
-677.73
  0
LINE
  8
0
 10
-58.2026
 20
-677.73
 11
-58.2962
 21
-677.52
  0
LINE
  8
0
 10
-58.2962
 20
-677.52
 11
-58.344
 21
-677.295
  0
LINE
  8
0
 10
-58.344
 20
-677.295
 11
-58.344
 21
-677.065
  0
LINE
  8
0
 10
-58.344
 20
-677.065
 11
-58.2962
 21
-676.84
  0
LINE
  8
0
 10
-58.2962
 20
-676.84
 11
-58.2026
 21
-676.63
  0
LINE
  8
0
 10
-58.2026
 20
-676.63
 11
-58.0675
 21
-676.444
  0
LINE
  8
0
 10
-58.0675
 20
-676.444
 11
-57.8966
 21
-676.29
  0
LINE
  8
0
 10
-57.8966
 20
-676.29
 11
-57.6974
 21
-676.175
  0
LINE
  8
0
 10
-57.6974
 20
-676.175
 11
-57.4787
 21
-676.104
  0
LINE
  8
0
 10
-57.4787
 20
-676.104
 11
-57.25
 21
-676.08
  0
LINE
  8
0
 10
-57.25
 20
-676.08
 11
-57.0213
 21
-676.104
  0
LINE
  8
0
 10
-57.0213
 20
-676.104
 11
-56.8026
 21
-676.175
  0
LINE
  8
0
 10
-56.8026
 20
-676.175
 11
-56.6034
 21
-676.29
  0
LINE
  8
0
 10
-56.6034
 20
-676.29
 11
-56.4325
 21
-676.444
  0
LINE
  8
0
 10
-56.4325
 20
-676.444
 11
-56.2974
 21
-676.63
  0
LINE
  8
0
 10
-56.2974
 20
-676.63
 11
-56.2038
 21
-676.84
  0
LINE
  8
0
 10
-56.2038
 20
-676.84
 11
-56.156
 21
-677.065
  0
LINE
  8
0
 10
-56.156
 20
-677.065
 11
-56.156
 21
-677.295
  0
LINE
  8
0
 10
-56.156
 20
-677.295
 11
-56.2038
 21
-677.52
  0
LINE
  8
0
 10
-56.2038
 20
-677.52
 11
-56.2974
 21
-677.73
  0
LINE
  8
0
 10
-56.2974
 20
-677.73
 11
-56.4325
 21
-677.916
  0
LINE
  8
0
 10
-56.4325
 20
-677.916
 11
-56.6034
 21
-678.07
  0
LINE
  8
0
 10
-56.6034
 20
-678.07
 11
-56.8026
 21
-678.185
  0
LINE
  8
0
 10
-56.8026
 20
-678.185
 11
-57.0213
 21
-678.256
  0
LINE
  8
0
 10
-57.0213
 20
-678.256
 11
-57.25
 21
-678.28
  0
LINE
  8
0
 10
-57.25
 20
-678.28
 11
-57.4787
 21
-678.256
  0
LINE
  8
0
 10
-57.4787
 20
-683.336
 11
-57.6974
 21
-683.265
  0
LINE
  8
0
 10
-57.6974
 20
-683.265
 11
-57.8966
 21
-683.15
  0
LINE
  8
0
 10
-57.8966
 20
-683.15
 11
-58.0675
 21
-682.996
  0
LINE
  8
0
 10
-58.0675
 20
-682.996
 11
-58.2026
 21
-682.81
  0
LINE
  8
0
 10
-58.2026
 20
-682.81
 11
-58.2962
 21
-682.6
  0
LINE
  8
0
 10
-58.2962
 20
-682.6
 11
-58.344
 21
-682.375
  0
LINE
  8
0
 10
-58.344
 20
-682.375
 11
-58.344
 21
-682.145
  0
LINE
  8
0
 10
-58.344
 20
-682.145
 11
-58.2962
 21
-681.92
  0
LINE
  8
0
 10
-58.2962
 20
-681.92
 11
-58.2026
 21
-681.71
  0
LINE
  8
0
 10
-58.2026
 20
-681.71
 11
-58.0675
 21
-681.524
  0
LINE
  8
0
 10
-58.0675
 20
-681.524
 11
-57.8966
 21
-681.37
  0
LINE
  8
0
 10
-57.8966
 20
-681.37
 11
-57.6974
 21
-681.255
  0
LINE
  8
0
 10
-57.6974
 20
-681.255
 11
-57.4787
 21
-681.184
  0
LINE
  8
0
 10
-57.4787
 20
-681.184
 11
-57.25
 21
-681.16
  0
LINE
  8
0
 10
-57.25
 20
-681.16
 11
-57.0213
 21
-681.184
  0
LINE
  8
0
 10
-57.0213
 20
-681.184
 11
-56.8026
 21
-681.255
  0
LINE
  8
0
 10
-56.8026
 20
-681.255
 11
-56.6034
 21
-681.37
  0
LINE
  8
0
 10
-56.6034
 20
-681.37
 11
-56.4325
 21
-681.524
  0
LINE
  8
0
 10
-56.4325
 20
-681.524
 11
-56.2974
 21
-681.71
  0
LINE
  8
0
 10
-56.2974
 20
-681.71
 11
-56.2038
 21
-681.92
  0
LINE
  8
0
 10
-56.2038
 20
-681.92
 11
-56.156
 21
-682.145
  0
LINE
  8
0
 10
-56.156
 20
-682.145
 11
-56.156
 21
-682.375
  0
LINE
  8
0
 10
-56.156
 20
-682.375
 11
-56.2038
 21
-682.6
  0
LINE
  8
0
 10
-56.2038
 20
-682.6
 11
-56.2974
 21
-682.81
  0
LINE
  8
0
 10
-56.2974
 20
-682.81
 11
-56.4325
 21
-682.996
  0
LINE
  8
0
 10
-56.4325
 20
-682.996
 11
-56.6034
 21
-683.15
  0
LINE
  8
0
 10
-56.6034
 20
-683.15
 11
-56.8026
 21
-683.265
  0
LINE
  8
0
 10
-56.8026
 20
-683.265
 11
-57.0213
 21
-683.336
  0
LINE
  8
0
 10
-57.0213
 20
-683.336
 11
-57.25
 21
-683.36
  0
LINE
  8
0
 10
-57.25
 20
-683.36
 11
-57.4787
 21
-683.336
  0
LINE
  8
0
 10
65.0213
 20
-683.336
 11
64.8026
 21
-683.265
  0
LINE
  8
0
 10
64.8026
 20
-683.265
 11
64.6034
 21
-683.15
  0
LINE
  8
0
 10
64.6034
 20
-683.15
 11
64.4325
 21
-682.996
  0
LINE
  8
0
 10
64.4325
 20
-682.996
 11
64.2974
 21
-682.81
  0
LINE
  8
0
 10
64.2974
 20
-682.81
 11
64.2038
 21
-682.6
  0
LINE
  8
0
 10
64.2038
 20
-682.6
 11
64.156
 21
-682.375
  0
LINE
  8
0
 10
64.156
 20
-682.375
 11
64.156
 21
-682.145
  0
LINE
  8
0
 10
64.156
 20
-682.145
 11
64.2038
 21
-681.92
  0
LINE
  8
0
 10
64.2038
 20
-681.92
 11
64.2974
 21
-681.71
  0
LINE
  8
0
 10
64.2974
 20
-681.71
 11
64.4325
 21
-681.524
  0
LINE
  8
0
 10
64.4325
 20
-681.524
 11
64.6034
 21
-681.37
  0
LINE
  8
0
 10
64.6034
 20
-681.37
 11
64.8026
 21
-681.255
  0
LINE
  8
0
 10
64.8026
 20
-681.255
 11
65.0213
 21
-681.184
  0
LINE
  8
0
 10
65.0213
 20
-681.184
 11
65.25
 21
-681.16
  0
LINE
  8
0
 10
65.25
 20
-681.16
 11
65.4787
 21
-681.184
  0
LINE
  8
0
 10
65.4787
 20
-681.184
 11
65.6974
 21
-681.255
  0
LINE
  8
0
 10
65.6974
 20
-681.255
 11
65.8966
 21
-681.37
  0
LINE
  8
0
 10
65.8966
 20
-681.37
 11
66.0675
 21
-681.524
  0
LINE
  8
0
 10
66.0675
 20
-681.524
 11
66.2026
 21
-681.71
  0
LINE
  8
0
 10
66.2026
 20
-681.71
 11
66.2962
 21
-681.92
  0
LINE
  8
0
 10
66.2962
 20
-681.92
 11
66.344
 21
-682.145
  0
LINE
  8
0
 10
66.344
 20
-682.145
 11
66.344
 21
-682.375
  0
LINE
  8
0
 10
66.344
 20
-682.375
 11
66.2962
 21
-682.6
  0
LINE
  8
0
 10
66.2962
 20
-682.6
 11
66.2026
 21
-682.81
  0
LINE
  8
0
 10
66.2026
 20
-682.81
 11
66.0675
 21
-682.996
  0
LINE
  8
0
 10
66.0675
 20
-682.996
 11
65.8966
 21
-683.15
  0
LINE
  8
0
 10
65.8966
 20
-683.15
 11
65.6974
 21
-683.265
  0
LINE
  8
0
 10
65.6974
 20
-683.265
 11
65.4787
 21
-683.336
  0
LINE
  8
0
 10
65.4787
 20
-683.336
 11
65.25
 21
-683.36
  0
LINE
  8
0
 10
65.25
 20
-683.36
 11
65.0213
 21
-683.336
  0
LINE
  8
0
 10
-57.4787
 20
-688.416
 11
-57.6974
 21
-688.345
  0
LINE
  8
0
 10
-57.6974
 20
-688.345
 11
-57.8966
 21
-688.23
  0
LINE
  8
0
 10
-57.8966
 20
-688.23
 11
-58.0675
 21
-688.076
  0
LINE
  8
0
 10
-58.0675
 20
-688.076
 11
-58.2026
 21
-687.89
  0
LINE
  8
0
 10
-58.2026
 20
-687.89
 11
-58.2962
 21
-687.68
  0
LINE
  8
0
 10
-58.2962
 20
-687.68
 11
-58.344
 21
-687.455
  0
LINE
  8
0
 10
-58.344
 20
-687.455
 11
-58.344
 21
-687.225
  0
LINE
  8
0
 10
-58.344
 20
-687.225
 11
-58.2962
 21
-687
  0
LINE
  8
0
 10
-58.2962
 20
-687
 11
-58.2026
 21
-686.79
  0
LINE
  8
0
 10
-58.2026
 20
-686.79
 11
-58.0675
 21
-686.604
  0
LINE
  8
0
 10
-58.0675
 20
-686.604
 11
-57.8966
 21
-686.45
  0
LINE
  8
0
 10
-57.8966
 20
-686.45
 11
-57.6974
 21
-686.335
  0
LINE
  8
0
 10
-57.6974
 20
-686.335
 11
-57.4787
 21
-686.264
  0
LINE
  8
0
 10
-57.4787
 20
-686.264
 11
-57.25
 21
-686.24
  0
LINE
  8
0
 10
-57.25
 20
-686.24
 11
-57.0213
 21
-686.264
  0
LINE
  8
0
 10
-57.0213
 20
-686.264
 11
-56.8026
 21
-686.335
  0
LINE
  8
0
 10
-56.8026
 20
-686.335
 11
-56.6034
 21
-686.45
  0
LINE
  8
0
 10
-56.6034
 20
-686.45
 11
-56.4325
 21
-686.604
  0
LINE
  8
0
 10
-56.4325
 20
-686.604
 11
-56.2974
 21
-686.79
  0
LINE
  8
0
 10
-56.2974
 20
-686.79
 11
-56.2038
 21
-687
  0
LINE
  8
0
 10
-56.2038
 20
-687
 11
-56.156
 21
-687.225
  0
LINE
  8
0
 10
-56.156
 20
-687.225
 11
-56.156
 21
-687.455
  0
LINE
  8
0
 10
-56.156
 20
-687.455
 11
-56.2038
 21
-687.68
  0
LINE
  8
0
 10
-56.2038
 20
-687.68
 11
-56.2974
 21
-687.89
  0
LINE
  8
0
 10
-56.2974
 20
-687.89
 11
-56.4325
 21
-688.076
  0
LINE
  8
0
 10
-56.4325
 20
-688.076
 11
-56.6034
 21
-688.23
  0
LINE
  8
0
 10
-56.6034
 20
-688.23
 11
-56.8026
 21
-688.345
  0
LINE
  8
0
 10
-56.8026
 20
-688.345
 11
-57.0213
 21
-688.416
  0
LINE
  8
0
 10
-57.0213
 20
-688.416
 11
-57.25
 21
-688.44
  0
LINE
  8
0
 10
-57.25
 20
-688.44
 11
-57.4787
 21
-688.416
  0
LINE
  8
0
 10
65.0213
 20
-688.416
 11
64.8026
 21
-688.345
  0
LINE
  8
0
 10
64.8026
 20
-688.345
 11
64.6034
 21
-688.23
  0
LINE
  8
0
 10
64.6034
 20
-688.23
 11
64.4325
 21
-688.076
  0
LINE
  8
0
 10
64.4325
 20
-688.076
 11
64.2974
 21
-687.89
  0
LINE
  8
0
 10
64.2974
 20
-687.89
 11
64.2038
 21
-687.68
  0
LINE
  8
0
 10
64.2038
 20
-687.68
 11
64.156
 21
-687.455
  0
LINE
  8
0
 10
64.156
 20
-687.455
 11
64.156
 21
-687.225
  0
LINE
  8
0
 10
64.156
 20
-687.225
 11
64.2038
 21
-687
  0
LINE
  8
0
 10
64.2038
 20
-687
 11
64.2974
 21
-686.79
  0
LINE
  8
0
 10
64.2974
 20
-686.79
 11
64.4325
 21
-686.604
  0
LINE
  8
0
 10
64.4325
 20
-686.604
 11
64.6034
 21
-686.45
  0
LINE
  8
0
 10
64.6034
 20
-686.45
 11
64.8026
 21
-686.335
  0
LINE
  8
0
 10
64.8026
 20
-686.335
 11
65.0213
 21
-686.264
  0
LINE
  8
0
 10
65.0213
 20
-686.264
 11
65.25
 21
-686.24
  0
LINE
  8
0
 10
65.25
 20
-686.24
 11
65.4787
 21
-686.264
  0
LINE
  8
0
 10
65.4787
 20
-686.264
 11
65.6974
 21
-686.335
  0
LINE
  8
0
 10
65.6974
 20
-686.335
 11
65.8966
 21
-686.45
  0
LINE
  8
0
 10
65.8966
 20
-686.45
 11
66.0675
 21
-686.604
  0
LINE
  8
0
 10
66.0675
 20
-686.604
 11
66.2026
 21
-686.79
  0
LINE
  8
0
 10
66.2026
 20
-686.79
 11
66.2962
 21
-687
  0
LINE
  8
0
 10
66.2962
 20
-687
 11
66.344
 21
-687.225
  0
LINE
  8
0
 10
66.344
 20
-687.225
 11
66.344
 21
-687.455
  0
LINE
  8
0
 10
66.344
 20
-687.455
 11
66.2962
 21
-687.68
  0
LINE
  8
0
 10
66.2962
 20
-687.68
 11
66.2026
 21
-687.89
  0
LINE
  8
0
 10
66.2026
 20
-687.89
 11
66.0675
 21
-688.076
  0
LINE
  8
0
 10
66.0675
 20
-688.076
 11
65.8966
 21
-688.23
  0
LINE
  8
0
 10
65.8966
 20
-688.23
 11
65.6974
 21
-688.345
  0
LINE
  8
0
 10
65.6974
 20
-688.345
 11
65.4787
 21
-688.416
  0
LINE
  8
0
 10
65.4787
 20
-688.416
 11
65.25
 21
-688.44
  0
LINE
  8
0
 10
65.25
 20
-688.44
 11
65.0213
 21
-688.416
  0
LINE
  8
0
 10
65.0213
 20
-693.496
 11
64.8026
 21
-693.425
  0
LINE
  8
0
 10
64.8026
 20
-693.425
 11
64.6034
 21
-693.31
  0
LINE
  8
0
 10
64.6034
 20
-693.31
 11
64.4325
 21
-693.156
  0
LINE
  8
0
 10
64.4325
 20
-693.156
 11
64.2974
 21
-692.97
  0
LINE
  8
0
 10
64.2974
 20
-692.97
 11
64.2038
 21
-692.76
  0
LINE
  8
0
 10
64.2038
 20
-692.76
 11
64.156
 21
-692.535
  0
LINE
  8
0
 10
64.156
 20
-692.535
 11
64.156
 21
-692.305
  0
LINE
  8
0
 10
64.156
 20
-692.305
 11
64.2038
 21
-692.08
  0
LINE
  8
0
 10
64.2038
 20
-692.08
 11
64.2974
 21
-691.87
  0
LINE
  8
0
 10
64.2974
 20
-691.87
 11
64.4325
 21
-691.684
  0
LINE
  8
0
 10
64.4325
 20
-691.684
 11
64.6034
 21
-691.53
  0
LINE
  8
0
 10
64.6034
 20
-691.53
 11
64.8026
 21
-691.415
  0
LINE
  8
0
 10
64.8026
 20
-691.415
 11
65.0213
 21
-691.344
  0
LINE
  8
0
 10
65.0213
 20
-691.344
 11
65.25
 21
-691.32
  0
LINE
  8
0
 10
65.25
 20
-691.32
 11
65.4787
 21
-691.344
  0
LINE
  8
0
 10
65.4787
 20
-691.344
 11
65.6974
 21
-691.415
  0
LINE
  8
0
 10
65.6974
 20
-691.415
 11
65.8966
 21
-691.53
  0
LINE
  8
0
 10
65.8966
 20
-691.53
 11
66.0675
 21
-691.684
  0
LINE
  8
0
 10
66.0675
 20
-691.684
 11
66.2026
 21
-691.87
  0
LINE
  8
0
 10
66.2026
 20
-691.87
 11
66.2962
 21
-692.08
  0
LINE
  8
0
 10
66.2962
 20
-692.08
 11
66.344
 21
-692.305
  0
LINE
  8
0
 10
66.344
 20
-692.305
 11
66.344
 21
-692.535
  0
LINE
  8
0
 10
66.344
 20
-692.535
 11
66.2962
 21
-692.76
  0
LINE
  8
0
 10
66.2962
 20
-692.76
 11
66.2026
 21
-692.97
  0
LINE
  8
0
 10
66.2026
 20
-692.97
 11
66.0675
 21
-693.156
  0
LINE
  8
0
 10
66.0675
 20
-693.156
 11
65.8966
 21
-693.31
  0
LINE
  8
0
 10
65.8966
 20
-693.31
 11
65.6974
 21
-693.425
  0
LINE
  8
0
 10
65.6974
 20
-693.425
 11
65.4787
 21
-693.496
  0
LINE
  8
0
 10
65.4787
 20
-693.496
 11
65.25
 21
-693.52
  0
LINE
  8
0
 10
65.25
 20
-693.52
 11
65.0213
 21
-693.496
  0
LINE
  8
0
 10
-57.4787
 20
-693.496
 11
-57.6974
 21
-693.425
  0
LINE
  8
0
 10
-57.6974
 20
-693.425
 11
-57.8966
 21
-693.31
  0
LINE
  8
0
 10
-57.8966
 20
-693.31
 11
-58.0675
 21
-693.156
  0
LINE
  8
0
 10
-58.0675
 20
-693.156
 11
-58.2026
 21
-692.97
  0
LINE
  8
0
 10
-58.2026
 20
-692.97
 11
-58.2962
 21
-692.76
  0
LINE
  8
0
 10
-58.2962
 20
-692.76
 11
-58.344
 21
-692.535
  0
LINE
  8
0
 10
-58.344
 20
-692.535
 11
-58.344
 21
-692.305
  0
LINE
  8
0
 10
-58.344
 20
-692.305
 11
-58.2962
 21
-692.08
  0
LINE
  8
0
 10
-58.2962
 20
-692.08
 11
-58.2026
 21
-691.87
  0
LINE
  8
0
 10
-58.2026
 20
-691.87
 11
-58.0675
 21
-691.684
  0
LINE
  8
0
 10
-58.0675
 20
-691.684
 11
-57.8966
 21
-691.53
  0
LINE
  8
0
 10
-57.8966
 20
-691.53
 11
-57.6974
 21
-691.415
  0
LINE
  8
0
 10
-57.6974
 20
-691.415
 11
-57.4787
 21
-691.344
  0
LINE
  8
0
 10
-57.4787
 20
-691.344
 11
-57.25
 21
-691.32
  0
LINE
  8
0
 10
-57.25
 20
-691.32
 11
-57.0213
 21
-691.344
  0
LINE
  8
0
 10
-57.0213
 20
-691.344
 11
-56.8026
 21
-691.415
  0
LINE
  8
0
 10
-56.8026
 20
-691.415
 11
-56.6034
 21
-691.53
  0
LINE
  8
0
 10
-56.6034
 20
-691.53
 11
-56.4325
 21
-691.684
  0
LINE
  8
0
 10
-56.4325
 20
-691.684
 11
-56.2974
 21
-691.87
  0
LINE
  8
0
 10
-56.2974
 20
-691.87
 11
-56.2038
 21
-692.08
  0
LINE
  8
0
 10
-56.2038
 20
-692.08
 11
-56.156
 21
-692.305
  0
LINE
  8
0
 10
-56.156
 20
-692.305
 11
-56.156
 21
-692.535
  0
LINE
  8
0
 10
-56.156
 20
-692.535
 11
-56.2038
 21
-692.76
  0
LINE
  8
0
 10
-56.2038
 20
-692.76
 11
-56.2974
 21
-692.97
  0
LINE
  8
0
 10
-56.2974
 20
-692.97
 11
-56.4325
 21
-693.156
  0
LINE
  8
0
 10
-56.4325
 20
-693.156
 11
-56.6034
 21
-693.31
  0
LINE
  8
0
 10
-56.6034
 20
-693.31
 11
-56.8026
 21
-693.425
  0
LINE
  8
0
 10
-56.8026
 20
-693.425
 11
-57.0213
 21
-693.496
  0
LINE
  8
0
 10
-57.0213
 20
-693.496
 11
-57.25
 21
-693.52
  0
LINE
  8
0
 10
-57.25
 20
-693.52
 11
-57.4787
 21
-693.496
  0
LINE
  8
0
 10
-57.4787
 20
-698.576
 11
-57.6974
 21
-698.505
  0
LINE
  8
0
 10
-57.6974
 20
-698.505
 11
-57.8966
 21
-698.39
  0
LINE
  8
0
 10
-57.8966
 20
-698.39
 11
-58.0675
 21
-698.236
  0
LINE
  8
0
 10
-58.0675
 20
-698.236
 11
-58.2026
 21
-698.05
  0
LINE
  8
0
 10
-58.2026
 20
-698.05
 11
-58.2962
 21
-697.84
  0
LINE
  8
0
 10
-58.2962
 20
-697.84
 11
-58.344
 21
-697.615
  0
LINE
  8
0
 10
-58.344
 20
-697.615
 11
-58.344
 21
-697.385
  0
LINE
  8
0
 10
-58.344
 20
-697.385
 11
-58.2962
 21
-697.16
  0
LINE
  8
0
 10
-58.2962
 20
-697.16
 11
-58.2026
 21
-696.95
  0
LINE
  8
0
 10
-58.2026
 20
-696.95
 11
-58.0675
 21
-696.764
  0
LINE
  8
0
 10
-58.0675
 20
-696.764
 11
-57.8966
 21
-696.61
  0
LINE
  8
0
 10
-57.8966
 20
-696.61
 11
-57.6974
 21
-696.495
  0
LINE
  8
0
 10
-57.6974
 20
-696.495
 11
-57.4787
 21
-696.424
  0
LINE
  8
0
 10
-57.4787
 20
-696.424
 11
-57.25
 21
-696.4
  0
LINE
  8
0
 10
-57.25
 20
-696.4
 11
-57.0213
 21
-696.424
  0
LINE
  8
0
 10
-57.0213
 20
-696.424
 11
-56.8026
 21
-696.495
  0
LINE
  8
0
 10
-56.8026
 20
-696.495
 11
-56.6034
 21
-696.61
  0
LINE
  8
0
 10
-56.6034
 20
-696.61
 11
-56.4325
 21
-696.764
  0
LINE
  8
0
 10
-56.4325
 20
-696.764
 11
-56.2974
 21
-696.95
  0
LINE
  8
0
 10
-56.2974
 20
-696.95
 11
-56.2038
 21
-697.16
  0
LINE
  8
0
 10
-56.2038
 20
-697.16
 11
-56.156
 21
-697.385
  0
LINE
  8
0
 10
-56.156
 20
-697.385
 11
-56.156
 21
-697.615
  0
LINE
  8
0
 10
-56.156
 20
-697.615
 11
-56.2038
 21
-697.84
  0
LINE
  8
0
 10
-56.2038
 20
-697.84
 11
-56.2974
 21
-698.05
  0
LINE
  8
0
 10
-56.2974
 20
-698.05
 11
-56.4325
 21
-698.236
  0
LINE
  8
0
 10
-56.4325
 20
-698.236
 11
-56.6034
 21
-698.39
  0
LINE
  8
0
 10
-56.6034
 20
-698.39
 11
-56.8026
 21
-698.505
  0
LINE
  8
0
 10
-56.8026
 20
-698.505
 11
-57.0213
 21
-698.576
  0
LINE
  8
0
 10
-57.0213
 20
-698.576
 11
-57.25
 21
-698.6
  0
LINE
  8
0
 10
-57.25
 20
-698.6
 11
-57.4787
 21
-698.576
  0
LINE
  8
0
 10
65.0213
 20
-698.576
 11
64.8026
 21
-698.505
  0
LINE
  8
0
 10
64.8026
 20
-698.505
 11
64.6034
 21
-698.39
  0
LINE
  8
0
 10
64.6034
 20
-698.39
 11
64.4325
 21
-698.236
  0
LINE
  8
0
 10
64.4325
 20
-698.236
 11
64.2974
 21
-698.05
  0
LINE
  8
0
 10
64.2974
 20
-698.05
 11
64.2038
 21
-697.84
  0
LINE
  8
0
 10
64.2038
 20
-697.84
 11
64.156
 21
-697.615
  0
LINE
  8
0
 10
64.156
 20
-697.615
 11
64.156
 21
-697.385
  0
LINE
  8
0
 10
64.156
 20
-697.385
 11
64.2038
 21
-697.16
  0
LINE
  8
0
 10
64.2038
 20
-697.16
 11
64.2974
 21
-696.95
  0
LINE
  8
0
 10
64.2974
 20
-696.95
 11
64.4325
 21
-696.764
  0
LINE
  8
0
 10
64.4325
 20
-696.764
 11
64.6034
 21
-696.61
  0
LINE
  8
0
 10
64.6034
 20
-696.61
 11
64.8026
 21
-696.495
  0
LINE
  8
0
 10
64.8026
 20
-696.495
 11
65.0213
 21
-696.424
  0
LINE
  8
0
 10
65.0213
 20
-696.424
 11
65.25
 21
-696.4
  0
LINE
  8
0
 10
65.25
 20
-696.4
 11
65.4787
 21
-696.424
  0
LINE
  8
0
 10
65.4787
 20
-696.424
 11
65.6974
 21
-696.495
  0
LINE
  8
0
 10
65.6974
 20
-696.495
 11
65.8966
 21
-696.61
  0
LINE
  8
0
 10
65.8966
 20
-696.61
 11
66.0675
 21
-696.764
  0
LINE
  8
0
 10
66.0675
 20
-696.764
 11
66.2026
 21
-696.95
  0
LINE
  8
0
 10
66.2026
 20
-696.95
 11
66.2962
 21
-697.16
  0
LINE
  8
0
 10
66.2962
 20
-697.16
 11
66.344
 21
-697.385
  0
LINE
  8
0
 10
66.344
 20
-697.385
 11
66.344
 21
-697.615
  0
LINE
  8
0
 10
66.344
 20
-697.615
 11
66.2962
 21
-697.84
  0
LINE
  8
0
 10
66.2962
 20
-697.84
 11
66.2026
 21
-698.05
  0
LINE
  8
0
 10
66.2026
 20
-698.05
 11
66.0675
 21
-698.236
  0
LINE
  8
0
 10
66.0675
 20
-698.236
 11
65.8966
 21
-698.39
  0
LINE
  8
0
 10
65.8966
 20
-698.39
 11
65.6974
 21
-698.505
  0
LINE
  8
0
 10
65.6974
 20
-698.505
 11
65.4787
 21
-698.576
  0
LINE
  8
0
 10
65.4787
 20
-698.576
 11
65.25
 21
-698.6
  0
LINE
  8
0
 10
65.25
 20
-698.6
 11
65.0213
 21
-698.576
  0
LINE
  8
0
 10
-57.4787
 20
-703.656
 11
-57.6974
 21
-703.585
  0
LINE
  8
0
 10
-57.6974
 20
-703.585
 11
-57.8966
 21
-703.47
  0
LINE
  8
0
 10
-57.8966
 20
-703.47
 11
-58.0675
 21
-703.316
  0
LINE
  8
0
 10
-58.0675
 20
-703.316
 11
-58.2026
 21
-703.13
  0
LINE
  8
0
 10
-58.2026
 20
-703.13
 11
-58.2962
 21
-702.92
  0
LINE
  8
0
 10
-58.2962
 20
-702.92
 11
-58.344
 21
-702.695
  0
LINE
  8
0
 10
-58.344
 20
-702.695
 11
-58.344
 21
-702.465
  0
LINE
  8
0
 10
-58.344
 20
-702.465
 11
-58.2962
 21
-702.24
  0
LINE
  8
0
 10
-58.2962
 20
-702.24
 11
-58.2026
 21
-702.03
  0
LINE
  8
0
 10
-58.2026
 20
-702.03
 11
-58.0675
 21
-701.844
  0
LINE
  8
0
 10
-58.0675
 20
-701.844
 11
-57.8966
 21
-701.69
  0
LINE
  8
0
 10
-57.8966
 20
-701.69
 11
-57.6974
 21
-701.575
  0
LINE
  8
0
 10
-57.6974
 20
-701.575
 11
-57.4787
 21
-701.504
  0
LINE
  8
0
 10
-57.4787
 20
-701.504
 11
-57.25
 21
-701.48
  0
LINE
  8
0
 10
-57.25
 20
-701.48
 11
-57.0213
 21
-701.504
  0
LINE
  8
0
 10
-57.0213
 20
-701.504
 11
-56.8026
 21
-701.575
  0
LINE
  8
0
 10
-56.8026
 20
-701.575
 11
-56.6034
 21
-701.69
  0
LINE
  8
0
 10
-56.6034
 20
-701.69
 11
-56.4325
 21
-701.844
  0
LINE
  8
0
 10
-56.4325
 20
-701.844
 11
-56.2974
 21
-702.03
  0
LINE
  8
0
 10
-56.2974
 20
-702.03
 11
-56.2038
 21
-702.24
  0
LINE
  8
0
 10
-56.2038
 20
-702.24
 11
-56.156
 21
-702.465
  0
LINE
  8
0
 10
-56.156
 20
-702.465
 11
-56.156
 21
-702.695
  0
LINE
  8
0
 10
-56.156
 20
-702.695
 11
-56.2038
 21
-702.92
  0
LINE
  8
0
 10
-56.2038
 20
-702.92
 11
-56.2974
 21
-703.13
  0
LINE
  8
0
 10
-56.2974
 20
-703.13
 11
-56.4325
 21
-703.316
  0
LINE
  8
0
 10
-56.4325
 20
-703.316
 11
-56.6034
 21
-703.47
  0
LINE
  8
0
 10
-56.6034
 20
-703.47
 11
-56.8026
 21
-703.585
  0
LINE
  8
0
 10
-56.8026
 20
-703.585
 11
-57.0213
 21
-703.656
  0
LINE
  8
0
 10
-57.0213
 20
-703.656
 11
-57.25
 21
-703.68
  0
LINE
  8
0
 10
-57.25
 20
-703.68
 11
-57.4787
 21
-703.656
  0
LINE
  8
0
 10
65.0213
 20
-703.656
 11
64.8026
 21
-703.585
  0
LINE
  8
0
 10
64.8026
 20
-703.585
 11
64.6034
 21
-703.47
  0
LINE
  8
0
 10
64.6034
 20
-703.47
 11
64.4325
 21
-703.316
  0
LINE
  8
0
 10
64.4325
 20
-703.316
 11
64.2974
 21
-703.13
  0
LINE
  8
0
 10
64.2974
 20
-703.13
 11
64.2038
 21
-702.92
  0
LINE
  8
0
 10
64.2038
 20
-702.92
 11
64.156
 21
-702.695
  0
LINE
  8
0
 10
64.156
 20
-702.695
 11
64.156
 21
-702.465
  0
LINE
  8
0
 10
64.156
 20
-702.465
 11
64.2038
 21
-702.24
  0
LINE
  8
0
 10
64.2038
 20
-702.24
 11
64.2974
 21
-702.03
  0
LINE
  8
0
 10
64.2974
 20
-702.03
 11
64.4325
 21
-701.844
  0
LINE
  8
0
 10
64.4325
 20
-701.844
 11
64.6034
 21
-701.69
  0
LINE
  8
0
 10
64.6034
 20
-701.69
 11
64.8026
 21
-701.575
  0
LINE
  8
0
 10
64.8026
 20
-701.575
 11
65.0213
 21
-701.504
  0
LINE
  8
0
 10
65.0213
 20
-701.504
 11
65.25
 21
-701.48
  0
LINE
  8
0
 10
65.25
 20
-701.48
 11
65.4787
 21
-701.504
  0
LINE
  8
0
 10
65.4787
 20
-701.504
 11
65.6974
 21
-701.575
  0
LINE
  8
0
 10
65.6974
 20
-701.575
 11
65.8966
 21
-701.69
  0
LINE
  8
0
 10
65.8966
 20
-701.69
 11
66.0675
 21
-701.844
  0
LINE
  8
0
 10
66.0675
 20
-701.844
 11
66.2026
 21
-702.03
  0
LINE
  8
0
 10
66.2026
 20
-702.03
 11
66.2962
 21
-702.24
  0
LINE
  8
0
 10
66.2962
 20
-702.24
 11
66.344
 21
-702.465
  0
LINE
  8
0
 10
66.344
 20
-702.465
 11
66.344
 21
-702.695
  0
LINE
  8
0
 10
66.344
 20
-702.695
 11
66.2962
 21
-702.92
  0
LINE
  8
0
 10
66.2962
 20
-702.92
 11
66.2026
 21
-703.13
  0
LINE
  8
0
 10
66.2026
 20
-703.13
 11
66.0675
 21
-703.316
  0
LINE
  8
0
 10
66.0675
 20
-703.316
 11
65.8966
 21
-703.47
  0
LINE
  8
0
 10
65.8966
 20
-703.47
 11
65.6974
 21
-703.585
  0
LINE
  8
0
 10
65.6974
 20
-703.585
 11
65.4787
 21
-703.656
  0
LINE
  8
0
 10
65.4787
 20
-703.656
 11
65.25
 21
-703.68
  0
LINE
  8
0
 10
65.25
 20
-703.68
 11
65.0213
 21
-703.656
  0
LINE
  8
0
 10
65.0213
 20
-708.736
 11
64.8026
 21
-708.665
  0
LINE
  8
0
 10
64.8026
 20
-708.665
 11
64.6034
 21
-708.55
  0
LINE
  8
0
 10
64.6034
 20
-708.55
 11
64.4325
 21
-708.396
  0
LINE
  8
0
 10
64.4325
 20
-708.396
 11
64.2974
 21
-708.21
  0
LINE
  8
0
 10
64.2974
 20
-708.21
 11
64.2038
 21
-708
  0
LINE
  8
0
 10
64.2038
 20
-708
 11
64.156
 21
-707.775
  0
LINE
  8
0
 10
64.156
 20
-707.775
 11
64.156
 21
-707.545
  0
LINE
  8
0
 10
64.156
 20
-707.545
 11
64.2038
 21
-707.32
  0
LINE
  8
0
 10
64.2038
 20
-707.32
 11
64.2974
 21
-707.11
  0
LINE
  8
0
 10
64.2974
 20
-707.11
 11
64.4325
 21
-706.924
  0
LINE
  8
0
 10
64.4325
 20
-706.924
 11
64.6034
 21
-706.77
  0
LINE
  8
0
 10
64.6034
 20
-706.77
 11
64.8026
 21
-706.655
  0
LINE
  8
0
 10
64.8026
 20
-706.655
 11
65.0213
 21
-706.584
  0
LINE
  8
0
 10
65.0213
 20
-706.584
 11
65.25
 21
-706.56
  0
LINE
  8
0
 10
65.25
 20
-706.56
 11
65.4787
 21
-706.584
  0
LINE
  8
0
 10
65.4787
 20
-706.584
 11
65.6974
 21
-706.655
  0
LINE
  8
0
 10
65.6974
 20
-706.655
 11
65.8966
 21
-706.77
  0
LINE
  8
0
 10
65.8966
 20
-706.77
 11
66.0675
 21
-706.924
  0
LINE
  8
0
 10
66.0675
 20
-706.924
 11
66.2026
 21
-707.11
  0
LINE
  8
0
 10
66.2026
 20
-707.11
 11
66.2962
 21
-707.32
  0
LINE
  8
0
 10
66.2962
 20
-707.32
 11
66.344
 21
-707.545
  0
LINE
  8
0
 10
66.344
 20
-707.545
 11
66.344
 21
-707.775
  0
LINE
  8
0
 10
66.344
 20
-707.775
 11
66.2962
 21
-708
  0
LINE
  8
0
 10
66.2962
 20
-708
 11
66.2026
 21
-708.21
  0
LINE
  8
0
 10
66.2026
 20
-708.21
 11
66.0675
 21
-708.396
  0
LINE
  8
0
 10
66.0675
 20
-708.396
 11
65.8966
 21
-708.55
  0
LINE
  8
0
 10
65.8966
 20
-708.55
 11
65.6974
 21
-708.665
  0
LINE
  8
0
 10
65.6974
 20
-708.665
 11
65.4787
 21
-708.736
  0
LINE
  8
0
 10
65.4787
 20
-708.736
 11
65.25
 21
-708.76
  0
LINE
  8
0
 10
65.25
 20
-708.76
 11
65.0213
 21
-708.736
  0
LINE
  8
0
 10
-57.4787
 20
-708.736
 11
-57.6974
 21
-708.665
  0
LINE
  8
0
 10
-57.6974
 20
-708.665
 11
-57.8966
 21
-708.55
  0
LINE
  8
0
 10
-57.8966
 20
-708.55
 11
-58.0675
 21
-708.396
  0
LINE
  8
0
 10
-58.0675
 20
-708.396
 11
-58.2026
 21
-708.21
  0
LINE
  8
0
 10
-58.2026
 20
-708.21
 11
-58.2962
 21
-708
  0
LINE
  8
0
 10
-58.2962
 20
-708
 11
-58.344
 21
-707.775
  0
LINE
  8
0
 10
-58.344
 20
-707.775
 11
-58.344
 21
-707.545
  0
LINE
  8
0
 10
-58.344
 20
-707.545
 11
-58.2962
 21
-707.32
  0
LINE
  8
0
 10
-58.2962
 20
-707.32
 11
-58.2026
 21
-707.11
  0
LINE
  8
0
 10
-58.2026
 20
-707.11
 11
-58.0675
 21
-706.924
  0
LINE
  8
0
 10
-58.0675
 20
-706.924
 11
-57.8966
 21
-706.77
  0
LINE
  8
0
 10
-57.8966
 20
-706.77
 11
-57.6974
 21
-706.655
  0
LINE
  8
0
 10
-57.6974
 20
-706.655
 11
-57.4787
 21
-706.584
  0
LINE
  8
0
 10
-57.4787
 20
-706.584
 11
-57.25
 21
-706.56
  0
LINE
  8
0
 10
-57.25
 20
-706.56
 11
-57.0213
 21
-706.584
  0
LINE
  8
0
 10
-57.0213
 20
-706.584
 11
-56.8026
 21
-706.655
  0
LINE
  8
0
 10
-56.8026
 20
-706.655
 11
-56.6034
 21
-706.77
  0
LINE
  8
0
 10
-56.6034
 20
-706.77
 11
-56.4325
 21
-706.924
  0
LINE
  8
0
 10
-56.4325
 20
-706.924
 11
-56.2974
 21
-707.11
  0
LINE
  8
0
 10
-56.2974
 20
-707.11
 11
-56.2038
 21
-707.32
  0
LINE
  8
0
 10
-56.2038
 20
-707.32
 11
-56.156
 21
-707.545
  0
LINE
  8
0
 10
-56.156
 20
-707.545
 11
-56.156
 21
-707.775
  0
LINE
  8
0
 10
-56.156
 20
-707.775
 11
-56.2038
 21
-708
  0
LINE
  8
0
 10
-56.2038
 20
-708
 11
-56.2974
 21
-708.21
  0
LINE
  8
0
 10
-56.2974
 20
-708.21
 11
-56.4325
 21
-708.396
  0
LINE
  8
0
 10
-56.4325
 20
-708.396
 11
-56.6034
 21
-708.55
  0
LINE
  8
0
 10
-56.6034
 20
-708.55
 11
-56.8026
 21
-708.665
  0
LINE
  8
0
 10
-56.8026
 20
-708.665
 11
-57.0213
 21
-708.736
  0
LINE
  8
0
 10
-57.0213
 20
-708.736
 11
-57.25
 21
-708.76
  0
LINE
  8
0
 10
-57.25
 20
-708.76
 11
-57.4787
 21
-708.736
  0
LINE
  8
0
 10
65.0213
 20
-713.816
 11
64.8026
 21
-713.745
  0
LINE
  8
0
 10
64.8026
 20
-713.745
 11
64.6034
 21
-713.63
  0
LINE
  8
0
 10
64.6034
 20
-713.63
 11
64.4325
 21
-713.476
  0
LINE
  8
0
 10
64.4325
 20
-713.476
 11
64.2974
 21
-713.29
  0
LINE
  8
0
 10
64.2974
 20
-713.29
 11
64.2038
 21
-713.08
  0
LINE
  8
0
 10
64.2038
 20
-713.08
 11
64.156
 21
-712.855
  0
LINE
  8
0
 10
64.156
 20
-712.855
 11
64.156
 21
-712.625
  0
LINE
  8
0
 10
64.156
 20
-712.625
 11
64.2038
 21
-712.4
  0
LINE
  8
0
 10
64.2038
 20
-712.4
 11
64.2974
 21
-712.19
  0
LINE
  8
0
 10
64.2974
 20
-712.19
 11
64.4325
 21
-712.004
  0
LINE
  8
0
 10
64.4325
 20
-712.004
 11
64.6034
 21
-711.85
  0
LINE
  8
0
 10
64.6034
 20
-711.85
 11
64.8026
 21
-711.735
  0
LINE
  8
0
 10
64.8026
 20
-711.735
 11
65.0213
 21
-711.664
  0
LINE
  8
0
 10
65.0213
 20
-711.664
 11
65.25
 21
-711.64
  0
LINE
  8
0
 10
65.25
 20
-711.64
 11
65.4787
 21
-711.664
  0
LINE
  8
0
 10
65.4787
 20
-711.664
 11
65.6974
 21
-711.735
  0
LINE
  8
0
 10
65.6974
 20
-711.735
 11
65.8966
 21
-711.85
  0
LINE
  8
0
 10
65.8966
 20
-711.85
 11
66.0675
 21
-712.004
  0
LINE
  8
0
 10
66.0675
 20
-712.004
 11
66.2026
 21
-712.19
  0
LINE
  8
0
 10
66.2026
 20
-712.19
 11
66.2962
 21
-712.4
  0
LINE
  8
0
 10
66.2962
 20
-712.4
 11
66.344
 21
-712.625
  0
LINE
  8
0
 10
66.344
 20
-712.625
 11
66.344
 21
-712.855
  0
LINE
  8
0
 10
66.344
 20
-712.855
 11
66.2962
 21
-713.08
  0
LINE
  8
0
 10
66.2962
 20
-713.08
 11
66.2026
 21
-713.29
  0
LINE
  8
0
 10
66.2026
 20
-713.29
 11
66.0675
 21
-713.476
  0
LINE
  8
0
 10
66.0675
 20
-713.476
 11
65.8966
 21
-713.63
  0
LINE
  8
0
 10
65.8966
 20
-713.63
 11
65.6974
 21
-713.745
  0
LINE
  8
0
 10
65.6974
 20
-713.745
 11
65.4787
 21
-713.816
  0
LINE
  8
0
 10
65.4787
 20
-713.816
 11
65.25
 21
-713.84
  0
LINE
  8
0
 10
65.25
 20
-713.84
 11
65.0213
 21
-713.816
  0
LINE
  8
0
 10
-57.4787
 20
-713.816
 11
-57.6974
 21
-713.745
  0
LINE
  8
0
 10
-57.6974
 20
-713.745
 11
-57.8966
 21
-713.63
  0
LINE
  8
0
 10
-57.8966
 20
-713.63
 11
-58.0675
 21
-713.476
  0
LINE
  8
0
 10
-58.0675
 20
-713.476
 11
-58.2026
 21
-713.29
  0
LINE
  8
0
 10
-58.2026
 20
-713.29
 11
-58.2962
 21
-713.08
  0
LINE
  8
0
 10
-58.2962
 20
-713.08
 11
-58.344
 21
-712.855
  0
LINE
  8
0
 10
-58.344
 20
-712.855
 11
-58.344
 21
-712.625
  0
LINE
  8
0
 10
-58.344
 20
-712.625
 11
-58.2962
 21
-712.4
  0
LINE
  8
0
 10
-58.2962
 20
-712.4
 11
-58.2026
 21
-712.19
  0
LINE
  8
0
 10
-58.2026
 20
-712.19
 11
-58.0675
 21
-712.004
  0
LINE
  8
0
 10
-58.0675
 20
-712.004
 11
-57.8966
 21
-711.85
  0
LINE
  8
0
 10
-57.8966
 20
-711.85
 11
-57.6974
 21
-711.735
  0
LINE
  8
0
 10
-57.6974
 20
-711.735
 11
-57.4787
 21
-711.664
  0
LINE
  8
0
 10
-57.4787
 20
-711.664
 11
-57.25
 21
-711.64
  0
LINE
  8
0
 10
-57.25
 20
-711.64
 11
-57.0213
 21
-711.664
  0
LINE
  8
0
 10
-57.0213
 20
-711.664
 11
-56.8026
 21
-711.735
  0
LINE
  8
0
 10
-56.8026
 20
-711.735
 11
-56.6034
 21
-711.85
  0
LINE
  8
0
 10
-56.6034
 20
-711.85
 11
-56.4325
 21
-712.004
  0
LINE
  8
0
 10
-56.4325
 20
-712.004
 11
-56.2974
 21
-712.19
  0
LINE
  8
0
 10
-56.2974
 20
-712.19
 11
-56.2038
 21
-712.4
  0
LINE
  8
0
 10
-56.2038
 20
-712.4
 11
-56.156
 21
-712.625
  0
LINE
  8
0
 10
-56.156
 20
-712.625
 11
-56.156
 21
-712.855
  0
LINE
  8
0
 10
-56.156
 20
-712.855
 11
-56.2038
 21
-713.08
  0
LINE
  8
0
 10
-56.2038
 20
-713.08
 11
-56.2974
 21
-713.29
  0
LINE
  8
0
 10
-56.2974
 20
-713.29
 11
-56.4325
 21
-713.476
  0
LINE
  8
0
 10
-56.4325
 20
-713.476
 11
-56.6034
 21
-713.63
  0
LINE
  8
0
 10
-56.6034
 20
-713.63
 11
-56.8026
 21
-713.745
  0
LINE
  8
0
 10
-56.8026
 20
-713.745
 11
-57.0213
 21
-713.816
  0
LINE
  8
0
 10
-57.0213
 20
-713.816
 11
-57.25
 21
-713.84
  0
LINE
  8
0
 10
-57.25
 20
-713.84
 11
-57.4787
 21
-713.816
  0
LINE
  8
0
 10
-57.4787
 20
-718.896
 11
-57.6974
 21
-718.825
  0
LINE
  8
0
 10
-57.6974
 20
-718.825
 11
-57.8966
 21
-718.71
  0
LINE
  8
0
 10
-57.8966
 20
-718.71
 11
-58.0675
 21
-718.556
  0
LINE
  8
0
 10
-58.0675
 20
-718.556
 11
-58.2026
 21
-718.37
  0
LINE
  8
0
 10
-58.2026
 20
-718.37
 11
-58.2962
 21
-718.16
  0
LINE
  8
0
 10
-58.2962
 20
-718.16
 11
-58.344
 21
-717.935
  0
LINE
  8
0
 10
-58.344
 20
-717.935
 11
-58.344
 21
-717.705
  0
LINE
  8
0
 10
-58.344
 20
-717.705
 11
-58.2962
 21
-717.48
  0
LINE
  8
0
 10
-58.2962
 20
-717.48
 11
-58.2026
 21
-717.27
  0
LINE
  8
0
 10
-58.2026
 20
-717.27
 11
-58.0675
 21
-717.084
  0
LINE
  8
0
 10
-58.0675
 20
-717.084
 11
-57.8966
 21
-716.93
  0
LINE
  8
0
 10
-57.8966
 20
-716.93
 11
-57.6974
 21
-716.815
  0
LINE
  8
0
 10
-57.6974
 20
-716.815
 11
-57.4787
 21
-716.744
  0
LINE
  8
0
 10
-57.4787
 20
-716.744
 11
-57.25
 21
-716.72
  0
LINE
  8
0
 10
-57.25
 20
-716.72
 11
-57.0213
 21
-716.744
  0
LINE
  8
0
 10
-57.0213
 20
-716.744
 11
-56.8026
 21
-716.815
  0
LINE
  8
0
 10
-56.8026
 20
-716.815
 11
-56.6034
 21
-716.93
  0
LINE
  8
0
 10
-56.6034
 20
-716.93
 11
-56.4325
 21
-717.084
  0
LINE
  8
0
 10
-56.4325
 20
-717.084
 11
-56.2974
 21
-717.27
  0
LINE
  8
0
 10
-56.2974
 20
-717.27
 11
-56.2038
 21
-717.48
  0
LINE
  8
0
 10
-56.2038
 20
-717.48
 11
-56.156
 21
-717.705
  0
LINE
  8
0
 10
-56.156
 20
-717.705
 11
-56.156
 21
-717.935
  0
LINE
  8
0
 10
-56.156
 20
-717.935
 11
-56.2038
 21
-718.16
  0
LINE
  8
0
 10
-56.2038
 20
-718.16
 11
-56.2974
 21
-718.37
  0
LINE
  8
0
 10
-56.2974
 20
-718.37
 11
-56.4325
 21
-718.556
  0
LINE
  8
0
 10
-56.4325
 20
-718.556
 11
-56.6034
 21
-718.71
  0
LINE
  8
0
 10
-56.6034
 20
-718.71
 11
-56.8026
 21
-718.825
  0
LINE
  8
0
 10
-56.8026
 20
-718.825
 11
-57.0213
 21
-718.896
  0
LINE
  8
0
 10
-57.0213
 20
-718.896
 11
-57.25
 21
-718.92
  0
LINE
  8
0
 10
-57.25
 20
-718.92
 11
-57.4787
 21
-718.896
  0
LINE
  8
0
 10
65.0213
 20
-718.896
 11
64.8026
 21
-718.825
  0
LINE
  8
0
 10
64.8026
 20
-718.825
 11
64.6034
 21
-718.71
  0
LINE
  8
0
 10
64.6034
 20
-718.71
 11
64.4325
 21
-718.556
  0
LINE
  8
0
 10
64.4325
 20
-718.556
 11
64.2974
 21
-718.37
  0
LINE
  8
0
 10
64.2974
 20
-718.37
 11
64.2038
 21
-718.16
  0
LINE
  8
0
 10
64.2038
 20
-718.16
 11
64.156
 21
-717.935
  0
LINE
  8
0
 10
64.156
 20
-717.935
 11
64.156
 21
-717.705
  0
LINE
  8
0
 10
64.156
 20
-717.705
 11
64.2038
 21
-717.48
  0
LINE
  8
0
 10
64.2038
 20
-717.48
 11
64.2974
 21
-717.27
  0
LINE
  8
0
 10
64.2974
 20
-717.27
 11
64.4325
 21
-717.084
  0
LINE
  8
0
 10
64.4325
 20
-717.084
 11
64.6034
 21
-716.93
  0
LINE
  8
0
 10
64.6034
 20
-716.93
 11
64.8026
 21
-716.815
  0
LINE
  8
0
 10
64.8026
 20
-716.815
 11
65.0213
 21
-716.744
  0
LINE
  8
0
 10
65.0213
 20
-716.744
 11
65.25
 21
-716.72
  0
LINE
  8
0
 10
65.25
 20
-716.72
 11
65.4787
 21
-716.744
  0
LINE
  8
0
 10
65.4787
 20
-716.744
 11
65.6974
 21
-716.815
  0
LINE
  8
0
 10
65.6974
 20
-716.815
 11
65.8966
 21
-716.93
  0
LINE
  8
0
 10
65.8966
 20
-716.93
 11
66.0675
 21
-717.084
  0
LINE
  8
0
 10
66.0675
 20
-717.084
 11
66.2026
 21
-717.27
  0
LINE
  8
0
 10
66.2026
 20
-717.27
 11
66.2962
 21
-717.48
  0
LINE
  8
0
 10
66.2962
 20
-717.48
 11
66.344
 21
-717.705
  0
LINE
  8
0
 10
66.344
 20
-717.705
 11
66.344
 21
-717.935
  0
LINE
  8
0
 10
66.344
 20
-717.935
 11
66.2962
 21
-718.16
  0
LINE
  8
0
 10
66.2962
 20
-718.16
 11
66.2026
 21
-718.37
  0
LINE
  8
0
 10
66.2026
 20
-718.37
 11
66.0675
 21
-718.556
  0
LINE
  8
0
 10
66.0675
 20
-718.556
 11
65.8966
 21
-718.71
  0
LINE
  8
0
 10
65.8966
 20
-718.71
 11
65.6974
 21
-718.825
  0
LINE
  8
0
 10
65.6974
 20
-718.825
 11
65.4787
 21
-718.896
  0
LINE
  8
0
 10
65.4787
 20
-718.896
 11
65.25
 21
-718.92
  0
LINE
  8
0
 10
65.25
 20
-718.92
 11
65.0213
 21
-718.896
  0
LINE
  8
0
 10
-57.4787
 20
-723.976
 11
-57.6974
 21
-723.905
  0
LINE
  8
0
 10
-57.6974
 20
-723.905
 11
-57.8966
 21
-723.79
  0
LINE
  8
0
 10
-57.8966
 20
-723.79
 11
-58.0675
 21
-723.636
  0
LINE
  8
0
 10
-58.0675
 20
-723.636
 11
-58.2026
 21
-723.45
  0
LINE
  8
0
 10
-58.2026
 20
-723.45
 11
-58.2962
 21
-723.24
  0
LINE
  8
0
 10
-58.2962
 20
-723.24
 11
-58.344
 21
-723.015
  0
LINE
  8
0
 10
-58.344
 20
-723.015
 11
-58.344
 21
-722.785
  0
LINE
  8
0
 10
-58.344
 20
-722.785
 11
-58.2962
 21
-722.56
  0
LINE
  8
0
 10
-58.2962
 20
-722.56
 11
-58.2026
 21
-722.35
  0
LINE
  8
0
 10
-58.2026
 20
-722.35
 11
-58.0675
 21
-722.164
  0
LINE
  8
0
 10
-58.0675
 20
-722.164
 11
-57.8966
 21
-722.01
  0
LINE
  8
0
 10
-57.8966
 20
-722.01
 11
-57.6974
 21
-721.895
  0
LINE
  8
0
 10
-57.6974
 20
-721.895
 11
-57.4787
 21
-721.824
  0
LINE
  8
0
 10
-57.4787
 20
-721.824
 11
-57.25
 21
-721.8
  0
LINE
  8
0
 10
-57.25
 20
-721.8
 11
-57.0213
 21
-721.824
  0
LINE
  8
0
 10
-57.0213
 20
-721.824
 11
-56.8026
 21
-721.895
  0
LINE
  8
0
 10
-56.8026
 20
-721.895
 11
-56.6034
 21
-722.01
  0
LINE
  8
0
 10
-56.6034
 20
-722.01
 11
-56.4325
 21
-722.164
  0
LINE
  8
0
 10
-56.4325
 20
-722.164
 11
-56.2974
 21
-722.35
  0
LINE
  8
0
 10
-56.2974
 20
-722.35
 11
-56.2038
 21
-722.56
  0
LINE
  8
0
 10
-56.2038
 20
-722.56
 11
-56.156
 21
-722.785
  0
LINE
  8
0
 10
-56.156
 20
-722.785
 11
-56.156
 21
-723.015
  0
LINE
  8
0
 10
-56.156
 20
-723.015
 11
-56.2038
 21
-723.24
  0
LINE
  8
0
 10
-56.2038
 20
-723.24
 11
-56.2974
 21
-723.45
  0
LINE
  8
0
 10
-56.2974
 20
-723.45
 11
-56.4325
 21
-723.636
  0
LINE
  8
0
 10
-56.4325
 20
-723.636
 11
-56.6034
 21
-723.79
  0
LINE
  8
0
 10
-56.6034
 20
-723.79
 11
-56.8026
 21
-723.905
  0
LINE
  8
0
 10
-56.8026
 20
-723.905
 11
-57.0213
 21
-723.976
  0
LINE
  8
0
 10
-57.0213
 20
-723.976
 11
-57.25
 21
-724
  0
LINE
  8
0
 10
-57.25
 20
-724
 11
-57.4787
 21
-723.976
  0
LINE
  8
0
 10
65.0213
 20
-723.976
 11
64.8026
 21
-723.905
  0
LINE
  8
0
 10
64.8026
 20
-723.905
 11
64.6034
 21
-723.79
  0
LINE
  8
0
 10
64.6034
 20
-723.79
 11
64.4325
 21
-723.636
  0
LINE
  8
0
 10
64.4325
 20
-723.636
 11
64.2974
 21
-723.45
  0
LINE
  8
0
 10
64.2974
 20
-723.45
 11
64.2038
 21
-723.24
  0
LINE
  8
0
 10
64.2038
 20
-723.24
 11
64.156
 21
-723.015
  0
LINE
  8
0
 10
64.156
 20
-723.015
 11
64.156
 21
-722.785
  0
LINE
  8
0
 10
64.156
 20
-722.785
 11
64.2038
 21
-722.56
  0
LINE
  8
0
 10
64.2038
 20
-722.56
 11
64.2974
 21
-722.35
  0
LINE
  8
0
 10
64.2974
 20
-722.35
 11
64.4325
 21
-722.164
  0
LINE
  8
0
 10
64.4325
 20
-722.164
 11
64.6034
 21
-722.01
  0
LINE
  8
0
 10
64.6034
 20
-722.01
 11
64.8026
 21
-721.895
  0
LINE
  8
0
 10
64.8026
 20
-721.895
 11
65.0213
 21
-721.824
  0
LINE
  8
0
 10
65.0213
 20
-721.824
 11
65.25
 21
-721.8
  0
LINE
  8
0
 10
65.25
 20
-721.8
 11
65.4787
 21
-721.824
  0
LINE
  8
0
 10
65.4787
 20
-721.824
 11
65.6974
 21
-721.895
  0
LINE
  8
0
 10
65.6974
 20
-721.895
 11
65.8966
 21
-722.01
  0
LINE
  8
0
 10
65.8966
 20
-722.01
 11
66.0675
 21
-722.164
  0
LINE
  8
0
 10
66.0675
 20
-722.164
 11
66.2026
 21
-722.35
  0
LINE
  8
0
 10
66.2026
 20
-722.35
 11
66.2962
 21
-722.56
  0
LINE
  8
0
 10
66.2962
 20
-722.56
 11
66.344
 21
-722.785
  0
LINE
  8
0
 10
66.344
 20
-722.785
 11
66.344
 21
-723.015
  0
LINE
  8
0
 10
66.344
 20
-723.015
 11
66.2962
 21
-723.24
  0
LINE
  8
0
 10
66.2962
 20
-723.24
 11
66.2026
 21
-723.45
  0
LINE
  8
0
 10
66.2026
 20
-723.45
 11
66.0675
 21
-723.636
  0
LINE
  8
0
 10
66.0675
 20
-723.636
 11
65.8966
 21
-723.79
  0
LINE
  8
0
 10
65.8966
 20
-723.79
 11
65.6974
 21
-723.905
  0
LINE
  8
0
 10
65.6974
 20
-723.905
 11
65.4787
 21
-723.976
  0
LINE
  8
0
 10
65.4787
 20
-723.976
 11
65.25
 21
-724
  0
LINE
  8
0
 10
65.25
 20
-724
 11
65.0213
 21
-723.976
  0
LINE
  8
0
 10
65.0213
 20
-729.056
 11
64.8026
 21
-728.985
  0
LINE
  8
0
 10
64.8026
 20
-728.985
 11
64.6034
 21
-728.87
  0
LINE
  8
0
 10
64.6034
 20
-728.87
 11
64.4325
 21
-728.716
  0
LINE
  8
0
 10
64.4325
 20
-728.716
 11
64.2974
 21
-728.53
  0
LINE
  8
0
 10
64.2974
 20
-728.53
 11
64.2038
 21
-728.32
  0
LINE
  8
0
 10
64.2038
 20
-728.32
 11
64.156
 21
-728.095
  0
LINE
  8
0
 10
64.156
 20
-728.095
 11
64.156
 21
-727.865
  0
LINE
  8
0
 10
64.156
 20
-727.865
 11
64.2038
 21
-727.64
  0
LINE
  8
0
 10
64.2038
 20
-727.64
 11
64.2974
 21
-727.43
  0
LINE
  8
0
 10
64.2974
 20
-727.43
 11
64.4325
 21
-727.244
  0
LINE
  8
0
 10
64.4325
 20
-727.244
 11
64.6034
 21
-727.09
  0
LINE
  8
0
 10
64.6034
 20
-727.09
 11
64.8026
 21
-726.975
  0
LINE
  8
0
 10
64.8026
 20
-726.975
 11
65.0213
 21
-726.904
  0
LINE
  8
0
 10
65.0213
 20
-726.904
 11
65.25
 21
-726.88
  0
LINE
  8
0
 10
65.25
 20
-726.88
 11
65.4787
 21
-726.904
  0
LINE
  8
0
 10
65.4787
 20
-726.904
 11
65.6974
 21
-726.975
  0
LINE
  8
0
 10
65.6974
 20
-726.975
 11
65.8966
 21
-727.09
  0
LINE
  8
0
 10
65.8966
 20
-727.09
 11
66.0675
 21
-727.244
  0
LINE
  8
0
 10
66.0675
 20
-727.244
 11
66.2026
 21
-727.43
  0
LINE
  8
0
 10
66.2026
 20
-727.43
 11
66.2962
 21
-727.64
  0
LINE
  8
0
 10
66.2962
 20
-727.64
 11
66.344
 21
-727.865
  0
LINE
  8
0
 10
66.344
 20
-727.865
 11
66.344
 21
-728.095
  0
LINE
  8
0
 10
66.344
 20
-728.095
 11
66.2962
 21
-728.32
  0
LINE
  8
0
 10
66.2962
 20
-728.32
 11
66.2026
 21
-728.53
  0
LINE
  8
0
 10
66.2026
 20
-728.53
 11
66.0675
 21
-728.716
  0
LINE
  8
0
 10
66.0675
 20
-728.716
 11
65.8966
 21
-728.87
  0
LINE
  8
0
 10
65.8966
 20
-728.87
 11
65.6974
 21
-728.985
  0
LINE
  8
0
 10
65.6974
 20
-728.985
 11
65.4787
 21
-729.056
  0
LINE
  8
0
 10
65.4787
 20
-729.056
 11
65.25
 21
-729.08
  0
LINE
  8
0
 10
65.25
 20
-729.08
 11
65.0213
 21
-729.056
  0
LINE
  8
0
 10
-57.4787
 20
-729.056
 11
-57.6974
 21
-728.985
  0
LINE
  8
0
 10
-57.6974
 20
-728.985
 11
-57.8966
 21
-728.87
  0
LINE
  8
0
 10
-57.8966
 20
-728.87
 11
-58.0675
 21
-728.716
  0
LINE
  8
0
 10
-58.0675
 20
-728.716
 11
-58.2026
 21
-728.53
  0
LINE
  8
0
 10
-58.2026
 20
-728.53
 11
-58.2962
 21
-728.32
  0
LINE
  8
0
 10
-58.2962
 20
-728.32
 11
-58.344
 21
-728.095
  0
LINE
  8
0
 10
-58.344
 20
-728.095
 11
-58.344
 21
-727.865
  0
LINE
  8
0
 10
-58.344
 20
-727.865
 11
-58.2962
 21
-727.64
  0
LINE
  8
0
 10
-58.2962
 20
-727.64
 11
-58.2026
 21
-727.43
  0
LINE
  8
0
 10
-58.2026
 20
-727.43
 11
-58.0675
 21
-727.244
  0
LINE
  8
0
 10
-58.0675
 20
-727.244
 11
-57.8966
 21
-727.09
  0
LINE
  8
0
 10
-57.8966
 20
-727.09
 11
-57.6974
 21
-726.975
  0
LINE
  8
0
 10
-57.6974
 20
-726.975
 11
-57.4787
 21
-726.904
  0
LINE
  8
0
 10
-57.4787
 20
-726.904
 11
-57.25
 21
-726.88
  0
LINE
  8
0
 10
-57.25
 20
-726.88
 11
-57.0213
 21
-726.904
  0
LINE
  8
0
 10
-57.0213
 20
-726.904
 11
-56.8026
 21
-726.975
  0
LINE
  8
0
 10
-56.8026
 20
-726.975
 11
-56.6034
 21
-727.09
  0
LINE
  8
0
 10
-56.6034
 20
-727.09
 11
-56.4325
 21
-727.244
  0
LINE
  8
0
 10
-56.4325
 20
-727.244
 11
-56.2974
 21
-727.43
  0
LINE
  8
0
 10
-56.2974
 20
-727.43
 11
-56.2038
 21
-727.64
  0
LINE
  8
0
 10
-56.2038
 20
-727.64
 11
-56.156
 21
-727.865
  0
LINE
  8
0
 10
-56.156
 20
-727.865
 11
-56.156
 21
-728.095
  0
LINE
  8
0
 10
-56.156
 20
-728.095
 11
-56.2038
 21
-728.32
  0
LINE
  8
0
 10
-56.2038
 20
-728.32
 11
-56.2974
 21
-728.53
  0
LINE
  8
0
 10
-56.2974
 20
-728.53
 11
-56.4325
 21
-728.716
  0
LINE
  8
0
 10
-56.4325
 20
-728.716
 11
-56.6034
 21
-728.87
  0
LINE
  8
0
 10
-56.6034
 20
-728.87
 11
-56.8026
 21
-728.985
  0
LINE
  8
0
 10
-56.8026
 20
-728.985
 11
-57.0213
 21
-729.056
  0
LINE
  8
0
 10
-57.0213
 20
-729.056
 11
-57.25
 21
-729.08
  0
LINE
  8
0
 10
-57.25
 20
-729.08
 11
-57.4787
 21
-729.056
  0
LINE
  8
0
 10
-57.4787
 20
-734.136
 11
-57.6974
 21
-734.065
  0
LINE
  8
0
 10
-57.6974
 20
-734.065
 11
-57.8966
 21
-733.95
  0
LINE
  8
0
 10
-57.8966
 20
-733.95
 11
-58.0675
 21
-733.796
  0
LINE
  8
0
 10
-58.0675
 20
-733.796
 11
-58.2026
 21
-733.61
  0
LINE
  8
0
 10
-58.2026
 20
-733.61
 11
-58.2962
 21
-733.4
  0
LINE
  8
0
 10
-58.2962
 20
-733.4
 11
-58.344
 21
-733.175
  0
LINE
  8
0
 10
-58.344
 20
-733.175
 11
-58.344
 21
-732.945
  0
LINE
  8
0
 10
-58.344
 20
-732.945
 11
-58.2962
 21
-732.72
  0
LINE
  8
0
 10
-58.2962
 20
-732.72
 11
-58.2026
 21
-732.51
  0
LINE
  8
0
 10
-58.2026
 20
-732.51
 11
-58.0675
 21
-732.324
  0
LINE
  8
0
 10
-58.0675
 20
-732.324
 11
-57.8966
 21
-732.17
  0
LINE
  8
0
 10
-57.8966
 20
-732.17
 11
-57.6974
 21
-732.055
  0
LINE
  8
0
 10
-57.6974
 20
-732.055
 11
-57.4787
 21
-731.984
  0
LINE
  8
0
 10
-57.4787
 20
-731.984
 11
-57.25
 21
-731.96
  0
LINE
  8
0
 10
-57.25
 20
-731.96
 11
-57.0213
 21
-731.984
  0
LINE
  8
0
 10
-57.0213
 20
-731.984
 11
-56.8026
 21
-732.055
  0
LINE
  8
0
 10
-56.8026
 20
-732.055
 11
-56.6034
 21
-732.17
  0
LINE
  8
0
 10
-56.6034
 20
-732.17
 11
-56.4325
 21
-732.324
  0
LINE
  8
0
 10
-56.4325
 20
-732.324
 11
-56.2974
 21
-732.51
  0
LINE
  8
0
 10
-56.2974
 20
-732.51
 11
-56.2038
 21
-732.72
  0
LINE
  8
0
 10
-56.2038
 20
-732.72
 11
-56.156
 21
-732.945
  0
LINE
  8
0
 10
-56.156
 20
-732.945
 11
-56.156
 21
-733.175
  0
LINE
  8
0
 10
-56.156
 20
-733.175
 11
-56.2038
 21
-733.4
  0
LINE
  8
0
 10
-56.2038
 20
-733.4
 11
-56.2974
 21
-733.61
  0
LINE
  8
0
 10
-56.2974
 20
-733.61
 11
-56.4325
 21
-733.796
  0
LINE
  8
0
 10
-56.4325
 20
-733.796
 11
-56.6034
 21
-733.95
  0
LINE
  8
0
 10
-56.6034
 20
-733.95
 11
-56.8026
 21
-734.065
  0
LINE
  8
0
 10
-56.8026
 20
-734.065
 11
-57.0213
 21
-734.136
  0
LINE
  8
0
 10
-57.0213
 20
-734.136
 11
-57.25
 21
-734.16
  0
LINE
  8
0
 10
-57.25
 20
-734.16
 11
-57.4787
 21
-734.136
  0
LINE
  8
0
 10
65.0213
 20
-734.136
 11
64.8026
 21
-734.065
  0
LINE
  8
0
 10
64.8026
 20
-734.065
 11
64.6034
 21
-733.95
  0
LINE
  8
0
 10
64.6034
 20
-733.95
 11
64.4325
 21
-733.796
  0
LINE
  8
0
 10
64.4325
 20
-733.796
 11
64.2974
 21
-733.61
  0
LINE
  8
0
 10
64.2974
 20
-733.61
 11
64.2038
 21
-733.4
  0
LINE
  8
0
 10
64.2038
 20
-733.4
 11
64.156
 21
-733.175
  0
LINE
  8
0
 10
64.156
 20
-733.175
 11
64.156
 21
-732.945
  0
LINE
  8
0
 10
64.156
 20
-732.945
 11
64.2038
 21
-732.72
  0
LINE
  8
0
 10
64.2038
 20
-732.72
 11
64.2974
 21
-732.51
  0
LINE
  8
0
 10
64.2974
 20
-732.51
 11
64.4325
 21
-732.324
  0
LINE
  8
0
 10
64.4325
 20
-732.324
 11
64.6034
 21
-732.17
  0
LINE
  8
0
 10
64.6034
 20
-732.17
 11
64.8026
 21
-732.055
  0
LINE
  8
0
 10
64.8026
 20
-732.055
 11
65.0213
 21
-731.984
  0
LINE
  8
0
 10
65.0213
 20
-731.984
 11
65.25
 21
-731.96
  0
LINE
  8
0
 10
65.25
 20
-731.96
 11
65.4787
 21
-731.984
  0
LINE
  8
0
 10
65.4787
 20
-731.984
 11
65.6974
 21
-732.055
  0
LINE
  8
0
 10
65.6974
 20
-732.055
 11
65.8966
 21
-732.17
  0
LINE
  8
0
 10
65.8966
 20
-732.17
 11
66.0675
 21
-732.324
  0
LINE
  8
0
 10
66.0675
 20
-732.324
 11
66.2026
 21
-732.51
  0
LINE
  8
0
 10
66.2026
 20
-732.51
 11
66.2962
 21
-732.72
  0
LINE
  8
0
 10
66.2962
 20
-732.72
 11
66.344
 21
-732.945
  0
LINE
  8
0
 10
66.344
 20
-732.945
 11
66.344
 21
-733.175
  0
LINE
  8
0
 10
66.344
 20
-733.175
 11
66.2962
 21
-733.4
  0
LINE
  8
0
 10
66.2962
 20
-733.4
 11
66.2026
 21
-733.61
  0
LINE
  8
0
 10
66.2026
 20
-733.61
 11
66.0675
 21
-733.796
  0
LINE
  8
0
 10
66.0675
 20
-733.796
 11
65.8966
 21
-733.95
  0
LINE
  8
0
 10
65.8966
 20
-733.95
 11
65.6974
 21
-734.065
  0
LINE
  8
0
 10
65.6974
 20
-734.065
 11
65.4787
 21
-734.136
  0
LINE
  8
0
 10
65.4787
 20
-734.136
 11
65.25
 21
-734.16
  0
LINE
  8
0
 10
65.25
 20
-734.16
 11
65.0213
 21
-734.136
  0
LINE
  8
0
 10
-57.4787
 20
-739.216
 11
-57.6974
 21
-739.145
  0
LINE
  8
0
 10
-57.6974
 20
-739.145
 11
-57.8966
 21
-739.03
  0
LINE
  8
0
 10
-57.8966
 20
-739.03
 11
-58.0675
 21
-738.876
  0
LINE
  8
0
 10
-58.0675
 20
-738.876
 11
-58.2026
 21
-738.69
  0
LINE
  8
0
 10
-58.2026
 20
-738.69
 11
-58.2962
 21
-738.48
  0
LINE
  8
0
 10
-58.2962
 20
-738.48
 11
-58.344
 21
-738.255
  0
LINE
  8
0
 10
-58.344
 20
-738.255
 11
-58.344
 21
-738.025
  0
LINE
  8
0
 10
-58.344
 20
-738.025
 11
-58.2962
 21
-737.8
  0
LINE
  8
0
 10
-58.2962
 20
-737.8
 11
-58.2026
 21
-737.59
  0
LINE
  8
0
 10
-58.2026
 20
-737.59
 11
-58.0675
 21
-737.404
  0
LINE
  8
0
 10
-58.0675
 20
-737.404
 11
-57.8966
 21
-737.25
  0
LINE
  8
0
 10
-57.8966
 20
-737.25
 11
-57.6974
 21
-737.135
  0
LINE
  8
0
 10
-57.6974
 20
-737.135
 11
-57.4787
 21
-737.064
  0
LINE
  8
0
 10
-57.4787
 20
-737.064
 11
-57.25
 21
-737.04
  0
LINE
  8
0
 10
-57.25
 20
-737.04
 11
-57.0213
 21
-737.064
  0
LINE
  8
0
 10
-57.0213
 20
-737.064
 11
-56.8026
 21
-737.135
  0
LINE
  8
0
 10
-56.8026
 20
-737.135
 11
-56.6034
 21
-737.25
  0
LINE
  8
0
 10
-56.6034
 20
-737.25
 11
-56.4325
 21
-737.404
  0
LINE
  8
0
 10
-56.4325
 20
-737.404
 11
-56.2974
 21
-737.59
  0
LINE
  8
0
 10
-56.2974
 20
-737.59
 11
-56.2038
 21
-737.8
  0
LINE
  8
0
 10
-56.2038
 20
-737.8
 11
-56.156
 21
-738.025
  0
LINE
  8
0
 10
-56.156
 20
-738.025
 11
-56.156
 21
-738.255
  0
LINE
  8
0
 10
-56.156
 20
-738.255
 11
-56.2038
 21
-738.48
  0
LINE
  8
0
 10
-56.2038
 20
-738.48
 11
-56.2974
 21
-738.69
  0
LINE
  8
0
 10
-56.2974
 20
-738.69
 11
-56.4325
 21
-738.876
  0
LINE
  8
0
 10
-56.4325
 20
-738.876
 11
-56.6034
 21
-739.03
  0
LINE
  8
0
 10
-56.6034
 20
-739.03
 11
-56.8026
 21
-739.145
  0
LINE
  8
0
 10
-56.8026
 20
-739.145
 11
-57.0213
 21
-739.216
  0
LINE
  8
0
 10
-57.0213
 20
-739.216
 11
-57.25
 21
-739.24
  0
LINE
  8
0
 10
-57.25
 20
-739.24
 11
-57.4787
 21
-739.216
  0
LINE
  8
0
 10
65.0213
 20
-739.216
 11
64.8026
 21
-739.145
  0
LINE
  8
0
 10
64.8026
 20
-739.145
 11
64.6034
 21
-739.03
  0
LINE
  8
0
 10
64.6034
 20
-739.03
 11
64.4325
 21
-738.876
  0
LINE
  8
0
 10
64.4325
 20
-738.876
 11
64.2974
 21
-738.69
  0
LINE
  8
0
 10
64.2974
 20
-738.69
 11
64.2038
 21
-738.48
  0
LINE
  8
0
 10
64.2038
 20
-738.48
 11
64.156
 21
-738.255
  0
LINE
  8
0
 10
64.156
 20
-738.255
 11
64.156
 21
-738.025
  0
LINE
  8
0
 10
64.156
 20
-738.025
 11
64.2038
 21
-737.8
  0
LINE
  8
0
 10
64.2038
 20
-737.8
 11
64.2974
 21
-737.59
  0
LINE
  8
0
 10
64.2974
 20
-737.59
 11
64.4325
 21
-737.404
  0
LINE
  8
0
 10
64.4325
 20
-737.404
 11
64.6034
 21
-737.25
  0
LINE
  8
0
 10
64.6034
 20
-737.25
 11
64.8026
 21
-737.135
  0
LINE
  8
0
 10
64.8026
 20
-737.135
 11
65.0213
 21
-737.064
  0
LINE
  8
0
 10
65.0213
 20
-737.064
 11
65.25
 21
-737.04
  0
LINE
  8
0
 10
65.25
 20
-737.04
 11
65.4787
 21
-737.064
  0
LINE
  8
0
 10
65.4787
 20
-737.064
 11
65.6974
 21
-737.135
  0
LINE
  8
0
 10
65.6974
 20
-737.135
 11
65.8966
 21
-737.25
  0
LINE
  8
0
 10
65.8966
 20
-737.25
 11
66.0675
 21
-737.404
  0
LINE
  8
0
 10
66.0675
 20
-737.404
 11
66.2026
 21
-737.59
  0
LINE
  8
0
 10
66.2026
 20
-737.59
 11
66.2962
 21
-737.8
  0
LINE
  8
0
 10
66.2962
 20
-737.8
 11
66.344
 21
-738.025
  0
LINE
  8
0
 10
66.344
 20
-738.025
 11
66.344
 21
-738.255
  0
LINE
  8
0
 10
66.344
 20
-738.255
 11
66.2962
 21
-738.48
  0
LINE
  8
0
 10
66.2962
 20
-738.48
 11
66.2026
 21
-738.69
  0
LINE
  8
0
 10
66.2026
 20
-738.69
 11
66.0675
 21
-738.876
  0
LINE
  8
0
 10
66.0675
 20
-738.876
 11
65.8966
 21
-739.03
  0
LINE
  8
0
 10
65.8966
 20
-739.03
 11
65.6974
 21
-739.145
  0
LINE
  8
0
 10
65.6974
 20
-739.145
 11
65.4787
 21
-739.216
  0
LINE
  8
0
 10
65.4787
 20
-739.216
 11
65.25
 21
-739.24
  0
LINE
  8
0
 10
65.25
 20
-739.24
 11
65.0213
 21
-739.216
  0
LINE
  8
0
 10
65.0213
 20
-744.296
 11
64.8026
 21
-744.225
  0
LINE
  8
0
 10
64.8026
 20
-744.225
 11
64.6034
 21
-744.11
  0
LINE
  8
0
 10
64.6034
 20
-744.11
 11
64.4325
 21
-743.956
  0
LINE
  8
0
 10
64.4325
 20
-743.956
 11
64.2974
 21
-743.77
  0
LINE
  8
0
 10
64.2974
 20
-743.77
 11
64.2038
 21
-743.56
  0
LINE
  8
0
 10
64.2038
 20
-743.56
 11
64.156
 21
-743.335
  0
LINE
  8
0
 10
64.156
 20
-743.335
 11
64.156
 21
-743.105
  0
LINE
  8
0
 10
64.156
 20
-743.105
 11
64.2038
 21
-742.88
  0
LINE
  8
0
 10
64.2038
 20
-742.88
 11
64.2974
 21
-742.67
  0
LINE
  8
0
 10
64.2974
 20
-742.67
 11
64.4325
 21
-742.484
  0
LINE
  8
0
 10
64.4325
 20
-742.484
 11
64.6034
 21
-742.33
  0
LINE
  8
0
 10
64.6034
 20
-742.33
 11
64.8026
 21
-742.215
  0
LINE
  8
0
 10
64.8026
 20
-742.215
 11
65.0213
 21
-742.144
  0
LINE
  8
0
 10
65.0213
 20
-742.144
 11
65.25
 21
-742.12
  0
LINE
  8
0
 10
65.25
 20
-742.12
 11
65.4787
 21
-742.144
  0
LINE
  8
0
 10
65.4787
 20
-742.144
 11
65.6974
 21
-742.215
  0
LINE
  8
0
 10
65.6974
 20
-742.215
 11
65.8966
 21
-742.33
  0
LINE
  8
0
 10
65.8966
 20
-742.33
 11
66.0675
 21
-742.484
  0
LINE
  8
0
 10
66.0675
 20
-742.484
 11
66.2026
 21
-742.67
  0
LINE
  8
0
 10
66.2026
 20
-742.67
 11
66.2962
 21
-742.88
  0
LINE
  8
0
 10
66.2962
 20
-742.88
 11
66.344
 21
-743.105
  0
LINE
  8
0
 10
66.344
 20
-743.105
 11
66.344
 21
-743.335
  0
LINE
  8
0
 10
66.344
 20
-743.335
 11
66.2962
 21
-743.56
  0
LINE
  8
0
 10
66.2962
 20
-743.56
 11
66.2026
 21
-743.77
  0
LINE
  8
0
 10
66.2026
 20
-743.77
 11
66.0675
 21
-743.956
  0
LINE
  8
0
 10
66.0675
 20
-743.956
 11
65.8966
 21
-744.11
  0
LINE
  8
0
 10
65.8966
 20
-744.11
 11
65.6974
 21
-744.225
  0
LINE
  8
0
 10
65.6974
 20
-744.225
 11
65.4787
 21
-744.296
  0
LINE
  8
0
 10
65.4787
 20
-744.296
 11
65.25
 21
-744.32
  0
LINE
  8
0
 10
65.25
 20
-744.32
 11
65.0213
 21
-744.296
  0
LINE
  8
0
 10
-57.4787
 20
-744.296
 11
-57.6974
 21
-744.225
  0
LINE
  8
0
 10
-57.6974
 20
-744.225
 11
-57.8966
 21
-744.11
  0
LINE
  8
0
 10
-57.8966
 20
-744.11
 11
-58.0675
 21
-743.956
  0
LINE
  8
0
 10
-58.0675
 20
-743.956
 11
-58.2026
 21
-743.77
  0
LINE
  8
0
 10
-58.2026
 20
-743.77
 11
-58.2962
 21
-743.56
  0
LINE
  8
0
 10
-58.2962
 20
-743.56
 11
-58.344
 21
-743.335
  0
LINE
  8
0
 10
-58.344
 20
-743.335
 11
-58.344
 21
-743.105
  0
LINE
  8
0
 10
-58.344
 20
-743.105
 11
-58.2962
 21
-742.88
  0
LINE
  8
0
 10
-58.2962
 20
-742.88
 11
-58.2026
 21
-742.67
  0
LINE
  8
0
 10
-58.2026
 20
-742.67
 11
-58.0675
 21
-742.484
  0
LINE
  8
0
 10
-58.0675
 20
-742.484
 11
-57.8966
 21
-742.33
  0
LINE
  8
0
 10
-57.8966
 20
-742.33
 11
-57.6974
 21
-742.215
  0
LINE
  8
0
 10
-57.6974
 20
-742.215
 11
-57.4787
 21
-742.144
  0
LINE
  8
0
 10
-57.4787
 20
-742.144
 11
-57.25
 21
-742.12
  0
LINE
  8
0
 10
-57.25
 20
-742.12
 11
-57.0213
 21
-742.144
  0
LINE
  8
0
 10
-57.0213
 20
-742.144
 11
-56.8026
 21
-742.215
  0
LINE
  8
0
 10
-56.8026
 20
-742.215
 11
-56.6034
 21
-742.33
  0
LINE
  8
0
 10
-56.6034
 20
-742.33
 11
-56.4325
 21
-742.484
  0
LINE
  8
0
 10
-56.4325
 20
-742.484
 11
-56.2974
 21
-742.67
  0
LINE
  8
0
 10
-56.2974
 20
-742.67
 11
-56.2038
 21
-742.88
  0
LINE
  8
0
 10
-56.2038
 20
-742.88
 11
-56.156
 21
-743.105
  0
LINE
  8
0
 10
-56.156
 20
-743.105
 11
-56.156
 21
-743.335
  0
LINE
  8
0
 10
-56.156
 20
-743.335
 11
-56.2038
 21
-743.56
  0
LINE
  8
0
 10
-56.2038
 20
-743.56
 11
-56.2974
 21
-743.77
  0
LINE
  8
0
 10
-56.2974
 20
-743.77
 11
-56.4325
 21
-743.956
  0
LINE
  8
0
 10
-56.4325
 20
-743.956
 11
-56.6034
 21
-744.11
  0
LINE
  8
0
 10
-56.6034
 20
-744.11
 11
-56.8026
 21
-744.225
  0
LINE
  8
0
 10
-56.8026
 20
-744.225
 11
-57.0213
 21
-744.296
  0
LINE
  8
0
 10
-57.0213
 20
-744.296
 11
-57.25
 21
-744.32
  0
LINE
  8
0
 10
-57.25
 20
-744.32
 11
-57.4787
 21
-744.296
  0
ENDSEC
  0
SECTION
  2
OBJECTS
  0
DICTIONARY
  0
ENDSEC
  0
EOF
