  0
SECTION
  2
BLOCKS
  0
ENDSEC
  0
SECTION
  2
ENTITIES
  0
LINE
  8
0
 10
-10.1
 20
-71
 11
-5.09999
 21
-71
  0
LINE
  8
0
 10
-5.09999
 20
-71
 11
-5.09999
 21
-75.1
  0
LINE
  8
0
 10
-5.09999
 20
-75.1
 11
5.09999
 21
-75.1
  0
LINE
  8
0
 10
5.09999
 20
-75.1
 11
5.09999
 21
-71
  0
LINE
  8
0
 10
5.09999
 20
-71
 11
10.1
 21
-71
  0
LINE
  8
0
 10
10.1
 20
-71
 11
10.1
 21
-75.1
  0
LINE
  8
0
 10
10.1
 20
-75.1
 11
16.1
 21
-75.1
  0
LINE
  8
0
 10
16.1
 20
-75.1
 11
16.1
 21
-61
  0
LINE
  8
0
 10
16.1
 20
-61
 11
12
 21
-61
  0
LINE
  8
0
 10
12
 20
-61
 11
12
 21
-56
  0
LINE
  8
0
 10
12
 20
-56
 11
16.1
 21
-56
  0
LINE
  8
0
 10
16.1
 20
-56
 11
16.1
 21
-22
  0
LINE
  8
0
 10
16.1
 20
-22
 11
12
 21
-22
  0
LINE
  8
0
 10
12
 20
-22
 11
12
 21
-17
  0
LINE
  8
0
 10
12
 20
-17
 11
16.1
 21
-17
  0
LINE
  8
0
 10
16.1
 20
-17
 11
16.1
 21
17
  0
LINE
  8
0
 10
16.1
 20
17
 11
12
 21
17
  0
LINE
  8
0
 10
12
 20
17
 11
12
 21
22
  0
LINE
  8
0
 10
12
 20
22
 11
16.1
 21
22
  0
LINE
  8
0
 10
16.1
 20
22
 11
16.1
 21
56
  0
LINE
  8
0
 10
16.1
 20
56
 11
12
 21
56
  0
LINE
  8
0
 10
12
 20
56
 11
12
 21
61
  0
LINE
  8
0
 10
12
 20
61
 11
16.1
 21
61
  0
LINE
  8
0
 10
16.1
 20
61
 11
16.1
 21
75.1
  0
LINE
  8
0
 10
16.1
 20
75.1
 11
10.1
 21
75.1
  0
LINE
  8
0
 10
10.1
 20
75.1
 11
10.1
 21
71
  0
LINE
  8
0
 10
10.1
 20
71
 11
5.09999
 21
71
  0
LINE
  8
0
 10
5.09999
 20
71
 11
5.09999
 21
75.1
  0
LINE
  8
0
 10
5.09999
 20
75.1
 11
-5.09999
 21
75.1
  0
LINE
  8
0
 10
-5.09999
 20
75.1
 11
-5.09999
 21
71
  0
LINE
  8
0
 10
-5.09999
 20
71
 11
-10.1
 21
71
  0
LINE
  8
0
 10
-10.1
 20
71
 11
-10.1
 21
75.1
  0
LINE
  8
0
 10
-10.1
 20
75.1
 11
-16.1
 21
75.1
  0
LINE
  8
0
 10
-16.1
 20
75.1
 11
-16.1
 21
61
  0
LINE
  8
0
 10
-16.1
 20
61
 11
-12
 21
61
  0
LINE
  8
0
 10
-12
 20
61
 11
-12
 21
56
  0
LINE
  8
0
 10
-12
 20
56
 11
-16.1
 21
56
  0
LINE
  8
0
 10
-16.1
 20
56
 11
-16.1
 21
22
  0
LINE
  8
0
 10
-16.1
 20
22
 11
-12
 21
22
  0
LINE
  8
0
 10
-12
 20
22
 11
-12
 21
17
  0
LINE
  8
0
 10
-12
 20
17
 11
-16.1
 21
17
  0
LINE
  8
0
 10
-16.1
 20
17
 11
-16.1
 21
-17
  0
LINE
  8
0
 10
-16.1
 20
-17
 11
-12
 21
-17
  0
LINE
  8
0
 10
-12
 20
-17
 11
-12
 21
-22
  0
LINE
  8
0
 10
-12
 20
-22
 11
-16.1
 21
-22
  0
LINE
  8
0
 10
-16.1
 20
-22
 11
-16.1
 21
-56
  0
LINE
  8
0
 10
-16.1
 20
-56
 11
-12
 21
-56
  0
LINE
  8
0
 10
-12
 20
-56
 11
-12
 21
-61
  0
LINE
  8
0
 10
-12
 20
-61
 11
-16.1
 21
-61
  0
LINE
  8
0
 10
-16.1
 20
-61
 11
-16.1
 21
-75.1
  0
LINE
  8
0
 10
-16.1
 20
-75.1
 11
-10.1
 21
-75.1
  0
LINE
  8
0
 10
-10.1
 20
-75.1
 11
-10.1
 21
-71
  0
LINE
  8
0
 10
-7.25586
 20
-23.2959
 11
-7.25586
 21
-20.9941
  0
LINE
  8
0
 10
-7.25586
 20
-20.9941
 11
9.6377
 21
-20.9941
  0
LINE
  8
0
 10
9.6377
 20
-20.9941
 11
9.6377
 21
-23.2959
  0
LINE
  8
0
 10
9.6377
 20
-23.2959
 11
-7.25586
 21
-23.2959
  0
LINE
  8
0
 10
-7.25586
 20
-36.0264
 11
-7.25586
 21
-33.7236
  0
LINE
  8
0
 10
-7.25586
 20
-33.7236
 11
9.6377
 21
-33.7236
  0
LINE
  8
0
 10
9.6377
 20
-33.7236
 11
9.6377
 21
-36.0264
  0
LINE
  8
0
 10
9.6377
 20
-36.0264
 11
-7.25586
 21
-36.0264
  0
LINE
  8
0
 10
-7.25586
 20
-52.583
 11
-7.25586
 21
-50.2812
  0
LINE
  8
0
 10
-7.25586
 20
-50.2812
 11
9.6377
 21
-50.2812
  0
LINE
  8
0
 10
9.6377
 20
-50.2812
 11
9.6377
 21
-52.583
  0
LINE
  8
0
 10
9.6377
 20
-52.583
 11
-7.25586
 21
-52.583
  0
LINE
  8
0
 10
-10.1
 20
-226.2
 11
-5.09999
 21
-226.2
  0
LINE
  8
0
 10
-5.09999
 20
-226.2
 11
-5.09999
 21
-230.3
  0
LINE
  8
0
 10
-5.09999
 20
-230.3
 11
5.09999
 21
-230.3
  0
LINE
  8
0
 10
5.09999
 20
-230.3
 11
5.09999
 21
-226.2
  0
LINE
  8
0
 10
5.09999
 20
-226.2
 11
10.1
 21
-226.2
  0
LINE
  8
0
 10
10.1
 20
-226.2
 11
10.1
 21
-230.3
  0
LINE
  8
0
 10
10.1
 20
-230.3
 11
16.1
 21
-230.3
  0
LINE
  8
0
 10
16.1
 20
-230.3
 11
16.1
 21
-216.2
  0
LINE
  8
0
 10
16.1
 20
-216.2
 11
12
 21
-216.2
  0
LINE
  8
0
 10
12
 20
-216.2
 11
12
 21
-211.2
  0
LINE
  8
0
 10
12
 20
-211.2
 11
16.1
 21
-211.2
  0
LINE
  8
0
 10
16.1
 20
-211.2
 11
16.1
 21
-177.2
  0
LINE
  8
0
 10
16.1
 20
-177.2
 11
12
 21
-177.2
  0
LINE
  8
0
 10
12
 20
-177.2
 11
12
 21
-172.2
  0
LINE
  8
0
 10
12
 20
-172.2
 11
16.1
 21
-172.2
  0
LINE
  8
0
 10
16.1
 20
-172.2
 11
16.1
 21
-138.2
  0
LINE
  8
0
 10
16.1
 20
-138.2
 11
12
 21
-138.2
  0
LINE
  8
0
 10
12
 20
-138.2
 11
12
 21
-133.2
  0
LINE
  8
0
 10
12
 20
-133.2
 11
16.1
 21
-133.2
  0
LINE
  8
0
 10
16.1
 20
-133.2
 11
16.1
 21
-99.2
  0
LINE
  8
0
 10
16.1
 20
-99.2
 11
12
 21
-99.2
  0
LINE
  8
0
 10
12
 20
-99.2
 11
12
 21
-94.2
  0
LINE
  8
0
 10
12
 20
-94.2
 11
16.1
 21
-94.2
  0
LINE
  8
0
 10
16.1
 20
-94.2
 11
16.1
 21
-80.1
  0
LINE
  8
0
 10
16.1
 20
-80.1
 11
10.1
 21
-80.1
  0
LINE
  8
0
 10
10.1
 20
-80.1
 11
10.1
 21
-84.2
  0
LINE
  8
0
 10
10.1
 20
-84.2
 11
5.09999
 21
-84.2
  0
LINE
  8
0
 10
5.09999
 20
-84.2
 11
5.09999
 21
-80.1
  0
LINE
  8
0
 10
5.09999
 20
-80.1
 11
-5.09999
 21
-80.1
  0
LINE
  8
0
 10
-5.09999
 20
-80.1
 11
-5.09999
 21
-84.2
  0
LINE
  8
0
 10
-5.09999
 20
-84.2
 11
-10.1
 21
-84.2
  0
LINE
  8
0
 10
-10.1
 20
-84.2
 11
-10.1
 21
-80.1
  0
LINE
  8
0
 10
-10.1
 20
-80.1
 11
-16.1
 21
-80.1
  0
LINE
  8
0
 10
-16.1
 20
-80.1
 11
-16.1
 21
-94.2
  0
LINE
  8
0
 10
-16.1
 20
-94.2
 11
-12
 21
-94.2
  0
LINE
  8
0
 10
-12
 20
-94.2
 11
-12
 21
-99.2
  0
LINE
  8
0
 10
-12
 20
-99.2
 11
-16.1
 21
-99.2
  0
LINE
  8
0
 10
-16.1
 20
-99.2
 11
-16.1
 21
-133.2
  0
LINE
  8
0
 10
-16.1
 20
-133.2
 11
-12
 21
-133.2
  0
LINE
  8
0
 10
-12
 20
-133.2
 11
-12
 21
-138.2
  0
LINE
  8
0
 10
-12
 20
-138.2
 11
-16.1
 21
-138.2
  0
LINE
  8
0
 10
-16.1
 20
-138.2
 11
-16.1
 21
-172.2
  0
LINE
  8
0
 10
-16.1
 20
-172.2
 11
-12
 21
-172.2
  0
LINE
  8
0
 10
-12
 20
-172.2
 11
-12
 21
-177.2
  0
LINE
  8
0
 10
-12
 20
-177.2
 11
-16.1
 21
-177.2
  0
LINE
  8
0
 10
-16.1
 20
-177.2
 11
-16.1
 21
-211.2
  0
LINE
  8
0
 10
-16.1
 20
-211.2
 11
-12
 21
-211.2
  0
LINE
  8
0
 10
-12
 20
-211.2
 11
-12
 21
-216.2
  0
LINE
  8
0
 10
-12
 20
-216.2
 11
-16.1
 21
-216.2
  0
LINE
  8
0
 10
-16.1
 20
-216.2
 11
-16.1
 21
-230.3
  0
LINE
  8
0
 10
-16.1
 20
-230.3
 11
-10.1
 21
-230.3
  0
LINE
  8
0
 10
-10.1
 20
-230.3
 11
-10.1
 21
-226.2
  0
LINE
  8
0
 10
-9.6377
 20
-178.496
 11
-9.6377
 21
-176.194
  0
LINE
  8
0
 10
-9.6377
 20
-176.194
 11
7.25586
 21
-176.194
  0
LINE
  8
0
 10
7.25586
 20
-176.194
 11
7.25586
 21
-178.496
  0
LINE
  8
0
 10
7.25586
 20
-178.496
 11
-9.6377
 21
-178.496
  0
LINE
  8
0
 10
-9.6377
 20
-191.226
 11
-9.6377
 21
-188.924
  0
LINE
  8
0
 10
-9.6377
 20
-188.924
 11
7.25586
 21
-188.924
  0
LINE
  8
0
 10
7.25586
 20
-188.924
 11
7.25586
 21
-191.226
  0
LINE
  8
0
 10
7.25586
 20
-191.226
 11
-9.6377
 21
-191.226
  0
LINE
  8
0
 10
-9.6377
 20
-207.783
 11
-9.6377
 21
-205.481
  0
LINE
  8
0
 10
-9.6377
 20
-205.481
 11
7.25586
 21
-205.481
  0
LINE
  8
0
 10
7.25586
 20
-205.481
 11
7.25586
 21
-207.783
  0
LINE
  8
0
 10
7.25586
 20
-207.783
 11
-9.6377
 21
-207.783
  0
LINE
  8
0
 10
-5.09999
 20
-311.4
 11
5.09999
 21
-311.4
  0
LINE
  8
0
 10
5.09999
 20
-311.4
 11
5.09999
 21
-315.5
  0
LINE
  8
0
 10
5.09999
 20
-315.5
 11
10.1
 21
-315.5
  0
LINE
  8
0
 10
10.1
 20
-315.5
 11
10.1
 21
-311.4
  0
LINE
  8
0
 10
10.1
 20
-311.4
 11
16.1
 21
-311.4
  0
LINE
  8
0
 10
16.1
 20
-311.4
 11
16.1
 21
-301.4
  0
LINE
  8
0
 10
16.1
 20
-301.4
 11
12
 21
-301.4
  0
LINE
  8
0
 10
12
 20
-301.4
 11
12
 21
-296.4
  0
LINE
  8
0
 10
12
 20
-296.4
 11
16.1
 21
-296.4
  0
LINE
  8
0
 10
16.1
 20
-296.4
 11
16.1
 21
-285.733
  0
LINE
  8
0
 10
16.1
 20
-285.733
 11
12
 21
-285.733
  0
LINE
  8
0
 10
12
 20
-285.733
 11
12
 21
-280.733
  0
LINE
  8
0
 10
12
 20
-280.733
 11
16.1
 21
-280.733
  0
LINE
  8
0
 10
16.1
 20
-280.733
 11
16.1
 21
-270.067
  0
LINE
  8
0
 10
16.1
 20
-270.067
 11
12
 21
-270.067
  0
LINE
  8
0
 10
12
 20
-270.067
 11
12
 21
-265.067
  0
LINE
  8
0
 10
12
 20
-265.067
 11
16.1
 21
-265.067
  0
LINE
  8
0
 10
16.1
 20
-265.067
 11
16.1
 21
-254.4
  0
LINE
  8
0
 10
16.1
 20
-254.4
 11
12
 21
-254.4
  0
LINE
  8
0
 10
12
 20
-254.4
 11
12
 21
-249.4
  0
LINE
  8
0
 10
12
 20
-249.4
 11
16.1
 21
-249.4
  0
LINE
  8
0
 10
16.1
 20
-249.4
 11
16.1
 21
-239.4
  0
LINE
  8
0
 10
16.1
 20
-239.4
 11
10.1
 21
-239.4
  0
LINE
  8
0
 10
10.1
 20
-239.4
 11
10.1
 21
-235.3
  0
LINE
  8
0
 10
10.1
 20
-235.3
 11
5.09999
 21
-235.3
  0
LINE
  8
0
 10
5.09999
 20
-235.3
 11
5.09999
 21
-239.4
  0
LINE
  8
0
 10
5.09999
 20
-239.4
 11
-5.09999
 21
-239.4
  0
LINE
  8
0
 10
-5.09999
 20
-239.4
 11
-5.09999
 21
-235.3
  0
LINE
  8
0
 10
-5.09999
 20
-235.3
 11
-10.1
 21
-235.3
  0
LINE
  8
0
 10
-10.1
 20
-235.3
 11
-10.1
 21
-239.4
  0
LINE
  8
0
 10
-10.1
 20
-239.4
 11
-16.1
 21
-239.4
  0
LINE
  8
0
 10
-16.1
 20
-239.4
 11
-16.1
 21
-249.4
  0
LINE
  8
0
 10
-16.1
 20
-249.4
 11
-12
 21
-249.4
  0
LINE
  8
0
 10
-12
 20
-249.4
 11
-12
 21
-254.4
  0
LINE
  8
0
 10
-12
 20
-254.4
 11
-16.1
 21
-254.4
  0
LINE
  8
0
 10
-16.1
 20
-254.4
 11
-16.1
 21
-265.067
  0
LINE
  8
0
 10
-16.1
 20
-265.067
 11
-12
 21
-265.067
  0
LINE
  8
0
 10
-12
 20
-265.067
 11
-12
 21
-270.067
  0
LINE
  8
0
 10
-12
 20
-270.067
 11
-16.1
 21
-270.067
  0
LINE
  8
0
 10
-16.1
 20
-270.067
 11
-16.1
 21
-280.733
  0
LINE
  8
0
 10
-16.1
 20
-280.733
 11
-12
 21
-280.733
  0
LINE
  8
0
 10
-12
 20
-280.733
 11
-12
 21
-285.733
  0
LINE
  8
0
 10
-12
 20
-285.733
 11
-16.1
 21
-285.733
  0
LINE
  8
0
 10
-16.1
 20
-285.733
 11
-16.1
 21
-296.4
  0
LINE
  8
0
 10
-16.1
 20
-296.4
 11
-12
 21
-296.4
  0
LINE
  8
0
 10
-12
 20
-296.4
 11
-12
 21
-301.4
  0
LINE
  8
0
 10
-12
 20
-301.4
 11
-16.1
 21
-301.4
  0
LINE
  8
0
 10
-16.1
 20
-301.4
 11
-16.1
 21
-311.4
  0
LINE
  8
0
 10
-16.1
 20
-311.4
 11
-10.1
 21
-311.4
  0
LINE
  8
0
 10
-10.1
 20
-311.4
 11
-10.1
 21
-315.5
  0
LINE
  8
0
 10
-10.1
 20
-315.5
 11
-5.09999
 21
-315.5
  0
LINE
  8
0
 10
-5.09999
 20
-315.5
 11
-5.09999
 21
-311.4
  0
LINE
  8
0
 10
-5.09999
 20
-396.6
 11
5.09999
 21
-396.6
  0
LINE
  8
0
 10
5.09999
 20
-396.6
 11
5.09999
 21
-400.7
  0
LINE
  8
0
 10
5.09999
 20
-400.7
 11
10.1
 21
-400.7
  0
LINE
  8
0
 10
10.1
 20
-400.7
 11
10.1
 21
-396.6
  0
LINE
  8
0
 10
10.1
 20
-396.6
 11
16.1
 21
-396.6
  0
LINE
  8
0
 10
16.1
 20
-396.6
 11
16.1
 21
-386.6
  0
LINE
  8
0
 10
16.1
 20
-386.6
 11
12
 21
-386.6
  0
LINE
  8
0
 10
12
 20
-386.6
 11
12
 21
-381.6
  0
LINE
  8
0
 10
12
 20
-381.6
 11
16.1
 21
-381.6
  0
LINE
  8
0
 10
16.1
 20
-381.6
 11
16.1
 21
-370.933
  0
LINE
  8
0
 10
16.1
 20
-370.933
 11
12
 21
-370.933
  0
LINE
  8
0
 10
12
 20
-370.933
 11
12
 21
-365.933
  0
LINE
  8
0
 10
12
 20
-365.933
 11
16.1
 21
-365.933
  0
LINE
  8
0
 10
16.1
 20
-365.933
 11
16.1
 21
-355.267
  0
LINE
  8
0
 10
16.1
 20
-355.267
 11
12
 21
-355.267
  0
LINE
  8
0
 10
12
 20
-355.267
 11
12
 21
-350.267
  0
LINE
  8
0
 10
12
 20
-350.267
 11
16.1
 21
-350.267
  0
LINE
  8
0
 10
16.1
 20
-350.267
 11
16.1
 21
-339.6
  0
LINE
  8
0
 10
16.1
 20
-339.6
 11
12
 21
-339.6
  0
LINE
  8
0
 10
12
 20
-339.6
 11
12
 21
-334.6
  0
LINE
  8
0
 10
12
 20
-334.6
 11
16.1
 21
-334.6
  0
LINE
  8
0
 10
16.1
 20
-334.6
 11
16.1
 21
-324.6
  0
LINE
  8
0
 10
16.1
 20
-324.6
 11
10.1
 21
-324.6
  0
LINE
  8
0
 10
10.1
 20
-324.6
 11
10.1
 21
-320.5
  0
LINE
  8
0
 10
10.1
 20
-320.5
 11
5.09999
 21
-320.5
  0
LINE
  8
0
 10
5.09999
 20
-320.5
 11
5.09999
 21
-324.6
  0
LINE
  8
0
 10
5.09999
 20
-324.6
 11
-5.09999
 21
-324.6
  0
LINE
  8
0
 10
-5.09999
 20
-324.6
 11
-5.09999
 21
-320.5
  0
LINE
  8
0
 10
-5.09999
 20
-320.5
 11
-10.1
 21
-320.5
  0
LINE
  8
0
 10
-10.1
 20
-320.5
 11
-10.1
 21
-324.6
  0
LINE
  8
0
 10
-10.1
 20
-324.6
 11
-16.1
 21
-324.6
  0
LINE
  8
0
 10
-16.1
 20
-324.6
 11
-16.1
 21
-334.6
  0
LINE
  8
0
 10
-16.1
 20
-334.6
 11
-12
 21
-334.6
  0
LINE
  8
0
 10
-12
 20
-334.6
 11
-12
 21
-339.6
  0
LINE
  8
0
 10
-12
 20
-339.6
 11
-16.1
 21
-339.6
  0
LINE
  8
0
 10
-16.1
 20
-339.6
 11
-16.1
 21
-350.267
  0
LINE
  8
0
 10
-16.1
 20
-350.267
 11
-12
 21
-350.267
  0
LINE
  8
0
 10
-12
 20
-350.267
 11
-12
 21
-355.267
  0
LINE
  8
0
 10
-12
 20
-355.267
 11
-16.1
 21
-355.267
  0
LINE
  8
0
 10
-16.1
 20
-355.267
 11
-16.1
 21
-365.933
  0
LINE
  8
0
 10
-16.1
 20
-365.933
 11
-12
 21
-365.933
  0
LINE
  8
0
 10
-12
 20
-365.933
 11
-12
 21
-370.933
  0
LINE
  8
0
 10
-12
 20
-370.933
 11
-16.1
 21
-370.933
  0
LINE
  8
0
 10
-16.1
 20
-370.933
 11
-16.1
 21
-381.6
  0
LINE
  8
0
 10
-16.1
 20
-381.6
 11
-12
 21
-381.6
  0
LINE
  8
0
 10
-12
 20
-381.6
 11
-12
 21
-386.6
  0
LINE
  8
0
 10
-12
 20
-386.6
 11
-16.1
 21
-386.6
  0
LINE
  8
0
 10
-16.1
 20
-386.6
 11
-16.1
 21
-396.6
  0
LINE
  8
0
 10
-16.1
 20
-396.6
 11
-10.1
 21
-396.6
  0
LINE
  8
0
 10
-10.1
 20
-396.6
 11
-10.1
 21
-400.7
  0
LINE
  8
0
 10
-10.1
 20
-400.7
 11
-5.09999
 21
-400.7
  0
LINE
  8
0
 10
-5.09999
 20
-400.7
 11
-5.09999
 21
-396.6
  0
LINE
  8
0
 10
-1.37988
 20
-372.498
 11
-1.76953
 21
-372.462
  0
LINE
  8
0
 10
-1.76953
 20
-372.462
 11
-2.13281
 21
-372.349
  0
LINE
  8
0
 10
-2.13281
 20
-372.349
 11
-2.46094
 21
-372.171
  0
LINE
  8
0
 10
-2.46094
 20
-372.171
 11
-2.74707
 21
-371.934
  0
LINE
  8
0
 10
-2.74707
 20
-371.934
 11
-2.98242
 21
-371.65
  0
LINE
  8
0
 10
-2.98242
 20
-371.65
 11
-3.16016
 21
-371.322
  0
LINE
  8
0
 10
-3.16016
 20
-371.322
 11
-3.27148
 21
-370.958
  0
LINE
  8
0
 10
-3.27148
 20
-370.958
 11
-3.31152
 21
-370.569
  0
LINE
  8
0
 10
-3.31152
 20
-370.569
 11
-3.31055
 21
-369.459
  0
LINE
  8
0
 10
-3.31055
 20
-369.459
 11
-3.31055
 21
-361.699
  0
LINE
  8
0
 10
-3.31055
 20
-361.699
 11
-3.27148
 21
-361.309
  0
LINE
  8
0
 10
-3.27148
 20
-361.309
 11
-3.16016
 21
-360.945
  0
LINE
  8
0
 10
-3.16016
 20
-360.945
 11
-2.98242
 21
-360.618
  0
LINE
  8
0
 10
-2.98242
 20
-360.618
 11
-2.74707
 21
-360.332
  0
LINE
  8
0
 10
-2.74707
 20
-360.332
 11
-2.46094
 21
-360.095
  0
LINE
  8
0
 10
-2.46094
 20
-360.095
 11
-2.13281
 21
-359.917
  0
LINE
  8
0
 10
-2.13281
 20
-359.917
 11
-1.76953
 21
-359.807
  0
LINE
  8
0
 10
-1.76953
 20
-359.807
 11
-1.37988
 21
-359.768
  0
LINE
  8
0
 10
-1.37988
 20
-359.768
 11
0.964844
 21
-359.768
  0
LINE
  8
0
 10
0.964844
 20
-359.768
 11
1.35547
 21
-359.807
  0
LINE
  8
0
 10
1.35547
 20
-359.807
 11
1.71875
 21
-359.917
  0
LINE
  8
0
 10
1.71875
 20
-359.917
 11
2.04688
 21
-360.095
  0
LINE
  8
0
 10
2.04688
 20
-360.095
 11
2.33203
 21
-360.332
  0
LINE
  8
0
 10
2.33203
 20
-360.332
 11
2.56738
 21
-360.618
  0
LINE
  8
0
 10
2.56738
 20
-360.618
 11
2.74512
 21
-360.945
  0
LINE
  8
0
 10
2.74512
 20
-360.945
 11
2.85742
 21
-361.309
  0
LINE
  8
0
 10
2.85742
 20
-361.309
 11
2.89648
 21
-361.699
  0
LINE
  8
0
 10
2.89648
 20
-361.699
 11
2.89648
 21
-370.569
  0
LINE
  8
0
 10
2.89648
 20
-370.569
 11
2.85742
 21
-370.957
  0
LINE
  8
0
 10
2.85742
 20
-370.957
 11
2.74512
 21
-371.322
  0
LINE
  8
0
 10
2.74512
 20
-371.322
 11
2.56738
 21
-371.65
  0
LINE
  8
0
 10
2.56738
 20
-371.65
 11
2.33203
 21
-371.934
  0
LINE
  8
0
 10
2.33203
 20
-371.934
 11
2.04688
 21
-372.171
  0
LINE
  8
0
 10
2.04688
 20
-372.171
 11
1.71875
 21
-372.349
  0
LINE
  8
0
 10
1.71875
 20
-372.349
 11
1.35547
 21
-372.462
  0
LINE
  8
0
 10
1.35547
 20
-372.462
 11
0.964844
 21
-372.498
  0
LINE
  8
0
 10
0.964844
 20
-372.498
 11
-1.37988
 21
-372.498
  0
LINE
  8
0
 10
-0.668945
 20
-387.928
 11
-1.38965
 21
-387.704
  0
LINE
  8
0
 10
-1.38965
 20
-387.704
 11
-2.04199
 21
-387.349
  0
LINE
  8
0
 10
-2.04199
 20
-387.349
 11
-2.61133
 21
-386.88
  0
LINE
  8
0
 10
-2.61133
 20
-386.88
 11
-3.08008
 21
-386.312
  0
LINE
  8
0
 10
-3.08008
 20
-386.312
 11
-3.43359
 21
-385.661
  0
LINE
  8
0
 10
-3.43359
 20
-385.661
 11
-3.6582
 21
-384.939
  0
LINE
  8
0
 10
-3.6582
 20
-384.939
 11
-3.73633
 21
-384.165
  0
LINE
  8
0
 10
-3.73633
 20
-384.165
 11
-3.6582
 21
-383.391
  0
LINE
  8
0
 10
-3.6582
 20
-383.391
 11
-3.43359
 21
-382.669
  0
LINE
  8
0
 10
-3.43359
 20
-382.669
 11
-3.08008
 21
-382.018
  0
LINE
  8
0
 10
-3.08008
 20
-382.018
 11
-2.61133
 21
-381.45
  0
LINE
  8
0
 10
-2.61133
 20
-381.45
 11
-2.04199
 21
-380.98
  0
LINE
  8
0
 10
-2.04199
 20
-380.98
 11
-1.38965
 21
-380.625
  0
LINE
  8
0
 10
-1.38965
 20
-380.625
 11
-0.668945
 21
-380.403
  0
LINE
  8
0
 10
-0.668945
 20
-380.403
 11
0.104492
 21
-380.325
  0
LINE
  8
0
 10
0.104492
 20
-380.325
 11
0.878906
 21
-380.403
  0
LINE
  8
0
 10
0.878906
 20
-380.403
 11
1.60059
 21
-380.625
  0
LINE
  8
0
 10
1.60059
 20
-380.625
 11
2.25195
 21
-380.98
  0
LINE
  8
0
 10
2.25195
 20
-380.98
 11
2.82129
 21
-381.45
  0
LINE
  8
0
 10
2.82129
 20
-381.45
 11
3.29004
 21
-382.018
  0
LINE
  8
0
 10
3.29004
 20
-382.018
 11
3.64453
 21
-382.669
  0
LINE
  8
0
 10
3.64453
 20
-382.669
 11
3.86719
 21
-383.391
  0
LINE
  8
0
 10
3.86719
 20
-383.391
 11
3.94629
 21
-384.165
  0
LINE
  8
0
 10
3.94629
 20
-384.165
 11
3.86719
 21
-384.939
  0
LINE
  8
0
 10
3.86719
 20
-384.939
 11
3.64453
 21
-385.661
  0
LINE
  8
0
 10
3.64453
 20
-385.661
 11
3.29004
 21
-386.312
  0
LINE
  8
0
 10
3.29004
 20
-386.312
 11
2.82129
 21
-386.88
  0
LINE
  8
0
 10
2.82129
 20
-386.88
 11
2.25195
 21
-387.349
  0
LINE
  8
0
 10
2.25195
 20
-387.349
 11
1.60059
 21
-387.704
  0
LINE
  8
0
 10
1.60059
 20
-387.704
 11
0.878906
 21
-387.928
  0
LINE
  8
0
 10
0.878906
 20
-387.928
 11
0.104492
 21
-388.005
  0
LINE
  8
0
 10
0.104492
 20
-388.005
 11
-0.668945
 21
-387.928
  0
LINE
  8
0
 10
-56
 20
-481.8
 11
-22
 21
-481.8
  0
LINE
  8
0
 10
-22
 20
-481.8
 11
-22
 21
-485.9
  0
LINE
  8
0
 10
-22
 20
-485.9
 11
-17
 21
-485.9
  0
LINE
  8
0
 10
-17
 20
-485.9
 11
-17
 21
-481.8
  0
LINE
  8
0
 10
-17
 20
-481.8
 11
17
 21
-481.8
  0
LINE
  8
0
 10
17
 20
-481.8
 11
17
 21
-485.9
  0
LINE
  8
0
 10
17
 20
-485.9
 11
22
 21
-485.9
  0
LINE
  8
0
 10
22
 20
-485.9
 11
22
 21
-481.8
  0
LINE
  8
0
 10
22
 20
-481.8
 11
56
 21
-481.8
  0
LINE
  8
0
 10
56
 20
-481.8
 11
56
 21
-485.9
  0
LINE
  8
0
 10
56
 20
-485.9
 11
61
 21
-485.9
  0
LINE
  8
0
 10
61
 20
-485.9
 11
61
 21
-481.8
  0
LINE
  8
0
 10
61
 20
-481.8
 11
71
 21
-481.8
  0
LINE
  8
0
 10
71
 20
-481.8
 11
71
 21
-471.8
  0
LINE
  8
0
 10
71
 20
-471.8
 11
75.1
 21
-471.8
  0
LINE
  8
0
 10
75.1
 20
-471.8
 11
75.1
 21
-466.8
  0
LINE
  8
0
 10
75.1
 20
-466.8
 11
71
 21
-466.8
  0
LINE
  8
0
 10
71
 20
-466.8
 11
71
 21
-456.133
  0
LINE
  8
0
 10
71
 20
-456.133
 11
75.1
 21
-456.133
  0
LINE
  8
0
 10
75.1
 20
-456.133
 11
75.1
 21
-451.133
  0
LINE
  8
0
 10
75.1
 20
-451.133
 11
71
 21
-451.133
  0
LINE
  8
0
 10
71
 20
-451.133
 11
71
 21
-440.467
  0
LINE
  8
0
 10
71
 20
-440.467
 11
75.1
 21
-440.467
  0
LINE
  8
0
 10
75.1
 20
-440.467
 11
75.1
 21
-435.467
  0
LINE
  8
0
 10
75.1
 20
-435.467
 11
71
 21
-435.467
  0
LINE
  8
0
 10
71
 20
-435.467
 11
71
 21
-424.8
  0
LINE
  8
0
 10
71
 20
-424.8
 11
75.1
 21
-424.8
  0
LINE
  8
0
 10
75.1
 20
-424.8
 11
75.1
 21
-419.8
  0
LINE
  8
0
 10
75.1
 20
-419.8
 11
71
 21
-419.8
  0
LINE
  8
0
 10
71
 20
-419.8
 11
71
 21
-409.8
  0
LINE
  8
0
 10
71
 20
-409.8
 11
61
 21
-409.8
  0
LINE
  8
0
 10
61
 20
-409.8
 11
61
 21
-405.7
  0
LINE
  8
0
 10
61
 20
-405.7
 11
56
 21
-405.7
  0
LINE
  8
0
 10
56
 20
-405.7
 11
56
 21
-409.8
  0
LINE
  8
0
 10
56
 20
-409.8
 11
22
 21
-409.8
  0
LINE
  8
0
 10
22
 20
-409.8
 11
22
 21
-405.7
  0
LINE
  8
0
 10
22
 20
-405.7
 11
17
 21
-405.7
  0
LINE
  8
0
 10
17
 20
-405.7
 11
17
 21
-409.8
  0
LINE
  8
0
 10
17
 20
-409.8
 11
-17
 21
-409.8
  0
LINE
  8
0
 10
-17
 20
-409.8
 11
-17
 21
-405.7
  0
LINE
  8
0
 10
-17
 20
-405.7
 11
-22
 21
-405.7
  0
LINE
  8
0
 10
-22
 20
-405.7
 11
-22
 21
-409.8
  0
LINE
  8
0
 10
-22
 20
-409.8
 11
-56
 21
-409.8
  0
LINE
  8
0
 10
-56
 20
-409.8
 11
-56
 21
-405.7
  0
LINE
  8
0
 10
-56
 20
-405.7
 11
-61
 21
-405.7
  0
LINE
  8
0
 10
-61
 20
-405.7
 11
-61
 21
-409.8
  0
LINE
  8
0
 10
-61
 20
-409.8
 11
-71
 21
-409.8
  0
LINE
  8
0
 10
-71
 20
-409.8
 11
-71
 21
-419.8
  0
LINE
  8
0
 10
-71
 20
-419.8
 11
-75.1
 21
-419.8
  0
LINE
  8
0
 10
-75.1
 20
-419.8
 11
-75.1
 21
-424.8
  0
LINE
  8
0
 10
-75.1
 20
-424.8
 11
-71
 21
-424.8
  0
LINE
  8
0
 10
-71
 20
-424.8
 11
-71
 21
-435.467
  0
LINE
  8
0
 10
-71
 20
-435.467
 11
-75.1
 21
-435.467
  0
LINE
  8
0
 10
-75.1
 20
-435.467
 11
-75.1
 21
-440.467
  0
LINE
  8
0
 10
-75.1
 20
-440.467
 11
-71
 21
-440.467
  0
LINE
  8
0
 10
-71
 20
-440.467
 11
-71
 21
-451.133
  0
LINE
  8
0
 10
-71
 20
-451.133
 11
-75.1
 21
-451.133
  0
LINE
  8
0
 10
-75.1
 20
-451.133
 11
-75.1
 21
-456.133
  0
LINE
  8
0
 10
-75.1
 20
-456.133
 11
-71
 21
-456.133
  0
LINE
  8
0
 10
-71
 20
-456.133
 11
-71
 21
-466.8
  0
LINE
  8
0
 10
-71
 20
-466.8
 11
-75.1
 21
-466.8
  0
LINE
  8
0
 10
-75.1
 20
-466.8
 11
-75.1
 21
-471.8
  0
LINE
  8
0
 10
-75.1
 20
-471.8
 11
-71
 21
-471.8
  0
LINE
  8
0
 10
-71
 20
-471.8
 11
-71
 21
-481.8
  0
LINE
  8
0
 10
-71
 20
-481.8
 11
-61
 21
-481.8
  0
LINE
  8
0
 10
-61
 20
-481.8
 11
-61
 21
-485.9
  0
LINE
  8
0
 10
-61
 20
-485.9
 11
-56
 21
-485.9
  0
LINE
  8
0
 10
-56
 20
-485.9
 11
-56
 21
-481.8
  0
LINE
  8
0
 10
-56
 20
-567
 11
-22
 21
-567
  0
LINE
  8
0
 10
-22
 20
-567
 11
-22
 21
-571.1
  0
LINE
  8
0
 10
-22
 20
-571.1
 11
-17
 21
-571.1
  0
LINE
  8
0
 10
-17
 20
-571.1
 11
-17
 21
-567
  0
LINE
  8
0
 10
-17
 20
-567
 11
17
 21
-567
  0
LINE
  8
0
 10
17
 20
-567
 11
17
 21
-571.1
  0
LINE
  8
0
 10
17
 20
-571.1
 11
22
 21
-571.1
  0
LINE
  8
0
 10
22
 20
-571.1
 11
22
 21
-567
  0
LINE
  8
0
 10
22
 20
-567
 11
56
 21
-567
  0
LINE
  8
0
 10
56
 20
-567
 11
56
 21
-571.1
  0
LINE
  8
0
 10
56
 20
-571.1
 11
61
 21
-571.1
  0
LINE
  8
0
 10
61
 20
-571.1
 11
61
 21
-567
  0
LINE
  8
0
 10
61
 20
-567
 11
71
 21
-567
  0
LINE
  8
0
 10
71
 20
-567
 11
71
 21
-557
  0
LINE
  8
0
 10
71
 20
-557
 11
75.1
 21
-557
  0
LINE
  8
0
 10
75.1
 20
-557
 11
75.1
 21
-552
  0
LINE
  8
0
 10
75.1
 20
-552
 11
71
 21
-552
  0
LINE
  8
0
 10
71
 20
-552
 11
71
 21
-541.333
  0
LINE
  8
0
 10
71
 20
-541.333
 11
75.1
 21
-541.333
  0
LINE
  8
0
 10
75.1
 20
-541.333
 11
75.1
 21
-536.333
  0
LINE
  8
0
 10
75.1
 20
-536.333
 11
71
 21
-536.333
  0
LINE
  8
0
 10
71
 20
-536.333
 11
71
 21
-525.667
  0
LINE
  8
0
 10
71
 20
-525.667
 11
75.1
 21
-525.667
  0
LINE
  8
0
 10
75.1
 20
-525.667
 11
75.1
 21
-520.667
  0
LINE
  8
0
 10
75.1
 20
-520.667
 11
71
 21
-520.667
  0
LINE
  8
0
 10
71
 20
-520.667
 11
71
 21
-510
  0
LINE
  8
0
 10
71
 20
-510
 11
75.1
 21
-510
  0
LINE
  8
0
 10
75.1
 20
-510
 11
75.1
 21
-505
  0
LINE
  8
0
 10
75.1
 20
-505
 11
71
 21
-505
  0
LINE
  8
0
 10
71
 20
-505
 11
71
 21
-495
  0
LINE
  8
0
 10
71
 20
-495
 11
61
 21
-495
  0
LINE
  8
0
 10
61
 20
-495
 11
61
 21
-490.9
  0
LINE
  8
0
 10
61
 20
-490.9
 11
56
 21
-490.9
  0
LINE
  8
0
 10
56
 20
-490.9
 11
56
 21
-495
  0
LINE
  8
0
 10
56
 20
-495
 11
22
 21
-495
  0
LINE
  8
0
 10
22
 20
-495
 11
22
 21
-490.9
  0
LINE
  8
0
 10
22
 20
-490.9
 11
17
 21
-490.9
  0
LINE
  8
0
 10
17
 20
-490.9
 11
17
 21
-495
  0
LINE
  8
0
 10
17
 20
-495
 11
-17
 21
-495
  0
LINE
  8
0
 10
-17
 20
-495
 11
-17
 21
-490.9
  0
LINE
  8
0
 10
-17
 20
-490.9
 11
-22
 21
-490.9
  0
LINE
  8
0
 10
-22
 20
-490.9
 11
-22
 21
-495
  0
LINE
  8
0
 10
-22
 20
-495
 11
-56
 21
-495
  0
LINE
  8
0
 10
-56
 20
-495
 11
-56
 21
-490.9
  0
LINE
  8
0
 10
-56
 20
-490.9
 11
-61
 21
-490.9
  0
LINE
  8
0
 10
-61
 20
-490.9
 11
-61
 21
-495
  0
LINE
  8
0
 10
-61
 20
-495
 11
-71
 21
-495
  0
LINE
  8
0
 10
-71
 20
-495
 11
-71
 21
-505
  0
LINE
  8
0
 10
-71
 20
-505
 11
-75.1
 21
-505
  0
LINE
  8
0
 10
-75.1
 20
-505
 11
-75.1
 21
-510
  0
LINE
  8
0
 10
-75.1
 20
-510
 11
-71
 21
-510
  0
LINE
  8
0
 10
-71
 20
-510
 11
-71
 21
-520.667
  0
LINE
  8
0
 10
-71
 20
-520.667
 11
-75.1
 21
-520.667
  0
LINE
  8
0
 10
-75.1
 20
-520.667
 11
-75.1
 21
-525.667
  0
LINE
  8
0
 10
-75.1
 20
-525.667
 11
-71
 21
-525.667
  0
LINE
  8
0
 10
-71
 20
-525.667
 11
-71
 21
-536.333
  0
LINE
  8
0
 10
-71
 20
-536.333
 11
-75.1
 21
-536.333
  0
LINE
  8
0
 10
-75.1
 20
-536.333
 11
-75.1
 21
-541.333
  0
LINE
  8
0
 10
-75.1
 20
-541.333
 11
-71
 21
-541.333
  0
LINE
  8
0
 10
-71
 20
-541.333
 11
-71
 21
-552
  0
LINE
  8
0
 10
-71
 20
-552
 11
-75.1
 21
-552
  0
LINE
  8
0
 10
-75.1
 20
-552
 11
-75.1
 21
-557
  0
LINE
  8
0
 10
-75.1
 20
-557
 11
-71
 21
-557
  0
LINE
  8
0
 10
-71
 20
-557
 11
-71
 21
-567
  0
LINE
  8
0
 10
-71
 20
-567
 11
-61
 21
-567
  0
LINE
  8
0
 10
-61
 20
-567
 11
-61
 21
-571.1
  0
LINE
  8
0
 10
-61
 20
-571.1
 11
-56
 21
-571.1
  0
LINE
  8
0
 10
-56
 20
-571.1
 11
-56
 21
-567
  0
LINE
  8
0
 10
-50.5
 20
-558.4
 11
-50.5
 21
-503.6
  0
LINE
  8
0
 10
-50.5
 20
-503.6
 11
58.5
 21
-503.6
  0
LINE
  8
0
 10
58.5
 20
-503.6
 11
58.5
 21
-558.4
  0
LINE
  8
0
 10
58.5
 20
-558.4
 11
-50.5
 21
-558.4
  0
LINE
  8
0
 10
-57.4787
 20
-509.256
 11
-57.6974
 21
-509.185
  0
LINE
  8
0
 10
-57.6974
 20
-509.185
 11
-57.8966
 21
-509.07
  0
LINE
  8
0
 10
-57.8966
 20
-509.07
 11
-58.0675
 21
-508.916
  0
LINE
  8
0
 10
-58.0675
 20
-508.916
 11
-58.2026
 21
-508.73
  0
LINE
  8
0
 10
-58.2026
 20
-508.73
 11
-58.2962
 21
-508.52
  0
LINE
  8
0
 10
-58.2962
 20
-508.52
 11
-58.344
 21
-508.295
  0
LINE
  8
0
 10
-58.344
 20
-508.295
 11
-58.344
 21
-508.065
  0
LINE
  8
0
 10
-58.344
 20
-508.065
 11
-58.2962
 21
-507.84
  0
LINE
  8
0
 10
-58.2962
 20
-507.84
 11
-58.2026
 21
-507.63
  0
LINE
  8
0
 10
-58.2026
 20
-507.63
 11
-58.0675
 21
-507.444
  0
LINE
  8
0
 10
-58.0675
 20
-507.444
 11
-57.8966
 21
-507.29
  0
LINE
  8
0
 10
-57.8966
 20
-507.29
 11
-57.6974
 21
-507.175
  0
LINE
  8
0
 10
-57.6974
 20
-507.175
 11
-57.4787
 21
-507.104
  0
LINE
  8
0
 10
-57.4787
 20
-507.104
 11
-57.25
 21
-507.08
  0
LINE
  8
0
 10
-57.25
 20
-507.08
 11
-57.0213
 21
-507.104
  0
LINE
  8
0
 10
-57.0213
 20
-507.104
 11
-56.8026
 21
-507.175
  0
LINE
  8
0
 10
-56.8026
 20
-507.175
 11
-56.6034
 21
-507.29
  0
LINE
  8
0
 10
-56.6034
 20
-507.29
 11
-56.4325
 21
-507.444
  0
LINE
  8
0
 10
-56.4325
 20
-507.444
 11
-56.2974
 21
-507.63
  0
LINE
  8
0
 10
-56.2974
 20
-507.63
 11
-56.2038
 21
-507.84
  0
LINE
  8
0
 10
-56.2038
 20
-507.84
 11
-56.156
 21
-508.065
  0
LINE
  8
0
 10
-56.156
 20
-508.065
 11
-56.156
 21
-508.295
  0
LINE
  8
0
 10
-56.156
 20
-508.295
 11
-56.2038
 21
-508.52
  0
LINE
  8
0
 10
-56.2038
 20
-508.52
 11
-56.2974
 21
-508.73
  0
LINE
  8
0
 10
-56.2974
 20
-508.73
 11
-56.4325
 21
-508.916
  0
LINE
  8
0
 10
-56.4325
 20
-508.916
 11
-56.6034
 21
-509.07
  0
LINE
  8
0
 10
-56.6034
 20
-509.07
 11
-56.8026
 21
-509.185
  0
LINE
  8
0
 10
-56.8026
 20
-509.185
 11
-57.0213
 21
-509.256
  0
LINE
  8
0
 10
-57.0213
 20
-509.256
 11
-57.25
 21
-509.28
  0
LINE
  8
0
 10
-57.25
 20
-509.28
 11
-57.4787
 21
-509.256
  0
LINE
  8
0
 10
65.0213
 20
-509.256
 11
64.8026
 21
-509.185
  0
LINE
  8
0
 10
64.8026
 20
-509.185
 11
64.6034
 21
-509.07
  0
LINE
  8
0
 10
64.6034
 20
-509.07
 11
64.4325
 21
-508.916
  0
LINE
  8
0
 10
64.4325
 20
-508.916
 11
64.2974
 21
-508.73
  0
LINE
  8
0
 10
64.2974
 20
-508.73
 11
64.2038
 21
-508.52
  0
LINE
  8
0
 10
64.2038
 20
-508.52
 11
64.156
 21
-508.295
  0
LINE
  8
0
 10
64.156
 20
-508.295
 11
64.156
 21
-508.065
  0
LINE
  8
0
 10
64.156
 20
-508.065
 11
64.2038
 21
-507.84
  0
LINE
  8
0
 10
64.2038
 20
-507.84
 11
64.2974
 21
-507.63
  0
LINE
  8
0
 10
64.2974
 20
-507.63
 11
64.4325
 21
-507.444
  0
LINE
  8
0
 10
64.4325
 20
-507.444
 11
64.6034
 21
-507.29
  0
LINE
  8
0
 10
64.6034
 20
-507.29
 11
64.8026
 21
-507.175
  0
LINE
  8
0
 10
64.8026
 20
-507.175
 11
65.0213
 21
-507.104
  0
LINE
  8
0
 10
65.0213
 20
-507.104
 11
65.25
 21
-507.08
  0
LINE
  8
0
 10
65.25
 20
-507.08
 11
65.4787
 21
-507.104
  0
LINE
  8
0
 10
65.4787
 20
-507.104
 11
65.6974
 21
-507.175
  0
LINE
  8
0
 10
65.6974
 20
-507.175
 11
65.8966
 21
-507.29
  0
LINE
  8
0
 10
65.8966
 20
-507.29
 11
66.0675
 21
-507.444
  0
LINE
  8
0
 10
66.0675
 20
-507.444
 11
66.2026
 21
-507.63
  0
LINE
  8
0
 10
66.2026
 20
-507.63
 11
66.2962
 21
-507.84
  0
LINE
  8
0
 10
66.2962
 20
-507.84
 11
66.344
 21
-508.065
  0
LINE
  8
0
 10
66.344
 20
-508.065
 11
66.344
 21
-508.295
  0
LINE
  8
0
 10
66.344
 20
-508.295
 11
66.2962
 21
-508.52
  0
LINE
  8
0
 10
66.2962
 20
-508.52
 11
66.2026
 21
-508.73
  0
LINE
  8
0
 10
66.2026
 20
-508.73
 11
66.0675
 21
-508.916
  0
LINE
  8
0
 10
66.0675
 20
-508.916
 11
65.8966
 21
-509.07
  0
LINE
  8
0
 10
65.8966
 20
-509.07
 11
65.6974
 21
-509.185
  0
LINE
  8
0
 10
65.6974
 20
-509.185
 11
65.4787
 21
-509.256
  0
LINE
  8
0
 10
65.4787
 20
-509.256
 11
65.25
 21
-509.28
  0
LINE
  8
0
 10
65.25
 20
-509.28
 11
65.0213
 21
-509.256
  0
LINE
  8
0
 10
65.0213
 20
-514.336
 11
64.8026
 21
-514.265
  0
LINE
  8
0
 10
64.8026
 20
-514.265
 11
64.6034
 21
-514.15
  0
LINE
  8
0
 10
64.6034
 20
-514.15
 11
64.4325
 21
-513.996
  0
LINE
  8
0
 10
64.4325
 20
-513.996
 11
64.2974
 21
-513.81
  0
LINE
  8
0
 10
64.2974
 20
-513.81
 11
64.2038
 21
-513.6
  0
LINE
  8
0
 10
64.2038
 20
-513.6
 11
64.156
 21
-513.375
  0
LINE
  8
0
 10
64.156
 20
-513.375
 11
64.156
 21
-513.145
  0
LINE
  8
0
 10
64.156
 20
-513.145
 11
64.2038
 21
-512.92
  0
LINE
  8
0
 10
64.2038
 20
-512.92
 11
64.2974
 21
-512.71
  0
LINE
  8
0
 10
64.2974
 20
-512.71
 11
64.4325
 21
-512.524
  0
LINE
  8
0
 10
64.4325
 20
-512.524
 11
64.6034
 21
-512.37
  0
LINE
  8
0
 10
64.6034
 20
-512.37
 11
64.8026
 21
-512.255
  0
LINE
  8
0
 10
64.8026
 20
-512.255
 11
65.0213
 21
-512.184
  0
LINE
  8
0
 10
65.0213
 20
-512.184
 11
65.25
 21
-512.16
  0
LINE
  8
0
 10
65.25
 20
-512.16
 11
65.4787
 21
-512.184
  0
LINE
  8
0
 10
65.4787
 20
-512.184
 11
65.6974
 21
-512.255
  0
LINE
  8
0
 10
65.6974
 20
-512.255
 11
65.8966
 21
-512.37
  0
LINE
  8
0
 10
65.8966
 20
-512.37
 11
66.0675
 21
-512.524
  0
LINE
  8
0
 10
66.0675
 20
-512.524
 11
66.2026
 21
-512.71
  0
LINE
  8
0
 10
66.2026
 20
-512.71
 11
66.2962
 21
-512.92
  0
LINE
  8
0
 10
66.2962
 20
-512.92
 11
66.344
 21
-513.145
  0
LINE
  8
0
 10
66.344
 20
-513.145
 11
66.344
 21
-513.375
  0
LINE
  8
0
 10
66.344
 20
-513.375
 11
66.2962
 21
-513.6
  0
LINE
  8
0
 10
66.2962
 20
-513.6
 11
66.2026
 21
-513.81
  0
LINE
  8
0
 10
66.2026
 20
-513.81
 11
66.0675
 21
-513.996
  0
LINE
  8
0
 10
66.0675
 20
-513.996
 11
65.8966
 21
-514.15
  0
LINE
  8
0
 10
65.8966
 20
-514.15
 11
65.6974
 21
-514.265
  0
LINE
  8
0
 10
65.6974
 20
-514.265
 11
65.4787
 21
-514.336
  0
LINE
  8
0
 10
65.4787
 20
-514.336
 11
65.25
 21
-514.36
  0
LINE
  8
0
 10
65.25
 20
-514.36
 11
65.0213
 21
-514.336
  0
LINE
  8
0
 10
-57.4787
 20
-514.336
 11
-57.6974
 21
-514.265
  0
LINE
  8
0
 10
-57.6974
 20
-514.265
 11
-57.8966
 21
-514.15
  0
LINE
  8
0
 10
-57.8966
 20
-514.15
 11
-58.0675
 21
-513.996
  0
LINE
  8
0
 10
-58.0675
 20
-513.996
 11
-58.2026
 21
-513.81
  0
LINE
  8
0
 10
-58.2026
 20
-513.81
 11
-58.2962
 21
-513.6
  0
LINE
  8
0
 10
-58.2962
 20
-513.6
 11
-58.344
 21
-513.375
  0
LINE
  8
0
 10
-58.344
 20
-513.375
 11
-58.344
 21
-513.145
  0
LINE
  8
0
 10
-58.344
 20
-513.145
 11
-58.2962
 21
-512.92
  0
LINE
  8
0
 10
-58.2962
 20
-512.92
 11
-58.2026
 21
-512.71
  0
LINE
  8
0
 10
-58.2026
 20
-512.71
 11
-58.0675
 21
-512.524
  0
LINE
  8
0
 10
-58.0675
 20
-512.524
 11
-57.8966
 21
-512.37
  0
LINE
  8
0
 10
-57.8966
 20
-512.37
 11
-57.6974
 21
-512.255
  0
LINE
  8
0
 10
-57.6974
 20
-512.255
 11
-57.4787
 21
-512.184
  0
LINE
  8
0
 10
-57.4787
 20
-512.184
 11
-57.25
 21
-512.16
  0
LINE
  8
0
 10
-57.25
 20
-512.16
 11
-57.0213
 21
-512.184
  0
LINE
  8
0
 10
-57.0213
 20
-512.184
 11
-56.8026
 21
-512.255
  0
LINE
  8
0
 10
-56.8026
 20
-512.255
 11
-56.6034
 21
-512.37
  0
LINE
  8
0
 10
-56.6034
 20
-512.37
 11
-56.4325
 21
-512.524
  0
LINE
  8
0
 10
-56.4325
 20
-512.524
 11
-56.2974
 21
-512.71
  0
LINE
  8
0
 10
-56.2974
 20
-512.71
 11
-56.2038
 21
-512.92
  0
LINE
  8
0
 10
-56.2038
 20
-512.92
 11
-56.156
 21
-513.145
  0
LINE
  8
0
 10
-56.156
 20
-513.145
 11
-56.156
 21
-513.375
  0
LINE
  8
0
 10
-56.156
 20
-513.375
 11
-56.2038
 21
-513.6
  0
LINE
  8
0
 10
-56.2038
 20
-513.6
 11
-56.2974
 21
-513.81
  0
LINE
  8
0
 10
-56.2974
 20
-513.81
 11
-56.4325
 21
-513.996
  0
LINE
  8
0
 10
-56.4325
 20
-513.996
 11
-56.6034
 21
-514.15
  0
LINE
  8
0
 10
-56.6034
 20
-514.15
 11
-56.8026
 21
-514.265
  0
LINE
  8
0
 10
-56.8026
 20
-514.265
 11
-57.0213
 21
-514.336
  0
LINE
  8
0
 10
-57.0213
 20
-514.336
 11
-57.25
 21
-514.36
  0
LINE
  8
0
 10
-57.25
 20
-514.36
 11
-57.4787
 21
-514.336
  0
LINE
  8
0
 10
-57.4787
 20
-519.416
 11
-57.6974
 21
-519.345
  0
LINE
  8
0
 10
-57.6974
 20
-519.345
 11
-57.8966
 21
-519.23
  0
LINE
  8
0
 10
-57.8966
 20
-519.23
 11
-58.0675
 21
-519.076
  0
LINE
  8
0
 10
-58.0675
 20
-519.076
 11
-58.2026
 21
-518.89
  0
LINE
  8
0
 10
-58.2026
 20
-518.89
 11
-58.2962
 21
-518.68
  0
LINE
  8
0
 10
-58.2962
 20
-518.68
 11
-58.344
 21
-518.455
  0
LINE
  8
0
 10
-58.344
 20
-518.455
 11
-58.344
 21
-518.225
  0
LINE
  8
0
 10
-58.344
 20
-518.225
 11
-58.2962
 21
-518
  0
LINE
  8
0
 10
-58.2962
 20
-518
 11
-58.2026
 21
-517.79
  0
LINE
  8
0
 10
-58.2026
 20
-517.79
 11
-58.0675
 21
-517.604
  0
LINE
  8
0
 10
-58.0675
 20
-517.604
 11
-57.8966
 21
-517.45
  0
LINE
  8
0
 10
-57.8966
 20
-517.45
 11
-57.6974
 21
-517.335
  0
LINE
  8
0
 10
-57.6974
 20
-517.335
 11
-57.4787
 21
-517.264
  0
LINE
  8
0
 10
-57.4787
 20
-517.264
 11
-57.25
 21
-517.24
  0
LINE
  8
0
 10
-57.25
 20
-517.24
 11
-57.0213
 21
-517.264
  0
LINE
  8
0
 10
-57.0213
 20
-517.264
 11
-56.8026
 21
-517.335
  0
LINE
  8
0
 10
-56.8026
 20
-517.335
 11
-56.6034
 21
-517.45
  0
LINE
  8
0
 10
-56.6034
 20
-517.45
 11
-56.4325
 21
-517.604
  0
LINE
  8
0
 10
-56.4325
 20
-517.604
 11
-56.2974
 21
-517.79
  0
LINE
  8
0
 10
-56.2974
 20
-517.79
 11
-56.2038
 21
-518
  0
LINE
  8
0
 10
-56.2038
 20
-518
 11
-56.156
 21
-518.225
  0
LINE
  8
0
 10
-56.156
 20
-518.225
 11
-56.156
 21
-518.455
  0
LINE
  8
0
 10
-56.156
 20
-518.455
 11
-56.2038
 21
-518.68
  0
LINE
  8
0
 10
-56.2038
 20
-518.68
 11
-56.2974
 21
-518.89
  0
LINE
  8
0
 10
-56.2974
 20
-518.89
 11
-56.4325
 21
-519.076
  0
LINE
  8
0
 10
-56.4325
 20
-519.076
 11
-56.6034
 21
-519.23
  0
LINE
  8
0
 10
-56.6034
 20
-519.23
 11
-56.8026
 21
-519.345
  0
LINE
  8
0
 10
-56.8026
 20
-519.345
 11
-57.0213
 21
-519.416
  0
LINE
  8
0
 10
-57.0213
 20
-519.416
 11
-57.25
 21
-519.44
  0
LINE
  8
0
 10
-57.25
 20
-519.44
 11
-57.4787
 21
-519.416
  0
LINE
  8
0
 10
65.0213
 20
-519.416
 11
64.8026
 21
-519.345
  0
LINE
  8
0
 10
64.8026
 20
-519.345
 11
64.6034
 21
-519.23
  0
LINE
  8
0
 10
64.6034
 20
-519.23
 11
64.4325
 21
-519.076
  0
LINE
  8
0
 10
64.4325
 20
-519.076
 11
64.2974
 21
-518.89
  0
LINE
  8
0
 10
64.2974
 20
-518.89
 11
64.2038
 21
-518.68
  0
LINE
  8
0
 10
64.2038
 20
-518.68
 11
64.156
 21
-518.455
  0
LINE
  8
0
 10
64.156
 20
-518.455
 11
64.156
 21
-518.225
  0
LINE
  8
0
 10
64.156
 20
-518.225
 11
64.2038
 21
-518
  0
LINE
  8
0
 10
64.2038
 20
-518
 11
64.2974
 21
-517.79
  0
LINE
  8
0
 10
64.2974
 20
-517.79
 11
64.4325
 21
-517.604
  0
LINE
  8
0
 10
64.4325
 20
-517.604
 11
64.6034
 21
-517.45
  0
LINE
  8
0
 10
64.6034
 20
-517.45
 11
64.8026
 21
-517.335
  0
LINE
  8
0
 10
64.8026
 20
-517.335
 11
65.0213
 21
-517.264
  0
LINE
  8
0
 10
65.0213
 20
-517.264
 11
65.25
 21
-517.24
  0
LINE
  8
0
 10
65.25
 20
-517.24
 11
65.4787
 21
-517.264
  0
LINE
  8
0
 10
65.4787
 20
-517.264
 11
65.6974
 21
-517.335
  0
LINE
  8
0
 10
65.6974
 20
-517.335
 11
65.8966
 21
-517.45
  0
LINE
  8
0
 10
65.8966
 20
-517.45
 11
66.0675
 21
-517.604
  0
LINE
  8
0
 10
66.0675
 20
-517.604
 11
66.2026
 21
-517.79
  0
LINE
  8
0
 10
66.2026
 20
-517.79
 11
66.2962
 21
-518
  0
LINE
  8
0
 10
66.2962
 20
-518
 11
66.344
 21
-518.225
  0
LINE
  8
0
 10
66.344
 20
-518.225
 11
66.344
 21
-518.455
  0
LINE
  8
0
 10
66.344
 20
-518.455
 11
66.2962
 21
-518.68
  0
LINE
  8
0
 10
66.2962
 20
-518.68
 11
66.2026
 21
-518.89
  0
LINE
  8
0
 10
66.2026
 20
-518.89
 11
66.0675
 21
-519.076
  0
LINE
  8
0
 10
66.0675
 20
-519.076
 11
65.8966
 21
-519.23
  0
LINE
  8
0
 10
65.8966
 20
-519.23
 11
65.6974
 21
-519.345
  0
LINE
  8
0
 10
65.6974
 20
-519.345
 11
65.4787
 21
-519.416
  0
LINE
  8
0
 10
65.4787
 20
-519.416
 11
65.25
 21
-519.44
  0
LINE
  8
0
 10
65.25
 20
-519.44
 11
65.0213
 21
-519.416
  0
LINE
  8
0
 10
65.0213
 20
-524.496
 11
64.8026
 21
-524.425
  0
LINE
  8
0
 10
64.8026
 20
-524.425
 11
64.6034
 21
-524.31
  0
LINE
  8
0
 10
64.6034
 20
-524.31
 11
64.4325
 21
-524.156
  0
LINE
  8
0
 10
64.4325
 20
-524.156
 11
64.2974
 21
-523.97
  0
LINE
  8
0
 10
64.2974
 20
-523.97
 11
64.2038
 21
-523.76
  0
LINE
  8
0
 10
64.2038
 20
-523.76
 11
64.156
 21
-523.535
  0
LINE
  8
0
 10
64.156
 20
-523.535
 11
64.156
 21
-523.305
  0
LINE
  8
0
 10
64.156
 20
-523.305
 11
64.2038
 21
-523.08
  0
LINE
  8
0
 10
64.2038
 20
-523.08
 11
64.2974
 21
-522.87
  0
LINE
  8
0
 10
64.2974
 20
-522.87
 11
64.4325
 21
-522.684
  0
LINE
  8
0
 10
64.4325
 20
-522.684
 11
64.6034
 21
-522.53
  0
LINE
  8
0
 10
64.6034
 20
-522.53
 11
64.8026
 21
-522.415
  0
LINE
  8
0
 10
64.8026
 20
-522.415
 11
65.0213
 21
-522.344
  0
LINE
  8
0
 10
65.0213
 20
-522.344
 11
65.25
 21
-522.32
  0
LINE
  8
0
 10
65.25
 20
-522.32
 11
65.4787
 21
-522.344
  0
LINE
  8
0
 10
65.4787
 20
-522.344
 11
65.6974
 21
-522.415
  0
LINE
  8
0
 10
65.6974
 20
-522.415
 11
65.8966
 21
-522.53
  0
LINE
  8
0
 10
65.8966
 20
-522.53
 11
66.0675
 21
-522.684
  0
LINE
  8
0
 10
66.0675
 20
-522.684
 11
66.2026
 21
-522.87
  0
LINE
  8
0
 10
66.2026
 20
-522.87
 11
66.2962
 21
-523.08
  0
LINE
  8
0
 10
66.2962
 20
-523.08
 11
66.344
 21
-523.305
  0
LINE
  8
0
 10
66.344
 20
-523.305
 11
66.344
 21
-523.535
  0
LINE
  8
0
 10
66.344
 20
-523.535
 11
66.2962
 21
-523.76
  0
LINE
  8
0
 10
66.2962
 20
-523.76
 11
66.2026
 21
-523.97
  0
LINE
  8
0
 10
66.2026
 20
-523.97
 11
66.0675
 21
-524.156
  0
LINE
  8
0
 10
66.0675
 20
-524.156
 11
65.8966
 21
-524.31
  0
LINE
  8
0
 10
65.8966
 20
-524.31
 11
65.6974
 21
-524.425
  0
LINE
  8
0
 10
65.6974
 20
-524.425
 11
65.4787
 21
-524.496
  0
LINE
  8
0
 10
65.4787
 20
-524.496
 11
65.25
 21
-524.52
  0
LINE
  8
0
 10
65.25
 20
-524.52
 11
65.0213
 21
-524.496
  0
LINE
  8
0
 10
-57.4787
 20
-524.496
 11
-57.6974
 21
-524.425
  0
LINE
  8
0
 10
-57.6974
 20
-524.425
 11
-57.8966
 21
-524.31
  0
LINE
  8
0
 10
-57.8966
 20
-524.31
 11
-58.0675
 21
-524.156
  0
LINE
  8
0
 10
-58.0675
 20
-524.156
 11
-58.2026
 21
-523.97
  0
LINE
  8
0
 10
-58.2026
 20
-523.97
 11
-58.2962
 21
-523.76
  0
LINE
  8
0
 10
-58.2962
 20
-523.76
 11
-58.344
 21
-523.535
  0
LINE
  8
0
 10
-58.344
 20
-523.535
 11
-58.344
 21
-523.305
  0
LINE
  8
0
 10
-58.344
 20
-523.305
 11
-58.2962
 21
-523.08
  0
LINE
  8
0
 10
-58.2962
 20
-523.08
 11
-58.2026
 21
-522.87
  0
LINE
  8
0
 10
-58.2026
 20
-522.87
 11
-58.0675
 21
-522.684
  0
LINE
  8
0
 10
-58.0675
 20
-522.684
 11
-57.8966
 21
-522.53
  0
LINE
  8
0
 10
-57.8966
 20
-522.53
 11
-57.6974
 21
-522.415
  0
LINE
  8
0
 10
-57.6974
 20
-522.415
 11
-57.4787
 21
-522.344
  0
LINE
  8
0
 10
-57.4787
 20
-522.344
 11
-57.25
 21
-522.32
  0
LINE
  8
0
 10
-57.25
 20
-522.32
 11
-57.0213
 21
-522.344
  0
LINE
  8
0
 10
-57.0213
 20
-522.344
 11
-56.8026
 21
-522.415
  0
LINE
  8
0
 10
-56.8026
 20
-522.415
 11
-56.6034
 21
-522.53
  0
LINE
  8
0
 10
-56.6034
 20
-522.53
 11
-56.4325
 21
-522.684
  0
LINE
  8
0
 10
-56.4325
 20
-522.684
 11
-56.2974
 21
-522.87
  0
LINE
  8
0
 10
-56.2974
 20
-522.87
 11
-56.2038
 21
-523.08
  0
LINE
  8
0
 10
-56.2038
 20
-523.08
 11
-56.156
 21
-523.305
  0
LINE
  8
0
 10
-56.156
 20
-523.305
 11
-56.156
 21
-523.535
  0
LINE
  8
0
 10
-56.156
 20
-523.535
 11
-56.2038
 21
-523.76
  0
LINE
  8
0
 10
-56.2038
 20
-523.76
 11
-56.2974
 21
-523.97
  0
LINE
  8
0
 10
-56.2974
 20
-523.97
 11
-56.4325
 21
-524.156
  0
LINE
  8
0
 10
-56.4325
 20
-524.156
 11
-56.6034
 21
-524.31
  0
LINE
  8
0
 10
-56.6034
 20
-524.31
 11
-56.8026
 21
-524.425
  0
LINE
  8
0
 10
-56.8026
 20
-524.425
 11
-57.0213
 21
-524.496
  0
LINE
  8
0
 10
-57.0213
 20
-524.496
 11
-57.25
 21
-524.52
  0
LINE
  8
0
 10
-57.25
 20
-524.52
 11
-57.4787
 21
-524.496
  0
LINE
  8
0
 10
-57.4787
 20
-529.576
 11
-57.6974
 21
-529.505
  0
LINE
  8
0
 10
-57.6974
 20
-529.505
 11
-57.8966
 21
-529.39
  0
LINE
  8
0
 10
-57.8966
 20
-529.39
 11
-58.0675
 21
-529.236
  0
LINE
  8
0
 10
-58.0675
 20
-529.236
 11
-58.2026
 21
-529.05
  0
LINE
  8
0
 10
-58.2026
 20
-529.05
 11
-58.2962
 21
-528.84
  0
LINE
  8
0
 10
-58.2962
 20
-528.84
 11
-58.344
 21
-528.615
  0
LINE
  8
0
 10
-58.344
 20
-528.615
 11
-58.344
 21
-528.385
  0
LINE
  8
0
 10
-58.344
 20
-528.385
 11
-58.2962
 21
-528.16
  0
LINE
  8
0
 10
-58.2962
 20
-528.16
 11
-58.2026
 21
-527.95
  0
LINE
  8
0
 10
-58.2026
 20
-527.95
 11
-58.0675
 21
-527.764
  0
LINE
  8
0
 10
-58.0675
 20
-527.764
 11
-57.8966
 21
-527.61
  0
LINE
  8
0
 10
-57.8966
 20
-527.61
 11
-57.6974
 21
-527.495
  0
LINE
  8
0
 10
-57.6974
 20
-527.495
 11
-57.4787
 21
-527.424
  0
LINE
  8
0
 10
-57.4787
 20
-527.424
 11
-57.25
 21
-527.4
  0
LINE
  8
0
 10
-57.25
 20
-527.4
 11
-57.0213
 21
-527.424
  0
LINE
  8
0
 10
-57.0213
 20
-527.424
 11
-56.8026
 21
-527.495
  0
LINE
  8
0
 10
-56.8026
 20
-527.495
 11
-56.6034
 21
-527.61
  0
LINE
  8
0
 10
-56.6034
 20
-527.61
 11
-56.4325
 21
-527.764
  0
LINE
  8
0
 10
-56.4325
 20
-527.764
 11
-56.2974
 21
-527.95
  0
LINE
  8
0
 10
-56.2974
 20
-527.95
 11
-56.2038
 21
-528.16
  0
LINE
  8
0
 10
-56.2038
 20
-528.16
 11
-56.156
 21
-528.385
  0
LINE
  8
0
 10
-56.156
 20
-528.385
 11
-56.156
 21
-528.615
  0
LINE
  8
0
 10
-56.156
 20
-528.615
 11
-56.2038
 21
-528.84
  0
LINE
  8
0
 10
-56.2038
 20
-528.84
 11
-56.2974
 21
-529.05
  0
LINE
  8
0
 10
-56.2974
 20
-529.05
 11
-56.4325
 21
-529.236
  0
LINE
  8
0
 10
-56.4325
 20
-529.236
 11
-56.6034
 21
-529.39
  0
LINE
  8
0
 10
-56.6034
 20
-529.39
 11
-56.8026
 21
-529.505
  0
LINE
  8
0
 10
-56.8026
 20
-529.505
 11
-57.0213
 21
-529.576
  0
LINE
  8
0
 10
-57.0213
 20
-529.576
 11
-57.25
 21
-529.6
  0
LINE
  8
0
 10
-57.25
 20
-529.6
 11
-57.4787
 21
-529.576
  0
LINE
  8
0
 10
65.0213
 20
-529.576
 11
64.8026
 21
-529.505
  0
LINE
  8
0
 10
64.8026
 20
-529.505
 11
64.6034
 21
-529.39
  0
LINE
  8
0
 10
64.6034
 20
-529.39
 11
64.4325
 21
-529.236
  0
LINE
  8
0
 10
64.4325
 20
-529.236
 11
64.2974
 21
-529.05
  0
LINE
  8
0
 10
64.2974
 20
-529.05
 11
64.2038
 21
-528.84
  0
LINE
  8
0
 10
64.2038
 20
-528.84
 11
64.156
 21
-528.615
  0
LINE
  8
0
 10
64.156
 20
-528.615
 11
64.156
 21
-528.385
  0
LINE
  8
0
 10
64.156
 20
-528.385
 11
64.2038
 21
-528.16
  0
LINE
  8
0
 10
64.2038
 20
-528.16
 11
64.2974
 21
-527.95
  0
LINE
  8
0
 10
64.2974
 20
-527.95
 11
64.4325
 21
-527.764
  0
LINE
  8
0
 10
64.4325
 20
-527.764
 11
64.6034
 21
-527.61
  0
LINE
  8
0
 10
64.6034
 20
-527.61
 11
64.8026
 21
-527.495
  0
LINE
  8
0
 10
64.8026
 20
-527.495
 11
65.0213
 21
-527.424
  0
LINE
  8
0
 10
65.0213
 20
-527.424
 11
65.25
 21
-527.4
  0
LINE
  8
0
 10
65.25
 20
-527.4
 11
65.4787
 21
-527.424
  0
LINE
  8
0
 10
65.4787
 20
-527.424
 11
65.6974
 21
-527.495
  0
LINE
  8
0
 10
65.6974
 20
-527.495
 11
65.8966
 21
-527.61
  0
LINE
  8
0
 10
65.8966
 20
-527.61
 11
66.0675
 21
-527.764
  0
LINE
  8
0
 10
66.0675
 20
-527.764
 11
66.2026
 21
-527.95
  0
LINE
  8
0
 10
66.2026
 20
-527.95
 11
66.2962
 21
-528.16
  0
LINE
  8
0
 10
66.2962
 20
-528.16
 11
66.344
 21
-528.385
  0
LINE
  8
0
 10
66.344
 20
-528.385
 11
66.344
 21
-528.615
  0
LINE
  8
0
 10
66.344
 20
-528.615
 11
66.2962
 21
-528.84
  0
LINE
  8
0
 10
66.2962
 20
-528.84
 11
66.2026
 21
-529.05
  0
LINE
  8
0
 10
66.2026
 20
-529.05
 11
66.0675
 21
-529.236
  0
LINE
  8
0
 10
66.0675
 20
-529.236
 11
65.8966
 21
-529.39
  0
LINE
  8
0
 10
65.8966
 20
-529.39
 11
65.6974
 21
-529.505
  0
LINE
  8
0
 10
65.6974
 20
-529.505
 11
65.4787
 21
-529.576
  0
LINE
  8
0
 10
65.4787
 20
-529.576
 11
65.25
 21
-529.6
  0
LINE
  8
0
 10
65.25
 20
-529.6
 11
65.0213
 21
-529.576
  0
LINE
  8
0
 10
65.0213
 20
-534.656
 11
64.8026
 21
-534.585
  0
LINE
  8
0
 10
64.8026
 20
-534.585
 11
64.6034
 21
-534.47
  0
LINE
  8
0
 10
64.6034
 20
-534.47
 11
64.4325
 21
-534.316
  0
LINE
  8
0
 10
64.4325
 20
-534.316
 11
64.2974
 21
-534.13
  0
LINE
  8
0
 10
64.2974
 20
-534.13
 11
64.2038
 21
-533.92
  0
LINE
  8
0
 10
64.2038
 20
-533.92
 11
64.156
 21
-533.695
  0
LINE
  8
0
 10
64.156
 20
-533.695
 11
64.156
 21
-533.465
  0
LINE
  8
0
 10
64.156
 20
-533.465
 11
64.2038
 21
-533.24
  0
LINE
  8
0
 10
64.2038
 20
-533.24
 11
64.2974
 21
-533.03
  0
LINE
  8
0
 10
64.2974
 20
-533.03
 11
64.4325
 21
-532.844
  0
LINE
  8
0
 10
64.4325
 20
-532.844
 11
64.6034
 21
-532.69
  0
LINE
  8
0
 10
64.6034
 20
-532.69
 11
64.8026
 21
-532.575
  0
LINE
  8
0
 10
64.8026
 20
-532.575
 11
65.0213
 21
-532.504
  0
LINE
  8
0
 10
65.0213
 20
-532.504
 11
65.25
 21
-532.48
  0
LINE
  8
0
 10
65.25
 20
-532.48
 11
65.4787
 21
-532.504
  0
LINE
  8
0
 10
65.4787
 20
-532.504
 11
65.6974
 21
-532.575
  0
LINE
  8
0
 10
65.6974
 20
-532.575
 11
65.8966
 21
-532.69
  0
LINE
  8
0
 10
65.8966
 20
-532.69
 11
66.0675
 21
-532.844
  0
LINE
  8
0
 10
66.0675
 20
-532.844
 11
66.2026
 21
-533.03
  0
LINE
  8
0
 10
66.2026
 20
-533.03
 11
66.2962
 21
-533.24
  0
LINE
  8
0
 10
66.2962
 20
-533.24
 11
66.344
 21
-533.465
  0
LINE
  8
0
 10
66.344
 20
-533.465
 11
66.344
 21
-533.695
  0
LINE
  8
0
 10
66.344
 20
-533.695
 11
66.2962
 21
-533.92
  0
LINE
  8
0
 10
66.2962
 20
-533.92
 11
66.2026
 21
-534.13
  0
LINE
  8
0
 10
66.2026
 20
-534.13
 11
66.0675
 21
-534.316
  0
LINE
  8
0
 10
66.0675
 20
-534.316
 11
65.8966
 21
-534.47
  0
LINE
  8
0
 10
65.8966
 20
-534.47
 11
65.6974
 21
-534.585
  0
LINE
  8
0
 10
65.6974
 20
-534.585
 11
65.4787
 21
-534.656
  0
LINE
  8
0
 10
65.4787
 20
-534.656
 11
65.25
 21
-534.68
  0
LINE
  8
0
 10
65.25
 20
-534.68
 11
65.0213
 21
-534.656
  0
LINE
  8
0
 10
-57.4787
 20
-534.656
 11
-57.6974
 21
-534.585
  0
LINE
  8
0
 10
-57.6974
 20
-534.585
 11
-57.8966
 21
-534.47
  0
LINE
  8
0
 10
-57.8966
 20
-534.47
 11
-58.0675
 21
-534.316
  0
LINE
  8
0
 10
-58.0675
 20
-534.316
 11
-58.2026
 21
-534.13
  0
LINE
  8
0
 10
-58.2026
 20
-534.13
 11
-58.2962
 21
-533.92
  0
LINE
  8
0
 10
-58.2962
 20
-533.92
 11
-58.344
 21
-533.695
  0
LINE
  8
0
 10
-58.344
 20
-533.695
 11
-58.344
 21
-533.465
  0
LINE
  8
0
 10
-58.344
 20
-533.465
 11
-58.2962
 21
-533.24
  0
LINE
  8
0
 10
-58.2962
 20
-533.24
 11
-58.2026
 21
-533.03
  0
LINE
  8
0
 10
-58.2026
 20
-533.03
 11
-58.0675
 21
-532.844
  0
LINE
  8
0
 10
-58.0675
 20
-532.844
 11
-57.8966
 21
-532.69
  0
LINE
  8
0
 10
-57.8966
 20
-532.69
 11
-57.6974
 21
-532.575
  0
LINE
  8
0
 10
-57.6974
 20
-532.575
 11
-57.4787
 21
-532.504
  0
LINE
  8
0
 10
-57.4787
 20
-532.504
 11
-57.25
 21
-532.48
  0
LINE
  8
0
 10
-57.25
 20
-532.48
 11
-57.0213
 21
-532.504
  0
LINE
  8
0
 10
-57.0213
 20
-532.504
 11
-56.8026
 21
-532.575
  0
LINE
  8
0
 10
-56.8026
 20
-532.575
 11
-56.6034
 21
-532.69
  0
LINE
  8
0
 10
-56.6034
 20
-532.69
 11
-56.4325
 21
-532.844
  0
LINE
  8
0
 10
-56.4325
 20
-532.844
 11
-56.2974
 21
-533.03
  0
LINE
  8
0
 10
-56.2974
 20
-533.03
 11
-56.2038
 21
-533.24
  0
LINE
  8
0
 10
-56.2038
 20
-533.24
 11
-56.156
 21
-533.465
  0
LINE
  8
0
 10
-56.156
 20
-533.465
 11
-56.156
 21
-533.695
  0
LINE
  8
0
 10
-56.156
 20
-533.695
 11
-56.2038
 21
-533.92
  0
LINE
  8
0
 10
-56.2038
 20
-533.92
 11
-56.2974
 21
-534.13
  0
LINE
  8
0
 10
-56.2974
 20
-534.13
 11
-56.4325
 21
-534.316
  0
LINE
  8
0
 10
-56.4325
 20
-534.316
 11
-56.6034
 21
-534.47
  0
LINE
  8
0
 10
-56.6034
 20
-534.47
 11
-56.8026
 21
-534.585
  0
LINE
  8
0
 10
-56.8026
 20
-534.585
 11
-57.0213
 21
-534.656
  0
LINE
  8
0
 10
-57.0213
 20
-534.656
 11
-57.25
 21
-534.68
  0
LINE
  8
0
 10
-57.25
 20
-534.68
 11
-57.4787
 21
-534.656
  0
LINE
  8
0
 10
-57.4787
 20
-539.736
 11
-57.6974
 21
-539.665
  0
LINE
  8
0
 10
-57.6974
 20
-539.665
 11
-57.8966
 21
-539.55
  0
LINE
  8
0
 10
-57.8966
 20
-539.55
 11
-58.0675
 21
-539.396
  0
LINE
  8
0
 10
-58.0675
 20
-539.396
 11
-58.2026
 21
-539.21
  0
LINE
  8
0
 10
-58.2026
 20
-539.21
 11
-58.2962
 21
-539
  0
LINE
  8
0
 10
-58.2962
 20
-539
 11
-58.344
 21
-538.775
  0
LINE
  8
0
 10
-58.344
 20
-538.775
 11
-58.344
 21
-538.545
  0
LINE
  8
0
 10
-58.344
 20
-538.545
 11
-58.2962
 21
-538.32
  0
LINE
  8
0
 10
-58.2962
 20
-538.32
 11
-58.2026
 21
-538.11
  0
LINE
  8
0
 10
-58.2026
 20
-538.11
 11
-58.0675
 21
-537.924
  0
LINE
  8
0
 10
-58.0675
 20
-537.924
 11
-57.8966
 21
-537.77
  0
LINE
  8
0
 10
-57.8966
 20
-537.77
 11
-57.6974
 21
-537.655
  0
LINE
  8
0
 10
-57.6974
 20
-537.655
 11
-57.4787
 21
-537.584
  0
LINE
  8
0
 10
-57.4787
 20
-537.584
 11
-57.25
 21
-537.56
  0
LINE
  8
0
 10
-57.25
 20
-537.56
 11
-57.0213
 21
-537.584
  0
LINE
  8
0
 10
-57.0213
 20
-537.584
 11
-56.8026
 21
-537.655
  0
LINE
  8
0
 10
-56.8026
 20
-537.655
 11
-56.6034
 21
-537.77
  0
LINE
  8
0
 10
-56.6034
 20
-537.77
 11
-56.4325
 21
-537.924
  0
LINE
  8
0
 10
-56.4325
 20
-537.924
 11
-56.2974
 21
-538.11
  0
LINE
  8
0
 10
-56.2974
 20
-538.11
 11
-56.2038
 21
-538.32
  0
LINE
  8
0
 10
-56.2038
 20
-538.32
 11
-56.156
 21
-538.545
  0
LINE
  8
0
 10
-56.156
 20
-538.545
 11
-56.156
 21
-538.775
  0
LINE
  8
0
 10
-56.156
 20
-538.775
 11
-56.2038
 21
-539
  0
LINE
  8
0
 10
-56.2038
 20
-539
 11
-56.2974
 21
-539.21
  0
LINE
  8
0
 10
-56.2974
 20
-539.21
 11
-56.4325
 21
-539.396
  0
LINE
  8
0
 10
-56.4325
 20
-539.396
 11
-56.6034
 21
-539.55
  0
LINE
  8
0
 10
-56.6034
 20
-539.55
 11
-56.8026
 21
-539.665
  0
LINE
  8
0
 10
-56.8026
 20
-539.665
 11
-57.0213
 21
-539.736
  0
LINE
  8
0
 10
-57.0213
 20
-539.736
 11
-57.25
 21
-539.76
  0
LINE
  8
0
 10
-57.25
 20
-539.76
 11
-57.4787
 21
-539.736
  0
LINE
  8
0
 10
65.0213
 20
-539.736
 11
64.8026
 21
-539.665
  0
LINE
  8
0
 10
64.8026
 20
-539.665
 11
64.6034
 21
-539.55
  0
LINE
  8
0
 10
64.6034
 20
-539.55
 11
64.4325
 21
-539.396
  0
LINE
  8
0
 10
64.4325
 20
-539.396
 11
64.2974
 21
-539.21
  0
LINE
  8
0
 10
64.2974
 20
-539.21
 11
64.2038
 21
-539
  0
LINE
  8
0
 10
64.2038
 20
-539
 11
64.156
 21
-538.775
  0
LINE
  8
0
 10
64.156
 20
-538.775
 11
64.156
 21
-538.545
  0
LINE
  8
0
 10
64.156
 20
-538.545
 11
64.2038
 21
-538.32
  0
LINE
  8
0
 10
64.2038
 20
-538.32
 11
64.2974
 21
-538.11
  0
LINE
  8
0
 10
64.2974
 20
-538.11
 11
64.4325
 21
-537.924
  0
LINE
  8
0
 10
64.4325
 20
-537.924
 11
64.6034
 21
-537.77
  0
LINE
  8
0
 10
64.6034
 20
-537.77
 11
64.8026
 21
-537.655
  0
LINE
  8
0
 10
64.8026
 20
-537.655
 11
65.0213
 21
-537.584
  0
LINE
  8
0
 10
65.0213
 20
-537.584
 11
65.25
 21
-537.56
  0
LINE
  8
0
 10
65.25
 20
-537.56
 11
65.4787
 21
-537.584
  0
LINE
  8
0
 10
65.4787
 20
-537.584
 11
65.6974
 21
-537.655
  0
LINE
  8
0
 10
65.6974
 20
-537.655
 11
65.8966
 21
-537.77
  0
LINE
  8
0
 10
65.8966
 20
-537.77
 11
66.0675
 21
-537.924
  0
LINE
  8
0
 10
66.0675
 20
-537.924
 11
66.2026
 21
-538.11
  0
LINE
  8
0
 10
66.2026
 20
-538.11
 11
66.2962
 21
-538.32
  0
LINE
  8
0
 10
66.2962
 20
-538.32
 11
66.344
 21
-538.545
  0
LINE
  8
0
 10
66.344
 20
-538.545
 11
66.344
 21
-538.775
  0
LINE
  8
0
 10
66.344
 20
-538.775
 11
66.2962
 21
-539
  0
LINE
  8
0
 10
66.2962
 20
-539
 11
66.2026
 21
-539.21
  0
LINE
  8
0
 10
66.2026
 20
-539.21
 11
66.0675
 21
-539.396
  0
LINE
  8
0
 10
66.0675
 20
-539.396
 11
65.8966
 21
-539.55
  0
LINE
  8
0
 10
65.8966
 20
-539.55
 11
65.6974
 21
-539.665
  0
LINE
  8
0
 10
65.6974
 20
-539.665
 11
65.4787
 21
-539.736
  0
LINE
  8
0
 10
65.4787
 20
-539.736
 11
65.25
 21
-539.76
  0
LINE
  8
0
 10
65.25
 20
-539.76
 11
65.0213
 21
-539.736
  0
LINE
  8
0
 10
-57.4787
 20
-544.816
 11
-57.6974
 21
-544.745
  0
LINE
  8
0
 10
-57.6974
 20
-544.745
 11
-57.8966
 21
-544.63
  0
LINE
  8
0
 10
-57.8966
 20
-544.63
 11
-58.0675
 21
-544.476
  0
LINE
  8
0
 10
-58.0675
 20
-544.476
 11
-58.2026
 21
-544.29
  0
LINE
  8
0
 10
-58.2026
 20
-544.29
 11
-58.2962
 21
-544.08
  0
LINE
  8
0
 10
-58.2962
 20
-544.08
 11
-58.344
 21
-543.855
  0
LINE
  8
0
 10
-58.344
 20
-543.855
 11
-58.344
 21
-543.625
  0
LINE
  8
0
 10
-58.344
 20
-543.625
 11
-58.2962
 21
-543.4
  0
LINE
  8
0
 10
-58.2962
 20
-543.4
 11
-58.2026
 21
-543.19
  0
LINE
  8
0
 10
-58.2026
 20
-543.19
 11
-58.0675
 21
-543.004
  0
LINE
  8
0
 10
-58.0675
 20
-543.004
 11
-57.8966
 21
-542.85
  0
LINE
  8
0
 10
-57.8966
 20
-542.85
 11
-57.6974
 21
-542.735
  0
LINE
  8
0
 10
-57.6974
 20
-542.735
 11
-57.4787
 21
-542.664
  0
LINE
  8
0
 10
-57.4787
 20
-542.664
 11
-57.25
 21
-542.64
  0
LINE
  8
0
 10
-57.25
 20
-542.64
 11
-57.0213
 21
-542.664
  0
LINE
  8
0
 10
-57.0213
 20
-542.664
 11
-56.8026
 21
-542.735
  0
LINE
  8
0
 10
-56.8026
 20
-542.735
 11
-56.6034
 21
-542.85
  0
LINE
  8
0
 10
-56.6034
 20
-542.85
 11
-56.4325
 21
-543.004
  0
LINE
  8
0
 10
-56.4325
 20
-543.004
 11
-56.2974
 21
-543.19
  0
LINE
  8
0
 10
-56.2974
 20
-543.19
 11
-56.2038
 21
-543.4
  0
LINE
  8
0
 10
-56.2038
 20
-543.4
 11
-56.156
 21
-543.625
  0
LINE
  8
0
 10
-56.156
 20
-543.625
 11
-56.156
 21
-543.855
  0
LINE
  8
0
 10
-56.156
 20
-543.855
 11
-56.2038
 21
-544.08
  0
LINE
  8
0
 10
-56.2038
 20
-544.08
 11
-56.2974
 21
-544.29
  0
LINE
  8
0
 10
-56.2974
 20
-544.29
 11
-56.4325
 21
-544.476
  0
LINE
  8
0
 10
-56.4325
 20
-544.476
 11
-56.6034
 21
-544.63
  0
LINE
  8
0
 10
-56.6034
 20
-544.63
 11
-56.8026
 21
-544.745
  0
LINE
  8
0
 10
-56.8026
 20
-544.745
 11
-57.0213
 21
-544.816
  0
LINE
  8
0
 10
-57.0213
 20
-544.816
 11
-57.25
 21
-544.84
  0
LINE
  8
0
 10
-57.25
 20
-544.84
 11
-57.4787
 21
-544.816
  0
LINE
  8
0
 10
65.0213
 20
-544.816
 11
64.8026
 21
-544.745
  0
LINE
  8
0
 10
64.8026
 20
-544.745
 11
64.6034
 21
-544.63
  0
LINE
  8
0
 10
64.6034
 20
-544.63
 11
64.4325
 21
-544.476
  0
LINE
  8
0
 10
64.4325
 20
-544.476
 11
64.2974
 21
-544.29
  0
LINE
  8
0
 10
64.2974
 20
-544.29
 11
64.2038
 21
-544.08
  0
LINE
  8
0
 10
64.2038
 20
-544.08
 11
64.156
 21
-543.855
  0
LINE
  8
0
 10
64.156
 20
-543.855
 11
64.156
 21
-543.625
  0
LINE
  8
0
 10
64.156
 20
-543.625
 11
64.2038
 21
-543.4
  0
LINE
  8
0
 10
64.2038
 20
-543.4
 11
64.2974
 21
-543.19
  0
LINE
  8
0
 10
64.2974
 20
-543.19
 11
64.4325
 21
-543.004
  0
LINE
  8
0
 10
64.4325
 20
-543.004
 11
64.6034
 21
-542.85
  0
LINE
  8
0
 10
64.6034
 20
-542.85
 11
64.8026
 21
-542.735
  0
LINE
  8
0
 10
64.8026
 20
-542.735
 11
65.0213
 21
-542.664
  0
LINE
  8
0
 10
65.0213
 20
-542.664
 11
65.25
 21
-542.64
  0
LINE
  8
0
 10
65.25
 20
-542.64
 11
65.4787
 21
-542.664
  0
LINE
  8
0
 10
65.4787
 20
-542.664
 11
65.6974
 21
-542.735
  0
LINE
  8
0
 10
65.6974
 20
-542.735
 11
65.8966
 21
-542.85
  0
LINE
  8
0
 10
65.8966
 20
-542.85
 11
66.0675
 21
-543.004
  0
LINE
  8
0
 10
66.0675
 20
-543.004
 11
66.2026
 21
-543.19
  0
LINE
  8
0
 10
66.2026
 20
-543.19
 11
66.2962
 21
-543.4
  0
LINE
  8
0
 10
66.2962
 20
-543.4
 11
66.344
 21
-543.625
  0
LINE
  8
0
 10
66.344
 20
-543.625
 11
66.344
 21
-543.855
  0
LINE
  8
0
 10
66.344
 20
-543.855
 11
66.2962
 21
-544.08
  0
LINE
  8
0
 10
66.2962
 20
-544.08
 11
66.2026
 21
-544.29
  0
LINE
  8
0
 10
66.2026
 20
-544.29
 11
66.0675
 21
-544.476
  0
LINE
  8
0
 10
66.0675
 20
-544.476
 11
65.8966
 21
-544.63
  0
LINE
  8
0
 10
65.8966
 20
-544.63
 11
65.6974
 21
-544.745
  0
LINE
  8
0
 10
65.6974
 20
-544.745
 11
65.4787
 21
-544.816
  0
LINE
  8
0
 10
65.4787
 20
-544.816
 11
65.25
 21
-544.84
  0
LINE
  8
0
 10
65.25
 20
-544.84
 11
65.0213
 21
-544.816
  0
LINE
  8
0
 10
-57.4787
 20
-549.896
 11
-57.6974
 21
-549.825
  0
LINE
  8
0
 10
-57.6974
 20
-549.825
 11
-57.8966
 21
-549.71
  0
LINE
  8
0
 10
-57.8966
 20
-549.71
 11
-58.0675
 21
-549.556
  0
LINE
  8
0
 10
-58.0675
 20
-549.556
 11
-58.2026
 21
-549.37
  0
LINE
  8
0
 10
-58.2026
 20
-549.37
 11
-58.2962
 21
-549.16
  0
LINE
  8
0
 10
-58.2962
 20
-549.16
 11
-58.344
 21
-548.935
  0
LINE
  8
0
 10
-58.344
 20
-548.935
 11
-58.344
 21
-548.705
  0
LINE
  8
0
 10
-58.344
 20
-548.705
 11
-58.2962
 21
-548.48
  0
LINE
  8
0
 10
-58.2962
 20
-548.48
 11
-58.2026
 21
-548.27
  0
LINE
  8
0
 10
-58.2026
 20
-548.27
 11
-58.0675
 21
-548.084
  0
LINE
  8
0
 10
-58.0675
 20
-548.084
 11
-57.8966
 21
-547.93
  0
LINE
  8
0
 10
-57.8966
 20
-547.93
 11
-57.6974
 21
-547.815
  0
LINE
  8
0
 10
-57.6974
 20
-547.815
 11
-57.4787
 21
-547.744
  0
LINE
  8
0
 10
-57.4787
 20
-547.744
 11
-57.25
 21
-547.72
  0
LINE
  8
0
 10
-57.25
 20
-547.72
 11
-57.0213
 21
-547.744
  0
LINE
  8
0
 10
-57.0213
 20
-547.744
 11
-56.8026
 21
-547.815
  0
LINE
  8
0
 10
-56.8026
 20
-547.815
 11
-56.6034
 21
-547.93
  0
LINE
  8
0
 10
-56.6034
 20
-547.93
 11
-56.4325
 21
-548.084
  0
LINE
  8
0
 10
-56.4325
 20
-548.084
 11
-56.2974
 21
-548.27
  0
LINE
  8
0
 10
-56.2974
 20
-548.27
 11
-56.2038
 21
-548.48
  0
LINE
  8
0
 10
-56.2038
 20
-548.48
 11
-56.156
 21
-548.705
  0
LINE
  8
0
 10
-56.156
 20
-548.705
 11
-56.156
 21
-548.935
  0
LINE
  8
0
 10
-56.156
 20
-548.935
 11
-56.2038
 21
-549.16
  0
LINE
  8
0
 10
-56.2038
 20
-549.16
 11
-56.2974
 21
-549.37
  0
LINE
  8
0
 10
-56.2974
 20
-549.37
 11
-56.4325
 21
-549.556
  0
LINE
  8
0
 10
-56.4325
 20
-549.556
 11
-56.6034
 21
-549.71
  0
LINE
  8
0
 10
-56.6034
 20
-549.71
 11
-56.8026
 21
-549.825
  0
LINE
  8
0
 10
-56.8026
 20
-549.825
 11
-57.0213
 21
-549.896
  0
LINE
  8
0
 10
-57.0213
 20
-549.896
 11
-57.25
 21
-549.92
  0
LINE
  8
0
 10
-57.25
 20
-549.92
 11
-57.4787
 21
-549.896
  0
LINE
  8
0
 10
65.0213
 20
-549.896
 11
64.8026
 21
-549.825
  0
LINE
  8
0
 10
64.8026
 20
-549.825
 11
64.6034
 21
-549.71
  0
LINE
  8
0
 10
64.6034
 20
-549.71
 11
64.4325
 21
-549.556
  0
LINE
  8
0
 10
64.4325
 20
-549.556
 11
64.2974
 21
-549.37
  0
LINE
  8
0
 10
64.2974
 20
-549.37
 11
64.2038
 21
-549.16
  0
LINE
  8
0
 10
64.2038
 20
-549.16
 11
64.156
 21
-548.935
  0
LINE
  8
0
 10
64.156
 20
-548.935
 11
64.156
 21
-548.705
  0
LINE
  8
0
 10
64.156
 20
-548.705
 11
64.2038
 21
-548.48
  0
LINE
  8
0
 10
64.2038
 20
-548.48
 11
64.2974
 21
-548.27
  0
LINE
  8
0
 10
64.2974
 20
-548.27
 11
64.4325
 21
-548.084
  0
LINE
  8
0
 10
64.4325
 20
-548.084
 11
64.6034
 21
-547.93
  0
LINE
  8
0
 10
64.6034
 20
-547.93
 11
64.8026
 21
-547.815
  0
LINE
  8
0
 10
64.8026
 20
-547.815
 11
65.0213
 21
-547.744
  0
LINE
  8
0
 10
65.0213
 20
-547.744
 11
65.25
 21
-547.72
  0
LINE
  8
0
 10
65.25
 20
-547.72
 11
65.4787
 21
-547.744
  0
LINE
  8
0
 10
65.4787
 20
-547.744
 11
65.6974
 21
-547.815
  0
LINE
  8
0
 10
65.6974
 20
-547.815
 11
65.8966
 21
-547.93
  0
LINE
  8
0
 10
65.8966
 20
-547.93
 11
66.0675
 21
-548.084
  0
LINE
  8
0
 10
66.0675
 20
-548.084
 11
66.2026
 21
-548.27
  0
LINE
  8
0
 10
66.2026
 20
-548.27
 11
66.2962
 21
-548.48
  0
LINE
  8
0
 10
66.2962
 20
-548.48
 11
66.344
 21
-548.705
  0
LINE
  8
0
 10
66.344
 20
-548.705
 11
66.344
 21
-548.935
  0
LINE
  8
0
 10
66.344
 20
-548.935
 11
66.2962
 21
-549.16
  0
LINE
  8
0
 10
66.2962
 20
-549.16
 11
66.2026
 21
-549.37
  0
LINE
  8
0
 10
66.2026
 20
-549.37
 11
66.0675
 21
-549.556
  0
LINE
  8
0
 10
66.0675
 20
-549.556
 11
65.8966
 21
-549.71
  0
LINE
  8
0
 10
65.8966
 20
-549.71
 11
65.6974
 21
-549.825
  0
LINE
  8
0
 10
65.6974
 20
-549.825
 11
65.4787
 21
-549.896
  0
LINE
  8
0
 10
65.4787
 20
-549.896
 11
65.25
 21
-549.92
  0
LINE
  8
0
 10
65.25
 20
-549.92
 11
65.0213
 21
-549.896
  0
LINE
  8
0
 10
65.0213
 20
-554.976
 11
64.8026
 21
-554.905
  0
LINE
  8
0
 10
64.8026
 20
-554.905
 11
64.6034
 21
-554.79
  0
LINE
  8
0
 10
64.6034
 20
-554.79
 11
64.4325
 21
-554.636
  0
LINE
  8
0
 10
64.4325
 20
-554.636
 11
64.2974
 21
-554.45
  0
LINE
  8
0
 10
64.2974
 20
-554.45
 11
64.2038
 21
-554.24
  0
LINE
  8
0
 10
64.2038
 20
-554.24
 11
64.156
 21
-554.015
  0
LINE
  8
0
 10
64.156
 20
-554.015
 11
64.156
 21
-553.785
  0
LINE
  8
0
 10
64.156
 20
-553.785
 11
64.2038
 21
-553.56
  0
LINE
  8
0
 10
64.2038
 20
-553.56
 11
64.2974
 21
-553.35
  0
LINE
  8
0
 10
64.2974
 20
-553.35
 11
64.4325
 21
-553.164
  0
LINE
  8
0
 10
64.4325
 20
-553.164
 11
64.6034
 21
-553.01
  0
LINE
  8
0
 10
64.6034
 20
-553.01
 11
64.8026
 21
-552.895
  0
LINE
  8
0
 10
64.8026
 20
-552.895
 11
65.0213
 21
-552.824
  0
LINE
  8
0
 10
65.0213
 20
-552.824
 11
65.25
 21
-552.8
  0
LINE
  8
0
 10
65.25
 20
-552.8
 11
65.4787
 21
-552.824
  0
LINE
  8
0
 10
65.4787
 20
-552.824
 11
65.6974
 21
-552.895
  0
LINE
  8
0
 10
65.6974
 20
-552.895
 11
65.8966
 21
-553.01
  0
LINE
  8
0
 10
65.8966
 20
-553.01
 11
66.0675
 21
-553.164
  0
LINE
  8
0
 10
66.0675
 20
-553.164
 11
66.2026
 21
-553.35
  0
LINE
  8
0
 10
66.2026
 20
-553.35
 11
66.2962
 21
-553.56
  0
LINE
  8
0
 10
66.2962
 20
-553.56
 11
66.344
 21
-553.785
  0
LINE
  8
0
 10
66.344
 20
-553.785
 11
66.344
 21
-554.015
  0
LINE
  8
0
 10
66.344
 20
-554.015
 11
66.2962
 21
-554.24
  0
LINE
  8
0
 10
66.2962
 20
-554.24
 11
66.2026
 21
-554.45
  0
LINE
  8
0
 10
66.2026
 20
-554.45
 11
66.0675
 21
-554.636
  0
LINE
  8
0
 10
66.0675
 20
-554.636
 11
65.8966
 21
-554.79
  0
LINE
  8
0
 10
65.8966
 20
-554.79
 11
65.6974
 21
-554.905
  0
LINE
  8
0
 10
65.6974
 20
-554.905
 11
65.4787
 21
-554.976
  0
LINE
  8
0
 10
65.4787
 20
-554.976
 11
65.25
 21
-555
  0
LINE
  8
0
 10
65.25
 20
-555
 11
65.0213
 21
-554.976
  0
LINE
  8
0
 10
-57.4787
 20
-554.976
 11
-57.6974
 21
-554.905
  0
LINE
  8
0
 10
-57.6974
 20
-554.905
 11
-57.8966
 21
-554.79
  0
LINE
  8
0
 10
-57.8966
 20
-554.79
 11
-58.0675
 21
-554.636
  0
LINE
  8
0
 10
-58.0675
 20
-554.636
 11
-58.2026
 21
-554.45
  0
LINE
  8
0
 10
-58.2026
 20
-554.45
 11
-58.2962
 21
-554.24
  0
LINE
  8
0
 10
-58.2962
 20
-554.24
 11
-58.344
 21
-554.015
  0
LINE
  8
0
 10
-58.344
 20
-554.015
 11
-58.344
 21
-553.785
  0
LINE
  8
0
 10
-58.344
 20
-553.785
 11
-58.2962
 21
-553.56
  0
LINE
  8
0
 10
-58.2962
 20
-553.56
 11
-58.2026
 21
-553.35
  0
LINE
  8
0
 10
-58.2026
 20
-553.35
 11
-58.0675
 21
-553.164
  0
LINE
  8
0
 10
-58.0675
 20
-553.164
 11
-57.8966
 21
-553.01
  0
LINE
  8
0
 10
-57.8966
 20
-553.01
 11
-57.6974
 21
-552.895
  0
LINE
  8
0
 10
-57.6974
 20
-552.895
 11
-57.4787
 21
-552.824
  0
LINE
  8
0
 10
-57.4787
 20
-552.824
 11
-57.25
 21
-552.8
  0
LINE
  8
0
 10
-57.25
 20
-552.8
 11
-57.0213
 21
-552.824
  0
LINE
  8
0
 10
-57.0213
 20
-552.824
 11
-56.8026
 21
-552.895
  0
LINE
  8
0
 10
-56.8026
 20
-552.895
 11
-56.6034
 21
-553.01
  0
LINE
  8
0
 10
-56.6034
 20
-553.01
 11
-56.4325
 21
-553.164
  0
LINE
  8
0
 10
-56.4325
 20
-553.164
 11
-56.2974
 21
-553.35
  0
LINE
  8
0
 10
-56.2974
 20
-553.35
 11
-56.2038
 21
-553.56
  0
LINE
  8
0
 10
-56.2038
 20
-553.56
 11
-56.156
 21
-553.785
  0
LINE
  8
0
 10
-56.156
 20
-553.785
 11
-56.156
 21
-554.015
  0
LINE
  8
0
 10
-56.156
 20
-554.015
 11
-56.2038
 21
-554.24
  0
LINE
  8
0
 10
-56.2038
 20
-554.24
 11
-56.2974
 21
-554.45
  0
LINE
  8
0
 10
-56.2974
 20
-554.45
 11
-56.4325
 21
-554.636
  0
LINE
  8
0
 10
-56.4325
 20
-554.636
 11
-56.6034
 21
-554.79
  0
LINE
  8
0
 10
-56.6034
 20
-554.79
 11
-56.8026
 21
-554.905
  0
LINE
  8
0
 10
-56.8026
 20
-554.905
 11
-57.0213
 21
-554.976
  0
LINE
  8
0
 10
-57.0213
 20
-554.976
 11
-57.25
 21
-555
  0
LINE
  8
0
 10
-57.25
 20
-555
 11
-57.4787
 21
-554.976
  0
ENDSEC
  0
SECTION
  2
OBJECTS
  0
DICTIONARY
  0
ENDSEC
  0
EOF
