  0
SECTION
  2
BLOCKS
  0
ENDSEC
  0
SECTION
  2
ENTITIES
  0
LINE
  8
0
 10
-8.79999
 20
-71
 11
-3.79999
 21
-71
  0
LINE
  8
0
 10
-3.79999
 20
-71
 11
-3.79999
 21
-74.8
  0
LINE
  8
0
 10
-3.79999
 20
-74.8
 11
3.79999
 21
-74.8
  0
LINE
  8
0
 10
3.79999
 20
-74.8
 11
3.79999
 21
-71
  0
LINE
  8
0
 10
3.79999
 20
-71
 11
8.79999
 21
-71
  0
LINE
  8
0
 10
8.79999
 20
-71
 11
8.79999
 21
-74.8
  0
LINE
  8
0
 10
8.79999
 20
-74.8
 11
14.8
 21
-74.8
  0
LINE
  8
0
 10
14.8
 20
-74.8
 11
14.8
 21
-61
  0
LINE
  8
0
 10
14.8
 20
-61
 11
11
 21
-61
  0
LINE
  8
0
 10
11
 20
-61
 11
11
 21
-56
  0
LINE
  8
0
 10
11
 20
-56
 11
14.8
 21
-56
  0
LINE
  8
0
 10
14.8
 20
-56
 11
14.8
 21
-22
  0
LINE
  8
0
 10
14.8
 20
-22
 11
11
 21
-22
  0
LINE
  8
0
 10
11
 20
-22
 11
11
 21
-17
  0
LINE
  8
0
 10
11
 20
-17
 11
14.8
 21
-17
  0
LINE
  8
0
 10
14.8
 20
-17
 11
14.8
 21
17
  0
LINE
  8
0
 10
14.8
 20
17
 11
11
 21
17
  0
LINE
  8
0
 10
11
 20
17
 11
11
 21
22
  0
LINE
  8
0
 10
11
 20
22
 11
14.8
 21
22
  0
LINE
  8
0
 10
14.8
 20
22
 11
14.8
 21
56
  0
LINE
  8
0
 10
14.8
 20
56
 11
11
 21
56
  0
LINE
  8
0
 10
11
 20
56
 11
11
 21
61
  0
LINE
  8
0
 10
11
 20
61
 11
14.8
 21
61
  0
LINE
  8
0
 10
14.8
 20
61
 11
14.8
 21
74.8
  0
LINE
  8
0
 10
14.8
 20
74.8
 11
8.79999
 21
74.8
  0
LINE
  8
0
 10
8.79999
 20
74.8
 11
8.79999
 21
71
  0
LINE
  8
0
 10
8.79999
 20
71
 11
3.79999
 21
71
  0
LINE
  8
0
 10
3.79999
 20
71
 11
3.79999
 21
74.8
  0
LINE
  8
0
 10
3.79999
 20
74.8
 11
-3.79999
 21
74.8
  0
LINE
  8
0
 10
-3.79999
 20
74.8
 11
-3.79999
 21
71
  0
LINE
  8
0
 10
-3.79999
 20
71
 11
-8.79999
 21
71
  0
LINE
  8
0
 10
-8.79999
 20
71
 11
-8.79999
 21
74.8
  0
LINE
  8
0
 10
-8.79999
 20
74.8
 11
-14.8
 21
74.8
  0
LINE
  8
0
 10
-14.8
 20
74.8
 11
-14.8
 21
61
  0
LINE
  8
0
 10
-14.8
 20
61
 11
-11
 21
61
  0
LINE
  8
0
 10
-11
 20
61
 11
-11
 21
56
  0
LINE
  8
0
 10
-11
 20
56
 11
-14.8
 21
56
  0
LINE
  8
0
 10
-14.8
 20
56
 11
-14.8
 21
22
  0
LINE
  8
0
 10
-14.8
 20
22
 11
-11
 21
22
  0
LINE
  8
0
 10
-11
 20
22
 11
-11
 21
17
  0
LINE
  8
0
 10
-11
 20
17
 11
-14.8
 21
17
  0
LINE
  8
0
 10
-14.8
 20
17
 11
-14.8
 21
-17
  0
LINE
  8
0
 10
-14.8
 20
-17
 11
-11
 21
-17
  0
LINE
  8
0
 10
-11
 20
-17
 11
-11
 21
-22
  0
LINE
  8
0
 10
-11
 20
-22
 11
-14.8
 21
-22
  0
LINE
  8
0
 10
-14.8
 20
-22
 11
-14.8
 21
-56
  0
LINE
  8
0
 10
-14.8
 20
-56
 11
-11
 21
-56
  0
LINE
  8
0
 10
-11
 20
-56
 11
-11
 21
-61
  0
LINE
  8
0
 10
-11
 20
-61
 11
-14.8
 21
-61
  0
LINE
  8
0
 10
-14.8
 20
-61
 11
-14.8
 21
-74.8
  0
LINE
  8
0
 10
-14.8
 20
-74.8
 11
-8.79999
 21
-74.8
  0
LINE
  8
0
 10
-8.79999
 20
-74.8
 11
-8.79999
 21
-71
  0
LINE
  8
0
 10
-8.25586
 20
-23.2959
 11
-8.25586
 21
-20.9941
  0
LINE
  8
0
 10
-8.25586
 20
-20.9941
 11
8.6377
 21
-20.9941
  0
LINE
  8
0
 10
8.6377
 20
-20.9941
 11
8.6377
 21
-23.2959
  0
LINE
  8
0
 10
8.6377
 20
-23.2959
 11
-8.25586
 21
-23.2959
  0
LINE
  8
0
 10
-8.25586
 20
-36.0264
 11
-8.25586
 21
-33.7236
  0
LINE
  8
0
 10
-8.25586
 20
-33.7236
 11
8.6377
 21
-33.7236
  0
LINE
  8
0
 10
8.6377
 20
-33.7236
 11
8.6377
 21
-36.0264
  0
LINE
  8
0
 10
8.6377
 20
-36.0264
 11
-8.25586
 21
-36.0264
  0
LINE
  8
0
 10
-8.25586
 20
-52.583
 11
-8.25586
 21
-50.2812
  0
LINE
  8
0
 10
-8.25586
 20
-50.2812
 11
8.6377
 21
-50.2812
  0
LINE
  8
0
 10
8.6377
 20
-50.2812
 11
8.6377
 21
-52.583
  0
LINE
  8
0
 10
8.6377
 20
-52.583
 11
-8.25586
 21
-52.583
  0
LINE
  8
0
 10
-8.79999
 20
-225.6
 11
-3.79999
 21
-225.6
  0
LINE
  8
0
 10
-3.79999
 20
-225.6
 11
-3.79999
 21
-229.4
  0
LINE
  8
0
 10
-3.79999
 20
-229.4
 11
3.79999
 21
-229.4
  0
LINE
  8
0
 10
3.79999
 20
-229.4
 11
3.79999
 21
-225.6
  0
LINE
  8
0
 10
3.79999
 20
-225.6
 11
8.79999
 21
-225.6
  0
LINE
  8
0
 10
8.79999
 20
-225.6
 11
8.79999
 21
-229.4
  0
LINE
  8
0
 10
8.79999
 20
-229.4
 11
14.8
 21
-229.4
  0
LINE
  8
0
 10
14.8
 20
-229.4
 11
14.8
 21
-215.6
  0
LINE
  8
0
 10
14.8
 20
-215.6
 11
11
 21
-215.6
  0
LINE
  8
0
 10
11
 20
-215.6
 11
11
 21
-210.6
  0
LINE
  8
0
 10
11
 20
-210.6
 11
14.8
 21
-210.6
  0
LINE
  8
0
 10
14.8
 20
-210.6
 11
14.8
 21
-176.6
  0
LINE
  8
0
 10
14.8
 20
-176.6
 11
11
 21
-176.6
  0
LINE
  8
0
 10
11
 20
-176.6
 11
11
 21
-171.6
  0
LINE
  8
0
 10
11
 20
-171.6
 11
14.8
 21
-171.6
  0
LINE
  8
0
 10
14.8
 20
-171.6
 11
14.8
 21
-137.6
  0
LINE
  8
0
 10
14.8
 20
-137.6
 11
11
 21
-137.6
  0
LINE
  8
0
 10
11
 20
-137.6
 11
11
 21
-132.6
  0
LINE
  8
0
 10
11
 20
-132.6
 11
14.8
 21
-132.6
  0
LINE
  8
0
 10
14.8
 20
-132.6
 11
14.8
 21
-98.6
  0
LINE
  8
0
 10
14.8
 20
-98.6
 11
11
 21
-98.6
  0
LINE
  8
0
 10
11
 20
-98.6
 11
11
 21
-93.6
  0
LINE
  8
0
 10
11
 20
-93.6
 11
14.8
 21
-93.6
  0
LINE
  8
0
 10
14.8
 20
-93.6
 11
14.8
 21
-79.8
  0
LINE
  8
0
 10
14.8
 20
-79.8
 11
8.79999
 21
-79.8
  0
LINE
  8
0
 10
8.79999
 20
-79.8
 11
8.79999
 21
-83.6
  0
LINE
  8
0
 10
8.79999
 20
-83.6
 11
3.79999
 21
-83.6
  0
LINE
  8
0
 10
3.79999
 20
-83.6
 11
3.79999
 21
-79.8
  0
LINE
  8
0
 10
3.79999
 20
-79.8
 11
-3.79999
 21
-79.8
  0
LINE
  8
0
 10
-3.79999
 20
-79.8
 11
-3.79999
 21
-83.6
  0
LINE
  8
0
 10
-3.79999
 20
-83.6
 11
-8.79999
 21
-83.6
  0
LINE
  8
0
 10
-8.79999
 20
-83.6
 11
-8.79999
 21
-79.8
  0
LINE
  8
0
 10
-8.79999
 20
-79.8
 11
-14.8
 21
-79.8
  0
LINE
  8
0
 10
-14.8
 20
-79.8
 11
-14.8
 21
-93.6
  0
LINE
  8
0
 10
-14.8
 20
-93.6
 11
-11
 21
-93.6
  0
LINE
  8
0
 10
-11
 20
-93.6
 11
-11
 21
-98.6
  0
LINE
  8
0
 10
-11
 20
-98.6
 11
-14.8
 21
-98.6
  0
LINE
  8
0
 10
-14.8
 20
-98.6
 11
-14.8
 21
-132.6
  0
LINE
  8
0
 10
-14.8
 20
-132.6
 11
-11
 21
-132.6
  0
LINE
  8
0
 10
-11
 20
-132.6
 11
-11
 21
-137.6
  0
LINE
  8
0
 10
-11
 20
-137.6
 11
-14.8
 21
-137.6
  0
LINE
  8
0
 10
-14.8
 20
-137.6
 11
-14.8
 21
-171.6
  0
LINE
  8
0
 10
-14.8
 20
-171.6
 11
-11
 21
-171.6
  0
LINE
  8
0
 10
-11
 20
-171.6
 11
-11
 21
-176.6
  0
LINE
  8
0
 10
-11
 20
-176.6
 11
-14.8
 21
-176.6
  0
LINE
  8
0
 10
-14.8
 20
-176.6
 11
-14.8
 21
-210.6
  0
LINE
  8
0
 10
-14.8
 20
-210.6
 11
-11
 21
-210.6
  0
LINE
  8
0
 10
-11
 20
-210.6
 11
-11
 21
-215.6
  0
LINE
  8
0
 10
-11
 20
-215.6
 11
-14.8
 21
-215.6
  0
LINE
  8
0
 10
-14.8
 20
-215.6
 11
-14.8
 21
-229.4
  0
LINE
  8
0
 10
-14.8
 20
-229.4
 11
-8.79999
 21
-229.4
  0
LINE
  8
0
 10
-8.79999
 20
-229.4
 11
-8.79999
 21
-225.6
  0
LINE
  8
0
 10
-8.6377
 20
-177.896
 11
-8.6377
 21
-175.594
  0
LINE
  8
0
 10
-8.6377
 20
-175.594
 11
8.25586
 21
-175.594
  0
LINE
  8
0
 10
8.25586
 20
-175.594
 11
8.25586
 21
-177.896
  0
LINE
  8
0
 10
8.25586
 20
-177.896
 11
-8.6377
 21
-177.896
  0
LINE
  8
0
 10
-8.6377
 20
-190.626
 11
-8.6377
 21
-188.324
  0
LINE
  8
0
 10
-8.6377
 20
-188.324
 11
8.25586
 21
-188.324
  0
LINE
  8
0
 10
8.25586
 20
-188.324
 11
8.25586
 21
-190.626
  0
LINE
  8
0
 10
8.25586
 20
-190.626
 11
-8.6377
 21
-190.626
  0
LINE
  8
0
 10
-8.6377
 20
-207.183
 11
-8.6377
 21
-204.881
  0
LINE
  8
0
 10
-8.6377
 20
-204.881
 11
8.25586
 21
-204.881
  0
LINE
  8
0
 10
8.25586
 20
-204.881
 11
8.25586
 21
-207.183
  0
LINE
  8
0
 10
8.25586
 20
-207.183
 11
-8.6377
 21
-207.183
  0
LINE
  8
0
 10
-3.79999
 20
-310.2
 11
3.79999
 21
-310.2
  0
LINE
  8
0
 10
3.79999
 20
-310.2
 11
3.79999
 21
-314
  0
LINE
  8
0
 10
3.79999
 20
-314
 11
8.79999
 21
-314
  0
LINE
  8
0
 10
8.79999
 20
-314
 11
8.79999
 21
-310.2
  0
LINE
  8
0
 10
8.79999
 20
-310.2
 11
14.8
 21
-310.2
  0
LINE
  8
0
 10
14.8
 20
-310.2
 11
14.8
 21
-300.2
  0
LINE
  8
0
 10
14.8
 20
-300.2
 11
11
 21
-300.2
  0
LINE
  8
0
 10
11
 20
-300.2
 11
11
 21
-295.2
  0
LINE
  8
0
 10
11
 20
-295.2
 11
14.8
 21
-295.2
  0
LINE
  8
0
 10
14.8
 20
-295.2
 11
14.8
 21
-284.533
  0
LINE
  8
0
 10
14.8
 20
-284.533
 11
11
 21
-284.533
  0
LINE
  8
0
 10
11
 20
-284.533
 11
11
 21
-279.533
  0
LINE
  8
0
 10
11
 20
-279.533
 11
14.8
 21
-279.533
  0
LINE
  8
0
 10
14.8
 20
-279.533
 11
14.8
 21
-268.867
  0
LINE
  8
0
 10
14.8
 20
-268.867
 11
11
 21
-268.867
  0
LINE
  8
0
 10
11
 20
-268.867
 11
11
 21
-263.867
  0
LINE
  8
0
 10
11
 20
-263.867
 11
14.8
 21
-263.867
  0
LINE
  8
0
 10
14.8
 20
-263.867
 11
14.8
 21
-253.2
  0
LINE
  8
0
 10
14.8
 20
-253.2
 11
11
 21
-253.2
  0
LINE
  8
0
 10
11
 20
-253.2
 11
11
 21
-248.2
  0
LINE
  8
0
 10
11
 20
-248.2
 11
14.8
 21
-248.2
  0
LINE
  8
0
 10
14.8
 20
-248.2
 11
14.8
 21
-238.2
  0
LINE
  8
0
 10
14.8
 20
-238.2
 11
8.79999
 21
-238.2
  0
LINE
  8
0
 10
8.79999
 20
-238.2
 11
8.79999
 21
-234.4
  0
LINE
  8
0
 10
8.79999
 20
-234.4
 11
3.79999
 21
-234.4
  0
LINE
  8
0
 10
3.79999
 20
-234.4
 11
3.79999
 21
-238.2
  0
LINE
  8
0
 10
3.79999
 20
-238.2
 11
-3.79999
 21
-238.2
  0
LINE
  8
0
 10
-3.79999
 20
-238.2
 11
-3.79999
 21
-234.4
  0
LINE
  8
0
 10
-3.79999
 20
-234.4
 11
-8.79999
 21
-234.4
  0
LINE
  8
0
 10
-8.79999
 20
-234.4
 11
-8.79999
 21
-238.2
  0
LINE
  8
0
 10
-8.79999
 20
-238.2
 11
-14.8
 21
-238.2
  0
LINE
  8
0
 10
-14.8
 20
-238.2
 11
-14.8
 21
-248.2
  0
LINE
  8
0
 10
-14.8
 20
-248.2
 11
-11
 21
-248.2
  0
LINE
  8
0
 10
-11
 20
-248.2
 11
-11
 21
-253.2
  0
LINE
  8
0
 10
-11
 20
-253.2
 11
-14.8
 21
-253.2
  0
LINE
  8
0
 10
-14.8
 20
-253.2
 11
-14.8
 21
-263.867
  0
LINE
  8
0
 10
-14.8
 20
-263.867
 11
-11
 21
-263.867
  0
LINE
  8
0
 10
-11
 20
-263.867
 11
-11
 21
-268.867
  0
LINE
  8
0
 10
-11
 20
-268.867
 11
-14.8
 21
-268.867
  0
LINE
  8
0
 10
-14.8
 20
-268.867
 11
-14.8
 21
-279.533
  0
LINE
  8
0
 10
-14.8
 20
-279.533
 11
-11
 21
-279.533
  0
LINE
  8
0
 10
-11
 20
-279.533
 11
-11
 21
-284.533
  0
LINE
  8
0
 10
-11
 20
-284.533
 11
-14.8
 21
-284.533
  0
LINE
  8
0
 10
-14.8
 20
-284.533
 11
-14.8
 21
-295.2
  0
LINE
  8
0
 10
-14.8
 20
-295.2
 11
-11
 21
-295.2
  0
LINE
  8
0
 10
-11
 20
-295.2
 11
-11
 21
-300.2
  0
LINE
  8
0
 10
-11
 20
-300.2
 11
-14.8
 21
-300.2
  0
LINE
  8
0
 10
-14.8
 20
-300.2
 11
-14.8
 21
-310.2
  0
LINE
  8
0
 10
-14.8
 20
-310.2
 11
-8.79999
 21
-310.2
  0
LINE
  8
0
 10
-8.79999
 20
-310.2
 11
-8.79999
 21
-314
  0
LINE
  8
0
 10
-8.79999
 20
-314
 11
-3.79999
 21
-314
  0
LINE
  8
0
 10
-3.79999
 20
-314
 11
-3.79999
 21
-310.2
  0
LINE
  8
0
 10
-3.79999
 20
-394.8
 11
3.79999
 21
-394.8
  0
LINE
  8
0
 10
3.79999
 20
-394.8
 11
3.79999
 21
-398.6
  0
LINE
  8
0
 10
3.79999
 20
-398.6
 11
8.79999
 21
-398.6
  0
LINE
  8
0
 10
8.79999
 20
-398.6
 11
8.79999
 21
-394.8
  0
LINE
  8
0
 10
8.79999
 20
-394.8
 11
14.8
 21
-394.8
  0
LINE
  8
0
 10
14.8
 20
-394.8
 11
14.8
 21
-384.8
  0
LINE
  8
0
 10
14.8
 20
-384.8
 11
11
 21
-384.8
  0
LINE
  8
0
 10
11
 20
-384.8
 11
11
 21
-379.8
  0
LINE
  8
0
 10
11
 20
-379.8
 11
14.8
 21
-379.8
  0
LINE
  8
0
 10
14.8
 20
-379.8
 11
14.8
 21
-369.133
  0
LINE
  8
0
 10
14.8
 20
-369.133
 11
11
 21
-369.133
  0
LINE
  8
0
 10
11
 20
-369.133
 11
11
 21
-364.133
  0
LINE
  8
0
 10
11
 20
-364.133
 11
14.8
 21
-364.133
  0
LINE
  8
0
 10
14.8
 20
-364.133
 11
14.8
 21
-353.467
  0
LINE
  8
0
 10
14.8
 20
-353.467
 11
11
 21
-353.467
  0
LINE
  8
0
 10
11
 20
-353.467
 11
11
 21
-348.467
  0
LINE
  8
0
 10
11
 20
-348.467
 11
14.8
 21
-348.467
  0
LINE
  8
0
 10
14.8
 20
-348.467
 11
14.8
 21
-337.8
  0
LINE
  8
0
 10
14.8
 20
-337.8
 11
11
 21
-337.8
  0
LINE
  8
0
 10
11
 20
-337.8
 11
11
 21
-332.8
  0
LINE
  8
0
 10
11
 20
-332.8
 11
14.8
 21
-332.8
  0
LINE
  8
0
 10
14.8
 20
-332.8
 11
14.8
 21
-322.8
  0
LINE
  8
0
 10
14.8
 20
-322.8
 11
8.79999
 21
-322.8
  0
LINE
  8
0
 10
8.79999
 20
-322.8
 11
8.79999
 21
-319
  0
LINE
  8
0
 10
8.79999
 20
-319
 11
3.79999
 21
-319
  0
LINE
  8
0
 10
3.79999
 20
-319
 11
3.79999
 21
-322.8
  0
LINE
  8
0
 10
3.79999
 20
-322.8
 11
-3.79999
 21
-322.8
  0
LINE
  8
0
 10
-3.79999
 20
-322.8
 11
-3.79999
 21
-319
  0
LINE
  8
0
 10
-3.79999
 20
-319
 11
-8.79999
 21
-319
  0
LINE
  8
0
 10
-8.79999
 20
-319
 11
-8.79999
 21
-322.8
  0
LINE
  8
0
 10
-8.79999
 20
-322.8
 11
-14.8
 21
-322.8
  0
LINE
  8
0
 10
-14.8
 20
-322.8
 11
-14.8
 21
-332.8
  0
LINE
  8
0
 10
-14.8
 20
-332.8
 11
-11
 21
-332.8
  0
LINE
  8
0
 10
-11
 20
-332.8
 11
-11
 21
-337.8
  0
LINE
  8
0
 10
-11
 20
-337.8
 11
-14.8
 21
-337.8
  0
LINE
  8
0
 10
-14.8
 20
-337.8
 11
-14.8
 21
-348.467
  0
LINE
  8
0
 10
-14.8
 20
-348.467
 11
-11
 21
-348.467
  0
LINE
  8
0
 10
-11
 20
-348.467
 11
-11
 21
-353.467
  0
LINE
  8
0
 10
-11
 20
-353.467
 11
-14.8
 21
-353.467
  0
LINE
  8
0
 10
-14.8
 20
-353.467
 11
-14.8
 21
-364.133
  0
LINE
  8
0
 10
-14.8
 20
-364.133
 11
-11
 21
-364.133
  0
LINE
  8
0
 10
-11
 20
-364.133
 11
-11
 21
-369.133
  0
LINE
  8
0
 10
-11
 20
-369.133
 11
-14.8
 21
-369.133
  0
LINE
  8
0
 10
-14.8
 20
-369.133
 11
-14.8
 21
-379.8
  0
LINE
  8
0
 10
-14.8
 20
-379.8
 11
-11
 21
-379.8
  0
LINE
  8
0
 10
-11
 20
-379.8
 11
-11
 21
-384.8
  0
LINE
  8
0
 10
-11
 20
-384.8
 11
-14.8
 21
-384.8
  0
LINE
  8
0
 10
-14.8
 20
-384.8
 11
-14.8
 21
-394.8
  0
LINE
  8
0
 10
-14.8
 20
-394.8
 11
-8.79999
 21
-394.8
  0
LINE
  8
0
 10
-8.79999
 20
-394.8
 11
-8.79999
 21
-398.6
  0
LINE
  8
0
 10
-8.79999
 20
-398.6
 11
-3.79999
 21
-398.6
  0
LINE
  8
0
 10
-3.79999
 20
-398.6
 11
-3.79999
 21
-394.8
  0
LINE
  8
0
 10
-0.379883
 20
-370.698
 11
-0.769531
 21
-370.662
  0
LINE
  8
0
 10
-0.769531
 20
-370.662
 11
-1.13281
 21
-370.549
  0
LINE
  8
0
 10
-1.13281
 20
-370.549
 11
-1.46094
 21
-370.371
  0
LINE
  8
0
 10
-1.46094
 20
-370.371
 11
-1.74707
 21
-370.134
  0
LINE
  8
0
 10
-1.74707
 20
-370.134
 11
-1.98242
 21
-369.85
  0
LINE
  8
0
 10
-1.98242
 20
-369.85
 11
-2.16016
 21
-369.522
  0
LINE
  8
0
 10
-2.16016
 20
-369.522
 11
-2.27148
 21
-369.158
  0
LINE
  8
0
 10
-2.27148
 20
-369.158
 11
-2.31152
 21
-368.769
  0
LINE
  8
0
 10
-2.31152
 20
-368.769
 11
-2.31055
 21
-367.659
  0
LINE
  8
0
 10
-2.31055
 20
-367.659
 11
-2.31055
 21
-359.899
  0
LINE
  8
0
 10
-2.31055
 20
-359.899
 11
-2.27148
 21
-359.509
  0
LINE
  8
0
 10
-2.27148
 20
-359.509
 11
-2.16016
 21
-359.145
  0
LINE
  8
0
 10
-2.16016
 20
-359.145
 11
-1.98242
 21
-358.818
  0
LINE
  8
0
 10
-1.98242
 20
-358.818
 11
-1.74707
 21
-358.532
  0
LINE
  8
0
 10
-1.74707
 20
-358.532
 11
-1.46094
 21
-358.295
  0
LINE
  8
0
 10
-1.46094
 20
-358.295
 11
-1.13281
 21
-358.117
  0
LINE
  8
0
 10
-1.13281
 20
-358.117
 11
-0.769531
 21
-358.007
  0
LINE
  8
0
 10
-0.769531
 20
-358.007
 11
-0.379883
 21
-357.968
  0
LINE
  8
0
 10
-0.379883
 20
-357.968
 11
1.96484
 21
-357.968
  0
LINE
  8
0
 10
1.96484
 20
-357.968
 11
2.35547
 21
-358.007
  0
LINE
  8
0
 10
2.35547
 20
-358.007
 11
2.71875
 21
-358.117
  0
LINE
  8
0
 10
2.71875
 20
-358.117
 11
3.04688
 21
-358.295
  0
LINE
  8
0
 10
3.04688
 20
-358.295
 11
3.33203
 21
-358.532
  0
LINE
  8
0
 10
3.33203
 20
-358.532
 11
3.56738
 21
-358.818
  0
LINE
  8
0
 10
3.56738
 20
-358.818
 11
3.74512
 21
-359.145
  0
LINE
  8
0
 10
3.74512
 20
-359.145
 11
3.85742
 21
-359.509
  0
LINE
  8
0
 10
3.85742
 20
-359.509
 11
3.89648
 21
-359.899
  0
LINE
  8
0
 10
3.89648
 20
-359.899
 11
3.89648
 21
-368.769
  0
LINE
  8
0
 10
3.89648
 20
-368.769
 11
3.85742
 21
-369.157
  0
LINE
  8
0
 10
3.85742
 20
-369.157
 11
3.74512
 21
-369.522
  0
LINE
  8
0
 10
3.74512
 20
-369.522
 11
3.56738
 21
-369.85
  0
LINE
  8
0
 10
3.56738
 20
-369.85
 11
3.33203
 21
-370.134
  0
LINE
  8
0
 10
3.33203
 20
-370.134
 11
3.04688
 21
-370.371
  0
LINE
  8
0
 10
3.04688
 20
-370.371
 11
2.71875
 21
-370.549
  0
LINE
  8
0
 10
2.71875
 20
-370.549
 11
2.35547
 21
-370.662
  0
LINE
  8
0
 10
2.35547
 20
-370.662
 11
1.96484
 21
-370.698
  0
LINE
  8
0
 10
1.96484
 20
-370.698
 11
-0.379883
 21
-370.698
  0
LINE
  8
0
 10
0.331055
 20
-386.128
 11
-0.389648
 21
-385.904
  0
LINE
  8
0
 10
-0.389648
 20
-385.904
 11
-1.04199
 21
-385.549
  0
LINE
  8
0
 10
-1.04199
 20
-385.549
 11
-1.61133
 21
-385.08
  0
LINE
  8
0
 10
-1.61133
 20
-385.08
 11
-2.08008
 21
-384.512
  0
LINE
  8
0
 10
-2.08008
 20
-384.512
 11
-2.43359
 21
-383.861
  0
LINE
  8
0
 10
-2.43359
 20
-383.861
 11
-2.6582
 21
-383.139
  0
LINE
  8
0
 10
-2.6582
 20
-383.139
 11
-2.73633
 21
-382.365
  0
LINE
  8
0
 10
-2.73633
 20
-382.365
 11
-2.6582
 21
-381.591
  0
LINE
  8
0
 10
-2.6582
 20
-381.591
 11
-2.43359
 21
-380.869
  0
LINE
  8
0
 10
-2.43359
 20
-380.869
 11
-2.08008
 21
-380.218
  0
LINE
  8
0
 10
-2.08008
 20
-380.218
 11
-1.61133
 21
-379.65
  0
LINE
  8
0
 10
-1.61133
 20
-379.65
 11
-1.04199
 21
-379.18
  0
LINE
  8
0
 10
-1.04199
 20
-379.18
 11
-0.389648
 21
-378.825
  0
LINE
  8
0
 10
-0.389648
 20
-378.825
 11
0.331055
 21
-378.603
  0
LINE
  8
0
 10
0.331055
 20
-378.603
 11
1.10449
 21
-378.525
  0
LINE
  8
0
 10
1.10449
 20
-378.525
 11
1.87891
 21
-378.603
  0
LINE
  8
0
 10
1.87891
 20
-378.603
 11
2.60059
 21
-378.825
  0
LINE
  8
0
 10
2.60059
 20
-378.825
 11
3.25195
 21
-379.18
  0
LINE
  8
0
 10
3.25195
 20
-379.18
 11
3.82129
 21
-379.65
  0
LINE
  8
0
 10
3.82129
 20
-379.65
 11
4.29004
 21
-380.218
  0
LINE
  8
0
 10
4.29004
 20
-380.218
 11
4.64453
 21
-380.869
  0
LINE
  8
0
 10
4.64453
 20
-380.869
 11
4.86719
 21
-381.591
  0
LINE
  8
0
 10
4.86719
 20
-381.591
 11
4.94629
 21
-382.365
  0
LINE
  8
0
 10
4.94629
 20
-382.365
 11
4.86719
 21
-383.139
  0
LINE
  8
0
 10
4.86719
 20
-383.139
 11
4.64453
 21
-383.861
  0
LINE
  8
0
 10
4.64453
 20
-383.861
 11
4.29004
 21
-384.512
  0
LINE
  8
0
 10
4.29004
 20
-384.512
 11
3.82129
 21
-385.08
  0
LINE
  8
0
 10
3.82129
 20
-385.08
 11
3.25195
 21
-385.549
  0
LINE
  8
0
 10
3.25195
 20
-385.549
 11
2.60059
 21
-385.904
  0
LINE
  8
0
 10
2.60059
 20
-385.904
 11
1.87891
 21
-386.128
  0
LINE
  8
0
 10
1.87891
 20
-386.128
 11
1.10449
 21
-386.205
  0
LINE
  8
0
 10
1.10449
 20
-386.205
 11
0.331055
 21
-386.128
  0
LINE
  8
0
 10
-56
 20
-479.4
 11
-22
 21
-479.4
  0
LINE
  8
0
 10
-22
 20
-479.4
 11
-22
 21
-483.2
  0
LINE
  8
0
 10
-22
 20
-483.2
 11
-17
 21
-483.2
  0
LINE
  8
0
 10
-17
 20
-483.2
 11
-17
 21
-479.4
  0
LINE
  8
0
 10
-17
 20
-479.4
 11
17
 21
-479.4
  0
LINE
  8
0
 10
17
 20
-479.4
 11
17
 21
-483.2
  0
LINE
  8
0
 10
17
 20
-483.2
 11
22
 21
-483.2
  0
LINE
  8
0
 10
22
 20
-483.2
 11
22
 21
-479.4
  0
LINE
  8
0
 10
22
 20
-479.4
 11
56
 21
-479.4
  0
LINE
  8
0
 10
56
 20
-479.4
 11
56
 21
-483.2
  0
LINE
  8
0
 10
56
 20
-483.2
 11
61
 21
-483.2
  0
LINE
  8
0
 10
61
 20
-483.2
 11
61
 21
-479.4
  0
LINE
  8
0
 10
61
 20
-479.4
 11
71
 21
-479.4
  0
LINE
  8
0
 10
71
 20
-479.4
 11
71
 21
-469.4
  0
LINE
  8
0
 10
71
 20
-469.4
 11
74.8
 21
-469.4
  0
LINE
  8
0
 10
74.8
 20
-469.4
 11
74.8
 21
-464.4
  0
LINE
  8
0
 10
74.8
 20
-464.4
 11
71
 21
-464.4
  0
LINE
  8
0
 10
71
 20
-464.4
 11
71
 21
-453.733
  0
LINE
  8
0
 10
71
 20
-453.733
 11
74.8
 21
-453.733
  0
LINE
  8
0
 10
74.8
 20
-453.733
 11
74.8
 21
-448.733
  0
LINE
  8
0
 10
74.8
 20
-448.733
 11
71
 21
-448.733
  0
LINE
  8
0
 10
71
 20
-448.733
 11
71
 21
-438.067
  0
LINE
  8
0
 10
71
 20
-438.067
 11
74.8
 21
-438.067
  0
LINE
  8
0
 10
74.8
 20
-438.067
 11
74.8
 21
-433.067
  0
LINE
  8
0
 10
74.8
 20
-433.067
 11
71
 21
-433.067
  0
LINE
  8
0
 10
71
 20
-433.067
 11
71
 21
-422.4
  0
LINE
  8
0
 10
71
 20
-422.4
 11
74.8
 21
-422.4
  0
LINE
  8
0
 10
74.8
 20
-422.4
 11
74.8
 21
-417.4
  0
LINE
  8
0
 10
74.8
 20
-417.4
 11
71
 21
-417.4
  0
LINE
  8
0
 10
71
 20
-417.4
 11
71
 21
-407.4
  0
LINE
  8
0
 10
71
 20
-407.4
 11
61
 21
-407.4
  0
LINE
  8
0
 10
61
 20
-407.4
 11
61
 21
-403.6
  0
LINE
  8
0
 10
61
 20
-403.6
 11
56
 21
-403.6
  0
LINE
  8
0
 10
56
 20
-403.6
 11
56
 21
-407.4
  0
LINE
  8
0
 10
56
 20
-407.4
 11
22
 21
-407.4
  0
LINE
  8
0
 10
22
 20
-407.4
 11
22
 21
-403.6
  0
LINE
  8
0
 10
22
 20
-403.6
 11
17
 21
-403.6
  0
LINE
  8
0
 10
17
 20
-403.6
 11
17
 21
-407.4
  0
LINE
  8
0
 10
17
 20
-407.4
 11
-17
 21
-407.4
  0
LINE
  8
0
 10
-17
 20
-407.4
 11
-17
 21
-403.6
  0
LINE
  8
0
 10
-17
 20
-403.6
 11
-22
 21
-403.6
  0
LINE
  8
0
 10
-22
 20
-403.6
 11
-22
 21
-407.4
  0
LINE
  8
0
 10
-22
 20
-407.4
 11
-56
 21
-407.4
  0
LINE
  8
0
 10
-56
 20
-407.4
 11
-56
 21
-403.6
  0
LINE
  8
0
 10
-56
 20
-403.6
 11
-61
 21
-403.6
  0
LINE
  8
0
 10
-61
 20
-403.6
 11
-61
 21
-407.4
  0
LINE
  8
0
 10
-61
 20
-407.4
 11
-71
 21
-407.4
  0
LINE
  8
0
 10
-71
 20
-407.4
 11
-71
 21
-417.4
  0
LINE
  8
0
 10
-71
 20
-417.4
 11
-74.8
 21
-417.4
  0
LINE
  8
0
 10
-74.8
 20
-417.4
 11
-74.8
 21
-422.4
  0
LINE
  8
0
 10
-74.8
 20
-422.4
 11
-71
 21
-422.4
  0
LINE
  8
0
 10
-71
 20
-422.4
 11
-71
 21
-433.067
  0
LINE
  8
0
 10
-71
 20
-433.067
 11
-74.8
 21
-433.067
  0
LINE
  8
0
 10
-74.8
 20
-433.067
 11
-74.8
 21
-438.067
  0
LINE
  8
0
 10
-74.8
 20
-438.067
 11
-71
 21
-438.067
  0
LINE
  8
0
 10
-71
 20
-438.067
 11
-71
 21
-448.733
  0
LINE
  8
0
 10
-71
 20
-448.733
 11
-74.8
 21
-448.733
  0
LINE
  8
0
 10
-74.8
 20
-448.733
 11
-74.8
 21
-453.733
  0
LINE
  8
0
 10
-74.8
 20
-453.733
 11
-71
 21
-453.733
  0
LINE
  8
0
 10
-71
 20
-453.733
 11
-71
 21
-464.4
  0
LINE
  8
0
 10
-71
 20
-464.4
 11
-74.8
 21
-464.4
  0
LINE
  8
0
 10
-74.8
 20
-464.4
 11
-74.8
 21
-469.4
  0
LINE
  8
0
 10
-74.8
 20
-469.4
 11
-71
 21
-469.4
  0
LINE
  8
0
 10
-71
 20
-469.4
 11
-71
 21
-479.4
  0
LINE
  8
0
 10
-71
 20
-479.4
 11
-61
 21
-479.4
  0
LINE
  8
0
 10
-61
 20
-479.4
 11
-61
 21
-483.2
  0
LINE
  8
0
 10
-61
 20
-483.2
 11
-56
 21
-483.2
  0
LINE
  8
0
 10
-56
 20
-483.2
 11
-56
 21
-479.4
  0
LINE
  8
0
 10
-56
 20
-564
 11
-22
 21
-564
  0
LINE
  8
0
 10
-22
 20
-564
 11
-22
 21
-567.8
  0
LINE
  8
0
 10
-22
 20
-567.8
 11
-17
 21
-567.8
  0
LINE
  8
0
 10
-17
 20
-567.8
 11
-17
 21
-564
  0
LINE
  8
0
 10
-17
 20
-564
 11
17
 21
-564
  0
LINE
  8
0
 10
17
 20
-564
 11
17
 21
-567.8
  0
LINE
  8
0
 10
17
 20
-567.8
 11
22
 21
-567.8
  0
LINE
  8
0
 10
22
 20
-567.8
 11
22
 21
-564
  0
LINE
  8
0
 10
22
 20
-564
 11
56
 21
-564
  0
LINE
  8
0
 10
56
 20
-564
 11
56
 21
-567.8
  0
LINE
  8
0
 10
56
 20
-567.8
 11
61
 21
-567.8
  0
LINE
  8
0
 10
61
 20
-567.8
 11
61
 21
-564
  0
LINE
  8
0
 10
61
 20
-564
 11
71
 21
-564
  0
LINE
  8
0
 10
71
 20
-564
 11
71
 21
-554
  0
LINE
  8
0
 10
71
 20
-554
 11
74.8
 21
-554
  0
LINE
  8
0
 10
74.8
 20
-554
 11
74.8
 21
-549
  0
LINE
  8
0
 10
74.8
 20
-549
 11
71
 21
-549
  0
LINE
  8
0
 10
71
 20
-549
 11
71
 21
-538.333
  0
LINE
  8
0
 10
71
 20
-538.333
 11
74.8
 21
-538.333
  0
LINE
  8
0
 10
74.8
 20
-538.333
 11
74.8
 21
-533.333
  0
LINE
  8
0
 10
74.8
 20
-533.333
 11
71
 21
-533.333
  0
LINE
  8
0
 10
71
 20
-533.333
 11
71
 21
-522.667
  0
LINE
  8
0
 10
71
 20
-522.667
 11
74.8
 21
-522.667
  0
LINE
  8
0
 10
74.8
 20
-522.667
 11
74.8
 21
-517.667
  0
LINE
  8
0
 10
74.8
 20
-517.667
 11
71
 21
-517.667
  0
LINE
  8
0
 10
71
 20
-517.667
 11
71
 21
-507
  0
LINE
  8
0
 10
71
 20
-507
 11
74.8
 21
-507
  0
LINE
  8
0
 10
74.8
 20
-507
 11
74.8
 21
-502
  0
LINE
  8
0
 10
74.8
 20
-502
 11
71
 21
-502
  0
LINE
  8
0
 10
71
 20
-502
 11
71
 21
-492
  0
LINE
  8
0
 10
71
 20
-492
 11
61
 21
-492
  0
LINE
  8
0
 10
61
 20
-492
 11
61
 21
-488.2
  0
LINE
  8
0
 10
61
 20
-488.2
 11
56
 21
-488.2
  0
LINE
  8
0
 10
56
 20
-488.2
 11
56
 21
-492
  0
LINE
  8
0
 10
56
 20
-492
 11
22
 21
-492
  0
LINE
  8
0
 10
22
 20
-492
 11
22
 21
-488.2
  0
LINE
  8
0
 10
22
 20
-488.2
 11
17
 21
-488.2
  0
LINE
  8
0
 10
17
 20
-488.2
 11
17
 21
-492
  0
LINE
  8
0
 10
17
 20
-492
 11
-17
 21
-492
  0
LINE
  8
0
 10
-17
 20
-492
 11
-17
 21
-488.2
  0
LINE
  8
0
 10
-17
 20
-488.2
 11
-22
 21
-488.2
  0
LINE
  8
0
 10
-22
 20
-488.2
 11
-22
 21
-492
  0
LINE
  8
0
 10
-22
 20
-492
 11
-56
 21
-492
  0
LINE
  8
0
 10
-56
 20
-492
 11
-56
 21
-488.2
  0
LINE
  8
0
 10
-56
 20
-488.2
 11
-61
 21
-488.2
  0
LINE
  8
0
 10
-61
 20
-488.2
 11
-61
 21
-492
  0
LINE
  8
0
 10
-61
 20
-492
 11
-71
 21
-492
  0
LINE
  8
0
 10
-71
 20
-492
 11
-71
 21
-502
  0
LINE
  8
0
 10
-71
 20
-502
 11
-74.8
 21
-502
  0
LINE
  8
0
 10
-74.8
 20
-502
 11
-74.8
 21
-507
  0
LINE
  8
0
 10
-74.8
 20
-507
 11
-71
 21
-507
  0
LINE
  8
0
 10
-71
 20
-507
 11
-71
 21
-517.667
  0
LINE
  8
0
 10
-71
 20
-517.667
 11
-74.8
 21
-517.667
  0
LINE
  8
0
 10
-74.8
 20
-517.667
 11
-74.8
 21
-522.667
  0
LINE
  8
0
 10
-74.8
 20
-522.667
 11
-71
 21
-522.667
  0
LINE
  8
0
 10
-71
 20
-522.667
 11
-71
 21
-533.333
  0
LINE
  8
0
 10
-71
 20
-533.333
 11
-74.8
 21
-533.333
  0
LINE
  8
0
 10
-74.8
 20
-533.333
 11
-74.8
 21
-538.333
  0
LINE
  8
0
 10
-74.8
 20
-538.333
 11
-71
 21
-538.333
  0
LINE
  8
0
 10
-71
 20
-538.333
 11
-71
 21
-549
  0
LINE
  8
0
 10
-71
 20
-549
 11
-74.8
 21
-549
  0
LINE
  8
0
 10
-74.8
 20
-549
 11
-74.8
 21
-554
  0
LINE
  8
0
 10
-74.8
 20
-554
 11
-71
 21
-554
  0
LINE
  8
0
 10
-71
 20
-554
 11
-71
 21
-564
  0
LINE
  8
0
 10
-71
 20
-564
 11
-61
 21
-564
  0
LINE
  8
0
 10
-61
 20
-564
 11
-61
 21
-567.8
  0
LINE
  8
0
 10
-61
 20
-567.8
 11
-56
 21
-567.8
  0
LINE
  8
0
 10
-56
 20
-567.8
 11
-56
 21
-564
  0
LINE
  8
0
 10
-50.5
 20
-555.4
 11
-50.5
 21
-500.6
  0
LINE
  8
0
 10
-50.5
 20
-500.6
 11
58.5
 21
-500.6
  0
LINE
  8
0
 10
58.5
 20
-500.6
 11
58.5
 21
-555.4
  0
LINE
  8
0
 10
58.5
 20
-555.4
 11
-50.5
 21
-555.4
  0
LINE
  8
0
 10
-57.4787
 20
-506.256
 11
-57.6974
 21
-506.185
  0
LINE
  8
0
 10
-57.6974
 20
-506.185
 11
-57.8966
 21
-506.07
  0
LINE
  8
0
 10
-57.8966
 20
-506.07
 11
-58.0675
 21
-505.916
  0
LINE
  8
0
 10
-58.0675
 20
-505.916
 11
-58.2026
 21
-505.73
  0
LINE
  8
0
 10
-58.2026
 20
-505.73
 11
-58.2962
 21
-505.52
  0
LINE
  8
0
 10
-58.2962
 20
-505.52
 11
-58.344
 21
-505.295
  0
LINE
  8
0
 10
-58.344
 20
-505.295
 11
-58.344
 21
-505.065
  0
LINE
  8
0
 10
-58.344
 20
-505.065
 11
-58.2962
 21
-504.84
  0
LINE
  8
0
 10
-58.2962
 20
-504.84
 11
-58.2026
 21
-504.63
  0
LINE
  8
0
 10
-58.2026
 20
-504.63
 11
-58.0675
 21
-504.444
  0
LINE
  8
0
 10
-58.0675
 20
-504.444
 11
-57.8966
 21
-504.29
  0
LINE
  8
0
 10
-57.8966
 20
-504.29
 11
-57.6974
 21
-504.175
  0
LINE
  8
0
 10
-57.6974
 20
-504.175
 11
-57.4787
 21
-504.104
  0
LINE
  8
0
 10
-57.4787
 20
-504.104
 11
-57.25
 21
-504.08
  0
LINE
  8
0
 10
-57.25
 20
-504.08
 11
-57.0213
 21
-504.104
  0
LINE
  8
0
 10
-57.0213
 20
-504.104
 11
-56.8026
 21
-504.175
  0
LINE
  8
0
 10
-56.8026
 20
-504.175
 11
-56.6034
 21
-504.29
  0
LINE
  8
0
 10
-56.6034
 20
-504.29
 11
-56.4325
 21
-504.444
  0
LINE
  8
0
 10
-56.4325
 20
-504.444
 11
-56.2974
 21
-504.63
  0
LINE
  8
0
 10
-56.2974
 20
-504.63
 11
-56.2038
 21
-504.84
  0
LINE
  8
0
 10
-56.2038
 20
-504.84
 11
-56.156
 21
-505.065
  0
LINE
  8
0
 10
-56.156
 20
-505.065
 11
-56.156
 21
-505.295
  0
LINE
  8
0
 10
-56.156
 20
-505.295
 11
-56.2038
 21
-505.52
  0
LINE
  8
0
 10
-56.2038
 20
-505.52
 11
-56.2974
 21
-505.73
  0
LINE
  8
0
 10
-56.2974
 20
-505.73
 11
-56.4325
 21
-505.916
  0
LINE
  8
0
 10
-56.4325
 20
-505.916
 11
-56.6034
 21
-506.07
  0
LINE
  8
0
 10
-56.6034
 20
-506.07
 11
-56.8026
 21
-506.185
  0
LINE
  8
0
 10
-56.8026
 20
-506.185
 11
-57.0213
 21
-506.256
  0
LINE
  8
0
 10
-57.0213
 20
-506.256
 11
-57.25
 21
-506.28
  0
LINE
  8
0
 10
-57.25
 20
-506.28
 11
-57.4787
 21
-506.256
  0
LINE
  8
0
 10
65.0213
 20
-506.256
 11
64.8026
 21
-506.185
  0
LINE
  8
0
 10
64.8026
 20
-506.185
 11
64.6034
 21
-506.07
  0
LINE
  8
0
 10
64.6034
 20
-506.07
 11
64.4325
 21
-505.916
  0
LINE
  8
0
 10
64.4325
 20
-505.916
 11
64.2974
 21
-505.73
  0
LINE
  8
0
 10
64.2974
 20
-505.73
 11
64.2038
 21
-505.52
  0
LINE
  8
0
 10
64.2038
 20
-505.52
 11
64.156
 21
-505.295
  0
LINE
  8
0
 10
64.156
 20
-505.295
 11
64.156
 21
-505.065
  0
LINE
  8
0
 10
64.156
 20
-505.065
 11
64.2038
 21
-504.84
  0
LINE
  8
0
 10
64.2038
 20
-504.84
 11
64.2974
 21
-504.63
  0
LINE
  8
0
 10
64.2974
 20
-504.63
 11
64.4325
 21
-504.444
  0
LINE
  8
0
 10
64.4325
 20
-504.444
 11
64.6034
 21
-504.29
  0
LINE
  8
0
 10
64.6034
 20
-504.29
 11
64.8026
 21
-504.175
  0
LINE
  8
0
 10
64.8026
 20
-504.175
 11
65.0213
 21
-504.104
  0
LINE
  8
0
 10
65.0213
 20
-504.104
 11
65.25
 21
-504.08
  0
LINE
  8
0
 10
65.25
 20
-504.08
 11
65.4787
 21
-504.104
  0
LINE
  8
0
 10
65.4787
 20
-504.104
 11
65.6974
 21
-504.175
  0
LINE
  8
0
 10
65.6974
 20
-504.175
 11
65.8966
 21
-504.29
  0
LINE
  8
0
 10
65.8966
 20
-504.29
 11
66.0675
 21
-504.444
  0
LINE
  8
0
 10
66.0675
 20
-504.444
 11
66.2026
 21
-504.63
  0
LINE
  8
0
 10
66.2026
 20
-504.63
 11
66.2962
 21
-504.84
  0
LINE
  8
0
 10
66.2962
 20
-504.84
 11
66.344
 21
-505.065
  0
LINE
  8
0
 10
66.344
 20
-505.065
 11
66.344
 21
-505.295
  0
LINE
  8
0
 10
66.344
 20
-505.295
 11
66.2962
 21
-505.52
  0
LINE
  8
0
 10
66.2962
 20
-505.52
 11
66.2026
 21
-505.73
  0
LINE
  8
0
 10
66.2026
 20
-505.73
 11
66.0675
 21
-505.916
  0
LINE
  8
0
 10
66.0675
 20
-505.916
 11
65.8966
 21
-506.07
  0
LINE
  8
0
 10
65.8966
 20
-506.07
 11
65.6974
 21
-506.185
  0
LINE
  8
0
 10
65.6974
 20
-506.185
 11
65.4787
 21
-506.256
  0
LINE
  8
0
 10
65.4787
 20
-506.256
 11
65.25
 21
-506.28
  0
LINE
  8
0
 10
65.25
 20
-506.28
 11
65.0213
 21
-506.256
  0
LINE
  8
0
 10
65.0213
 20
-511.336
 11
64.8026
 21
-511.265
  0
LINE
  8
0
 10
64.8026
 20
-511.265
 11
64.6034
 21
-511.15
  0
LINE
  8
0
 10
64.6034
 20
-511.15
 11
64.4325
 21
-510.996
  0
LINE
  8
0
 10
64.4325
 20
-510.996
 11
64.2974
 21
-510.81
  0
LINE
  8
0
 10
64.2974
 20
-510.81
 11
64.2038
 21
-510.6
  0
LINE
  8
0
 10
64.2038
 20
-510.6
 11
64.156
 21
-510.375
  0
LINE
  8
0
 10
64.156
 20
-510.375
 11
64.156
 21
-510.145
  0
LINE
  8
0
 10
64.156
 20
-510.145
 11
64.2038
 21
-509.92
  0
LINE
  8
0
 10
64.2038
 20
-509.92
 11
64.2974
 21
-509.71
  0
LINE
  8
0
 10
64.2974
 20
-509.71
 11
64.4325
 21
-509.524
  0
LINE
  8
0
 10
64.4325
 20
-509.524
 11
64.6034
 21
-509.37
  0
LINE
  8
0
 10
64.6034
 20
-509.37
 11
64.8026
 21
-509.255
  0
LINE
  8
0
 10
64.8026
 20
-509.255
 11
65.0213
 21
-509.184
  0
LINE
  8
0
 10
65.0213
 20
-509.184
 11
65.25
 21
-509.16
  0
LINE
  8
0
 10
65.25
 20
-509.16
 11
65.4787
 21
-509.184
  0
LINE
  8
0
 10
65.4787
 20
-509.184
 11
65.6974
 21
-509.255
  0
LINE
  8
0
 10
65.6974
 20
-509.255
 11
65.8966
 21
-509.37
  0
LINE
  8
0
 10
65.8966
 20
-509.37
 11
66.0675
 21
-509.524
  0
LINE
  8
0
 10
66.0675
 20
-509.524
 11
66.2026
 21
-509.71
  0
LINE
  8
0
 10
66.2026
 20
-509.71
 11
66.2962
 21
-509.92
  0
LINE
  8
0
 10
66.2962
 20
-509.92
 11
66.344
 21
-510.145
  0
LINE
  8
0
 10
66.344
 20
-510.145
 11
66.344
 21
-510.375
  0
LINE
  8
0
 10
66.344
 20
-510.375
 11
66.2962
 21
-510.6
  0
LINE
  8
0
 10
66.2962
 20
-510.6
 11
66.2026
 21
-510.81
  0
LINE
  8
0
 10
66.2026
 20
-510.81
 11
66.0675
 21
-510.996
  0
LINE
  8
0
 10
66.0675
 20
-510.996
 11
65.8966
 21
-511.15
  0
LINE
  8
0
 10
65.8966
 20
-511.15
 11
65.6974
 21
-511.265
  0
LINE
  8
0
 10
65.6974
 20
-511.265
 11
65.4787
 21
-511.336
  0
LINE
  8
0
 10
65.4787
 20
-511.336
 11
65.25
 21
-511.36
  0
LINE
  8
0
 10
65.25
 20
-511.36
 11
65.0213
 21
-511.336
  0
LINE
  8
0
 10
-57.4787
 20
-511.336
 11
-57.6974
 21
-511.265
  0
LINE
  8
0
 10
-57.6974
 20
-511.265
 11
-57.8966
 21
-511.15
  0
LINE
  8
0
 10
-57.8966
 20
-511.15
 11
-58.0675
 21
-510.996
  0
LINE
  8
0
 10
-58.0675
 20
-510.996
 11
-58.2026
 21
-510.81
  0
LINE
  8
0
 10
-58.2026
 20
-510.81
 11
-58.2962
 21
-510.6
  0
LINE
  8
0
 10
-58.2962
 20
-510.6
 11
-58.344
 21
-510.375
  0
LINE
  8
0
 10
-58.344
 20
-510.375
 11
-58.344
 21
-510.145
  0
LINE
  8
0
 10
-58.344
 20
-510.145
 11
-58.2962
 21
-509.92
  0
LINE
  8
0
 10
-58.2962
 20
-509.92
 11
-58.2026
 21
-509.71
  0
LINE
  8
0
 10
-58.2026
 20
-509.71
 11
-58.0675
 21
-509.524
  0
LINE
  8
0
 10
-58.0675
 20
-509.524
 11
-57.8966
 21
-509.37
  0
LINE
  8
0
 10
-57.8966
 20
-509.37
 11
-57.6974
 21
-509.255
  0
LINE
  8
0
 10
-57.6974
 20
-509.255
 11
-57.4787
 21
-509.184
  0
LINE
  8
0
 10
-57.4787
 20
-509.184
 11
-57.25
 21
-509.16
  0
LINE
  8
0
 10
-57.25
 20
-509.16
 11
-57.0213
 21
-509.184
  0
LINE
  8
0
 10
-57.0213
 20
-509.184
 11
-56.8026
 21
-509.255
  0
LINE
  8
0
 10
-56.8026
 20
-509.255
 11
-56.6034
 21
-509.37
  0
LINE
  8
0
 10
-56.6034
 20
-509.37
 11
-56.4325
 21
-509.524
  0
LINE
  8
0
 10
-56.4325
 20
-509.524
 11
-56.2974
 21
-509.71
  0
LINE
  8
0
 10
-56.2974
 20
-509.71
 11
-56.2038
 21
-509.92
  0
LINE
  8
0
 10
-56.2038
 20
-509.92
 11
-56.156
 21
-510.145
  0
LINE
  8
0
 10
-56.156
 20
-510.145
 11
-56.156
 21
-510.375
  0
LINE
  8
0
 10
-56.156
 20
-510.375
 11
-56.2038
 21
-510.6
  0
LINE
  8
0
 10
-56.2038
 20
-510.6
 11
-56.2974
 21
-510.81
  0
LINE
  8
0
 10
-56.2974
 20
-510.81
 11
-56.4325
 21
-510.996
  0
LINE
  8
0
 10
-56.4325
 20
-510.996
 11
-56.6034
 21
-511.15
  0
LINE
  8
0
 10
-56.6034
 20
-511.15
 11
-56.8026
 21
-511.265
  0
LINE
  8
0
 10
-56.8026
 20
-511.265
 11
-57.0213
 21
-511.336
  0
LINE
  8
0
 10
-57.0213
 20
-511.336
 11
-57.25
 21
-511.36
  0
LINE
  8
0
 10
-57.25
 20
-511.36
 11
-57.4787
 21
-511.336
  0
LINE
  8
0
 10
-57.4787
 20
-516.416
 11
-57.6974
 21
-516.345
  0
LINE
  8
0
 10
-57.6974
 20
-516.345
 11
-57.8966
 21
-516.23
  0
LINE
  8
0
 10
-57.8966
 20
-516.23
 11
-58.0675
 21
-516.076
  0
LINE
  8
0
 10
-58.0675
 20
-516.076
 11
-58.2026
 21
-515.89
  0
LINE
  8
0
 10
-58.2026
 20
-515.89
 11
-58.2962
 21
-515.68
  0
LINE
  8
0
 10
-58.2962
 20
-515.68
 11
-58.344
 21
-515.455
  0
LINE
  8
0
 10
-58.344
 20
-515.455
 11
-58.344
 21
-515.225
  0
LINE
  8
0
 10
-58.344
 20
-515.225
 11
-58.2962
 21
-515
  0
LINE
  8
0
 10
-58.2962
 20
-515
 11
-58.2026
 21
-514.79
  0
LINE
  8
0
 10
-58.2026
 20
-514.79
 11
-58.0675
 21
-514.604
  0
LINE
  8
0
 10
-58.0675
 20
-514.604
 11
-57.8966
 21
-514.45
  0
LINE
  8
0
 10
-57.8966
 20
-514.45
 11
-57.6974
 21
-514.335
  0
LINE
  8
0
 10
-57.6974
 20
-514.335
 11
-57.4787
 21
-514.264
  0
LINE
  8
0
 10
-57.4787
 20
-514.264
 11
-57.25
 21
-514.24
  0
LINE
  8
0
 10
-57.25
 20
-514.24
 11
-57.0213
 21
-514.264
  0
LINE
  8
0
 10
-57.0213
 20
-514.264
 11
-56.8026
 21
-514.335
  0
LINE
  8
0
 10
-56.8026
 20
-514.335
 11
-56.6034
 21
-514.45
  0
LINE
  8
0
 10
-56.6034
 20
-514.45
 11
-56.4325
 21
-514.604
  0
LINE
  8
0
 10
-56.4325
 20
-514.604
 11
-56.2974
 21
-514.79
  0
LINE
  8
0
 10
-56.2974
 20
-514.79
 11
-56.2038
 21
-515
  0
LINE
  8
0
 10
-56.2038
 20
-515
 11
-56.156
 21
-515.225
  0
LINE
  8
0
 10
-56.156
 20
-515.225
 11
-56.156
 21
-515.455
  0
LINE
  8
0
 10
-56.156
 20
-515.455
 11
-56.2038
 21
-515.68
  0
LINE
  8
0
 10
-56.2038
 20
-515.68
 11
-56.2974
 21
-515.89
  0
LINE
  8
0
 10
-56.2974
 20
-515.89
 11
-56.4325
 21
-516.076
  0
LINE
  8
0
 10
-56.4325
 20
-516.076
 11
-56.6034
 21
-516.23
  0
LINE
  8
0
 10
-56.6034
 20
-516.23
 11
-56.8026
 21
-516.345
  0
LINE
  8
0
 10
-56.8026
 20
-516.345
 11
-57.0213
 21
-516.416
  0
LINE
  8
0
 10
-57.0213
 20
-516.416
 11
-57.25
 21
-516.44
  0
LINE
  8
0
 10
-57.25
 20
-516.44
 11
-57.4787
 21
-516.416
  0
LINE
  8
0
 10
65.0213
 20
-516.416
 11
64.8026
 21
-516.345
  0
LINE
  8
0
 10
64.8026
 20
-516.345
 11
64.6034
 21
-516.23
  0
LINE
  8
0
 10
64.6034
 20
-516.23
 11
64.4325
 21
-516.076
  0
LINE
  8
0
 10
64.4325
 20
-516.076
 11
64.2974
 21
-515.89
  0
LINE
  8
0
 10
64.2974
 20
-515.89
 11
64.2038
 21
-515.68
  0
LINE
  8
0
 10
64.2038
 20
-515.68
 11
64.156
 21
-515.455
  0
LINE
  8
0
 10
64.156
 20
-515.455
 11
64.156
 21
-515.225
  0
LINE
  8
0
 10
64.156
 20
-515.225
 11
64.2038
 21
-515
  0
LINE
  8
0
 10
64.2038
 20
-515
 11
64.2974
 21
-514.79
  0
LINE
  8
0
 10
64.2974
 20
-514.79
 11
64.4325
 21
-514.604
  0
LINE
  8
0
 10
64.4325
 20
-514.604
 11
64.6034
 21
-514.45
  0
LINE
  8
0
 10
64.6034
 20
-514.45
 11
64.8026
 21
-514.335
  0
LINE
  8
0
 10
64.8026
 20
-514.335
 11
65.0213
 21
-514.264
  0
LINE
  8
0
 10
65.0213
 20
-514.264
 11
65.25
 21
-514.24
  0
LINE
  8
0
 10
65.25
 20
-514.24
 11
65.4787
 21
-514.264
  0
LINE
  8
0
 10
65.4787
 20
-514.264
 11
65.6974
 21
-514.335
  0
LINE
  8
0
 10
65.6974
 20
-514.335
 11
65.8966
 21
-514.45
  0
LINE
  8
0
 10
65.8966
 20
-514.45
 11
66.0675
 21
-514.604
  0
LINE
  8
0
 10
66.0675
 20
-514.604
 11
66.2026
 21
-514.79
  0
LINE
  8
0
 10
66.2026
 20
-514.79
 11
66.2962
 21
-515
  0
LINE
  8
0
 10
66.2962
 20
-515
 11
66.344
 21
-515.225
  0
LINE
  8
0
 10
66.344
 20
-515.225
 11
66.344
 21
-515.455
  0
LINE
  8
0
 10
66.344
 20
-515.455
 11
66.2962
 21
-515.68
  0
LINE
  8
0
 10
66.2962
 20
-515.68
 11
66.2026
 21
-515.89
  0
LINE
  8
0
 10
66.2026
 20
-515.89
 11
66.0675
 21
-516.076
  0
LINE
  8
0
 10
66.0675
 20
-516.076
 11
65.8966
 21
-516.23
  0
LINE
  8
0
 10
65.8966
 20
-516.23
 11
65.6974
 21
-516.345
  0
LINE
  8
0
 10
65.6974
 20
-516.345
 11
65.4787
 21
-516.416
  0
LINE
  8
0
 10
65.4787
 20
-516.416
 11
65.25
 21
-516.44
  0
LINE
  8
0
 10
65.25
 20
-516.44
 11
65.0213
 21
-516.416
  0
LINE
  8
0
 10
65.0213
 20
-521.496
 11
64.8026
 21
-521.425
  0
LINE
  8
0
 10
64.8026
 20
-521.425
 11
64.6034
 21
-521.31
  0
LINE
  8
0
 10
64.6034
 20
-521.31
 11
64.4325
 21
-521.156
  0
LINE
  8
0
 10
64.4325
 20
-521.156
 11
64.2974
 21
-520.97
  0
LINE
  8
0
 10
64.2974
 20
-520.97
 11
64.2038
 21
-520.76
  0
LINE
  8
0
 10
64.2038
 20
-520.76
 11
64.156
 21
-520.535
  0
LINE
  8
0
 10
64.156
 20
-520.535
 11
64.156
 21
-520.305
  0
LINE
  8
0
 10
64.156
 20
-520.305
 11
64.2038
 21
-520.08
  0
LINE
  8
0
 10
64.2038
 20
-520.08
 11
64.2974
 21
-519.87
  0
LINE
  8
0
 10
64.2974
 20
-519.87
 11
64.4325
 21
-519.684
  0
LINE
  8
0
 10
64.4325
 20
-519.684
 11
64.6034
 21
-519.53
  0
LINE
  8
0
 10
64.6034
 20
-519.53
 11
64.8026
 21
-519.415
  0
LINE
  8
0
 10
64.8026
 20
-519.415
 11
65.0213
 21
-519.344
  0
LINE
  8
0
 10
65.0213
 20
-519.344
 11
65.25
 21
-519.32
  0
LINE
  8
0
 10
65.25
 20
-519.32
 11
65.4787
 21
-519.344
  0
LINE
  8
0
 10
65.4787
 20
-519.344
 11
65.6974
 21
-519.415
  0
LINE
  8
0
 10
65.6974
 20
-519.415
 11
65.8966
 21
-519.53
  0
LINE
  8
0
 10
65.8966
 20
-519.53
 11
66.0675
 21
-519.684
  0
LINE
  8
0
 10
66.0675
 20
-519.684
 11
66.2026
 21
-519.87
  0
LINE
  8
0
 10
66.2026
 20
-519.87
 11
66.2962
 21
-520.08
  0
LINE
  8
0
 10
66.2962
 20
-520.08
 11
66.344
 21
-520.305
  0
LINE
  8
0
 10
66.344
 20
-520.305
 11
66.344
 21
-520.535
  0
LINE
  8
0
 10
66.344
 20
-520.535
 11
66.2962
 21
-520.76
  0
LINE
  8
0
 10
66.2962
 20
-520.76
 11
66.2026
 21
-520.97
  0
LINE
  8
0
 10
66.2026
 20
-520.97
 11
66.0675
 21
-521.156
  0
LINE
  8
0
 10
66.0675
 20
-521.156
 11
65.8966
 21
-521.31
  0
LINE
  8
0
 10
65.8966
 20
-521.31
 11
65.6974
 21
-521.425
  0
LINE
  8
0
 10
65.6974
 20
-521.425
 11
65.4787
 21
-521.496
  0
LINE
  8
0
 10
65.4787
 20
-521.496
 11
65.25
 21
-521.52
  0
LINE
  8
0
 10
65.25
 20
-521.52
 11
65.0213
 21
-521.496
  0
LINE
  8
0
 10
-57.4787
 20
-521.496
 11
-57.6974
 21
-521.425
  0
LINE
  8
0
 10
-57.6974
 20
-521.425
 11
-57.8966
 21
-521.31
  0
LINE
  8
0
 10
-57.8966
 20
-521.31
 11
-58.0675
 21
-521.156
  0
LINE
  8
0
 10
-58.0675
 20
-521.156
 11
-58.2026
 21
-520.97
  0
LINE
  8
0
 10
-58.2026
 20
-520.97
 11
-58.2962
 21
-520.76
  0
LINE
  8
0
 10
-58.2962
 20
-520.76
 11
-58.344
 21
-520.535
  0
LINE
  8
0
 10
-58.344
 20
-520.535
 11
-58.344
 21
-520.305
  0
LINE
  8
0
 10
-58.344
 20
-520.305
 11
-58.2962
 21
-520.08
  0
LINE
  8
0
 10
-58.2962
 20
-520.08
 11
-58.2026
 21
-519.87
  0
LINE
  8
0
 10
-58.2026
 20
-519.87
 11
-58.0675
 21
-519.684
  0
LINE
  8
0
 10
-58.0675
 20
-519.684
 11
-57.8966
 21
-519.53
  0
LINE
  8
0
 10
-57.8966
 20
-519.53
 11
-57.6974
 21
-519.415
  0
LINE
  8
0
 10
-57.6974
 20
-519.415
 11
-57.4787
 21
-519.344
  0
LINE
  8
0
 10
-57.4787
 20
-519.344
 11
-57.25
 21
-519.32
  0
LINE
  8
0
 10
-57.25
 20
-519.32
 11
-57.0213
 21
-519.344
  0
LINE
  8
0
 10
-57.0213
 20
-519.344
 11
-56.8026
 21
-519.415
  0
LINE
  8
0
 10
-56.8026
 20
-519.415
 11
-56.6034
 21
-519.53
  0
LINE
  8
0
 10
-56.6034
 20
-519.53
 11
-56.4325
 21
-519.684
  0
LINE
  8
0
 10
-56.4325
 20
-519.684
 11
-56.2974
 21
-519.87
  0
LINE
  8
0
 10
-56.2974
 20
-519.87
 11
-56.2038
 21
-520.08
  0
LINE
  8
0
 10
-56.2038
 20
-520.08
 11
-56.156
 21
-520.305
  0
LINE
  8
0
 10
-56.156
 20
-520.305
 11
-56.156
 21
-520.535
  0
LINE
  8
0
 10
-56.156
 20
-520.535
 11
-56.2038
 21
-520.76
  0
LINE
  8
0
 10
-56.2038
 20
-520.76
 11
-56.2974
 21
-520.97
  0
LINE
  8
0
 10
-56.2974
 20
-520.97
 11
-56.4325
 21
-521.156
  0
LINE
  8
0
 10
-56.4325
 20
-521.156
 11
-56.6034
 21
-521.31
  0
LINE
  8
0
 10
-56.6034
 20
-521.31
 11
-56.8026
 21
-521.425
  0
LINE
  8
0
 10
-56.8026
 20
-521.425
 11
-57.0213
 21
-521.496
  0
LINE
  8
0
 10
-57.0213
 20
-521.496
 11
-57.25
 21
-521.52
  0
LINE
  8
0
 10
-57.25
 20
-521.52
 11
-57.4787
 21
-521.496
  0
LINE
  8
0
 10
-57.4787
 20
-526.576
 11
-57.6974
 21
-526.505
  0
LINE
  8
0
 10
-57.6974
 20
-526.505
 11
-57.8966
 21
-526.39
  0
LINE
  8
0
 10
-57.8966
 20
-526.39
 11
-58.0675
 21
-526.236
  0
LINE
  8
0
 10
-58.0675
 20
-526.236
 11
-58.2026
 21
-526.05
  0
LINE
  8
0
 10
-58.2026
 20
-526.05
 11
-58.2962
 21
-525.84
  0
LINE
  8
0
 10
-58.2962
 20
-525.84
 11
-58.344
 21
-525.615
  0
LINE
  8
0
 10
-58.344
 20
-525.615
 11
-58.344
 21
-525.385
  0
LINE
  8
0
 10
-58.344
 20
-525.385
 11
-58.2962
 21
-525.16
  0
LINE
  8
0
 10
-58.2962
 20
-525.16
 11
-58.2026
 21
-524.95
  0
LINE
  8
0
 10
-58.2026
 20
-524.95
 11
-58.0675
 21
-524.764
  0
LINE
  8
0
 10
-58.0675
 20
-524.764
 11
-57.8966
 21
-524.61
  0
LINE
  8
0
 10
-57.8966
 20
-524.61
 11
-57.6974
 21
-524.495
  0
LINE
  8
0
 10
-57.6974
 20
-524.495
 11
-57.4787
 21
-524.424
  0
LINE
  8
0
 10
-57.4787
 20
-524.424
 11
-57.25
 21
-524.4
  0
LINE
  8
0
 10
-57.25
 20
-524.4
 11
-57.0213
 21
-524.424
  0
LINE
  8
0
 10
-57.0213
 20
-524.424
 11
-56.8026
 21
-524.495
  0
LINE
  8
0
 10
-56.8026
 20
-524.495
 11
-56.6034
 21
-524.61
  0
LINE
  8
0
 10
-56.6034
 20
-524.61
 11
-56.4325
 21
-524.764
  0
LINE
  8
0
 10
-56.4325
 20
-524.764
 11
-56.2974
 21
-524.95
  0
LINE
  8
0
 10
-56.2974
 20
-524.95
 11
-56.2038
 21
-525.16
  0
LINE
  8
0
 10
-56.2038
 20
-525.16
 11
-56.156
 21
-525.385
  0
LINE
  8
0
 10
-56.156
 20
-525.385
 11
-56.156
 21
-525.615
  0
LINE
  8
0
 10
-56.156
 20
-525.615
 11
-56.2038
 21
-525.84
  0
LINE
  8
0
 10
-56.2038
 20
-525.84
 11
-56.2974
 21
-526.05
  0
LINE
  8
0
 10
-56.2974
 20
-526.05
 11
-56.4325
 21
-526.236
  0
LINE
  8
0
 10
-56.4325
 20
-526.236
 11
-56.6034
 21
-526.39
  0
LINE
  8
0
 10
-56.6034
 20
-526.39
 11
-56.8026
 21
-526.505
  0
LINE
  8
0
 10
-56.8026
 20
-526.505
 11
-57.0213
 21
-526.576
  0
LINE
  8
0
 10
-57.0213
 20
-526.576
 11
-57.25
 21
-526.6
  0
LINE
  8
0
 10
-57.25
 20
-526.6
 11
-57.4787
 21
-526.576
  0
LINE
  8
0
 10
65.0213
 20
-526.576
 11
64.8026
 21
-526.505
  0
LINE
  8
0
 10
64.8026
 20
-526.505
 11
64.6034
 21
-526.39
  0
LINE
  8
0
 10
64.6034
 20
-526.39
 11
64.4325
 21
-526.236
  0
LINE
  8
0
 10
64.4325
 20
-526.236
 11
64.2974
 21
-526.05
  0
LINE
  8
0
 10
64.2974
 20
-526.05
 11
64.2038
 21
-525.84
  0
LINE
  8
0
 10
64.2038
 20
-525.84
 11
64.156
 21
-525.615
  0
LINE
  8
0
 10
64.156
 20
-525.615
 11
64.156
 21
-525.385
  0
LINE
  8
0
 10
64.156
 20
-525.385
 11
64.2038
 21
-525.16
  0
LINE
  8
0
 10
64.2038
 20
-525.16
 11
64.2974
 21
-524.95
  0
LINE
  8
0
 10
64.2974
 20
-524.95
 11
64.4325
 21
-524.764
  0
LINE
  8
0
 10
64.4325
 20
-524.764
 11
64.6034
 21
-524.61
  0
LINE
  8
0
 10
64.6034
 20
-524.61
 11
64.8026
 21
-524.495
  0
LINE
  8
0
 10
64.8026
 20
-524.495
 11
65.0213
 21
-524.424
  0
LINE
  8
0
 10
65.0213
 20
-524.424
 11
65.25
 21
-524.4
  0
LINE
  8
0
 10
65.25
 20
-524.4
 11
65.4787
 21
-524.424
  0
LINE
  8
0
 10
65.4787
 20
-524.424
 11
65.6974
 21
-524.495
  0
LINE
  8
0
 10
65.6974
 20
-524.495
 11
65.8966
 21
-524.61
  0
LINE
  8
0
 10
65.8966
 20
-524.61
 11
66.0675
 21
-524.764
  0
LINE
  8
0
 10
66.0675
 20
-524.764
 11
66.2026
 21
-524.95
  0
LINE
  8
0
 10
66.2026
 20
-524.95
 11
66.2962
 21
-525.16
  0
LINE
  8
0
 10
66.2962
 20
-525.16
 11
66.344
 21
-525.385
  0
LINE
  8
0
 10
66.344
 20
-525.385
 11
66.344
 21
-525.615
  0
LINE
  8
0
 10
66.344
 20
-525.615
 11
66.2962
 21
-525.84
  0
LINE
  8
0
 10
66.2962
 20
-525.84
 11
66.2026
 21
-526.05
  0
LINE
  8
0
 10
66.2026
 20
-526.05
 11
66.0675
 21
-526.236
  0
LINE
  8
0
 10
66.0675
 20
-526.236
 11
65.8966
 21
-526.39
  0
LINE
  8
0
 10
65.8966
 20
-526.39
 11
65.6974
 21
-526.505
  0
LINE
  8
0
 10
65.6974
 20
-526.505
 11
65.4787
 21
-526.576
  0
LINE
  8
0
 10
65.4787
 20
-526.576
 11
65.25
 21
-526.6
  0
LINE
  8
0
 10
65.25
 20
-526.6
 11
65.0213
 21
-526.576
  0
LINE
  8
0
 10
65.0213
 20
-531.656
 11
64.8026
 21
-531.585
  0
LINE
  8
0
 10
64.8026
 20
-531.585
 11
64.6034
 21
-531.47
  0
LINE
  8
0
 10
64.6034
 20
-531.47
 11
64.4325
 21
-531.316
  0
LINE
  8
0
 10
64.4325
 20
-531.316
 11
64.2974
 21
-531.13
  0
LINE
  8
0
 10
64.2974
 20
-531.13
 11
64.2038
 21
-530.92
  0
LINE
  8
0
 10
64.2038
 20
-530.92
 11
64.156
 21
-530.695
  0
LINE
  8
0
 10
64.156
 20
-530.695
 11
64.156
 21
-530.465
  0
LINE
  8
0
 10
64.156
 20
-530.465
 11
64.2038
 21
-530.24
  0
LINE
  8
0
 10
64.2038
 20
-530.24
 11
64.2974
 21
-530.03
  0
LINE
  8
0
 10
64.2974
 20
-530.03
 11
64.4325
 21
-529.844
  0
LINE
  8
0
 10
64.4325
 20
-529.844
 11
64.6034
 21
-529.69
  0
LINE
  8
0
 10
64.6034
 20
-529.69
 11
64.8026
 21
-529.575
  0
LINE
  8
0
 10
64.8026
 20
-529.575
 11
65.0213
 21
-529.504
  0
LINE
  8
0
 10
65.0213
 20
-529.504
 11
65.25
 21
-529.48
  0
LINE
  8
0
 10
65.25
 20
-529.48
 11
65.4787
 21
-529.504
  0
LINE
  8
0
 10
65.4787
 20
-529.504
 11
65.6974
 21
-529.575
  0
LINE
  8
0
 10
65.6974
 20
-529.575
 11
65.8966
 21
-529.69
  0
LINE
  8
0
 10
65.8966
 20
-529.69
 11
66.0675
 21
-529.844
  0
LINE
  8
0
 10
66.0675
 20
-529.844
 11
66.2026
 21
-530.03
  0
LINE
  8
0
 10
66.2026
 20
-530.03
 11
66.2962
 21
-530.24
  0
LINE
  8
0
 10
66.2962
 20
-530.24
 11
66.344
 21
-530.465
  0
LINE
  8
0
 10
66.344
 20
-530.465
 11
66.344
 21
-530.695
  0
LINE
  8
0
 10
66.344
 20
-530.695
 11
66.2962
 21
-530.92
  0
LINE
  8
0
 10
66.2962
 20
-530.92
 11
66.2026
 21
-531.13
  0
LINE
  8
0
 10
66.2026
 20
-531.13
 11
66.0675
 21
-531.316
  0
LINE
  8
0
 10
66.0675
 20
-531.316
 11
65.8966
 21
-531.47
  0
LINE
  8
0
 10
65.8966
 20
-531.47
 11
65.6974
 21
-531.585
  0
LINE
  8
0
 10
65.6974
 20
-531.585
 11
65.4787
 21
-531.656
  0
LINE
  8
0
 10
65.4787
 20
-531.656
 11
65.25
 21
-531.68
  0
LINE
  8
0
 10
65.25
 20
-531.68
 11
65.0213
 21
-531.656
  0
LINE
  8
0
 10
-57.4787
 20
-531.656
 11
-57.6974
 21
-531.585
  0
LINE
  8
0
 10
-57.6974
 20
-531.585
 11
-57.8966
 21
-531.47
  0
LINE
  8
0
 10
-57.8966
 20
-531.47
 11
-58.0675
 21
-531.316
  0
LINE
  8
0
 10
-58.0675
 20
-531.316
 11
-58.2026
 21
-531.13
  0
LINE
  8
0
 10
-58.2026
 20
-531.13
 11
-58.2962
 21
-530.92
  0
LINE
  8
0
 10
-58.2962
 20
-530.92
 11
-58.344
 21
-530.695
  0
LINE
  8
0
 10
-58.344
 20
-530.695
 11
-58.344
 21
-530.465
  0
LINE
  8
0
 10
-58.344
 20
-530.465
 11
-58.2962
 21
-530.24
  0
LINE
  8
0
 10
-58.2962
 20
-530.24
 11
-58.2026
 21
-530.03
  0
LINE
  8
0
 10
-58.2026
 20
-530.03
 11
-58.0675
 21
-529.844
  0
LINE
  8
0
 10
-58.0675
 20
-529.844
 11
-57.8966
 21
-529.69
  0
LINE
  8
0
 10
-57.8966
 20
-529.69
 11
-57.6974
 21
-529.575
  0
LINE
  8
0
 10
-57.6974
 20
-529.575
 11
-57.4787
 21
-529.504
  0
LINE
  8
0
 10
-57.4787
 20
-529.504
 11
-57.25
 21
-529.48
  0
LINE
  8
0
 10
-57.25
 20
-529.48
 11
-57.0213
 21
-529.504
  0
LINE
  8
0
 10
-57.0213
 20
-529.504
 11
-56.8026
 21
-529.575
  0
LINE
  8
0
 10
-56.8026
 20
-529.575
 11
-56.6034
 21
-529.69
  0
LINE
  8
0
 10
-56.6034
 20
-529.69
 11
-56.4325
 21
-529.844
  0
LINE
  8
0
 10
-56.4325
 20
-529.844
 11
-56.2974
 21
-530.03
  0
LINE
  8
0
 10
-56.2974
 20
-530.03
 11
-56.2038
 21
-530.24
  0
LINE
  8
0
 10
-56.2038
 20
-530.24
 11
-56.156
 21
-530.465
  0
LINE
  8
0
 10
-56.156
 20
-530.465
 11
-56.156
 21
-530.695
  0
LINE
  8
0
 10
-56.156
 20
-530.695
 11
-56.2038
 21
-530.92
  0
LINE
  8
0
 10
-56.2038
 20
-530.92
 11
-56.2974
 21
-531.13
  0
LINE
  8
0
 10
-56.2974
 20
-531.13
 11
-56.4325
 21
-531.316
  0
LINE
  8
0
 10
-56.4325
 20
-531.316
 11
-56.6034
 21
-531.47
  0
LINE
  8
0
 10
-56.6034
 20
-531.47
 11
-56.8026
 21
-531.585
  0
LINE
  8
0
 10
-56.8026
 20
-531.585
 11
-57.0213
 21
-531.656
  0
LINE
  8
0
 10
-57.0213
 20
-531.656
 11
-57.25
 21
-531.68
  0
LINE
  8
0
 10
-57.25
 20
-531.68
 11
-57.4787
 21
-531.656
  0
LINE
  8
0
 10
-57.4787
 20
-536.736
 11
-57.6974
 21
-536.665
  0
LINE
  8
0
 10
-57.6974
 20
-536.665
 11
-57.8966
 21
-536.55
  0
LINE
  8
0
 10
-57.8966
 20
-536.55
 11
-58.0675
 21
-536.396
  0
LINE
  8
0
 10
-58.0675
 20
-536.396
 11
-58.2026
 21
-536.21
  0
LINE
  8
0
 10
-58.2026
 20
-536.21
 11
-58.2962
 21
-536
  0
LINE
  8
0
 10
-58.2962
 20
-536
 11
-58.344
 21
-535.775
  0
LINE
  8
0
 10
-58.344
 20
-535.775
 11
-58.344
 21
-535.545
  0
LINE
  8
0
 10
-58.344
 20
-535.545
 11
-58.2962
 21
-535.32
  0
LINE
  8
0
 10
-58.2962
 20
-535.32
 11
-58.2026
 21
-535.11
  0
LINE
  8
0
 10
-58.2026
 20
-535.11
 11
-58.0675
 21
-534.924
  0
LINE
  8
0
 10
-58.0675
 20
-534.924
 11
-57.8966
 21
-534.77
  0
LINE
  8
0
 10
-57.8966
 20
-534.77
 11
-57.6974
 21
-534.655
  0
LINE
  8
0
 10
-57.6974
 20
-534.655
 11
-57.4787
 21
-534.584
  0
LINE
  8
0
 10
-57.4787
 20
-534.584
 11
-57.25
 21
-534.56
  0
LINE
  8
0
 10
-57.25
 20
-534.56
 11
-57.0213
 21
-534.584
  0
LINE
  8
0
 10
-57.0213
 20
-534.584
 11
-56.8026
 21
-534.655
  0
LINE
  8
0
 10
-56.8026
 20
-534.655
 11
-56.6034
 21
-534.77
  0
LINE
  8
0
 10
-56.6034
 20
-534.77
 11
-56.4325
 21
-534.924
  0
LINE
  8
0
 10
-56.4325
 20
-534.924
 11
-56.2974
 21
-535.11
  0
LINE
  8
0
 10
-56.2974
 20
-535.11
 11
-56.2038
 21
-535.32
  0
LINE
  8
0
 10
-56.2038
 20
-535.32
 11
-56.156
 21
-535.545
  0
LINE
  8
0
 10
-56.156
 20
-535.545
 11
-56.156
 21
-535.775
  0
LINE
  8
0
 10
-56.156
 20
-535.775
 11
-56.2038
 21
-536
  0
LINE
  8
0
 10
-56.2038
 20
-536
 11
-56.2974
 21
-536.21
  0
LINE
  8
0
 10
-56.2974
 20
-536.21
 11
-56.4325
 21
-536.396
  0
LINE
  8
0
 10
-56.4325
 20
-536.396
 11
-56.6034
 21
-536.55
  0
LINE
  8
0
 10
-56.6034
 20
-536.55
 11
-56.8026
 21
-536.665
  0
LINE
  8
0
 10
-56.8026
 20
-536.665
 11
-57.0213
 21
-536.736
  0
LINE
  8
0
 10
-57.0213
 20
-536.736
 11
-57.25
 21
-536.76
  0
LINE
  8
0
 10
-57.25
 20
-536.76
 11
-57.4787
 21
-536.736
  0
LINE
  8
0
 10
65.0213
 20
-536.736
 11
64.8026
 21
-536.665
  0
LINE
  8
0
 10
64.8026
 20
-536.665
 11
64.6034
 21
-536.55
  0
LINE
  8
0
 10
64.6034
 20
-536.55
 11
64.4325
 21
-536.396
  0
LINE
  8
0
 10
64.4325
 20
-536.396
 11
64.2974
 21
-536.21
  0
LINE
  8
0
 10
64.2974
 20
-536.21
 11
64.2038
 21
-536
  0
LINE
  8
0
 10
64.2038
 20
-536
 11
64.156
 21
-535.775
  0
LINE
  8
0
 10
64.156
 20
-535.775
 11
64.156
 21
-535.545
  0
LINE
  8
0
 10
64.156
 20
-535.545
 11
64.2038
 21
-535.32
  0
LINE
  8
0
 10
64.2038
 20
-535.32
 11
64.2974
 21
-535.11
  0
LINE
  8
0
 10
64.2974
 20
-535.11
 11
64.4325
 21
-534.924
  0
LINE
  8
0
 10
64.4325
 20
-534.924
 11
64.6034
 21
-534.77
  0
LINE
  8
0
 10
64.6034
 20
-534.77
 11
64.8026
 21
-534.655
  0
LINE
  8
0
 10
64.8026
 20
-534.655
 11
65.0213
 21
-534.584
  0
LINE
  8
0
 10
65.0213
 20
-534.584
 11
65.25
 21
-534.56
  0
LINE
  8
0
 10
65.25
 20
-534.56
 11
65.4787
 21
-534.584
  0
LINE
  8
0
 10
65.4787
 20
-534.584
 11
65.6974
 21
-534.655
  0
LINE
  8
0
 10
65.6974
 20
-534.655
 11
65.8966
 21
-534.77
  0
LINE
  8
0
 10
65.8966
 20
-534.77
 11
66.0675
 21
-534.924
  0
LINE
  8
0
 10
66.0675
 20
-534.924
 11
66.2026
 21
-535.11
  0
LINE
  8
0
 10
66.2026
 20
-535.11
 11
66.2962
 21
-535.32
  0
LINE
  8
0
 10
66.2962
 20
-535.32
 11
66.344
 21
-535.545
  0
LINE
  8
0
 10
66.344
 20
-535.545
 11
66.344
 21
-535.775
  0
LINE
  8
0
 10
66.344
 20
-535.775
 11
66.2962
 21
-536
  0
LINE
  8
0
 10
66.2962
 20
-536
 11
66.2026
 21
-536.21
  0
LINE
  8
0
 10
66.2026
 20
-536.21
 11
66.0675
 21
-536.396
  0
LINE
  8
0
 10
66.0675
 20
-536.396
 11
65.8966
 21
-536.55
  0
LINE
  8
0
 10
65.8966
 20
-536.55
 11
65.6974
 21
-536.665
  0
LINE
  8
0
 10
65.6974
 20
-536.665
 11
65.4787
 21
-536.736
  0
LINE
  8
0
 10
65.4787
 20
-536.736
 11
65.25
 21
-536.76
  0
LINE
  8
0
 10
65.25
 20
-536.76
 11
65.0213
 21
-536.736
  0
LINE
  8
0
 10
-57.4787
 20
-541.816
 11
-57.6974
 21
-541.745
  0
LINE
  8
0
 10
-57.6974
 20
-541.745
 11
-57.8966
 21
-541.63
  0
LINE
  8
0
 10
-57.8966
 20
-541.63
 11
-58.0675
 21
-541.476
  0
LINE
  8
0
 10
-58.0675
 20
-541.476
 11
-58.2026
 21
-541.29
  0
LINE
  8
0
 10
-58.2026
 20
-541.29
 11
-58.2962
 21
-541.08
  0
LINE
  8
0
 10
-58.2962
 20
-541.08
 11
-58.344
 21
-540.855
  0
LINE
  8
0
 10
-58.344
 20
-540.855
 11
-58.344
 21
-540.625
  0
LINE
  8
0
 10
-58.344
 20
-540.625
 11
-58.2962
 21
-540.4
  0
LINE
  8
0
 10
-58.2962
 20
-540.4
 11
-58.2026
 21
-540.19
  0
LINE
  8
0
 10
-58.2026
 20
-540.19
 11
-58.0675
 21
-540.004
  0
LINE
  8
0
 10
-58.0675
 20
-540.004
 11
-57.8966
 21
-539.85
  0
LINE
  8
0
 10
-57.8966
 20
-539.85
 11
-57.6974
 21
-539.735
  0
LINE
  8
0
 10
-57.6974
 20
-539.735
 11
-57.4787
 21
-539.664
  0
LINE
  8
0
 10
-57.4787
 20
-539.664
 11
-57.25
 21
-539.64
  0
LINE
  8
0
 10
-57.25
 20
-539.64
 11
-57.0213
 21
-539.664
  0
LINE
  8
0
 10
-57.0213
 20
-539.664
 11
-56.8026
 21
-539.735
  0
LINE
  8
0
 10
-56.8026
 20
-539.735
 11
-56.6034
 21
-539.85
  0
LINE
  8
0
 10
-56.6034
 20
-539.85
 11
-56.4325
 21
-540.004
  0
LINE
  8
0
 10
-56.4325
 20
-540.004
 11
-56.2974
 21
-540.19
  0
LINE
  8
0
 10
-56.2974
 20
-540.19
 11
-56.2038
 21
-540.4
  0
LINE
  8
0
 10
-56.2038
 20
-540.4
 11
-56.156
 21
-540.625
  0
LINE
  8
0
 10
-56.156
 20
-540.625
 11
-56.156
 21
-540.855
  0
LINE
  8
0
 10
-56.156
 20
-540.855
 11
-56.2038
 21
-541.08
  0
LINE
  8
0
 10
-56.2038
 20
-541.08
 11
-56.2974
 21
-541.29
  0
LINE
  8
0
 10
-56.2974
 20
-541.29
 11
-56.4325
 21
-541.476
  0
LINE
  8
0
 10
-56.4325
 20
-541.476
 11
-56.6034
 21
-541.63
  0
LINE
  8
0
 10
-56.6034
 20
-541.63
 11
-56.8026
 21
-541.745
  0
LINE
  8
0
 10
-56.8026
 20
-541.745
 11
-57.0213
 21
-541.816
  0
LINE
  8
0
 10
-57.0213
 20
-541.816
 11
-57.25
 21
-541.84
  0
LINE
  8
0
 10
-57.25
 20
-541.84
 11
-57.4787
 21
-541.816
  0
LINE
  8
0
 10
65.0213
 20
-541.816
 11
64.8026
 21
-541.745
  0
LINE
  8
0
 10
64.8026
 20
-541.745
 11
64.6034
 21
-541.63
  0
LINE
  8
0
 10
64.6034
 20
-541.63
 11
64.4325
 21
-541.476
  0
LINE
  8
0
 10
64.4325
 20
-541.476
 11
64.2974
 21
-541.29
  0
LINE
  8
0
 10
64.2974
 20
-541.29
 11
64.2038
 21
-541.08
  0
LINE
  8
0
 10
64.2038
 20
-541.08
 11
64.156
 21
-540.855
  0
LINE
  8
0
 10
64.156
 20
-540.855
 11
64.156
 21
-540.625
  0
LINE
  8
0
 10
64.156
 20
-540.625
 11
64.2038
 21
-540.4
  0
LINE
  8
0
 10
64.2038
 20
-540.4
 11
64.2974
 21
-540.19
  0
LINE
  8
0
 10
64.2974
 20
-540.19
 11
64.4325
 21
-540.004
  0
LINE
  8
0
 10
64.4325
 20
-540.004
 11
64.6034
 21
-539.85
  0
LINE
  8
0
 10
64.6034
 20
-539.85
 11
64.8026
 21
-539.735
  0
LINE
  8
0
 10
64.8026
 20
-539.735
 11
65.0213
 21
-539.664
  0
LINE
  8
0
 10
65.0213
 20
-539.664
 11
65.25
 21
-539.64
  0
LINE
  8
0
 10
65.25
 20
-539.64
 11
65.4787
 21
-539.664
  0
LINE
  8
0
 10
65.4787
 20
-539.664
 11
65.6974
 21
-539.735
  0
LINE
  8
0
 10
65.6974
 20
-539.735
 11
65.8966
 21
-539.85
  0
LINE
  8
0
 10
65.8966
 20
-539.85
 11
66.0675
 21
-540.004
  0
LINE
  8
0
 10
66.0675
 20
-540.004
 11
66.2026
 21
-540.19
  0
LINE
  8
0
 10
66.2026
 20
-540.19
 11
66.2962
 21
-540.4
  0
LINE
  8
0
 10
66.2962
 20
-540.4
 11
66.344
 21
-540.625
  0
LINE
  8
0
 10
66.344
 20
-540.625
 11
66.344
 21
-540.855
  0
LINE
  8
0
 10
66.344
 20
-540.855
 11
66.2962
 21
-541.08
  0
LINE
  8
0
 10
66.2962
 20
-541.08
 11
66.2026
 21
-541.29
  0
LINE
  8
0
 10
66.2026
 20
-541.29
 11
66.0675
 21
-541.476
  0
LINE
  8
0
 10
66.0675
 20
-541.476
 11
65.8966
 21
-541.63
  0
LINE
  8
0
 10
65.8966
 20
-541.63
 11
65.6974
 21
-541.745
  0
LINE
  8
0
 10
65.6974
 20
-541.745
 11
65.4787
 21
-541.816
  0
LINE
  8
0
 10
65.4787
 20
-541.816
 11
65.25
 21
-541.84
  0
LINE
  8
0
 10
65.25
 20
-541.84
 11
65.0213
 21
-541.816
  0
LINE
  8
0
 10
-57.4787
 20
-546.896
 11
-57.6974
 21
-546.825
  0
LINE
  8
0
 10
-57.6974
 20
-546.825
 11
-57.8966
 21
-546.71
  0
LINE
  8
0
 10
-57.8966
 20
-546.71
 11
-58.0675
 21
-546.556
  0
LINE
  8
0
 10
-58.0675
 20
-546.556
 11
-58.2026
 21
-546.37
  0
LINE
  8
0
 10
-58.2026
 20
-546.37
 11
-58.2962
 21
-546.16
  0
LINE
  8
0
 10
-58.2962
 20
-546.16
 11
-58.344
 21
-545.935
  0
LINE
  8
0
 10
-58.344
 20
-545.935
 11
-58.344
 21
-545.705
  0
LINE
  8
0
 10
-58.344
 20
-545.705
 11
-58.2962
 21
-545.48
  0
LINE
  8
0
 10
-58.2962
 20
-545.48
 11
-58.2026
 21
-545.27
  0
LINE
  8
0
 10
-58.2026
 20
-545.27
 11
-58.0675
 21
-545.084
  0
LINE
  8
0
 10
-58.0675
 20
-545.084
 11
-57.8966
 21
-544.93
  0
LINE
  8
0
 10
-57.8966
 20
-544.93
 11
-57.6974
 21
-544.815
  0
LINE
  8
0
 10
-57.6974
 20
-544.815
 11
-57.4787
 21
-544.744
  0
LINE
  8
0
 10
-57.4787
 20
-544.744
 11
-57.25
 21
-544.72
  0
LINE
  8
0
 10
-57.25
 20
-544.72
 11
-57.0213
 21
-544.744
  0
LINE
  8
0
 10
-57.0213
 20
-544.744
 11
-56.8026
 21
-544.815
  0
LINE
  8
0
 10
-56.8026
 20
-544.815
 11
-56.6034
 21
-544.93
  0
LINE
  8
0
 10
-56.6034
 20
-544.93
 11
-56.4325
 21
-545.084
  0
LINE
  8
0
 10
-56.4325
 20
-545.084
 11
-56.2974
 21
-545.27
  0
LINE
  8
0
 10
-56.2974
 20
-545.27
 11
-56.2038
 21
-545.48
  0
LINE
  8
0
 10
-56.2038
 20
-545.48
 11
-56.156
 21
-545.705
  0
LINE
  8
0
 10
-56.156
 20
-545.705
 11
-56.156
 21
-545.935
  0
LINE
  8
0
 10
-56.156
 20
-545.935
 11
-56.2038
 21
-546.16
  0
LINE
  8
0
 10
-56.2038
 20
-546.16
 11
-56.2974
 21
-546.37
  0
LINE
  8
0
 10
-56.2974
 20
-546.37
 11
-56.4325
 21
-546.556
  0
LINE
  8
0
 10
-56.4325
 20
-546.556
 11
-56.6034
 21
-546.71
  0
LINE
  8
0
 10
-56.6034
 20
-546.71
 11
-56.8026
 21
-546.825
  0
LINE
  8
0
 10
-56.8026
 20
-546.825
 11
-57.0213
 21
-546.896
  0
LINE
  8
0
 10
-57.0213
 20
-546.896
 11
-57.25
 21
-546.92
  0
LINE
  8
0
 10
-57.25
 20
-546.92
 11
-57.4787
 21
-546.896
  0
LINE
  8
0
 10
65.0213
 20
-546.896
 11
64.8026
 21
-546.825
  0
LINE
  8
0
 10
64.8026
 20
-546.825
 11
64.6034
 21
-546.71
  0
LINE
  8
0
 10
64.6034
 20
-546.71
 11
64.4325
 21
-546.556
  0
LINE
  8
0
 10
64.4325
 20
-546.556
 11
64.2974
 21
-546.37
  0
LINE
  8
0
 10
64.2974
 20
-546.37
 11
64.2038
 21
-546.16
  0
LINE
  8
0
 10
64.2038
 20
-546.16
 11
64.156
 21
-545.935
  0
LINE
  8
0
 10
64.156
 20
-545.935
 11
64.156
 21
-545.705
  0
LINE
  8
0
 10
64.156
 20
-545.705
 11
64.2038
 21
-545.48
  0
LINE
  8
0
 10
64.2038
 20
-545.48
 11
64.2974
 21
-545.27
  0
LINE
  8
0
 10
64.2974
 20
-545.27
 11
64.4325
 21
-545.084
  0
LINE
  8
0
 10
64.4325
 20
-545.084
 11
64.6034
 21
-544.93
  0
LINE
  8
0
 10
64.6034
 20
-544.93
 11
64.8026
 21
-544.815
  0
LINE
  8
0
 10
64.8026
 20
-544.815
 11
65.0213
 21
-544.744
  0
LINE
  8
0
 10
65.0213
 20
-544.744
 11
65.25
 21
-544.72
  0
LINE
  8
0
 10
65.25
 20
-544.72
 11
65.4787
 21
-544.744
  0
LINE
  8
0
 10
65.4787
 20
-544.744
 11
65.6974
 21
-544.815
  0
LINE
  8
0
 10
65.6974
 20
-544.815
 11
65.8966
 21
-544.93
  0
LINE
  8
0
 10
65.8966
 20
-544.93
 11
66.0675
 21
-545.084
  0
LINE
  8
0
 10
66.0675
 20
-545.084
 11
66.2026
 21
-545.27
  0
LINE
  8
0
 10
66.2026
 20
-545.27
 11
66.2962
 21
-545.48
  0
LINE
  8
0
 10
66.2962
 20
-545.48
 11
66.344
 21
-545.705
  0
LINE
  8
0
 10
66.344
 20
-545.705
 11
66.344
 21
-545.935
  0
LINE
  8
0
 10
66.344
 20
-545.935
 11
66.2962
 21
-546.16
  0
LINE
  8
0
 10
66.2962
 20
-546.16
 11
66.2026
 21
-546.37
  0
LINE
  8
0
 10
66.2026
 20
-546.37
 11
66.0675
 21
-546.556
  0
LINE
  8
0
 10
66.0675
 20
-546.556
 11
65.8966
 21
-546.71
  0
LINE
  8
0
 10
65.8966
 20
-546.71
 11
65.6974
 21
-546.825
  0
LINE
  8
0
 10
65.6974
 20
-546.825
 11
65.4787
 21
-546.896
  0
LINE
  8
0
 10
65.4787
 20
-546.896
 11
65.25
 21
-546.92
  0
LINE
  8
0
 10
65.25
 20
-546.92
 11
65.0213
 21
-546.896
  0
LINE
  8
0
 10
65.0213
 20
-551.976
 11
64.8026
 21
-551.905
  0
LINE
  8
0
 10
64.8026
 20
-551.905
 11
64.6034
 21
-551.79
  0
LINE
  8
0
 10
64.6034
 20
-551.79
 11
64.4325
 21
-551.636
  0
LINE
  8
0
 10
64.4325
 20
-551.636
 11
64.2974
 21
-551.45
  0
LINE
  8
0
 10
64.2974
 20
-551.45
 11
64.2038
 21
-551.24
  0
LINE
  8
0
 10
64.2038
 20
-551.24
 11
64.156
 21
-551.015
  0
LINE
  8
0
 10
64.156
 20
-551.015
 11
64.156
 21
-550.785
  0
LINE
  8
0
 10
64.156
 20
-550.785
 11
64.2038
 21
-550.56
  0
LINE
  8
0
 10
64.2038
 20
-550.56
 11
64.2974
 21
-550.35
  0
LINE
  8
0
 10
64.2974
 20
-550.35
 11
64.4325
 21
-550.164
  0
LINE
  8
0
 10
64.4325
 20
-550.164
 11
64.6034
 21
-550.01
  0
LINE
  8
0
 10
64.6034
 20
-550.01
 11
64.8026
 21
-549.895
  0
LINE
  8
0
 10
64.8026
 20
-549.895
 11
65.0213
 21
-549.824
  0
LINE
  8
0
 10
65.0213
 20
-549.824
 11
65.25
 21
-549.8
  0
LINE
  8
0
 10
65.25
 20
-549.8
 11
65.4787
 21
-549.824
  0
LINE
  8
0
 10
65.4787
 20
-549.824
 11
65.6974
 21
-549.895
  0
LINE
  8
0
 10
65.6974
 20
-549.895
 11
65.8966
 21
-550.01
  0
LINE
  8
0
 10
65.8966
 20
-550.01
 11
66.0675
 21
-550.164
  0
LINE
  8
0
 10
66.0675
 20
-550.164
 11
66.2026
 21
-550.35
  0
LINE
  8
0
 10
66.2026
 20
-550.35
 11
66.2962
 21
-550.56
  0
LINE
  8
0
 10
66.2962
 20
-550.56
 11
66.344
 21
-550.785
  0
LINE
  8
0
 10
66.344
 20
-550.785
 11
66.344
 21
-551.015
  0
LINE
  8
0
 10
66.344
 20
-551.015
 11
66.2962
 21
-551.24
  0
LINE
  8
0
 10
66.2962
 20
-551.24
 11
66.2026
 21
-551.45
  0
LINE
  8
0
 10
66.2026
 20
-551.45
 11
66.0675
 21
-551.636
  0
LINE
  8
0
 10
66.0675
 20
-551.636
 11
65.8966
 21
-551.79
  0
LINE
  8
0
 10
65.8966
 20
-551.79
 11
65.6974
 21
-551.905
  0
LINE
  8
0
 10
65.6974
 20
-551.905
 11
65.4787
 21
-551.976
  0
LINE
  8
0
 10
65.4787
 20
-551.976
 11
65.25
 21
-552
  0
LINE
  8
0
 10
65.25
 20
-552
 11
65.0213
 21
-551.976
  0
LINE
  8
0
 10
-57.4787
 20
-551.976
 11
-57.6974
 21
-551.905
  0
LINE
  8
0
 10
-57.6974
 20
-551.905
 11
-57.8966
 21
-551.79
  0
LINE
  8
0
 10
-57.8966
 20
-551.79
 11
-58.0675
 21
-551.636
  0
LINE
  8
0
 10
-58.0675
 20
-551.636
 11
-58.2026
 21
-551.45
  0
LINE
  8
0
 10
-58.2026
 20
-551.45
 11
-58.2962
 21
-551.24
  0
LINE
  8
0
 10
-58.2962
 20
-551.24
 11
-58.344
 21
-551.015
  0
LINE
  8
0
 10
-58.344
 20
-551.015
 11
-58.344
 21
-550.785
  0
LINE
  8
0
 10
-58.344
 20
-550.785
 11
-58.2962
 21
-550.56
  0
LINE
  8
0
 10
-58.2962
 20
-550.56
 11
-58.2026
 21
-550.35
  0
LINE
  8
0
 10
-58.2026
 20
-550.35
 11
-58.0675
 21
-550.164
  0
LINE
  8
0
 10
-58.0675
 20
-550.164
 11
-57.8966
 21
-550.01
  0
LINE
  8
0
 10
-57.8966
 20
-550.01
 11
-57.6974
 21
-549.895
  0
LINE
  8
0
 10
-57.6974
 20
-549.895
 11
-57.4787
 21
-549.824
  0
LINE
  8
0
 10
-57.4787
 20
-549.824
 11
-57.25
 21
-549.8
  0
LINE
  8
0
 10
-57.25
 20
-549.8
 11
-57.0213
 21
-549.824
  0
LINE
  8
0
 10
-57.0213
 20
-549.824
 11
-56.8026
 21
-549.895
  0
LINE
  8
0
 10
-56.8026
 20
-549.895
 11
-56.6034
 21
-550.01
  0
LINE
  8
0
 10
-56.6034
 20
-550.01
 11
-56.4325
 21
-550.164
  0
LINE
  8
0
 10
-56.4325
 20
-550.164
 11
-56.2974
 21
-550.35
  0
LINE
  8
0
 10
-56.2974
 20
-550.35
 11
-56.2038
 21
-550.56
  0
LINE
  8
0
 10
-56.2038
 20
-550.56
 11
-56.156
 21
-550.785
  0
LINE
  8
0
 10
-56.156
 20
-550.785
 11
-56.156
 21
-551.015
  0
LINE
  8
0
 10
-56.156
 20
-551.015
 11
-56.2038
 21
-551.24
  0
LINE
  8
0
 10
-56.2038
 20
-551.24
 11
-56.2974
 21
-551.45
  0
LINE
  8
0
 10
-56.2974
 20
-551.45
 11
-56.4325
 21
-551.636
  0
LINE
  8
0
 10
-56.4325
 20
-551.636
 11
-56.6034
 21
-551.79
  0
LINE
  8
0
 10
-56.6034
 20
-551.79
 11
-56.8026
 21
-551.905
  0
LINE
  8
0
 10
-56.8026
 20
-551.905
 11
-57.0213
 21
-551.976
  0
LINE
  8
0
 10
-57.0213
 20
-551.976
 11
-57.25
 21
-552
  0
LINE
  8
0
 10
-57.25
 20
-552
 11
-57.4787
 21
-551.976
  0
ENDSEC
  0
SECTION
  2
OBJECTS
  0
DICTIONARY
  0
ENDSEC
  0
EOF
