  0
SECTION
  2
BLOCKS
  0
ENDSEC
  0
SECTION
  2
ENTITIES
  0
LINE
  8
0
 10
-9.5
 20
-73
 11
-4.5
 21
-73
  0
LINE
  8
0
 10
-4.5
 20
-73
 11
-4.5
 21
-76.5
  0
LINE
  8
0
 10
-4.5
 20
-76.5
 11
4.5
 21
-76.5
  0
LINE
  8
0
 10
4.5
 20
-76.5
 11
4.5
 21
-73
  0
LINE
  8
0
 10
4.5
 20
-73
 11
9.5
 21
-73
  0
LINE
  8
0
 10
9.5
 20
-73
 11
9.5
 21
-76.5
  0
LINE
  8
0
 10
9.5
 20
-76.5
 11
15.5
 21
-76.5
  0
LINE
  8
0
 10
15.5
 20
-76.5
 11
15.5
 21
-63
  0
LINE
  8
0
 10
15.5
 20
-63
 11
12
 21
-63
  0
LINE
  8
0
 10
12
 20
-63
 11
12
 21
-58
  0
LINE
  8
0
 10
12
 20
-58
 11
15.5
 21
-58
  0
LINE
  8
0
 10
15.5
 20
-58
 11
15.5
 21
-22.6667
  0
LINE
  8
0
 10
15.5
 20
-22.6667
 11
12
 21
-22.6667
  0
LINE
  8
0
 10
12
 20
-22.6667
 11
12
 21
-17.6667
  0
LINE
  8
0
 10
12
 20
-17.6667
 11
15.5
 21
-17.6667
  0
LINE
  8
0
 10
15.5
 20
-17.6667
 11
15.5
 21
17.6667
  0
LINE
  8
0
 10
15.5
 20
17.6667
 11
12
 21
17.6667
  0
LINE
  8
0
 10
12
 20
17.6667
 11
12
 21
22.6667
  0
LINE
  8
0
 10
12
 20
22.6667
 11
15.5
 21
22.6667
  0
LINE
  8
0
 10
15.5
 20
22.6667
 11
15.5
 21
58
  0
LINE
  8
0
 10
15.5
 20
58
 11
12
 21
58
  0
LINE
  8
0
 10
12
 20
58
 11
12
 21
63
  0
LINE
  8
0
 10
12
 20
63
 11
15.5
 21
63
  0
LINE
  8
0
 10
15.5
 20
63
 11
15.5
 21
76.5
  0
LINE
  8
0
 10
15.5
 20
76.5
 11
9.5
 21
76.5
  0
LINE
  8
0
 10
9.5
 20
76.5
 11
9.5
 21
73
  0
LINE
  8
0
 10
9.5
 20
73
 11
4.5
 21
73
  0
LINE
  8
0
 10
4.5
 20
73
 11
4.5
 21
76.5
  0
LINE
  8
0
 10
4.5
 20
76.5
 11
-4.5
 21
76.5
  0
LINE
  8
0
 10
-4.5
 20
76.5
 11
-4.5
 21
73
  0
LINE
  8
0
 10
-4.5
 20
73
 11
-9.5
 21
73
  0
LINE
  8
0
 10
-9.5
 20
73
 11
-9.5
 21
76.5
  0
LINE
  8
0
 10
-9.5
 20
76.5
 11
-15.5
 21
76.5
  0
LINE
  8
0
 10
-15.5
 20
76.5
 11
-15.5
 21
63
  0
LINE
  8
0
 10
-15.5
 20
63
 11
-12
 21
63
  0
LINE
  8
0
 10
-12
 20
63
 11
-12
 21
58
  0
LINE
  8
0
 10
-12
 20
58
 11
-15.5
 21
58
  0
LINE
  8
0
 10
-15.5
 20
58
 11
-15.5
 21
22.6667
  0
LINE
  8
0
 10
-15.5
 20
22.6667
 11
-12
 21
22.6667
  0
LINE
  8
0
 10
-12
 20
22.6667
 11
-12
 21
17.6667
  0
LINE
  8
0
 10
-12
 20
17.6667
 11
-15.5
 21
17.6667
  0
LINE
  8
0
 10
-15.5
 20
17.6667
 11
-15.5
 21
-17.6667
  0
LINE
  8
0
 10
-15.5
 20
-17.6667
 11
-12
 21
-17.6667
  0
LINE
  8
0
 10
-12
 20
-17.6667
 11
-12
 21
-22.6667
  0
LINE
  8
0
 10
-12
 20
-22.6667
 11
-15.5
 21
-22.6667
  0
LINE
  8
0
 10
-15.5
 20
-22.6667
 11
-15.5
 21
-58
  0
LINE
  8
0
 10
-15.5
 20
-58
 11
-12
 21
-58
  0
LINE
  8
0
 10
-12
 20
-58
 11
-12
 21
-63
  0
LINE
  8
0
 10
-12
 20
-63
 11
-15.5
 21
-63
  0
LINE
  8
0
 10
-15.5
 20
-63
 11
-15.5
 21
-76.5
  0
LINE
  8
0
 10
-15.5
 20
-76.5
 11
-9.5
 21
-76.5
  0
LINE
  8
0
 10
-9.5
 20
-76.5
 11
-9.5
 21
-73
  0
LINE
  8
0
 10
-7.25586
 20
-21.2959
 11
-7.25586
 21
-18.9941
  0
LINE
  8
0
 10
-7.25586
 20
-18.9941
 11
9.6377
 21
-18.9941
  0
LINE
  8
0
 10
9.6377
 20
-18.9941
 11
9.6377
 21
-21.2959
  0
LINE
  8
0
 10
9.6377
 20
-21.2959
 11
-7.25586
 21
-21.2959
  0
LINE
  8
0
 10
-7.25586
 20
-34.0264
 11
-7.25586
 21
-31.7236
  0
LINE
  8
0
 10
-7.25586
 20
-31.7236
 11
9.6377
 21
-31.7236
  0
LINE
  8
0
 10
9.6377
 20
-31.7236
 11
9.6377
 21
-34.0264
  0
LINE
  8
0
 10
9.6377
 20
-34.0264
 11
-7.25586
 21
-34.0264
  0
LINE
  8
0
 10
-7.25586
 20
-50.583
 11
-7.25586
 21
-48.2812
  0
LINE
  8
0
 10
-7.25586
 20
-48.2812
 11
9.6377
 21
-48.2812
  0
LINE
  8
0
 10
9.6377
 20
-48.2812
 11
9.6377
 21
-50.583
  0
LINE
  8
0
 10
9.6377
 20
-50.583
 11
-7.25586
 21
-50.583
  0
LINE
  8
0
 10
-9.5
 20
-231
 11
-4.5
 21
-231
  0
LINE
  8
0
 10
-4.5
 20
-231
 11
-4.5
 21
-234.5
  0
LINE
  8
0
 10
-4.5
 20
-234.5
 11
4.5
 21
-234.5
  0
LINE
  8
0
 10
4.5
 20
-234.5
 11
4.5
 21
-231
  0
LINE
  8
0
 10
4.5
 20
-231
 11
9.5
 21
-231
  0
LINE
  8
0
 10
9.5
 20
-231
 11
9.5
 21
-234.5
  0
LINE
  8
0
 10
9.5
 20
-234.5
 11
15.5
 21
-234.5
  0
LINE
  8
0
 10
15.5
 20
-234.5
 11
15.5
 21
-221
  0
LINE
  8
0
 10
15.5
 20
-221
 11
12
 21
-221
  0
LINE
  8
0
 10
12
 20
-221
 11
12
 21
-216
  0
LINE
  8
0
 10
12
 20
-216
 11
15.5
 21
-216
  0
LINE
  8
0
 10
15.5
 20
-216
 11
15.5
 21
-180.667
  0
LINE
  8
0
 10
15.5
 20
-180.667
 11
12
 21
-180.667
  0
LINE
  8
0
 10
12
 20
-180.667
 11
12
 21
-175.667
  0
LINE
  8
0
 10
12
 20
-175.667
 11
15.5
 21
-175.667
  0
LINE
  8
0
 10
15.5
 20
-175.667
 11
15.5
 21
-140.333
  0
LINE
  8
0
 10
15.5
 20
-140.333
 11
12
 21
-140.333
  0
LINE
  8
0
 10
12
 20
-140.333
 11
12
 21
-135.333
  0
LINE
  8
0
 10
12
 20
-135.333
 11
15.5
 21
-135.333
  0
LINE
  8
0
 10
15.5
 20
-135.333
 11
15.5
 21
-100
  0
LINE
  8
0
 10
15.5
 20
-100
 11
12
 21
-100
  0
LINE
  8
0
 10
12
 20
-100
 11
12
 21
-95
  0
LINE
  8
0
 10
12
 20
-95
 11
15.5
 21
-95
  0
LINE
  8
0
 10
15.5
 20
-95
 11
15.5
 21
-81.5
  0
LINE
  8
0
 10
15.5
 20
-81.5
 11
9.5
 21
-81.5
  0
LINE
  8
0
 10
9.5
 20
-81.5
 11
9.5
 21
-85
  0
LINE
  8
0
 10
9.5
 20
-85
 11
4.5
 21
-85
  0
LINE
  8
0
 10
4.5
 20
-85
 11
4.5
 21
-81.5
  0
LINE
  8
0
 10
4.5
 20
-81.5
 11
-4.5
 21
-81.5
  0
LINE
  8
0
 10
-4.5
 20
-81.5
 11
-4.5
 21
-85
  0
LINE
  8
0
 10
-4.5
 20
-85
 11
-9.5
 21
-85
  0
LINE
  8
0
 10
-9.5
 20
-85
 11
-9.5
 21
-81.5
  0
LINE
  8
0
 10
-9.5
 20
-81.5
 11
-15.5
 21
-81.5
  0
LINE
  8
0
 10
-15.5
 20
-81.5
 11
-15.5
 21
-95
  0
LINE
  8
0
 10
-15.5
 20
-95
 11
-12
 21
-95
  0
LINE
  8
0
 10
-12
 20
-95
 11
-12
 21
-100
  0
LINE
  8
0
 10
-12
 20
-100
 11
-15.5
 21
-100
  0
LINE
  8
0
 10
-15.5
 20
-100
 11
-15.5
 21
-135.333
  0
LINE
  8
0
 10
-15.5
 20
-135.333
 11
-12
 21
-135.333
  0
LINE
  8
0
 10
-12
 20
-135.333
 11
-12
 21
-140.333
  0
LINE
  8
0
 10
-12
 20
-140.333
 11
-15.5
 21
-140.333
  0
LINE
  8
0
 10
-15.5
 20
-140.333
 11
-15.5
 21
-175.667
  0
LINE
  8
0
 10
-15.5
 20
-175.667
 11
-12
 21
-175.667
  0
LINE
  8
0
 10
-12
 20
-175.667
 11
-12
 21
-180.667
  0
LINE
  8
0
 10
-12
 20
-180.667
 11
-15.5
 21
-180.667
  0
LINE
  8
0
 10
-15.5
 20
-180.667
 11
-15.5
 21
-216
  0
LINE
  8
0
 10
-15.5
 20
-216
 11
-12
 21
-216
  0
LINE
  8
0
 10
-12
 20
-216
 11
-12
 21
-221
  0
LINE
  8
0
 10
-12
 20
-221
 11
-15.5
 21
-221
  0
LINE
  8
0
 10
-15.5
 20
-221
 11
-15.5
 21
-234.5
  0
LINE
  8
0
 10
-15.5
 20
-234.5
 11
-9.5
 21
-234.5
  0
LINE
  8
0
 10
-9.5
 20
-234.5
 11
-9.5
 21
-231
  0
LINE
  8
0
 10
-9.6377
 20
-179.296
 11
-9.6377
 21
-176.994
  0
LINE
  8
0
 10
-9.6377
 20
-176.994
 11
7.25586
 21
-176.994
  0
LINE
  8
0
 10
7.25586
 20
-176.994
 11
7.25586
 21
-179.296
  0
LINE
  8
0
 10
7.25586
 20
-179.296
 11
-9.6377
 21
-179.296
  0
LINE
  8
0
 10
-9.6377
 20
-192.026
 11
-9.6377
 21
-189.724
  0
LINE
  8
0
 10
-9.6377
 20
-189.724
 11
7.25586
 21
-189.724
  0
LINE
  8
0
 10
7.25586
 20
-189.724
 11
7.25586
 21
-192.026
  0
LINE
  8
0
 10
7.25586
 20
-192.026
 11
-9.6377
 21
-192.026
  0
LINE
  8
0
 10
-9.6377
 20
-208.583
 11
-9.6377
 21
-206.281
  0
LINE
  8
0
 10
-9.6377
 20
-206.281
 11
7.25586
 21
-206.281
  0
LINE
  8
0
 10
7.25586
 20
-206.281
 11
7.25586
 21
-208.583
  0
LINE
  8
0
 10
7.25586
 20
-208.583
 11
-9.6377
 21
-208.583
  0
LINE
  8
0
 10
-4.5
 20
-318
 11
4.5
 21
-318
  0
LINE
  8
0
 10
4.5
 20
-318
 11
4.5
 21
-321.5
  0
LINE
  8
0
 10
4.5
 20
-321.5
 11
9.5
 21
-321.5
  0
LINE
  8
0
 10
9.5
 20
-321.5
 11
9.5
 21
-318
  0
LINE
  8
0
 10
9.5
 20
-318
 11
15.5
 21
-318
  0
LINE
  8
0
 10
15.5
 20
-318
 11
15.5
 21
-308
  0
LINE
  8
0
 10
15.5
 20
-308
 11
12
 21
-308
  0
LINE
  8
0
 10
12
 20
-308
 11
12
 21
-303
  0
LINE
  8
0
 10
12
 20
-303
 11
15.5
 21
-303
  0
LINE
  8
0
 10
15.5
 20
-303
 11
15.5
 21
-291.333
  0
LINE
  8
0
 10
15.5
 20
-291.333
 11
12
 21
-291.333
  0
LINE
  8
0
 10
12
 20
-291.333
 11
12
 21
-286.333
  0
LINE
  8
0
 10
12
 20
-286.333
 11
15.5
 21
-286.333
  0
LINE
  8
0
 10
15.5
 20
-286.333
 11
15.5
 21
-274.667
  0
LINE
  8
0
 10
15.5
 20
-274.667
 11
12
 21
-274.667
  0
LINE
  8
0
 10
12
 20
-274.667
 11
12
 21
-269.667
  0
LINE
  8
0
 10
12
 20
-269.667
 11
15.5
 21
-269.667
  0
LINE
  8
0
 10
15.5
 20
-269.667
 11
15.5
 21
-258
  0
LINE
  8
0
 10
15.5
 20
-258
 11
12
 21
-258
  0
LINE
  8
0
 10
12
 20
-258
 11
12
 21
-253
  0
LINE
  8
0
 10
12
 20
-253
 11
15.5
 21
-253
  0
LINE
  8
0
 10
15.5
 20
-253
 11
15.5
 21
-243
  0
LINE
  8
0
 10
15.5
 20
-243
 11
9.5
 21
-243
  0
LINE
  8
0
 10
9.5
 20
-243
 11
9.5
 21
-239.5
  0
LINE
  8
0
 10
9.5
 20
-239.5
 11
4.5
 21
-239.5
  0
LINE
  8
0
 10
4.5
 20
-239.5
 11
4.5
 21
-243
  0
LINE
  8
0
 10
4.5
 20
-243
 11
-4.5
 21
-243
  0
LINE
  8
0
 10
-4.5
 20
-243
 11
-4.5
 21
-239.5
  0
LINE
  8
0
 10
-4.5
 20
-239.5
 11
-9.5
 21
-239.5
  0
LINE
  8
0
 10
-9.5
 20
-239.5
 11
-9.5
 21
-243
  0
LINE
  8
0
 10
-9.5
 20
-243
 11
-15.5
 21
-243
  0
LINE
  8
0
 10
-15.5
 20
-243
 11
-15.5
 21
-253
  0
LINE
  8
0
 10
-15.5
 20
-253
 11
-12
 21
-253
  0
LINE
  8
0
 10
-12
 20
-253
 11
-12
 21
-258
  0
LINE
  8
0
 10
-12
 20
-258
 11
-15.5
 21
-258
  0
LINE
  8
0
 10
-15.5
 20
-258
 11
-15.5
 21
-269.667
  0
LINE
  8
0
 10
-15.5
 20
-269.667
 11
-12
 21
-269.667
  0
LINE
  8
0
 10
-12
 20
-269.667
 11
-12
 21
-274.667
  0
LINE
  8
0
 10
-12
 20
-274.667
 11
-15.5
 21
-274.667
  0
LINE
  8
0
 10
-15.5
 20
-274.667
 11
-15.5
 21
-286.333
  0
LINE
  8
0
 10
-15.5
 20
-286.333
 11
-12
 21
-286.333
  0
LINE
  8
0
 10
-12
 20
-286.333
 11
-12
 21
-291.333
  0
LINE
  8
0
 10
-12
 20
-291.333
 11
-15.5
 21
-291.333
  0
LINE
  8
0
 10
-15.5
 20
-291.333
 11
-15.5
 21
-303
  0
LINE
  8
0
 10
-15.5
 20
-303
 11
-12
 21
-303
  0
LINE
  8
0
 10
-12
 20
-303
 11
-12
 21
-308
  0
LINE
  8
0
 10
-12
 20
-308
 11
-15.5
 21
-308
  0
LINE
  8
0
 10
-15.5
 20
-308
 11
-15.5
 21
-318
  0
LINE
  8
0
 10
-15.5
 20
-318
 11
-9.5
 21
-318
  0
LINE
  8
0
 10
-9.5
 20
-318
 11
-9.5
 21
-321.5
  0
LINE
  8
0
 10
-9.5
 20
-321.5
 11
-4.5
 21
-321.5
  0
LINE
  8
0
 10
-4.5
 20
-321.5
 11
-4.5
 21
-318
  0
LINE
  8
0
 10
-4.5
 20
-405
 11
4.5
 21
-405
  0
LINE
  8
0
 10
4.5
 20
-405
 11
4.5
 21
-408.5
  0
LINE
  8
0
 10
4.5
 20
-408.5
 11
9.5
 21
-408.5
  0
LINE
  8
0
 10
9.5
 20
-408.5
 11
9.5
 21
-405
  0
LINE
  8
0
 10
9.5
 20
-405
 11
15.5
 21
-405
  0
LINE
  8
0
 10
15.5
 20
-405
 11
15.5
 21
-395
  0
LINE
  8
0
 10
15.5
 20
-395
 11
12
 21
-395
  0
LINE
  8
0
 10
12
 20
-395
 11
12
 21
-390
  0
LINE
  8
0
 10
12
 20
-390
 11
15.5
 21
-390
  0
LINE
  8
0
 10
15.5
 20
-390
 11
15.5
 21
-378.333
  0
LINE
  8
0
 10
15.5
 20
-378.333
 11
12
 21
-378.333
  0
LINE
  8
0
 10
12
 20
-378.333
 11
12
 21
-373.333
  0
LINE
  8
0
 10
12
 20
-373.333
 11
15.5
 21
-373.333
  0
LINE
  8
0
 10
15.5
 20
-373.333
 11
15.5
 21
-361.667
  0
LINE
  8
0
 10
15.5
 20
-361.667
 11
12
 21
-361.667
  0
LINE
  8
0
 10
12
 20
-361.667
 11
12
 21
-356.667
  0
LINE
  8
0
 10
12
 20
-356.667
 11
15.5
 21
-356.667
  0
LINE
  8
0
 10
15.5
 20
-356.667
 11
15.5
 21
-345
  0
LINE
  8
0
 10
15.5
 20
-345
 11
12
 21
-345
  0
LINE
  8
0
 10
12
 20
-345
 11
12
 21
-340
  0
LINE
  8
0
 10
12
 20
-340
 11
15.5
 21
-340
  0
LINE
  8
0
 10
15.5
 20
-340
 11
15.5
 21
-330
  0
LINE
  8
0
 10
15.5
 20
-330
 11
9.5
 21
-330
  0
LINE
  8
0
 10
9.5
 20
-330
 11
9.5
 21
-326.5
  0
LINE
  8
0
 10
9.5
 20
-326.5
 11
4.5
 21
-326.5
  0
LINE
  8
0
 10
4.5
 20
-326.5
 11
4.5
 21
-330
  0
LINE
  8
0
 10
4.5
 20
-330
 11
-4.5
 21
-330
  0
LINE
  8
0
 10
-4.5
 20
-330
 11
-4.5
 21
-326.5
  0
LINE
  8
0
 10
-4.5
 20
-326.5
 11
-9.5
 21
-326.5
  0
LINE
  8
0
 10
-9.5
 20
-326.5
 11
-9.5
 21
-330
  0
LINE
  8
0
 10
-9.5
 20
-330
 11
-15.5
 21
-330
  0
LINE
  8
0
 10
-15.5
 20
-330
 11
-15.5
 21
-340
  0
LINE
  8
0
 10
-15.5
 20
-340
 11
-12
 21
-340
  0
LINE
  8
0
 10
-12
 20
-340
 11
-12
 21
-345
  0
LINE
  8
0
 10
-12
 20
-345
 11
-15.5
 21
-345
  0
LINE
  8
0
 10
-15.5
 20
-345
 11
-15.5
 21
-356.667
  0
LINE
  8
0
 10
-15.5
 20
-356.667
 11
-12
 21
-356.667
  0
LINE
  8
0
 10
-12
 20
-356.667
 11
-12
 21
-361.667
  0
LINE
  8
0
 10
-12
 20
-361.667
 11
-15.5
 21
-361.667
  0
LINE
  8
0
 10
-15.5
 20
-361.667
 11
-15.5
 21
-373.333
  0
LINE
  8
0
 10
-15.5
 20
-373.333
 11
-12
 21
-373.333
  0
LINE
  8
0
 10
-12
 20
-373.333
 11
-12
 21
-378.333
  0
LINE
  8
0
 10
-12
 20
-378.333
 11
-15.5
 21
-378.333
  0
LINE
  8
0
 10
-15.5
 20
-378.333
 11
-15.5
 21
-390
  0
LINE
  8
0
 10
-15.5
 20
-390
 11
-12
 21
-390
  0
LINE
  8
0
 10
-12
 20
-390
 11
-12
 21
-395
  0
LINE
  8
0
 10
-12
 20
-395
 11
-15.5
 21
-395
  0
LINE
  8
0
 10
-15.5
 20
-395
 11
-15.5
 21
-405
  0
LINE
  8
0
 10
-15.5
 20
-405
 11
-9.5
 21
-405
  0
LINE
  8
0
 10
-9.5
 20
-405
 11
-9.5
 21
-408.5
  0
LINE
  8
0
 10
-9.5
 20
-408.5
 11
-4.5
 21
-408.5
  0
LINE
  8
0
 10
-4.5
 20
-408.5
 11
-4.5
 21
-405
  0
LINE
  8
0
 10
-1.37988
 20
-380.898
 11
-1.76953
 21
-380.862
  0
LINE
  8
0
 10
-1.76953
 20
-380.862
 11
-2.13281
 21
-380.749
  0
LINE
  8
0
 10
-2.13281
 20
-380.749
 11
-2.46094
 21
-380.571
  0
LINE
  8
0
 10
-2.46094
 20
-380.571
 11
-2.74707
 21
-380.334
  0
LINE
  8
0
 10
-2.74707
 20
-380.334
 11
-2.98242
 21
-380.05
  0
LINE
  8
0
 10
-2.98242
 20
-380.05
 11
-3.16016
 21
-379.722
  0
LINE
  8
0
 10
-3.16016
 20
-379.722
 11
-3.27148
 21
-379.358
  0
LINE
  8
0
 10
-3.27148
 20
-379.358
 11
-3.31152
 21
-378.969
  0
LINE
  8
0
 10
-3.31152
 20
-378.969
 11
-3.31055
 21
-377.859
  0
LINE
  8
0
 10
-3.31055
 20
-377.859
 11
-3.31055
 21
-370.099
  0
LINE
  8
0
 10
-3.31055
 20
-370.099
 11
-3.27148
 21
-369.709
  0
LINE
  8
0
 10
-3.27148
 20
-369.709
 11
-3.16016
 21
-369.345
  0
LINE
  8
0
 10
-3.16016
 20
-369.345
 11
-2.98242
 21
-369.018
  0
LINE
  8
0
 10
-2.98242
 20
-369.018
 11
-2.74707
 21
-368.732
  0
LINE
  8
0
 10
-2.74707
 20
-368.732
 11
-2.46094
 21
-368.495
  0
LINE
  8
0
 10
-2.46094
 20
-368.495
 11
-2.13281
 21
-368.317
  0
LINE
  8
0
 10
-2.13281
 20
-368.317
 11
-1.76953
 21
-368.207
  0
LINE
  8
0
 10
-1.76953
 20
-368.207
 11
-1.37988
 21
-368.168
  0
LINE
  8
0
 10
-1.37988
 20
-368.168
 11
0.964844
 21
-368.168
  0
LINE
  8
0
 10
0.964844
 20
-368.168
 11
1.35547
 21
-368.207
  0
LINE
  8
0
 10
1.35547
 20
-368.207
 11
1.71875
 21
-368.317
  0
LINE
  8
0
 10
1.71875
 20
-368.317
 11
2.04688
 21
-368.495
  0
LINE
  8
0
 10
2.04688
 20
-368.495
 11
2.33203
 21
-368.732
  0
LINE
  8
0
 10
2.33203
 20
-368.732
 11
2.56738
 21
-369.018
  0
LINE
  8
0
 10
2.56738
 20
-369.018
 11
2.74512
 21
-369.345
  0
LINE
  8
0
 10
2.74512
 20
-369.345
 11
2.85742
 21
-369.709
  0
LINE
  8
0
 10
2.85742
 20
-369.709
 11
2.89648
 21
-370.099
  0
LINE
  8
0
 10
2.89648
 20
-370.099
 11
2.89648
 21
-378.969
  0
LINE
  8
0
 10
2.89648
 20
-378.969
 11
2.85742
 21
-379.357
  0
LINE
  8
0
 10
2.85742
 20
-379.357
 11
2.74512
 21
-379.722
  0
LINE
  8
0
 10
2.74512
 20
-379.722
 11
2.56738
 21
-380.05
  0
LINE
  8
0
 10
2.56738
 20
-380.05
 11
2.33203
 21
-380.334
  0
LINE
  8
0
 10
2.33203
 20
-380.334
 11
2.04688
 21
-380.571
  0
LINE
  8
0
 10
2.04688
 20
-380.571
 11
1.71875
 21
-380.749
  0
LINE
  8
0
 10
1.71875
 20
-380.749
 11
1.35547
 21
-380.862
  0
LINE
  8
0
 10
1.35547
 20
-380.862
 11
0.964844
 21
-380.898
  0
LINE
  8
0
 10
0.964844
 20
-380.898
 11
-1.37988
 21
-380.898
  0
LINE
  8
0
 10
-0.668945
 20
-396.328
 11
-1.38965
 21
-396.104
  0
LINE
  8
0
 10
-1.38965
 20
-396.104
 11
-2.04199
 21
-395.749
  0
LINE
  8
0
 10
-2.04199
 20
-395.749
 11
-2.61133
 21
-395.28
  0
LINE
  8
0
 10
-2.61133
 20
-395.28
 11
-3.08008
 21
-394.712
  0
LINE
  8
0
 10
-3.08008
 20
-394.712
 11
-3.43359
 21
-394.061
  0
LINE
  8
0
 10
-3.43359
 20
-394.061
 11
-3.6582
 21
-393.339
  0
LINE
  8
0
 10
-3.6582
 20
-393.339
 11
-3.73633
 21
-392.565
  0
LINE
  8
0
 10
-3.73633
 20
-392.565
 11
-3.6582
 21
-391.791
  0
LINE
  8
0
 10
-3.6582
 20
-391.791
 11
-3.43359
 21
-391.069
  0
LINE
  8
0
 10
-3.43359
 20
-391.069
 11
-3.08008
 21
-390.418
  0
LINE
  8
0
 10
-3.08008
 20
-390.418
 11
-2.61133
 21
-389.85
  0
LINE
  8
0
 10
-2.61133
 20
-389.85
 11
-2.04199
 21
-389.38
  0
LINE
  8
0
 10
-2.04199
 20
-389.38
 11
-1.38965
 21
-389.025
  0
LINE
  8
0
 10
-1.38965
 20
-389.025
 11
-0.668945
 21
-388.803
  0
LINE
  8
0
 10
-0.668945
 20
-388.803
 11
0.104492
 21
-388.725
  0
LINE
  8
0
 10
0.104492
 20
-388.725
 11
0.878906
 21
-388.803
  0
LINE
  8
0
 10
0.878906
 20
-388.803
 11
1.60059
 21
-389.025
  0
LINE
  8
0
 10
1.60059
 20
-389.025
 11
2.25195
 21
-389.38
  0
LINE
  8
0
 10
2.25195
 20
-389.38
 11
2.82129
 21
-389.85
  0
LINE
  8
0
 10
2.82129
 20
-389.85
 11
3.29004
 21
-390.418
  0
LINE
  8
0
 10
3.29004
 20
-390.418
 11
3.64453
 21
-391.069
  0
LINE
  8
0
 10
3.64453
 20
-391.069
 11
3.86719
 21
-391.791
  0
LINE
  8
0
 10
3.86719
 20
-391.791
 11
3.94629
 21
-392.565
  0
LINE
  8
0
 10
3.94629
 20
-392.565
 11
3.86719
 21
-393.339
  0
LINE
  8
0
 10
3.86719
 20
-393.339
 11
3.64453
 21
-394.061
  0
LINE
  8
0
 10
3.64453
 20
-394.061
 11
3.29004
 21
-394.712
  0
LINE
  8
0
 10
3.29004
 20
-394.712
 11
2.82129
 21
-395.28
  0
LINE
  8
0
 10
2.82129
 20
-395.28
 11
2.25195
 21
-395.749
  0
LINE
  8
0
 10
2.25195
 20
-395.749
 11
1.60059
 21
-396.104
  0
LINE
  8
0
 10
1.60059
 20
-396.104
 11
0.878906
 21
-396.328
  0
LINE
  8
0
 10
0.878906
 20
-396.328
 11
0.104492
 21
-396.405
  0
LINE
  8
0
 10
0.104492
 20
-396.405
 11
-0.668945
 21
-396.328
  0
LINE
  8
0
 10
-58
 20
-492
 11
-22.6667
 21
-492
  0
LINE
  8
0
 10
-22.6667
 20
-492
 11
-22.6667
 21
-495.5
  0
LINE
  8
0
 10
-22.6667
 20
-495.5
 11
-17.6667
 21
-495.5
  0
LINE
  8
0
 10
-17.6667
 20
-495.5
 11
-17.6667
 21
-492
  0
LINE
  8
0
 10
-17.6667
 20
-492
 11
17.6667
 21
-492
  0
LINE
  8
0
 10
17.6667
 20
-492
 11
17.6667
 21
-495.5
  0
LINE
  8
0
 10
17.6667
 20
-495.5
 11
22.6667
 21
-495.5
  0
LINE
  8
0
 10
22.6667
 20
-495.5
 11
22.6667
 21
-492
  0
LINE
  8
0
 10
22.6667
 20
-492
 11
58
 21
-492
  0
LINE
  8
0
 10
58
 20
-492
 11
58
 21
-495.5
  0
LINE
  8
0
 10
58
 20
-495.5
 11
63
 21
-495.5
  0
LINE
  8
0
 10
63
 20
-495.5
 11
63
 21
-492
  0
LINE
  8
0
 10
63
 20
-492
 11
73
 21
-492
  0
LINE
  8
0
 10
73
 20
-492
 11
73
 21
-482
  0
LINE
  8
0
 10
73
 20
-482
 11
76.5
 21
-482
  0
LINE
  8
0
 10
76.5
 20
-482
 11
76.5
 21
-477
  0
LINE
  8
0
 10
76.5
 20
-477
 11
73
 21
-477
  0
LINE
  8
0
 10
73
 20
-477
 11
73
 21
-465.333
  0
LINE
  8
0
 10
73
 20
-465.333
 11
76.5
 21
-465.333
  0
LINE
  8
0
 10
76.5
 20
-465.333
 11
76.5
 21
-460.333
  0
LINE
  8
0
 10
76.5
 20
-460.333
 11
73
 21
-460.333
  0
LINE
  8
0
 10
73
 20
-460.333
 11
73
 21
-448.667
  0
LINE
  8
0
 10
73
 20
-448.667
 11
76.5
 21
-448.667
  0
LINE
  8
0
 10
76.5
 20
-448.667
 11
76.5
 21
-443.667
  0
LINE
  8
0
 10
76.5
 20
-443.667
 11
73
 21
-443.667
  0
LINE
  8
0
 10
73
 20
-443.667
 11
73
 21
-432
  0
LINE
  8
0
 10
73
 20
-432
 11
76.5
 21
-432
  0
LINE
  8
0
 10
76.5
 20
-432
 11
76.5
 21
-427
  0
LINE
  8
0
 10
76.5
 20
-427
 11
73
 21
-427
  0
LINE
  8
0
 10
73
 20
-427
 11
73
 21
-417
  0
LINE
  8
0
 10
73
 20
-417
 11
63
 21
-417
  0
LINE
  8
0
 10
63
 20
-417
 11
63
 21
-413.5
  0
LINE
  8
0
 10
63
 20
-413.5
 11
58
 21
-413.5
  0
LINE
  8
0
 10
58
 20
-413.5
 11
58
 21
-417
  0
LINE
  8
0
 10
58
 20
-417
 11
22.6667
 21
-417
  0
LINE
  8
0
 10
22.6667
 20
-417
 11
22.6667
 21
-413.5
  0
LINE
  8
0
 10
22.6667
 20
-413.5
 11
17.6667
 21
-413.5
  0
LINE
  8
0
 10
17.6667
 20
-413.5
 11
17.6667
 21
-417
  0
LINE
  8
0
 10
17.6667
 20
-417
 11
-17.6667
 21
-417
  0
LINE
  8
0
 10
-17.6667
 20
-417
 11
-17.6667
 21
-413.5
  0
LINE
  8
0
 10
-17.6667
 20
-413.5
 11
-22.6667
 21
-413.5
  0
LINE
  8
0
 10
-22.6667
 20
-413.5
 11
-22.6667
 21
-417
  0
LINE
  8
0
 10
-22.6667
 20
-417
 11
-58
 21
-417
  0
LINE
  8
0
 10
-58
 20
-417
 11
-58
 21
-413.5
  0
LINE
  8
0
 10
-58
 20
-413.5
 11
-63
 21
-413.5
  0
LINE
  8
0
 10
-63
 20
-413.5
 11
-63
 21
-417
  0
LINE
  8
0
 10
-63
 20
-417
 11
-73
 21
-417
  0
LINE
  8
0
 10
-73
 20
-417
 11
-73
 21
-427
  0
LINE
  8
0
 10
-73
 20
-427
 11
-76.5
 21
-427
  0
LINE
  8
0
 10
-76.5
 20
-427
 11
-76.5
 21
-432
  0
LINE
  8
0
 10
-76.5
 20
-432
 11
-73
 21
-432
  0
LINE
  8
0
 10
-73
 20
-432
 11
-73
 21
-443.667
  0
LINE
  8
0
 10
-73
 20
-443.667
 11
-76.5
 21
-443.667
  0
LINE
  8
0
 10
-76.5
 20
-443.667
 11
-76.5
 21
-448.667
  0
LINE
  8
0
 10
-76.5
 20
-448.667
 11
-73
 21
-448.667
  0
LINE
  8
0
 10
-73
 20
-448.667
 11
-73
 21
-460.333
  0
LINE
  8
0
 10
-73
 20
-460.333
 11
-76.5
 21
-460.333
  0
LINE
  8
0
 10
-76.5
 20
-460.333
 11
-76.5
 21
-465.333
  0
LINE
  8
0
 10
-76.5
 20
-465.333
 11
-73
 21
-465.333
  0
LINE
  8
0
 10
-73
 20
-465.333
 11
-73
 21
-477
  0
LINE
  8
0
 10
-73
 20
-477
 11
-76.5
 21
-477
  0
LINE
  8
0
 10
-76.5
 20
-477
 11
-76.5
 21
-482
  0
LINE
  8
0
 10
-76.5
 20
-482
 11
-73
 21
-482
  0
LINE
  8
0
 10
-73
 20
-482
 11
-73
 21
-492
  0
LINE
  8
0
 10
-73
 20
-492
 11
-63
 21
-492
  0
LINE
  8
0
 10
-63
 20
-492
 11
-63
 21
-495.5
  0
LINE
  8
0
 10
-63
 20
-495.5
 11
-58
 21
-495.5
  0
LINE
  8
0
 10
-58
 20
-495.5
 11
-58
 21
-492
  0
LINE
  8
0
 10
-58
 20
-579
 11
-22.6667
 21
-579
  0
LINE
  8
0
 10
-22.6667
 20
-579
 11
-22.6667
 21
-582.5
  0
LINE
  8
0
 10
-22.6667
 20
-582.5
 11
-17.6667
 21
-582.5
  0
LINE
  8
0
 10
-17.6667
 20
-582.5
 11
-17.6667
 21
-579
  0
LINE
  8
0
 10
-17.6667
 20
-579
 11
17.6667
 21
-579
  0
LINE
  8
0
 10
17.6667
 20
-579
 11
17.6667
 21
-582.5
  0
LINE
  8
0
 10
17.6667
 20
-582.5
 11
22.6667
 21
-582.5
  0
LINE
  8
0
 10
22.6667
 20
-582.5
 11
22.6667
 21
-579
  0
LINE
  8
0
 10
22.6667
 20
-579
 11
58
 21
-579
  0
LINE
  8
0
 10
58
 20
-579
 11
58
 21
-582.5
  0
LINE
  8
0
 10
58
 20
-582.5
 11
63
 21
-582.5
  0
LINE
  8
0
 10
63
 20
-582.5
 11
63
 21
-579
  0
LINE
  8
0
 10
63
 20
-579
 11
73
 21
-579
  0
LINE
  8
0
 10
73
 20
-579
 11
73
 21
-569
  0
LINE
  8
0
 10
73
 20
-569
 11
76.5
 21
-569
  0
LINE
  8
0
 10
76.5
 20
-569
 11
76.5
 21
-564
  0
LINE
  8
0
 10
76.5
 20
-564
 11
73
 21
-564
  0
LINE
  8
0
 10
73
 20
-564
 11
73
 21
-552.333
  0
LINE
  8
0
 10
73
 20
-552.333
 11
76.5
 21
-552.333
  0
LINE
  8
0
 10
76.5
 20
-552.333
 11
76.5
 21
-547.333
  0
LINE
  8
0
 10
76.5
 20
-547.333
 11
73
 21
-547.333
  0
LINE
  8
0
 10
73
 20
-547.333
 11
73
 21
-535.667
  0
LINE
  8
0
 10
73
 20
-535.667
 11
76.5
 21
-535.667
  0
LINE
  8
0
 10
76.5
 20
-535.667
 11
76.5
 21
-530.667
  0
LINE
  8
0
 10
76.5
 20
-530.667
 11
73
 21
-530.667
  0
LINE
  8
0
 10
73
 20
-530.667
 11
73
 21
-519
  0
LINE
  8
0
 10
73
 20
-519
 11
76.5
 21
-519
  0
LINE
  8
0
 10
76.5
 20
-519
 11
76.5
 21
-514
  0
LINE
  8
0
 10
76.5
 20
-514
 11
73
 21
-514
  0
LINE
  8
0
 10
73
 20
-514
 11
73
 21
-504
  0
LINE
  8
0
 10
73
 20
-504
 11
63
 21
-504
  0
LINE
  8
0
 10
63
 20
-504
 11
63
 21
-500.5
  0
LINE
  8
0
 10
63
 20
-500.5
 11
58
 21
-500.5
  0
LINE
  8
0
 10
58
 20
-500.5
 11
58
 21
-504
  0
LINE
  8
0
 10
58
 20
-504
 11
22.6667
 21
-504
  0
LINE
  8
0
 10
22.6667
 20
-504
 11
22.6667
 21
-500.5
  0
LINE
  8
0
 10
22.6667
 20
-500.5
 11
17.6667
 21
-500.5
  0
LINE
  8
0
 10
17.6667
 20
-500.5
 11
17.6667
 21
-504
  0
LINE
  8
0
 10
17.6667
 20
-504
 11
-17.6667
 21
-504
  0
LINE
  8
0
 10
-17.6667
 20
-504
 11
-17.6667
 21
-500.5
  0
LINE
  8
0
 10
-17.6667
 20
-500.5
 11
-22.6667
 21
-500.5
  0
LINE
  8
0
 10
-22.6667
 20
-500.5
 11
-22.6667
 21
-504
  0
LINE
  8
0
 10
-22.6667
 20
-504
 11
-58
 21
-504
  0
LINE
  8
0
 10
-58
 20
-504
 11
-58
 21
-500.5
  0
LINE
  8
0
 10
-58
 20
-500.5
 11
-63
 21
-500.5
  0
LINE
  8
0
 10
-63
 20
-500.5
 11
-63
 21
-504
  0
LINE
  8
0
 10
-63
 20
-504
 11
-73
 21
-504
  0
LINE
  8
0
 10
-73
 20
-504
 11
-73
 21
-514
  0
LINE
  8
0
 10
-73
 20
-514
 11
-76.5
 21
-514
  0
LINE
  8
0
 10
-76.5
 20
-514
 11
-76.5
 21
-519
  0
LINE
  8
0
 10
-76.5
 20
-519
 11
-73
 21
-519
  0
LINE
  8
0
 10
-73
 20
-519
 11
-73
 21
-530.667
  0
LINE
  8
0
 10
-73
 20
-530.667
 11
-76.5
 21
-530.667
  0
LINE
  8
0
 10
-76.5
 20
-530.667
 11
-76.5
 21
-535.667
  0
LINE
  8
0
 10
-76.5
 20
-535.667
 11
-73
 21
-535.667
  0
LINE
  8
0
 10
-73
 20
-535.667
 11
-73
 21
-547.333
  0
LINE
  8
0
 10
-73
 20
-547.333
 11
-76.5
 21
-547.333
  0
LINE
  8
0
 10
-76.5
 20
-547.333
 11
-76.5
 21
-552.333
  0
LINE
  8
0
 10
-76.5
 20
-552.333
 11
-73
 21
-552.333
  0
LINE
  8
0
 10
-73
 20
-552.333
 11
-73
 21
-564
  0
LINE
  8
0
 10
-73
 20
-564
 11
-76.5
 21
-564
  0
LINE
  8
0
 10
-76.5
 20
-564
 11
-76.5
 21
-569
  0
LINE
  8
0
 10
-76.5
 20
-569
 11
-73
 21
-569
  0
LINE
  8
0
 10
-73
 20
-569
 11
-73
 21
-579
  0
LINE
  8
0
 10
-73
 20
-579
 11
-63
 21
-579
  0
LINE
  8
0
 10
-63
 20
-579
 11
-63
 21
-582.5
  0
LINE
  8
0
 10
-63
 20
-582.5
 11
-58
 21
-582.5
  0
LINE
  8
0
 10
-58
 20
-582.5
 11
-58
 21
-579
  0
LINE
  8
0
 10
-50.5
 20
-568.4
 11
-50.5
 21
-514.6
  0
LINE
  8
0
 10
-50.5
 20
-514.6
 11
58.5
 21
-514.6
  0
LINE
  8
0
 10
58.5
 20
-514.6
 11
58.5
 21
-568.4
  0
LINE
  8
0
 10
58.5
 20
-568.4
 11
-50.5
 21
-568.4
  0
LINE
  8
0
 10
65.0213
 20
-519.756
 11
64.8026
 21
-519.685
  0
LINE
  8
0
 10
64.8026
 20
-519.685
 11
64.6034
 21
-519.57
  0
LINE
  8
0
 10
64.6034
 20
-519.57
 11
64.4325
 21
-519.416
  0
LINE
  8
0
 10
64.4325
 20
-519.416
 11
64.2974
 21
-519.23
  0
LINE
  8
0
 10
64.2974
 20
-519.23
 11
64.2038
 21
-519.02
  0
LINE
  8
0
 10
64.2038
 20
-519.02
 11
64.156
 21
-518.795
  0
LINE
  8
0
 10
64.156
 20
-518.795
 11
64.156
 21
-518.565
  0
LINE
  8
0
 10
64.156
 20
-518.565
 11
64.2038
 21
-518.34
  0
LINE
  8
0
 10
64.2038
 20
-518.34
 11
64.2974
 21
-518.13
  0
LINE
  8
0
 10
64.2974
 20
-518.13
 11
64.4325
 21
-517.944
  0
LINE
  8
0
 10
64.4325
 20
-517.944
 11
64.6034
 21
-517.79
  0
LINE
  8
0
 10
64.6034
 20
-517.79
 11
64.8026
 21
-517.675
  0
LINE
  8
0
 10
64.8026
 20
-517.675
 11
65.0213
 21
-517.604
  0
LINE
  8
0
 10
65.0213
 20
-517.604
 11
65.25
 21
-517.58
  0
LINE
  8
0
 10
65.25
 20
-517.58
 11
65.4787
 21
-517.604
  0
LINE
  8
0
 10
65.4787
 20
-517.604
 11
65.6974
 21
-517.675
  0
LINE
  8
0
 10
65.6974
 20
-517.675
 11
65.8966
 21
-517.79
  0
LINE
  8
0
 10
65.8966
 20
-517.79
 11
66.0675
 21
-517.944
  0
LINE
  8
0
 10
66.0675
 20
-517.944
 11
66.2026
 21
-518.13
  0
LINE
  8
0
 10
66.2026
 20
-518.13
 11
66.2962
 21
-518.34
  0
LINE
  8
0
 10
66.2962
 20
-518.34
 11
66.344
 21
-518.565
  0
LINE
  8
0
 10
66.344
 20
-518.565
 11
66.344
 21
-518.795
  0
LINE
  8
0
 10
66.344
 20
-518.795
 11
66.2962
 21
-519.02
  0
LINE
  8
0
 10
66.2962
 20
-519.02
 11
66.2026
 21
-519.23
  0
LINE
  8
0
 10
66.2026
 20
-519.23
 11
66.0675
 21
-519.416
  0
LINE
  8
0
 10
66.0675
 20
-519.416
 11
65.8966
 21
-519.57
  0
LINE
  8
0
 10
65.8966
 20
-519.57
 11
65.6974
 21
-519.685
  0
LINE
  8
0
 10
65.6974
 20
-519.685
 11
65.4787
 21
-519.756
  0
LINE
  8
0
 10
65.4787
 20
-519.756
 11
65.25
 21
-519.78
  0
LINE
  8
0
 10
65.25
 20
-519.78
 11
65.0213
 21
-519.756
  0
LINE
  8
0
 10
-57.4787
 20
-519.756
 11
-57.6974
 21
-519.685
  0
LINE
  8
0
 10
-57.6974
 20
-519.685
 11
-57.8966
 21
-519.57
  0
LINE
  8
0
 10
-57.8966
 20
-519.57
 11
-58.0675
 21
-519.416
  0
LINE
  8
0
 10
-58.0675
 20
-519.416
 11
-58.2026
 21
-519.23
  0
LINE
  8
0
 10
-58.2026
 20
-519.23
 11
-58.2962
 21
-519.02
  0
LINE
  8
0
 10
-58.2962
 20
-519.02
 11
-58.344
 21
-518.795
  0
LINE
  8
0
 10
-58.344
 20
-518.795
 11
-58.344
 21
-518.565
  0
LINE
  8
0
 10
-58.344
 20
-518.565
 11
-58.2962
 21
-518.34
  0
LINE
  8
0
 10
-58.2962
 20
-518.34
 11
-58.2026
 21
-518.13
  0
LINE
  8
0
 10
-58.2026
 20
-518.13
 11
-58.0675
 21
-517.944
  0
LINE
  8
0
 10
-58.0675
 20
-517.944
 11
-57.8966
 21
-517.79
  0
LINE
  8
0
 10
-57.8966
 20
-517.79
 11
-57.6974
 21
-517.675
  0
LINE
  8
0
 10
-57.6974
 20
-517.675
 11
-57.4787
 21
-517.604
  0
LINE
  8
0
 10
-57.4787
 20
-517.604
 11
-57.25
 21
-517.58
  0
LINE
  8
0
 10
-57.25
 20
-517.58
 11
-57.0213
 21
-517.604
  0
LINE
  8
0
 10
-57.0213
 20
-517.604
 11
-56.8026
 21
-517.675
  0
LINE
  8
0
 10
-56.8026
 20
-517.675
 11
-56.6034
 21
-517.79
  0
LINE
  8
0
 10
-56.6034
 20
-517.79
 11
-56.4325
 21
-517.944
  0
LINE
  8
0
 10
-56.4325
 20
-517.944
 11
-56.2974
 21
-518.13
  0
LINE
  8
0
 10
-56.2974
 20
-518.13
 11
-56.2038
 21
-518.34
  0
LINE
  8
0
 10
-56.2038
 20
-518.34
 11
-56.156
 21
-518.565
  0
LINE
  8
0
 10
-56.156
 20
-518.565
 11
-56.156
 21
-518.795
  0
LINE
  8
0
 10
-56.156
 20
-518.795
 11
-56.2038
 21
-519.02
  0
LINE
  8
0
 10
-56.2038
 20
-519.02
 11
-56.2974
 21
-519.23
  0
LINE
  8
0
 10
-56.2974
 20
-519.23
 11
-56.4325
 21
-519.416
  0
LINE
  8
0
 10
-56.4325
 20
-519.416
 11
-56.6034
 21
-519.57
  0
LINE
  8
0
 10
-56.6034
 20
-519.57
 11
-56.8026
 21
-519.685
  0
LINE
  8
0
 10
-56.8026
 20
-519.685
 11
-57.0213
 21
-519.756
  0
LINE
  8
0
 10
-57.0213
 20
-519.756
 11
-57.25
 21
-519.78
  0
LINE
  8
0
 10
-57.25
 20
-519.78
 11
-57.4787
 21
-519.756
  0
LINE
  8
0
 10
-57.4787
 20
-524.836
 11
-57.6974
 21
-524.765
  0
LINE
  8
0
 10
-57.6974
 20
-524.765
 11
-57.8966
 21
-524.65
  0
LINE
  8
0
 10
-57.8966
 20
-524.65
 11
-58.0675
 21
-524.496
  0
LINE
  8
0
 10
-58.0675
 20
-524.496
 11
-58.2026
 21
-524.31
  0
LINE
  8
0
 10
-58.2026
 20
-524.31
 11
-58.2962
 21
-524.1
  0
LINE
  8
0
 10
-58.2962
 20
-524.1
 11
-58.344
 21
-523.875
  0
LINE
  8
0
 10
-58.344
 20
-523.875
 11
-58.344
 21
-523.645
  0
LINE
  8
0
 10
-58.344
 20
-523.645
 11
-58.2962
 21
-523.42
  0
LINE
  8
0
 10
-58.2962
 20
-523.42
 11
-58.2026
 21
-523.21
  0
LINE
  8
0
 10
-58.2026
 20
-523.21
 11
-58.0675
 21
-523.024
  0
LINE
  8
0
 10
-58.0675
 20
-523.024
 11
-57.8966
 21
-522.87
  0
LINE
  8
0
 10
-57.8966
 20
-522.87
 11
-57.6974
 21
-522.755
  0
LINE
  8
0
 10
-57.6974
 20
-522.755
 11
-57.4787
 21
-522.684
  0
LINE
  8
0
 10
-57.4787
 20
-522.684
 11
-57.25
 21
-522.66
  0
LINE
  8
0
 10
-57.25
 20
-522.66
 11
-57.0213
 21
-522.684
  0
LINE
  8
0
 10
-57.0213
 20
-522.684
 11
-56.8026
 21
-522.755
  0
LINE
  8
0
 10
-56.8026
 20
-522.755
 11
-56.6034
 21
-522.87
  0
LINE
  8
0
 10
-56.6034
 20
-522.87
 11
-56.4325
 21
-523.024
  0
LINE
  8
0
 10
-56.4325
 20
-523.024
 11
-56.2974
 21
-523.21
  0
LINE
  8
0
 10
-56.2974
 20
-523.21
 11
-56.2038
 21
-523.42
  0
LINE
  8
0
 10
-56.2038
 20
-523.42
 11
-56.156
 21
-523.645
  0
LINE
  8
0
 10
-56.156
 20
-523.645
 11
-56.156
 21
-523.875
  0
LINE
  8
0
 10
-56.156
 20
-523.875
 11
-56.2038
 21
-524.1
  0
LINE
  8
0
 10
-56.2038
 20
-524.1
 11
-56.2974
 21
-524.31
  0
LINE
  8
0
 10
-56.2974
 20
-524.31
 11
-56.4325
 21
-524.496
  0
LINE
  8
0
 10
-56.4325
 20
-524.496
 11
-56.6034
 21
-524.65
  0
LINE
  8
0
 10
-56.6034
 20
-524.65
 11
-56.8026
 21
-524.765
  0
LINE
  8
0
 10
-56.8026
 20
-524.765
 11
-57.0213
 21
-524.836
  0
LINE
  8
0
 10
-57.0213
 20
-524.836
 11
-57.25
 21
-524.86
  0
LINE
  8
0
 10
-57.25
 20
-524.86
 11
-57.4787
 21
-524.836
  0
LINE
  8
0
 10
65.0213
 20
-524.836
 11
64.8026
 21
-524.765
  0
LINE
  8
0
 10
64.8026
 20
-524.765
 11
64.6034
 21
-524.65
  0
LINE
  8
0
 10
64.6034
 20
-524.65
 11
64.4325
 21
-524.496
  0
LINE
  8
0
 10
64.4325
 20
-524.496
 11
64.2974
 21
-524.31
  0
LINE
  8
0
 10
64.2974
 20
-524.31
 11
64.2038
 21
-524.1
  0
LINE
  8
0
 10
64.2038
 20
-524.1
 11
64.156
 21
-523.875
  0
LINE
  8
0
 10
64.156
 20
-523.875
 11
64.156
 21
-523.645
  0
LINE
  8
0
 10
64.156
 20
-523.645
 11
64.2038
 21
-523.42
  0
LINE
  8
0
 10
64.2038
 20
-523.42
 11
64.2974
 21
-523.21
  0
LINE
  8
0
 10
64.2974
 20
-523.21
 11
64.4325
 21
-523.024
  0
LINE
  8
0
 10
64.4325
 20
-523.024
 11
64.6034
 21
-522.87
  0
LINE
  8
0
 10
64.6034
 20
-522.87
 11
64.8026
 21
-522.755
  0
LINE
  8
0
 10
64.8026
 20
-522.755
 11
65.0213
 21
-522.684
  0
LINE
  8
0
 10
65.0213
 20
-522.684
 11
65.25
 21
-522.66
  0
LINE
  8
0
 10
65.25
 20
-522.66
 11
65.4787
 21
-522.684
  0
LINE
  8
0
 10
65.4787
 20
-522.684
 11
65.6974
 21
-522.755
  0
LINE
  8
0
 10
65.6974
 20
-522.755
 11
65.8966
 21
-522.87
  0
LINE
  8
0
 10
65.8966
 20
-522.87
 11
66.0675
 21
-523.024
  0
LINE
  8
0
 10
66.0675
 20
-523.024
 11
66.2026
 21
-523.21
  0
LINE
  8
0
 10
66.2026
 20
-523.21
 11
66.2962
 21
-523.42
  0
LINE
  8
0
 10
66.2962
 20
-523.42
 11
66.344
 21
-523.645
  0
LINE
  8
0
 10
66.344
 20
-523.645
 11
66.344
 21
-523.875
  0
LINE
  8
0
 10
66.344
 20
-523.875
 11
66.2962
 21
-524.1
  0
LINE
  8
0
 10
66.2962
 20
-524.1
 11
66.2026
 21
-524.31
  0
LINE
  8
0
 10
66.2026
 20
-524.31
 11
66.0675
 21
-524.496
  0
LINE
  8
0
 10
66.0675
 20
-524.496
 11
65.8966
 21
-524.65
  0
LINE
  8
0
 10
65.8966
 20
-524.65
 11
65.6974
 21
-524.765
  0
LINE
  8
0
 10
65.6974
 20
-524.765
 11
65.4787
 21
-524.836
  0
LINE
  8
0
 10
65.4787
 20
-524.836
 11
65.25
 21
-524.86
  0
LINE
  8
0
 10
65.25
 20
-524.86
 11
65.0213
 21
-524.836
  0
LINE
  8
0
 10
65.0213
 20
-529.916
 11
64.8026
 21
-529.845
  0
LINE
  8
0
 10
64.8026
 20
-529.845
 11
64.6034
 21
-529.73
  0
LINE
  8
0
 10
64.6034
 20
-529.73
 11
64.4325
 21
-529.576
  0
LINE
  8
0
 10
64.4325
 20
-529.576
 11
64.2974
 21
-529.39
  0
LINE
  8
0
 10
64.2974
 20
-529.39
 11
64.2038
 21
-529.18
  0
LINE
  8
0
 10
64.2038
 20
-529.18
 11
64.156
 21
-528.955
  0
LINE
  8
0
 10
64.156
 20
-528.955
 11
64.156
 21
-528.725
  0
LINE
  8
0
 10
64.156
 20
-528.725
 11
64.2038
 21
-528.5
  0
LINE
  8
0
 10
64.2038
 20
-528.5
 11
64.2974
 21
-528.29
  0
LINE
  8
0
 10
64.2974
 20
-528.29
 11
64.4325
 21
-528.104
  0
LINE
  8
0
 10
64.4325
 20
-528.104
 11
64.6034
 21
-527.95
  0
LINE
  8
0
 10
64.6034
 20
-527.95
 11
64.8026
 21
-527.835
  0
LINE
  8
0
 10
64.8026
 20
-527.835
 11
65.0213
 21
-527.764
  0
LINE
  8
0
 10
65.0213
 20
-527.764
 11
65.25
 21
-527.74
  0
LINE
  8
0
 10
65.25
 20
-527.74
 11
65.4787
 21
-527.764
  0
LINE
  8
0
 10
65.4787
 20
-527.764
 11
65.6974
 21
-527.835
  0
LINE
  8
0
 10
65.6974
 20
-527.835
 11
65.8966
 21
-527.95
  0
LINE
  8
0
 10
65.8966
 20
-527.95
 11
66.0675
 21
-528.104
  0
LINE
  8
0
 10
66.0675
 20
-528.104
 11
66.2026
 21
-528.29
  0
LINE
  8
0
 10
66.2026
 20
-528.29
 11
66.2962
 21
-528.5
  0
LINE
  8
0
 10
66.2962
 20
-528.5
 11
66.344
 21
-528.725
  0
LINE
  8
0
 10
66.344
 20
-528.725
 11
66.344
 21
-528.955
  0
LINE
  8
0
 10
66.344
 20
-528.955
 11
66.2962
 21
-529.18
  0
LINE
  8
0
 10
66.2962
 20
-529.18
 11
66.2026
 21
-529.39
  0
LINE
  8
0
 10
66.2026
 20
-529.39
 11
66.0675
 21
-529.576
  0
LINE
  8
0
 10
66.0675
 20
-529.576
 11
65.8966
 21
-529.73
  0
LINE
  8
0
 10
65.8966
 20
-529.73
 11
65.6974
 21
-529.845
  0
LINE
  8
0
 10
65.6974
 20
-529.845
 11
65.4787
 21
-529.916
  0
LINE
  8
0
 10
65.4787
 20
-529.916
 11
65.25
 21
-529.94
  0
LINE
  8
0
 10
65.25
 20
-529.94
 11
65.0213
 21
-529.916
  0
LINE
  8
0
 10
-57.4787
 20
-529.916
 11
-57.6974
 21
-529.845
  0
LINE
  8
0
 10
-57.6974
 20
-529.845
 11
-57.8966
 21
-529.73
  0
LINE
  8
0
 10
-57.8966
 20
-529.73
 11
-58.0675
 21
-529.576
  0
LINE
  8
0
 10
-58.0675
 20
-529.576
 11
-58.2026
 21
-529.39
  0
LINE
  8
0
 10
-58.2026
 20
-529.39
 11
-58.2962
 21
-529.18
  0
LINE
  8
0
 10
-58.2962
 20
-529.18
 11
-58.344
 21
-528.955
  0
LINE
  8
0
 10
-58.344
 20
-528.955
 11
-58.344
 21
-528.725
  0
LINE
  8
0
 10
-58.344
 20
-528.725
 11
-58.2962
 21
-528.5
  0
LINE
  8
0
 10
-58.2962
 20
-528.5
 11
-58.2026
 21
-528.29
  0
LINE
  8
0
 10
-58.2026
 20
-528.29
 11
-58.0675
 21
-528.104
  0
LINE
  8
0
 10
-58.0675
 20
-528.104
 11
-57.8966
 21
-527.95
  0
LINE
  8
0
 10
-57.8966
 20
-527.95
 11
-57.6974
 21
-527.835
  0
LINE
  8
0
 10
-57.6974
 20
-527.835
 11
-57.4787
 21
-527.764
  0
LINE
  8
0
 10
-57.4787
 20
-527.764
 11
-57.25
 21
-527.74
  0
LINE
  8
0
 10
-57.25
 20
-527.74
 11
-57.0213
 21
-527.764
  0
LINE
  8
0
 10
-57.0213
 20
-527.764
 11
-56.8026
 21
-527.835
  0
LINE
  8
0
 10
-56.8026
 20
-527.835
 11
-56.6034
 21
-527.95
  0
LINE
  8
0
 10
-56.6034
 20
-527.95
 11
-56.4325
 21
-528.104
  0
LINE
  8
0
 10
-56.4325
 20
-528.104
 11
-56.2974
 21
-528.29
  0
LINE
  8
0
 10
-56.2974
 20
-528.29
 11
-56.2038
 21
-528.5
  0
LINE
  8
0
 10
-56.2038
 20
-528.5
 11
-56.156
 21
-528.725
  0
LINE
  8
0
 10
-56.156
 20
-528.725
 11
-56.156
 21
-528.955
  0
LINE
  8
0
 10
-56.156
 20
-528.955
 11
-56.2038
 21
-529.18
  0
LINE
  8
0
 10
-56.2038
 20
-529.18
 11
-56.2974
 21
-529.39
  0
LINE
  8
0
 10
-56.2974
 20
-529.39
 11
-56.4325
 21
-529.576
  0
LINE
  8
0
 10
-56.4325
 20
-529.576
 11
-56.6034
 21
-529.73
  0
LINE
  8
0
 10
-56.6034
 20
-529.73
 11
-56.8026
 21
-529.845
  0
LINE
  8
0
 10
-56.8026
 20
-529.845
 11
-57.0213
 21
-529.916
  0
LINE
  8
0
 10
-57.0213
 20
-529.916
 11
-57.25
 21
-529.94
  0
LINE
  8
0
 10
-57.25
 20
-529.94
 11
-57.4787
 21
-529.916
  0
LINE
  8
0
 10
65.0213
 20
-534.996
 11
64.8026
 21
-534.925
  0
LINE
  8
0
 10
64.8026
 20
-534.925
 11
64.6034
 21
-534.81
  0
LINE
  8
0
 10
64.6034
 20
-534.81
 11
64.4325
 21
-534.656
  0
LINE
  8
0
 10
64.4325
 20
-534.656
 11
64.2974
 21
-534.47
  0
LINE
  8
0
 10
64.2974
 20
-534.47
 11
64.2038
 21
-534.26
  0
LINE
  8
0
 10
64.2038
 20
-534.26
 11
64.156
 21
-534.035
  0
LINE
  8
0
 10
64.156
 20
-534.035
 11
64.156
 21
-533.805
  0
LINE
  8
0
 10
64.156
 20
-533.805
 11
64.2038
 21
-533.58
  0
LINE
  8
0
 10
64.2038
 20
-533.58
 11
64.2974
 21
-533.37
  0
LINE
  8
0
 10
64.2974
 20
-533.37
 11
64.4325
 21
-533.184
  0
LINE
  8
0
 10
64.4325
 20
-533.184
 11
64.6034
 21
-533.03
  0
LINE
  8
0
 10
64.6034
 20
-533.03
 11
64.8026
 21
-532.915
  0
LINE
  8
0
 10
64.8026
 20
-532.915
 11
65.0213
 21
-532.844
  0
LINE
  8
0
 10
65.0213
 20
-532.844
 11
65.25
 21
-532.82
  0
LINE
  8
0
 10
65.25
 20
-532.82
 11
65.4787
 21
-532.844
  0
LINE
  8
0
 10
65.4787
 20
-532.844
 11
65.6974
 21
-532.915
  0
LINE
  8
0
 10
65.6974
 20
-532.915
 11
65.8966
 21
-533.03
  0
LINE
  8
0
 10
65.8966
 20
-533.03
 11
66.0675
 21
-533.184
  0
LINE
  8
0
 10
66.0675
 20
-533.184
 11
66.2026
 21
-533.37
  0
LINE
  8
0
 10
66.2026
 20
-533.37
 11
66.2962
 21
-533.58
  0
LINE
  8
0
 10
66.2962
 20
-533.58
 11
66.344
 21
-533.805
  0
LINE
  8
0
 10
66.344
 20
-533.805
 11
66.344
 21
-534.035
  0
LINE
  8
0
 10
66.344
 20
-534.035
 11
66.2962
 21
-534.26
  0
LINE
  8
0
 10
66.2962
 20
-534.26
 11
66.2026
 21
-534.47
  0
LINE
  8
0
 10
66.2026
 20
-534.47
 11
66.0675
 21
-534.656
  0
LINE
  8
0
 10
66.0675
 20
-534.656
 11
65.8966
 21
-534.81
  0
LINE
  8
0
 10
65.8966
 20
-534.81
 11
65.6974
 21
-534.925
  0
LINE
  8
0
 10
65.6974
 20
-534.925
 11
65.4787
 21
-534.996
  0
LINE
  8
0
 10
65.4787
 20
-534.996
 11
65.25
 21
-535.02
  0
LINE
  8
0
 10
65.25
 20
-535.02
 11
65.0213
 21
-534.996
  0
LINE
  8
0
 10
-57.4787
 20
-534.996
 11
-57.6974
 21
-534.925
  0
LINE
  8
0
 10
-57.6974
 20
-534.925
 11
-57.8966
 21
-534.81
  0
LINE
  8
0
 10
-57.8966
 20
-534.81
 11
-58.0675
 21
-534.656
  0
LINE
  8
0
 10
-58.0675
 20
-534.656
 11
-58.2026
 21
-534.47
  0
LINE
  8
0
 10
-58.2026
 20
-534.47
 11
-58.2962
 21
-534.26
  0
LINE
  8
0
 10
-58.2962
 20
-534.26
 11
-58.344
 21
-534.035
  0
LINE
  8
0
 10
-58.344
 20
-534.035
 11
-58.344
 21
-533.805
  0
LINE
  8
0
 10
-58.344
 20
-533.805
 11
-58.2962
 21
-533.58
  0
LINE
  8
0
 10
-58.2962
 20
-533.58
 11
-58.2026
 21
-533.37
  0
LINE
  8
0
 10
-58.2026
 20
-533.37
 11
-58.0675
 21
-533.184
  0
LINE
  8
0
 10
-58.0675
 20
-533.184
 11
-57.8966
 21
-533.03
  0
LINE
  8
0
 10
-57.8966
 20
-533.03
 11
-57.6974
 21
-532.915
  0
LINE
  8
0
 10
-57.6974
 20
-532.915
 11
-57.4787
 21
-532.844
  0
LINE
  8
0
 10
-57.4787
 20
-532.844
 11
-57.25
 21
-532.82
  0
LINE
  8
0
 10
-57.25
 20
-532.82
 11
-57.0213
 21
-532.844
  0
LINE
  8
0
 10
-57.0213
 20
-532.844
 11
-56.8026
 21
-532.915
  0
LINE
  8
0
 10
-56.8026
 20
-532.915
 11
-56.6034
 21
-533.03
  0
LINE
  8
0
 10
-56.6034
 20
-533.03
 11
-56.4325
 21
-533.184
  0
LINE
  8
0
 10
-56.4325
 20
-533.184
 11
-56.2974
 21
-533.37
  0
LINE
  8
0
 10
-56.2974
 20
-533.37
 11
-56.2038
 21
-533.58
  0
LINE
  8
0
 10
-56.2038
 20
-533.58
 11
-56.156
 21
-533.805
  0
LINE
  8
0
 10
-56.156
 20
-533.805
 11
-56.156
 21
-534.035
  0
LINE
  8
0
 10
-56.156
 20
-534.035
 11
-56.2038
 21
-534.26
  0
LINE
  8
0
 10
-56.2038
 20
-534.26
 11
-56.2974
 21
-534.47
  0
LINE
  8
0
 10
-56.2974
 20
-534.47
 11
-56.4325
 21
-534.656
  0
LINE
  8
0
 10
-56.4325
 20
-534.656
 11
-56.6034
 21
-534.81
  0
LINE
  8
0
 10
-56.6034
 20
-534.81
 11
-56.8026
 21
-534.925
  0
LINE
  8
0
 10
-56.8026
 20
-534.925
 11
-57.0213
 21
-534.996
  0
LINE
  8
0
 10
-57.0213
 20
-534.996
 11
-57.25
 21
-535.02
  0
LINE
  8
0
 10
-57.25
 20
-535.02
 11
-57.4787
 21
-534.996
  0
LINE
  8
0
 10
-57.4787
 20
-540.076
 11
-57.6974
 21
-540.005
  0
LINE
  8
0
 10
-57.6974
 20
-540.005
 11
-57.8966
 21
-539.89
  0
LINE
  8
0
 10
-57.8966
 20
-539.89
 11
-58.0675
 21
-539.736
  0
LINE
  8
0
 10
-58.0675
 20
-539.736
 11
-58.2026
 21
-539.55
  0
LINE
  8
0
 10
-58.2026
 20
-539.55
 11
-58.2962
 21
-539.34
  0
LINE
  8
0
 10
-58.2962
 20
-539.34
 11
-58.344
 21
-539.115
  0
LINE
  8
0
 10
-58.344
 20
-539.115
 11
-58.344
 21
-538.885
  0
LINE
  8
0
 10
-58.344
 20
-538.885
 11
-58.2962
 21
-538.66
  0
LINE
  8
0
 10
-58.2962
 20
-538.66
 11
-58.2026
 21
-538.45
  0
LINE
  8
0
 10
-58.2026
 20
-538.45
 11
-58.0675
 21
-538.264
  0
LINE
  8
0
 10
-58.0675
 20
-538.264
 11
-57.8966
 21
-538.11
  0
LINE
  8
0
 10
-57.8966
 20
-538.11
 11
-57.6974
 21
-537.995
  0
LINE
  8
0
 10
-57.6974
 20
-537.995
 11
-57.4787
 21
-537.924
  0
LINE
  8
0
 10
-57.4787
 20
-537.924
 11
-57.25
 21
-537.9
  0
LINE
  8
0
 10
-57.25
 20
-537.9
 11
-57.0213
 21
-537.924
  0
LINE
  8
0
 10
-57.0213
 20
-537.924
 11
-56.8026
 21
-537.995
  0
LINE
  8
0
 10
-56.8026
 20
-537.995
 11
-56.6034
 21
-538.11
  0
LINE
  8
0
 10
-56.6034
 20
-538.11
 11
-56.4325
 21
-538.264
  0
LINE
  8
0
 10
-56.4325
 20
-538.264
 11
-56.2974
 21
-538.45
  0
LINE
  8
0
 10
-56.2974
 20
-538.45
 11
-56.2038
 21
-538.66
  0
LINE
  8
0
 10
-56.2038
 20
-538.66
 11
-56.156
 21
-538.885
  0
LINE
  8
0
 10
-56.156
 20
-538.885
 11
-56.156
 21
-539.115
  0
LINE
  8
0
 10
-56.156
 20
-539.115
 11
-56.2038
 21
-539.34
  0
LINE
  8
0
 10
-56.2038
 20
-539.34
 11
-56.2974
 21
-539.55
  0
LINE
  8
0
 10
-56.2974
 20
-539.55
 11
-56.4325
 21
-539.736
  0
LINE
  8
0
 10
-56.4325
 20
-539.736
 11
-56.6034
 21
-539.89
  0
LINE
  8
0
 10
-56.6034
 20
-539.89
 11
-56.8026
 21
-540.005
  0
LINE
  8
0
 10
-56.8026
 20
-540.005
 11
-57.0213
 21
-540.076
  0
LINE
  8
0
 10
-57.0213
 20
-540.076
 11
-57.25
 21
-540.1
  0
LINE
  8
0
 10
-57.25
 20
-540.1
 11
-57.4787
 21
-540.076
  0
LINE
  8
0
 10
65.0213
 20
-540.076
 11
64.8026
 21
-540.005
  0
LINE
  8
0
 10
64.8026
 20
-540.005
 11
64.6034
 21
-539.89
  0
LINE
  8
0
 10
64.6034
 20
-539.89
 11
64.4325
 21
-539.736
  0
LINE
  8
0
 10
64.4325
 20
-539.736
 11
64.2974
 21
-539.55
  0
LINE
  8
0
 10
64.2974
 20
-539.55
 11
64.2038
 21
-539.34
  0
LINE
  8
0
 10
64.2038
 20
-539.34
 11
64.156
 21
-539.115
  0
LINE
  8
0
 10
64.156
 20
-539.115
 11
64.156
 21
-538.885
  0
LINE
  8
0
 10
64.156
 20
-538.885
 11
64.2038
 21
-538.66
  0
LINE
  8
0
 10
64.2038
 20
-538.66
 11
64.2974
 21
-538.45
  0
LINE
  8
0
 10
64.2974
 20
-538.45
 11
64.4325
 21
-538.264
  0
LINE
  8
0
 10
64.4325
 20
-538.264
 11
64.6034
 21
-538.11
  0
LINE
  8
0
 10
64.6034
 20
-538.11
 11
64.8026
 21
-537.995
  0
LINE
  8
0
 10
64.8026
 20
-537.995
 11
65.0213
 21
-537.924
  0
LINE
  8
0
 10
65.0213
 20
-537.924
 11
65.25
 21
-537.9
  0
LINE
  8
0
 10
65.25
 20
-537.9
 11
65.4787
 21
-537.924
  0
LINE
  8
0
 10
65.4787
 20
-537.924
 11
65.6974
 21
-537.995
  0
LINE
  8
0
 10
65.6974
 20
-537.995
 11
65.8966
 21
-538.11
  0
LINE
  8
0
 10
65.8966
 20
-538.11
 11
66.0675
 21
-538.264
  0
LINE
  8
0
 10
66.0675
 20
-538.264
 11
66.2026
 21
-538.45
  0
LINE
  8
0
 10
66.2026
 20
-538.45
 11
66.2962
 21
-538.66
  0
LINE
  8
0
 10
66.2962
 20
-538.66
 11
66.344
 21
-538.885
  0
LINE
  8
0
 10
66.344
 20
-538.885
 11
66.344
 21
-539.115
  0
LINE
  8
0
 10
66.344
 20
-539.115
 11
66.2962
 21
-539.34
  0
LINE
  8
0
 10
66.2962
 20
-539.34
 11
66.2026
 21
-539.55
  0
LINE
  8
0
 10
66.2026
 20
-539.55
 11
66.0675
 21
-539.736
  0
LINE
  8
0
 10
66.0675
 20
-539.736
 11
65.8966
 21
-539.89
  0
LINE
  8
0
 10
65.8966
 20
-539.89
 11
65.6974
 21
-540.005
  0
LINE
  8
0
 10
65.6974
 20
-540.005
 11
65.4787
 21
-540.076
  0
LINE
  8
0
 10
65.4787
 20
-540.076
 11
65.25
 21
-540.1
  0
LINE
  8
0
 10
65.25
 20
-540.1
 11
65.0213
 21
-540.076
  0
LINE
  8
0
 10
65.0213
 20
-545.156
 11
64.8026
 21
-545.085
  0
LINE
  8
0
 10
64.8026
 20
-545.085
 11
64.6034
 21
-544.97
  0
LINE
  8
0
 10
64.6034
 20
-544.97
 11
64.4325
 21
-544.816
  0
LINE
  8
0
 10
64.4325
 20
-544.816
 11
64.2974
 21
-544.63
  0
LINE
  8
0
 10
64.2974
 20
-544.63
 11
64.2038
 21
-544.42
  0
LINE
  8
0
 10
64.2038
 20
-544.42
 11
64.156
 21
-544.195
  0
LINE
  8
0
 10
64.156
 20
-544.195
 11
64.156
 21
-543.965
  0
LINE
  8
0
 10
64.156
 20
-543.965
 11
64.2038
 21
-543.74
  0
LINE
  8
0
 10
64.2038
 20
-543.74
 11
64.2974
 21
-543.53
  0
LINE
  8
0
 10
64.2974
 20
-543.53
 11
64.4325
 21
-543.344
  0
LINE
  8
0
 10
64.4325
 20
-543.344
 11
64.6034
 21
-543.19
  0
LINE
  8
0
 10
64.6034
 20
-543.19
 11
64.8026
 21
-543.075
  0
LINE
  8
0
 10
64.8026
 20
-543.075
 11
65.0213
 21
-543.004
  0
LINE
  8
0
 10
65.0213
 20
-543.004
 11
65.25
 21
-542.98
  0
LINE
  8
0
 10
65.25
 20
-542.98
 11
65.4787
 21
-543.004
  0
LINE
  8
0
 10
65.4787
 20
-543.004
 11
65.6974
 21
-543.075
  0
LINE
  8
0
 10
65.6974
 20
-543.075
 11
65.8966
 21
-543.19
  0
LINE
  8
0
 10
65.8966
 20
-543.19
 11
66.0675
 21
-543.344
  0
LINE
  8
0
 10
66.0675
 20
-543.344
 11
66.2026
 21
-543.53
  0
LINE
  8
0
 10
66.2026
 20
-543.53
 11
66.2962
 21
-543.74
  0
LINE
  8
0
 10
66.2962
 20
-543.74
 11
66.344
 21
-543.965
  0
LINE
  8
0
 10
66.344
 20
-543.965
 11
66.344
 21
-544.195
  0
LINE
  8
0
 10
66.344
 20
-544.195
 11
66.2962
 21
-544.42
  0
LINE
  8
0
 10
66.2962
 20
-544.42
 11
66.2026
 21
-544.63
  0
LINE
  8
0
 10
66.2026
 20
-544.63
 11
66.0675
 21
-544.816
  0
LINE
  8
0
 10
66.0675
 20
-544.816
 11
65.8966
 21
-544.97
  0
LINE
  8
0
 10
65.8966
 20
-544.97
 11
65.6974
 21
-545.085
  0
LINE
  8
0
 10
65.6974
 20
-545.085
 11
65.4787
 21
-545.156
  0
LINE
  8
0
 10
65.4787
 20
-545.156
 11
65.25
 21
-545.18
  0
LINE
  8
0
 10
65.25
 20
-545.18
 11
65.0213
 21
-545.156
  0
LINE
  8
0
 10
-57.4787
 20
-545.156
 11
-57.6974
 21
-545.085
  0
LINE
  8
0
 10
-57.6974
 20
-545.085
 11
-57.8966
 21
-544.97
  0
LINE
  8
0
 10
-57.8966
 20
-544.97
 11
-58.0675
 21
-544.816
  0
LINE
  8
0
 10
-58.0675
 20
-544.816
 11
-58.2026
 21
-544.63
  0
LINE
  8
0
 10
-58.2026
 20
-544.63
 11
-58.2962
 21
-544.42
  0
LINE
  8
0
 10
-58.2962
 20
-544.42
 11
-58.344
 21
-544.195
  0
LINE
  8
0
 10
-58.344
 20
-544.195
 11
-58.344
 21
-543.965
  0
LINE
  8
0
 10
-58.344
 20
-543.965
 11
-58.2962
 21
-543.74
  0
LINE
  8
0
 10
-58.2962
 20
-543.74
 11
-58.2026
 21
-543.53
  0
LINE
  8
0
 10
-58.2026
 20
-543.53
 11
-58.0675
 21
-543.344
  0
LINE
  8
0
 10
-58.0675
 20
-543.344
 11
-57.8966
 21
-543.19
  0
LINE
  8
0
 10
-57.8966
 20
-543.19
 11
-57.6974
 21
-543.075
  0
LINE
  8
0
 10
-57.6974
 20
-543.075
 11
-57.4787
 21
-543.004
  0
LINE
  8
0
 10
-57.4787
 20
-543.004
 11
-57.25
 21
-542.98
  0
LINE
  8
0
 10
-57.25
 20
-542.98
 11
-57.0213
 21
-543.004
  0
LINE
  8
0
 10
-57.0213
 20
-543.004
 11
-56.8026
 21
-543.075
  0
LINE
  8
0
 10
-56.8026
 20
-543.075
 11
-56.6034
 21
-543.19
  0
LINE
  8
0
 10
-56.6034
 20
-543.19
 11
-56.4325
 21
-543.344
  0
LINE
  8
0
 10
-56.4325
 20
-543.344
 11
-56.2974
 21
-543.53
  0
LINE
  8
0
 10
-56.2974
 20
-543.53
 11
-56.2038
 21
-543.74
  0
LINE
  8
0
 10
-56.2038
 20
-543.74
 11
-56.156
 21
-543.965
  0
LINE
  8
0
 10
-56.156
 20
-543.965
 11
-56.156
 21
-544.195
  0
LINE
  8
0
 10
-56.156
 20
-544.195
 11
-56.2038
 21
-544.42
  0
LINE
  8
0
 10
-56.2038
 20
-544.42
 11
-56.2974
 21
-544.63
  0
LINE
  8
0
 10
-56.2974
 20
-544.63
 11
-56.4325
 21
-544.816
  0
LINE
  8
0
 10
-56.4325
 20
-544.816
 11
-56.6034
 21
-544.97
  0
LINE
  8
0
 10
-56.6034
 20
-544.97
 11
-56.8026
 21
-545.085
  0
LINE
  8
0
 10
-56.8026
 20
-545.085
 11
-57.0213
 21
-545.156
  0
LINE
  8
0
 10
-57.0213
 20
-545.156
 11
-57.25
 21
-545.18
  0
LINE
  8
0
 10
-57.25
 20
-545.18
 11
-57.4787
 21
-545.156
  0
LINE
  8
0
 10
65.0213
 20
-550.236
 11
64.8026
 21
-550.165
  0
LINE
  8
0
 10
64.8026
 20
-550.165
 11
64.6034
 21
-550.05
  0
LINE
  8
0
 10
64.6034
 20
-550.05
 11
64.4325
 21
-549.896
  0
LINE
  8
0
 10
64.4325
 20
-549.896
 11
64.2974
 21
-549.71
  0
LINE
  8
0
 10
64.2974
 20
-549.71
 11
64.2038
 21
-549.5
  0
LINE
  8
0
 10
64.2038
 20
-549.5
 11
64.156
 21
-549.275
  0
LINE
  8
0
 10
64.156
 20
-549.275
 11
64.156
 21
-549.045
  0
LINE
  8
0
 10
64.156
 20
-549.045
 11
64.2038
 21
-548.82
  0
LINE
  8
0
 10
64.2038
 20
-548.82
 11
64.2974
 21
-548.61
  0
LINE
  8
0
 10
64.2974
 20
-548.61
 11
64.4325
 21
-548.424
  0
LINE
  8
0
 10
64.4325
 20
-548.424
 11
64.6034
 21
-548.27
  0
LINE
  8
0
 10
64.6034
 20
-548.27
 11
64.8026
 21
-548.155
  0
LINE
  8
0
 10
64.8026
 20
-548.155
 11
65.0213
 21
-548.084
  0
LINE
  8
0
 10
65.0213
 20
-548.084
 11
65.25
 21
-548.06
  0
LINE
  8
0
 10
65.25
 20
-548.06
 11
65.4787
 21
-548.084
  0
LINE
  8
0
 10
65.4787
 20
-548.084
 11
65.6974
 21
-548.155
  0
LINE
  8
0
 10
65.6974
 20
-548.155
 11
65.8966
 21
-548.27
  0
LINE
  8
0
 10
65.8966
 20
-548.27
 11
66.0675
 21
-548.424
  0
LINE
  8
0
 10
66.0675
 20
-548.424
 11
66.2026
 21
-548.61
  0
LINE
  8
0
 10
66.2026
 20
-548.61
 11
66.2962
 21
-548.82
  0
LINE
  8
0
 10
66.2962
 20
-548.82
 11
66.344
 21
-549.045
  0
LINE
  8
0
 10
66.344
 20
-549.045
 11
66.344
 21
-549.275
  0
LINE
  8
0
 10
66.344
 20
-549.275
 11
66.2962
 21
-549.5
  0
LINE
  8
0
 10
66.2962
 20
-549.5
 11
66.2026
 21
-549.71
  0
LINE
  8
0
 10
66.2026
 20
-549.71
 11
66.0675
 21
-549.896
  0
LINE
  8
0
 10
66.0675
 20
-549.896
 11
65.8966
 21
-550.05
  0
LINE
  8
0
 10
65.8966
 20
-550.05
 11
65.6974
 21
-550.165
  0
LINE
  8
0
 10
65.6974
 20
-550.165
 11
65.4787
 21
-550.236
  0
LINE
  8
0
 10
65.4787
 20
-550.236
 11
65.25
 21
-550.26
  0
LINE
  8
0
 10
65.25
 20
-550.26
 11
65.0213
 21
-550.236
  0
LINE
  8
0
 10
-57.4787
 20
-550.236
 11
-57.6974
 21
-550.165
  0
LINE
  8
0
 10
-57.6974
 20
-550.165
 11
-57.8966
 21
-550.05
  0
LINE
  8
0
 10
-57.8966
 20
-550.05
 11
-58.0675
 21
-549.896
  0
LINE
  8
0
 10
-58.0675
 20
-549.896
 11
-58.2026
 21
-549.71
  0
LINE
  8
0
 10
-58.2026
 20
-549.71
 11
-58.2962
 21
-549.5
  0
LINE
  8
0
 10
-58.2962
 20
-549.5
 11
-58.344
 21
-549.275
  0
LINE
  8
0
 10
-58.344
 20
-549.275
 11
-58.344
 21
-549.045
  0
LINE
  8
0
 10
-58.344
 20
-549.045
 11
-58.2962
 21
-548.82
  0
LINE
  8
0
 10
-58.2962
 20
-548.82
 11
-58.2026
 21
-548.61
  0
LINE
  8
0
 10
-58.2026
 20
-548.61
 11
-58.0675
 21
-548.424
  0
LINE
  8
0
 10
-58.0675
 20
-548.424
 11
-57.8966
 21
-548.27
  0
LINE
  8
0
 10
-57.8966
 20
-548.27
 11
-57.6974
 21
-548.155
  0
LINE
  8
0
 10
-57.6974
 20
-548.155
 11
-57.4787
 21
-548.084
  0
LINE
  8
0
 10
-57.4787
 20
-548.084
 11
-57.25
 21
-548.06
  0
LINE
  8
0
 10
-57.25
 20
-548.06
 11
-57.0213
 21
-548.084
  0
LINE
  8
0
 10
-57.0213
 20
-548.084
 11
-56.8026
 21
-548.155
  0
LINE
  8
0
 10
-56.8026
 20
-548.155
 11
-56.6034
 21
-548.27
  0
LINE
  8
0
 10
-56.6034
 20
-548.27
 11
-56.4325
 21
-548.424
  0
LINE
  8
0
 10
-56.4325
 20
-548.424
 11
-56.2974
 21
-548.61
  0
LINE
  8
0
 10
-56.2974
 20
-548.61
 11
-56.2038
 21
-548.82
  0
LINE
  8
0
 10
-56.2038
 20
-548.82
 11
-56.156
 21
-549.045
  0
LINE
  8
0
 10
-56.156
 20
-549.045
 11
-56.156
 21
-549.275
  0
LINE
  8
0
 10
-56.156
 20
-549.275
 11
-56.2038
 21
-549.5
  0
LINE
  8
0
 10
-56.2038
 20
-549.5
 11
-56.2974
 21
-549.71
  0
LINE
  8
0
 10
-56.2974
 20
-549.71
 11
-56.4325
 21
-549.896
  0
LINE
  8
0
 10
-56.4325
 20
-549.896
 11
-56.6034
 21
-550.05
  0
LINE
  8
0
 10
-56.6034
 20
-550.05
 11
-56.8026
 21
-550.165
  0
LINE
  8
0
 10
-56.8026
 20
-550.165
 11
-57.0213
 21
-550.236
  0
LINE
  8
0
 10
-57.0213
 20
-550.236
 11
-57.25
 21
-550.26
  0
LINE
  8
0
 10
-57.25
 20
-550.26
 11
-57.4787
 21
-550.236
  0
LINE
  8
0
 10
65.0213
 20
-555.316
 11
64.8026
 21
-555.245
  0
LINE
  8
0
 10
64.8026
 20
-555.245
 11
64.6034
 21
-555.13
  0
LINE
  8
0
 10
64.6034
 20
-555.13
 11
64.4325
 21
-554.976
  0
LINE
  8
0
 10
64.4325
 20
-554.976
 11
64.2974
 21
-554.79
  0
LINE
  8
0
 10
64.2974
 20
-554.79
 11
64.2038
 21
-554.58
  0
LINE
  8
0
 10
64.2038
 20
-554.58
 11
64.156
 21
-554.355
  0
LINE
  8
0
 10
64.156
 20
-554.355
 11
64.156
 21
-554.125
  0
LINE
  8
0
 10
64.156
 20
-554.125
 11
64.2038
 21
-553.9
  0
LINE
  8
0
 10
64.2038
 20
-553.9
 11
64.2974
 21
-553.69
  0
LINE
  8
0
 10
64.2974
 20
-553.69
 11
64.4325
 21
-553.504
  0
LINE
  8
0
 10
64.4325
 20
-553.504
 11
64.6034
 21
-553.35
  0
LINE
  8
0
 10
64.6034
 20
-553.35
 11
64.8026
 21
-553.235
  0
LINE
  8
0
 10
64.8026
 20
-553.235
 11
65.0213
 21
-553.164
  0
LINE
  8
0
 10
65.0213
 20
-553.164
 11
65.25
 21
-553.14
  0
LINE
  8
0
 10
65.25
 20
-553.14
 11
65.4787
 21
-553.164
  0
LINE
  8
0
 10
65.4787
 20
-553.164
 11
65.6974
 21
-553.235
  0
LINE
  8
0
 10
65.6974
 20
-553.235
 11
65.8966
 21
-553.35
  0
LINE
  8
0
 10
65.8966
 20
-553.35
 11
66.0675
 21
-553.504
  0
LINE
  8
0
 10
66.0675
 20
-553.504
 11
66.2026
 21
-553.69
  0
LINE
  8
0
 10
66.2026
 20
-553.69
 11
66.2962
 21
-553.9
  0
LINE
  8
0
 10
66.2962
 20
-553.9
 11
66.344
 21
-554.125
  0
LINE
  8
0
 10
66.344
 20
-554.125
 11
66.344
 21
-554.355
  0
LINE
  8
0
 10
66.344
 20
-554.355
 11
66.2962
 21
-554.58
  0
LINE
  8
0
 10
66.2962
 20
-554.58
 11
66.2026
 21
-554.79
  0
LINE
  8
0
 10
66.2026
 20
-554.79
 11
66.0675
 21
-554.976
  0
LINE
  8
0
 10
66.0675
 20
-554.976
 11
65.8966
 21
-555.13
  0
LINE
  8
0
 10
65.8966
 20
-555.13
 11
65.6974
 21
-555.245
  0
LINE
  8
0
 10
65.6974
 20
-555.245
 11
65.4787
 21
-555.316
  0
LINE
  8
0
 10
65.4787
 20
-555.316
 11
65.25
 21
-555.34
  0
LINE
  8
0
 10
65.25
 20
-555.34
 11
65.0213
 21
-555.316
  0
LINE
  8
0
 10
-57.4787
 20
-555.316
 11
-57.6974
 21
-555.245
  0
LINE
  8
0
 10
-57.6974
 20
-555.245
 11
-57.8966
 21
-555.13
  0
LINE
  8
0
 10
-57.8966
 20
-555.13
 11
-58.0675
 21
-554.976
  0
LINE
  8
0
 10
-58.0675
 20
-554.976
 11
-58.2026
 21
-554.79
  0
LINE
  8
0
 10
-58.2026
 20
-554.79
 11
-58.2962
 21
-554.58
  0
LINE
  8
0
 10
-58.2962
 20
-554.58
 11
-58.344
 21
-554.355
  0
LINE
  8
0
 10
-58.344
 20
-554.355
 11
-58.344
 21
-554.125
  0
LINE
  8
0
 10
-58.344
 20
-554.125
 11
-58.2962
 21
-553.9
  0
LINE
  8
0
 10
-58.2962
 20
-553.9
 11
-58.2026
 21
-553.69
  0
LINE
  8
0
 10
-58.2026
 20
-553.69
 11
-58.0675
 21
-553.504
  0
LINE
  8
0
 10
-58.0675
 20
-553.504
 11
-57.8966
 21
-553.35
  0
LINE
  8
0
 10
-57.8966
 20
-553.35
 11
-57.6974
 21
-553.235
  0
LINE
  8
0
 10
-57.6974
 20
-553.235
 11
-57.4787
 21
-553.164
  0
LINE
  8
0
 10
-57.4787
 20
-553.164
 11
-57.25
 21
-553.14
  0
LINE
  8
0
 10
-57.25
 20
-553.14
 11
-57.0213
 21
-553.164
  0
LINE
  8
0
 10
-57.0213
 20
-553.164
 11
-56.8026
 21
-553.235
  0
LINE
  8
0
 10
-56.8026
 20
-553.235
 11
-56.6034
 21
-553.35
  0
LINE
  8
0
 10
-56.6034
 20
-553.35
 11
-56.4325
 21
-553.504
  0
LINE
  8
0
 10
-56.4325
 20
-553.504
 11
-56.2974
 21
-553.69
  0
LINE
  8
0
 10
-56.2974
 20
-553.69
 11
-56.2038
 21
-553.9
  0
LINE
  8
0
 10
-56.2038
 20
-553.9
 11
-56.156
 21
-554.125
  0
LINE
  8
0
 10
-56.156
 20
-554.125
 11
-56.156
 21
-554.355
  0
LINE
  8
0
 10
-56.156
 20
-554.355
 11
-56.2038
 21
-554.58
  0
LINE
  8
0
 10
-56.2038
 20
-554.58
 11
-56.2974
 21
-554.79
  0
LINE
  8
0
 10
-56.2974
 20
-554.79
 11
-56.4325
 21
-554.976
  0
LINE
  8
0
 10
-56.4325
 20
-554.976
 11
-56.6034
 21
-555.13
  0
LINE
  8
0
 10
-56.6034
 20
-555.13
 11
-56.8026
 21
-555.245
  0
LINE
  8
0
 10
-56.8026
 20
-555.245
 11
-57.0213
 21
-555.316
  0
LINE
  8
0
 10
-57.0213
 20
-555.316
 11
-57.25
 21
-555.34
  0
LINE
  8
0
 10
-57.25
 20
-555.34
 11
-57.4787
 21
-555.316
  0
LINE
  8
0
 10
-57.4787
 20
-560.396
 11
-57.6974
 21
-560.325
  0
LINE
  8
0
 10
-57.6974
 20
-560.325
 11
-57.8966
 21
-560.21
  0
LINE
  8
0
 10
-57.8966
 20
-560.21
 11
-58.0675
 21
-560.056
  0
LINE
  8
0
 10
-58.0675
 20
-560.056
 11
-58.2026
 21
-559.87
  0
LINE
  8
0
 10
-58.2026
 20
-559.87
 11
-58.2962
 21
-559.66
  0
LINE
  8
0
 10
-58.2962
 20
-559.66
 11
-58.344
 21
-559.435
  0
LINE
  8
0
 10
-58.344
 20
-559.435
 11
-58.344
 21
-559.205
  0
LINE
  8
0
 10
-58.344
 20
-559.205
 11
-58.2962
 21
-558.98
  0
LINE
  8
0
 10
-58.2962
 20
-558.98
 11
-58.2026
 21
-558.77
  0
LINE
  8
0
 10
-58.2026
 20
-558.77
 11
-58.0675
 21
-558.584
  0
LINE
  8
0
 10
-58.0675
 20
-558.584
 11
-57.8966
 21
-558.43
  0
LINE
  8
0
 10
-57.8966
 20
-558.43
 11
-57.6974
 21
-558.315
  0
LINE
  8
0
 10
-57.6974
 20
-558.315
 11
-57.4787
 21
-558.244
  0
LINE
  8
0
 10
-57.4787
 20
-558.244
 11
-57.25
 21
-558.22
  0
LINE
  8
0
 10
-57.25
 20
-558.22
 11
-57.0213
 21
-558.244
  0
LINE
  8
0
 10
-57.0213
 20
-558.244
 11
-56.8026
 21
-558.315
  0
LINE
  8
0
 10
-56.8026
 20
-558.315
 11
-56.6034
 21
-558.43
  0
LINE
  8
0
 10
-56.6034
 20
-558.43
 11
-56.4325
 21
-558.584
  0
LINE
  8
0
 10
-56.4325
 20
-558.584
 11
-56.2974
 21
-558.77
  0
LINE
  8
0
 10
-56.2974
 20
-558.77
 11
-56.2038
 21
-558.98
  0
LINE
  8
0
 10
-56.2038
 20
-558.98
 11
-56.156
 21
-559.205
  0
LINE
  8
0
 10
-56.156
 20
-559.205
 11
-56.156
 21
-559.435
  0
LINE
  8
0
 10
-56.156
 20
-559.435
 11
-56.2038
 21
-559.66
  0
LINE
  8
0
 10
-56.2038
 20
-559.66
 11
-56.2974
 21
-559.87
  0
LINE
  8
0
 10
-56.2974
 20
-559.87
 11
-56.4325
 21
-560.056
  0
LINE
  8
0
 10
-56.4325
 20
-560.056
 11
-56.6034
 21
-560.21
  0
LINE
  8
0
 10
-56.6034
 20
-560.21
 11
-56.8026
 21
-560.325
  0
LINE
  8
0
 10
-56.8026
 20
-560.325
 11
-57.0213
 21
-560.396
  0
LINE
  8
0
 10
-57.0213
 20
-560.396
 11
-57.25
 21
-560.42
  0
LINE
  8
0
 10
-57.25
 20
-560.42
 11
-57.4787
 21
-560.396
  0
LINE
  8
0
 10
65.0213
 20
-560.396
 11
64.8026
 21
-560.325
  0
LINE
  8
0
 10
64.8026
 20
-560.325
 11
64.6034
 21
-560.21
  0
LINE
  8
0
 10
64.6034
 20
-560.21
 11
64.4325
 21
-560.056
  0
LINE
  8
0
 10
64.4325
 20
-560.056
 11
64.2974
 21
-559.87
  0
LINE
  8
0
 10
64.2974
 20
-559.87
 11
64.2038
 21
-559.66
  0
LINE
  8
0
 10
64.2038
 20
-559.66
 11
64.156
 21
-559.435
  0
LINE
  8
0
 10
64.156
 20
-559.435
 11
64.156
 21
-559.205
  0
LINE
  8
0
 10
64.156
 20
-559.205
 11
64.2038
 21
-558.98
  0
LINE
  8
0
 10
64.2038
 20
-558.98
 11
64.2974
 21
-558.77
  0
LINE
  8
0
 10
64.2974
 20
-558.77
 11
64.4325
 21
-558.584
  0
LINE
  8
0
 10
64.4325
 20
-558.584
 11
64.6034
 21
-558.43
  0
LINE
  8
0
 10
64.6034
 20
-558.43
 11
64.8026
 21
-558.315
  0
LINE
  8
0
 10
64.8026
 20
-558.315
 11
65.0213
 21
-558.244
  0
LINE
  8
0
 10
65.0213
 20
-558.244
 11
65.25
 21
-558.22
  0
LINE
  8
0
 10
65.25
 20
-558.22
 11
65.4787
 21
-558.244
  0
LINE
  8
0
 10
65.4787
 20
-558.244
 11
65.6974
 21
-558.315
  0
LINE
  8
0
 10
65.6974
 20
-558.315
 11
65.8966
 21
-558.43
  0
LINE
  8
0
 10
65.8966
 20
-558.43
 11
66.0675
 21
-558.584
  0
LINE
  8
0
 10
66.0675
 20
-558.584
 11
66.2026
 21
-558.77
  0
LINE
  8
0
 10
66.2026
 20
-558.77
 11
66.2962
 21
-558.98
  0
LINE
  8
0
 10
66.2962
 20
-558.98
 11
66.344
 21
-559.205
  0
LINE
  8
0
 10
66.344
 20
-559.205
 11
66.344
 21
-559.435
  0
LINE
  8
0
 10
66.344
 20
-559.435
 11
66.2962
 21
-559.66
  0
LINE
  8
0
 10
66.2962
 20
-559.66
 11
66.2026
 21
-559.87
  0
LINE
  8
0
 10
66.2026
 20
-559.87
 11
66.0675
 21
-560.056
  0
LINE
  8
0
 10
66.0675
 20
-560.056
 11
65.8966
 21
-560.21
  0
LINE
  8
0
 10
65.8966
 20
-560.21
 11
65.6974
 21
-560.325
  0
LINE
  8
0
 10
65.6974
 20
-560.325
 11
65.4787
 21
-560.396
  0
LINE
  8
0
 10
65.4787
 20
-560.396
 11
65.25
 21
-560.42
  0
LINE
  8
0
 10
65.25
 20
-560.42
 11
65.0213
 21
-560.396
  0
LINE
  8
0
 10
65.0213
 20
-565.476
 11
64.8026
 21
-565.405
  0
LINE
  8
0
 10
64.8026
 20
-565.405
 11
64.6034
 21
-565.29
  0
LINE
  8
0
 10
64.6034
 20
-565.29
 11
64.4325
 21
-565.136
  0
LINE
  8
0
 10
64.4325
 20
-565.136
 11
64.2974
 21
-564.95
  0
LINE
  8
0
 10
64.2974
 20
-564.95
 11
64.2038
 21
-564.74
  0
LINE
  8
0
 10
64.2038
 20
-564.74
 11
64.156
 21
-564.515
  0
LINE
  8
0
 10
64.156
 20
-564.515
 11
64.156
 21
-564.285
  0
LINE
  8
0
 10
64.156
 20
-564.285
 11
64.2038
 21
-564.06
  0
LINE
  8
0
 10
64.2038
 20
-564.06
 11
64.2974
 21
-563.85
  0
LINE
  8
0
 10
64.2974
 20
-563.85
 11
64.4325
 21
-563.664
  0
LINE
  8
0
 10
64.4325
 20
-563.664
 11
64.6034
 21
-563.51
  0
LINE
  8
0
 10
64.6034
 20
-563.51
 11
64.8026
 21
-563.395
  0
LINE
  8
0
 10
64.8026
 20
-563.395
 11
65.0213
 21
-563.324
  0
LINE
  8
0
 10
65.0213
 20
-563.324
 11
65.25
 21
-563.3
  0
LINE
  8
0
 10
65.25
 20
-563.3
 11
65.4787
 21
-563.324
  0
LINE
  8
0
 10
65.4787
 20
-563.324
 11
65.6974
 21
-563.395
  0
LINE
  8
0
 10
65.6974
 20
-563.395
 11
65.8966
 21
-563.51
  0
LINE
  8
0
 10
65.8966
 20
-563.51
 11
66.0675
 21
-563.664
  0
LINE
  8
0
 10
66.0675
 20
-563.664
 11
66.2026
 21
-563.85
  0
LINE
  8
0
 10
66.2026
 20
-563.85
 11
66.2962
 21
-564.06
  0
LINE
  8
0
 10
66.2962
 20
-564.06
 11
66.344
 21
-564.285
  0
LINE
  8
0
 10
66.344
 20
-564.285
 11
66.344
 21
-564.515
  0
LINE
  8
0
 10
66.344
 20
-564.515
 11
66.2962
 21
-564.74
  0
LINE
  8
0
 10
66.2962
 20
-564.74
 11
66.2026
 21
-564.95
  0
LINE
  8
0
 10
66.2026
 20
-564.95
 11
66.0675
 21
-565.136
  0
LINE
  8
0
 10
66.0675
 20
-565.136
 11
65.8966
 21
-565.29
  0
LINE
  8
0
 10
65.8966
 20
-565.29
 11
65.6974
 21
-565.405
  0
LINE
  8
0
 10
65.6974
 20
-565.405
 11
65.4787
 21
-565.476
  0
LINE
  8
0
 10
65.4787
 20
-565.476
 11
65.25
 21
-565.5
  0
LINE
  8
0
 10
65.25
 20
-565.5
 11
65.0213
 21
-565.476
  0
LINE
  8
0
 10
-57.4787
 20
-565.476
 11
-57.6974
 21
-565.405
  0
LINE
  8
0
 10
-57.6974
 20
-565.405
 11
-57.8966
 21
-565.29
  0
LINE
  8
0
 10
-57.8966
 20
-565.29
 11
-58.0675
 21
-565.136
  0
LINE
  8
0
 10
-58.0675
 20
-565.136
 11
-58.2026
 21
-564.95
  0
LINE
  8
0
 10
-58.2026
 20
-564.95
 11
-58.2962
 21
-564.74
  0
LINE
  8
0
 10
-58.2962
 20
-564.74
 11
-58.344
 21
-564.515
  0
LINE
  8
0
 10
-58.344
 20
-564.515
 11
-58.344
 21
-564.285
  0
LINE
  8
0
 10
-58.344
 20
-564.285
 11
-58.2962
 21
-564.06
  0
LINE
  8
0
 10
-58.2962
 20
-564.06
 11
-58.2026
 21
-563.85
  0
LINE
  8
0
 10
-58.2026
 20
-563.85
 11
-58.0675
 21
-563.664
  0
LINE
  8
0
 10
-58.0675
 20
-563.664
 11
-57.8966
 21
-563.51
  0
LINE
  8
0
 10
-57.8966
 20
-563.51
 11
-57.6974
 21
-563.395
  0
LINE
  8
0
 10
-57.6974
 20
-563.395
 11
-57.4787
 21
-563.324
  0
LINE
  8
0
 10
-57.4787
 20
-563.324
 11
-57.25
 21
-563.3
  0
LINE
  8
0
 10
-57.25
 20
-563.3
 11
-57.0213
 21
-563.324
  0
LINE
  8
0
 10
-57.0213
 20
-563.324
 11
-56.8026
 21
-563.395
  0
LINE
  8
0
 10
-56.8026
 20
-563.395
 11
-56.6034
 21
-563.51
  0
LINE
  8
0
 10
-56.6034
 20
-563.51
 11
-56.4325
 21
-563.664
  0
LINE
  8
0
 10
-56.4325
 20
-563.664
 11
-56.2974
 21
-563.85
  0
LINE
  8
0
 10
-56.2974
 20
-563.85
 11
-56.2038
 21
-564.06
  0
LINE
  8
0
 10
-56.2038
 20
-564.06
 11
-56.156
 21
-564.285
  0
LINE
  8
0
 10
-56.156
 20
-564.285
 11
-56.156
 21
-564.515
  0
LINE
  8
0
 10
-56.156
 20
-564.515
 11
-56.2038
 21
-564.74
  0
LINE
  8
0
 10
-56.2038
 20
-564.74
 11
-56.2974
 21
-564.95
  0
LINE
  8
0
 10
-56.2974
 20
-564.95
 11
-56.4325
 21
-565.136
  0
LINE
  8
0
 10
-56.4325
 20
-565.136
 11
-56.6034
 21
-565.29
  0
LINE
  8
0
 10
-56.6034
 20
-565.29
 11
-56.8026
 21
-565.405
  0
LINE
  8
0
 10
-56.8026
 20
-565.405
 11
-57.0213
 21
-565.476
  0
LINE
  8
0
 10
-57.0213
 20
-565.476
 11
-57.25
 21
-565.5
  0
LINE
  8
0
 10
-57.25
 20
-565.5
 11
-57.4787
 21
-565.476
  0
ENDSEC
  0
SECTION
  2
OBJECTS
  0
DICTIONARY
  0
ENDSEC
  0
EOF
