  0
SECTION
  2
BLOCKS
  0
ENDSEC
  0
SECTION
  2
ENTITIES
  0
LINE
  8
0
 10
-9.5
 20
-73
 11
-4.5
 21
-73
  0
LINE
  8
0
 10
-4.5
 20
-73
 11
-4.5
 21
-76.5
  0
LINE
  8
0
 10
-4.5
 20
-76.5
 11
4.5
 21
-76.5
  0
LINE
  8
0
 10
4.5
 20
-76.5
 11
4.5
 21
-73
  0
LINE
  8
0
 10
4.5
 20
-73
 11
9.5
 21
-73
  0
LINE
  8
0
 10
9.5
 20
-73
 11
9.5
 21
-76.5
  0
LINE
  8
0
 10
9.5
 20
-76.5
 11
15.5
 21
-76.5
  0
LINE
  8
0
 10
15.5
 20
-76.5
 11
15.5
 21
-63
  0
LINE
  8
0
 10
15.5
 20
-63
 11
12
 21
-63
  0
LINE
  8
0
 10
12
 20
-63
 11
12
 21
-58
  0
LINE
  8
0
 10
12
 20
-58
 11
15.5
 21
-58
  0
LINE
  8
0
 10
15.5
 20
-58
 11
15.5
 21
-22.6667
  0
LINE
  8
0
 10
15.5
 20
-22.6667
 11
12
 21
-22.6667
  0
LINE
  8
0
 10
12
 20
-22.6667
 11
12
 21
-17.6667
  0
LINE
  8
0
 10
12
 20
-17.6667
 11
15.5
 21
-17.6667
  0
LINE
  8
0
 10
15.5
 20
-17.6667
 11
15.5
 21
17.6667
  0
LINE
  8
0
 10
15.5
 20
17.6667
 11
12
 21
17.6667
  0
LINE
  8
0
 10
12
 20
17.6667
 11
12
 21
22.6667
  0
LINE
  8
0
 10
12
 20
22.6667
 11
15.5
 21
22.6667
  0
LINE
  8
0
 10
15.5
 20
22.6667
 11
15.5
 21
58
  0
LINE
  8
0
 10
15.5
 20
58
 11
12
 21
58
  0
LINE
  8
0
 10
12
 20
58
 11
12
 21
63
  0
LINE
  8
0
 10
12
 20
63
 11
15.5
 21
63
  0
LINE
  8
0
 10
15.5
 20
63
 11
15.5
 21
76.5
  0
LINE
  8
0
 10
15.5
 20
76.5
 11
9.5
 21
76.5
  0
LINE
  8
0
 10
9.5
 20
76.5
 11
9.5
 21
73
  0
LINE
  8
0
 10
9.5
 20
73
 11
4.5
 21
73
  0
LINE
  8
0
 10
4.5
 20
73
 11
4.5
 21
76.5
  0
LINE
  8
0
 10
4.5
 20
76.5
 11
-4.5
 21
76.5
  0
LINE
  8
0
 10
-4.5
 20
76.5
 11
-4.5
 21
73
  0
LINE
  8
0
 10
-4.5
 20
73
 11
-9.5
 21
73
  0
LINE
  8
0
 10
-9.5
 20
73
 11
-9.5
 21
76.5
  0
LINE
  8
0
 10
-9.5
 20
76.5
 11
-15.5
 21
76.5
  0
LINE
  8
0
 10
-15.5
 20
76.5
 11
-15.5
 21
63
  0
LINE
  8
0
 10
-15.5
 20
63
 11
-12
 21
63
  0
LINE
  8
0
 10
-12
 20
63
 11
-12
 21
58
  0
LINE
  8
0
 10
-12
 20
58
 11
-15.5
 21
58
  0
LINE
  8
0
 10
-15.5
 20
58
 11
-15.5
 21
22.6667
  0
LINE
  8
0
 10
-15.5
 20
22.6667
 11
-12
 21
22.6667
  0
LINE
  8
0
 10
-12
 20
22.6667
 11
-12
 21
17.6667
  0
LINE
  8
0
 10
-12
 20
17.6667
 11
-15.5
 21
17.6667
  0
LINE
  8
0
 10
-15.5
 20
17.6667
 11
-15.5
 21
-17.6667
  0
LINE
  8
0
 10
-15.5
 20
-17.6667
 11
-12
 21
-17.6667
  0
LINE
  8
0
 10
-12
 20
-17.6667
 11
-12
 21
-22.6667
  0
LINE
  8
0
 10
-12
 20
-22.6667
 11
-15.5
 21
-22.6667
  0
LINE
  8
0
 10
-15.5
 20
-22.6667
 11
-15.5
 21
-58
  0
LINE
  8
0
 10
-15.5
 20
-58
 11
-12
 21
-58
  0
LINE
  8
0
 10
-12
 20
-58
 11
-12
 21
-63
  0
LINE
  8
0
 10
-12
 20
-63
 11
-15.5
 21
-63
  0
LINE
  8
0
 10
-15.5
 20
-63
 11
-15.5
 21
-76.5
  0
LINE
  8
0
 10
-15.5
 20
-76.5
 11
-9.5
 21
-76.5
  0
LINE
  8
0
 10
-9.5
 20
-76.5
 11
-9.5
 21
-73
  0
LINE
  8
0
 10
-7.25586
 20
-21.2959
 11
-7.25586
 21
-18.9941
  0
LINE
  8
0
 10
-7.25586
 20
-18.9941
 11
9.6377
 21
-18.9941
  0
LINE
  8
0
 10
9.6377
 20
-18.9941
 11
9.6377
 21
-21.2959
  0
LINE
  8
0
 10
9.6377
 20
-21.2959
 11
-7.25586
 21
-21.2959
  0
LINE
  8
0
 10
-7.25586
 20
-34.0264
 11
-7.25586
 21
-31.7236
  0
LINE
  8
0
 10
-7.25586
 20
-31.7236
 11
9.6377
 21
-31.7236
  0
LINE
  8
0
 10
9.6377
 20
-31.7236
 11
9.6377
 21
-34.0264
  0
LINE
  8
0
 10
9.6377
 20
-34.0264
 11
-7.25586
 21
-34.0264
  0
LINE
  8
0
 10
-7.25586
 20
-50.583
 11
-7.25586
 21
-48.2812
  0
LINE
  8
0
 10
-7.25586
 20
-48.2812
 11
9.6377
 21
-48.2812
  0
LINE
  8
0
 10
9.6377
 20
-48.2812
 11
9.6377
 21
-50.583
  0
LINE
  8
0
 10
9.6377
 20
-50.583
 11
-7.25586
 21
-50.583
  0
LINE
  8
0
 10
-9.5
 20
-231
 11
-4.5
 21
-231
  0
LINE
  8
0
 10
-4.5
 20
-231
 11
-4.5
 21
-234.5
  0
LINE
  8
0
 10
-4.5
 20
-234.5
 11
4.5
 21
-234.5
  0
LINE
  8
0
 10
4.5
 20
-234.5
 11
4.5
 21
-231
  0
LINE
  8
0
 10
4.5
 20
-231
 11
9.5
 21
-231
  0
LINE
  8
0
 10
9.5
 20
-231
 11
9.5
 21
-234.5
  0
LINE
  8
0
 10
9.5
 20
-234.5
 11
15.5
 21
-234.5
  0
LINE
  8
0
 10
15.5
 20
-234.5
 11
15.5
 21
-221
  0
LINE
  8
0
 10
15.5
 20
-221
 11
12
 21
-221
  0
LINE
  8
0
 10
12
 20
-221
 11
12
 21
-216
  0
LINE
  8
0
 10
12
 20
-216
 11
15.5
 21
-216
  0
LINE
  8
0
 10
15.5
 20
-216
 11
15.5
 21
-180.667
  0
LINE
  8
0
 10
15.5
 20
-180.667
 11
12
 21
-180.667
  0
LINE
  8
0
 10
12
 20
-180.667
 11
12
 21
-175.667
  0
LINE
  8
0
 10
12
 20
-175.667
 11
15.5
 21
-175.667
  0
LINE
  8
0
 10
15.5
 20
-175.667
 11
15.5
 21
-140.333
  0
LINE
  8
0
 10
15.5
 20
-140.333
 11
12
 21
-140.333
  0
LINE
  8
0
 10
12
 20
-140.333
 11
12
 21
-135.333
  0
LINE
  8
0
 10
12
 20
-135.333
 11
15.5
 21
-135.333
  0
LINE
  8
0
 10
15.5
 20
-135.333
 11
15.5
 21
-100
  0
LINE
  8
0
 10
15.5
 20
-100
 11
12
 21
-100
  0
LINE
  8
0
 10
12
 20
-100
 11
12
 21
-95
  0
LINE
  8
0
 10
12
 20
-95
 11
15.5
 21
-95
  0
LINE
  8
0
 10
15.5
 20
-95
 11
15.5
 21
-81.5
  0
LINE
  8
0
 10
15.5
 20
-81.5
 11
9.5
 21
-81.5
  0
LINE
  8
0
 10
9.5
 20
-81.5
 11
9.5
 21
-85
  0
LINE
  8
0
 10
9.5
 20
-85
 11
4.5
 21
-85
  0
LINE
  8
0
 10
4.5
 20
-85
 11
4.5
 21
-81.5
  0
LINE
  8
0
 10
4.5
 20
-81.5
 11
-4.5
 21
-81.5
  0
LINE
  8
0
 10
-4.5
 20
-81.5
 11
-4.5
 21
-85
  0
LINE
  8
0
 10
-4.5
 20
-85
 11
-9.5
 21
-85
  0
LINE
  8
0
 10
-9.5
 20
-85
 11
-9.5
 21
-81.5
  0
LINE
  8
0
 10
-9.5
 20
-81.5
 11
-15.5
 21
-81.5
  0
LINE
  8
0
 10
-15.5
 20
-81.5
 11
-15.5
 21
-95
  0
LINE
  8
0
 10
-15.5
 20
-95
 11
-12
 21
-95
  0
LINE
  8
0
 10
-12
 20
-95
 11
-12
 21
-100
  0
LINE
  8
0
 10
-12
 20
-100
 11
-15.5
 21
-100
  0
LINE
  8
0
 10
-15.5
 20
-100
 11
-15.5
 21
-135.333
  0
LINE
  8
0
 10
-15.5
 20
-135.333
 11
-12
 21
-135.333
  0
LINE
  8
0
 10
-12
 20
-135.333
 11
-12
 21
-140.333
  0
LINE
  8
0
 10
-12
 20
-140.333
 11
-15.5
 21
-140.333
  0
LINE
  8
0
 10
-15.5
 20
-140.333
 11
-15.5
 21
-175.667
  0
LINE
  8
0
 10
-15.5
 20
-175.667
 11
-12
 21
-175.667
  0
LINE
  8
0
 10
-12
 20
-175.667
 11
-12
 21
-180.667
  0
LINE
  8
0
 10
-12
 20
-180.667
 11
-15.5
 21
-180.667
  0
LINE
  8
0
 10
-15.5
 20
-180.667
 11
-15.5
 21
-216
  0
LINE
  8
0
 10
-15.5
 20
-216
 11
-12
 21
-216
  0
LINE
  8
0
 10
-12
 20
-216
 11
-12
 21
-221
  0
LINE
  8
0
 10
-12
 20
-221
 11
-15.5
 21
-221
  0
LINE
  8
0
 10
-15.5
 20
-221
 11
-15.5
 21
-234.5
  0
LINE
  8
0
 10
-15.5
 20
-234.5
 11
-9.5
 21
-234.5
  0
LINE
  8
0
 10
-9.5
 20
-234.5
 11
-9.5
 21
-231
  0
LINE
  8
0
 10
-9.6377
 20
-179.296
 11
-9.6377
 21
-176.994
  0
LINE
  8
0
 10
-9.6377
 20
-176.994
 11
7.25586
 21
-176.994
  0
LINE
  8
0
 10
7.25586
 20
-176.994
 11
7.25586
 21
-179.296
  0
LINE
  8
0
 10
7.25586
 20
-179.296
 11
-9.6377
 21
-179.296
  0
LINE
  8
0
 10
-9.6377
 20
-192.026
 11
-9.6377
 21
-189.724
  0
LINE
  8
0
 10
-9.6377
 20
-189.724
 11
7.25586
 21
-189.724
  0
LINE
  8
0
 10
7.25586
 20
-189.724
 11
7.25586
 21
-192.026
  0
LINE
  8
0
 10
7.25586
 20
-192.026
 11
-9.6377
 21
-192.026
  0
LINE
  8
0
 10
-9.6377
 20
-208.583
 11
-9.6377
 21
-206.281
  0
LINE
  8
0
 10
-9.6377
 20
-206.281
 11
7.25586
 21
-206.281
  0
LINE
  8
0
 10
7.25586
 20
-206.281
 11
7.25586
 21
-208.583
  0
LINE
  8
0
 10
7.25586
 20
-208.583
 11
-9.6377
 21
-208.583
  0
LINE
  8
0
 10
-4.5
 20
-358
 11
4.5
 21
-358
  0
LINE
  8
0
 10
4.5
 20
-358
 11
4.5
 21
-361.5
  0
LINE
  8
0
 10
4.5
 20
-361.5
 11
9.5
 21
-361.5
  0
LINE
  8
0
 10
9.5
 20
-361.5
 11
9.5
 21
-358
  0
LINE
  8
0
 10
9.5
 20
-358
 11
15.5
 21
-358
  0
LINE
  8
0
 10
15.5
 20
-358
 11
15.5
 21
-348
  0
LINE
  8
0
 10
15.5
 20
-348
 11
12
 21
-348
  0
LINE
  8
0
 10
12
 20
-348
 11
12
 21
-343
  0
LINE
  8
0
 10
12
 20
-343
 11
15.5
 21
-343
  0
LINE
  8
0
 10
15.5
 20
-343
 11
15.5
 21
-318
  0
LINE
  8
0
 10
15.5
 20
-318
 11
12
 21
-318
  0
LINE
  8
0
 10
12
 20
-318
 11
12
 21
-313
  0
LINE
  8
0
 10
12
 20
-313
 11
15.5
 21
-313
  0
LINE
  8
0
 10
15.5
 20
-313
 11
15.5
 21
-288
  0
LINE
  8
0
 10
15.5
 20
-288
 11
12
 21
-288
  0
LINE
  8
0
 10
12
 20
-288
 11
12
 21
-283
  0
LINE
  8
0
 10
12
 20
-283
 11
15.5
 21
-283
  0
LINE
  8
0
 10
15.5
 20
-283
 11
15.5
 21
-258
  0
LINE
  8
0
 10
15.5
 20
-258
 11
12
 21
-258
  0
LINE
  8
0
 10
12
 20
-258
 11
12
 21
-253
  0
LINE
  8
0
 10
12
 20
-253
 11
15.5
 21
-253
  0
LINE
  8
0
 10
15.5
 20
-253
 11
15.5
 21
-243
  0
LINE
  8
0
 10
15.5
 20
-243
 11
9.5
 21
-243
  0
LINE
  8
0
 10
9.5
 20
-243
 11
9.5
 21
-239.5
  0
LINE
  8
0
 10
9.5
 20
-239.5
 11
4.5
 21
-239.5
  0
LINE
  8
0
 10
4.5
 20
-239.5
 11
4.5
 21
-243
  0
LINE
  8
0
 10
4.5
 20
-243
 11
-4.5
 21
-243
  0
LINE
  8
0
 10
-4.5
 20
-243
 11
-4.5
 21
-239.5
  0
LINE
  8
0
 10
-4.5
 20
-239.5
 11
-9.5
 21
-239.5
  0
LINE
  8
0
 10
-9.5
 20
-239.5
 11
-9.5
 21
-243
  0
LINE
  8
0
 10
-9.5
 20
-243
 11
-15.5
 21
-243
  0
LINE
  8
0
 10
-15.5
 20
-243
 11
-15.5
 21
-253
  0
LINE
  8
0
 10
-15.5
 20
-253
 11
-12
 21
-253
  0
LINE
  8
0
 10
-12
 20
-253
 11
-12
 21
-258
  0
LINE
  8
0
 10
-12
 20
-258
 11
-15.5
 21
-258
  0
LINE
  8
0
 10
-15.5
 20
-258
 11
-15.5
 21
-283
  0
LINE
  8
0
 10
-15.5
 20
-283
 11
-12
 21
-283
  0
LINE
  8
0
 10
-12
 20
-283
 11
-12
 21
-288
  0
LINE
  8
0
 10
-12
 20
-288
 11
-15.5
 21
-288
  0
LINE
  8
0
 10
-15.5
 20
-288
 11
-15.5
 21
-313
  0
LINE
  8
0
 10
-15.5
 20
-313
 11
-12
 21
-313
  0
LINE
  8
0
 10
-12
 20
-313
 11
-12
 21
-318
  0
LINE
  8
0
 10
-12
 20
-318
 11
-15.5
 21
-318
  0
LINE
  8
0
 10
-15.5
 20
-318
 11
-15.5
 21
-343
  0
LINE
  8
0
 10
-15.5
 20
-343
 11
-12
 21
-343
  0
LINE
  8
0
 10
-12
 20
-343
 11
-12
 21
-348
  0
LINE
  8
0
 10
-12
 20
-348
 11
-15.5
 21
-348
  0
LINE
  8
0
 10
-15.5
 20
-348
 11
-15.5
 21
-358
  0
LINE
  8
0
 10
-15.5
 20
-358
 11
-9.5
 21
-358
  0
LINE
  8
0
 10
-9.5
 20
-358
 11
-9.5
 21
-361.5
  0
LINE
  8
0
 10
-9.5
 20
-361.5
 11
-4.5
 21
-361.5
  0
LINE
  8
0
 10
-4.5
 20
-361.5
 11
-4.5
 21
-358
  0
LINE
  8
0
 10
-4.5
 20
-485
 11
4.5
 21
-485
  0
LINE
  8
0
 10
4.5
 20
-485
 11
4.5
 21
-488.5
  0
LINE
  8
0
 10
4.5
 20
-488.5
 11
9.5
 21
-488.5
  0
LINE
  8
0
 10
9.5
 20
-488.5
 11
9.5
 21
-485
  0
LINE
  8
0
 10
9.5
 20
-485
 11
15.5
 21
-485
  0
LINE
  8
0
 10
15.5
 20
-485
 11
15.5
 21
-475
  0
LINE
  8
0
 10
15.5
 20
-475
 11
12
 21
-475
  0
LINE
  8
0
 10
12
 20
-475
 11
12
 21
-470
  0
LINE
  8
0
 10
12
 20
-470
 11
15.5
 21
-470
  0
LINE
  8
0
 10
15.5
 20
-470
 11
15.5
 21
-445
  0
LINE
  8
0
 10
15.5
 20
-445
 11
12
 21
-445
  0
LINE
  8
0
 10
12
 20
-445
 11
12
 21
-440
  0
LINE
  8
0
 10
12
 20
-440
 11
15.5
 21
-440
  0
LINE
  8
0
 10
15.5
 20
-440
 11
15.5
 21
-415
  0
LINE
  8
0
 10
15.5
 20
-415
 11
12
 21
-415
  0
LINE
  8
0
 10
12
 20
-415
 11
12
 21
-410
  0
LINE
  8
0
 10
12
 20
-410
 11
15.5
 21
-410
  0
LINE
  8
0
 10
15.5
 20
-410
 11
15.5
 21
-385
  0
LINE
  8
0
 10
15.5
 20
-385
 11
12
 21
-385
  0
LINE
  8
0
 10
12
 20
-385
 11
12
 21
-380
  0
LINE
  8
0
 10
12
 20
-380
 11
15.5
 21
-380
  0
LINE
  8
0
 10
15.5
 20
-380
 11
15.5
 21
-370
  0
LINE
  8
0
 10
15.5
 20
-370
 11
9.5
 21
-370
  0
LINE
  8
0
 10
9.5
 20
-370
 11
9.5
 21
-366.5
  0
LINE
  8
0
 10
9.5
 20
-366.5
 11
4.5
 21
-366.5
  0
LINE
  8
0
 10
4.5
 20
-366.5
 11
4.5
 21
-370
  0
LINE
  8
0
 10
4.5
 20
-370
 11
-4.5
 21
-370
  0
LINE
  8
0
 10
-4.5
 20
-370
 11
-4.5
 21
-366.5
  0
LINE
  8
0
 10
-4.5
 20
-366.5
 11
-9.5
 21
-366.5
  0
LINE
  8
0
 10
-9.5
 20
-366.5
 11
-9.5
 21
-370
  0
LINE
  8
0
 10
-9.5
 20
-370
 11
-15.5
 21
-370
  0
LINE
  8
0
 10
-15.5
 20
-370
 11
-15.5
 21
-380
  0
LINE
  8
0
 10
-15.5
 20
-380
 11
-12
 21
-380
  0
LINE
  8
0
 10
-12
 20
-380
 11
-12
 21
-385
  0
LINE
  8
0
 10
-12
 20
-385
 11
-15.5
 21
-385
  0
LINE
  8
0
 10
-15.5
 20
-385
 11
-15.5
 21
-410
  0
LINE
  8
0
 10
-15.5
 20
-410
 11
-12
 21
-410
  0
LINE
  8
0
 10
-12
 20
-410
 11
-12
 21
-415
  0
LINE
  8
0
 10
-12
 20
-415
 11
-15.5
 21
-415
  0
LINE
  8
0
 10
-15.5
 20
-415
 11
-15.5
 21
-440
  0
LINE
  8
0
 10
-15.5
 20
-440
 11
-12
 21
-440
  0
LINE
  8
0
 10
-12
 20
-440
 11
-12
 21
-445
  0
LINE
  8
0
 10
-12
 20
-445
 11
-15.5
 21
-445
  0
LINE
  8
0
 10
-15.5
 20
-445
 11
-15.5
 21
-470
  0
LINE
  8
0
 10
-15.5
 20
-470
 11
-12
 21
-470
  0
LINE
  8
0
 10
-12
 20
-470
 11
-12
 21
-475
  0
LINE
  8
0
 10
-12
 20
-475
 11
-15.5
 21
-475
  0
LINE
  8
0
 10
-15.5
 20
-475
 11
-15.5
 21
-485
  0
LINE
  8
0
 10
-15.5
 20
-485
 11
-9.5
 21
-485
  0
LINE
  8
0
 10
-9.5
 20
-485
 11
-9.5
 21
-488.5
  0
LINE
  8
0
 10
-9.5
 20
-488.5
 11
-4.5
 21
-488.5
  0
LINE
  8
0
 10
-4.5
 20
-488.5
 11
-4.5
 21
-485
  0
LINE
  8
0
 10
-1.09961
 20
-380.024
 11
-1.72461
 21
-379.829
  0
LINE
  8
0
 10
-1.72461
 20
-379.829
 11
-2.28906
 21
-379.522
  0
LINE
  8
0
 10
-2.28906
 20
-379.522
 11
-2.78223
 21
-379.116
  0
LINE
  8
0
 10
-2.78223
 20
-379.116
 11
-3.18848
 21
-378.623
  0
LINE
  8
0
 10
-3.18848
 20
-378.623
 11
-3.49512
 21
-378.059
  0
LINE
  8
0
 10
-3.49512
 20
-378.059
 11
-3.68945
 21
-377.434
  0
LINE
  8
0
 10
-3.68945
 20
-377.434
 11
-3.75684
 21
-376.763
  0
LINE
  8
0
 10
-3.75684
 20
-376.763
 11
-3.68945
 21
-376.092
  0
LINE
  8
0
 10
-3.68945
 20
-376.092
 11
-3.49512
 21
-375.467
  0
LINE
  8
0
 10
-3.49512
 20
-375.467
 11
-3.18848
 21
-374.902
  0
LINE
  8
0
 10
-3.18848
 20
-374.902
 11
-2.78223
 21
-374.409
  0
LINE
  8
0
 10
-2.78223
 20
-374.409
 11
-2.28906
 21
-374.003
  0
LINE
  8
0
 10
-2.28906
 20
-374.003
 11
-1.72461
 21
-373.695
  0
LINE
  8
0
 10
-1.72461
 20
-373.695
 11
-1.09961
 21
-373.502
  0
LINE
  8
0
 10
-1.09961
 20
-373.502
 11
-0.428711
 21
-373.434
  0
LINE
  8
0
 10
-0.428711
 20
-373.434
 11
0.242188
 21
-373.502
  0
LINE
  8
0
 10
0.242188
 20
-373.502
 11
0.867188
 21
-373.695
  0
LINE
  8
0
 10
0.867188
 20
-373.695
 11
1.43262
 21
-374.002
  0
LINE
  8
0
 10
1.43262
 20
-374.002
 11
1.92578
 21
-374.409
  0
LINE
  8
0
 10
1.92578
 20
-374.409
 11
2.33203
 21
-374.901
  0
LINE
  8
0
 10
2.33203
 20
-374.901
 11
2.63867
 21
-375.467
  0
LINE
  8
0
 10
2.63867
 20
-375.467
 11
2.83203
 21
-376.093
  0
LINE
  8
0
 10
2.83203
 20
-376.093
 11
2.90039
 21
-376.763
  0
LINE
  8
0
 10
2.90039
 20
-376.763
 11
2.83203
 21
-377.433
  0
LINE
  8
0
 10
2.83203
 20
-377.433
 11
2.63867
 21
-378.059
  0
LINE
  8
0
 10
2.63867
 20
-378.059
 11
2.33203
 21
-378.624
  0
LINE
  8
0
 10
2.33203
 20
-378.624
 11
1.92578
 21
-379.116
  0
LINE
  8
0
 10
1.92578
 20
-379.116
 11
1.43262
 21
-379.522
  0
LINE
  8
0
 10
1.43262
 20
-379.522
 11
0.867188
 21
-379.829
  0
LINE
  8
0
 10
0.867188
 20
-379.829
 11
0.242188
 21
-380.023
  0
LINE
  8
0
 10
0.242188
 20
-380.023
 11
-0.428711
 21
-380.091
  0
LINE
  8
0
 10
-0.428711
 20
-380.091
 11
-1.09961
 21
-380.024
  0
LINE
  8
0
 10
-1.37988
 20
-460.898
 11
-1.76953
 21
-460.862
  0
LINE
  8
0
 10
-1.76953
 20
-460.862
 11
-2.13281
 21
-460.749
  0
LINE
  8
0
 10
-2.13281
 20
-460.749
 11
-2.46094
 21
-460.571
  0
LINE
  8
0
 10
-2.46094
 20
-460.571
 11
-2.74707
 21
-460.334
  0
LINE
  8
0
 10
-2.74707
 20
-460.334
 11
-2.98242
 21
-460.05
  0
LINE
  8
0
 10
-2.98242
 20
-460.05
 11
-3.16016
 21
-459.722
  0
LINE
  8
0
 10
-3.16016
 20
-459.722
 11
-3.27148
 21
-459.358
  0
LINE
  8
0
 10
-3.27148
 20
-459.358
 11
-3.31152
 21
-458.969
  0
LINE
  8
0
 10
-3.31152
 20
-458.969
 11
-3.31055
 21
-457.859
  0
LINE
  8
0
 10
-3.31055
 20
-457.859
 11
-3.31055
 21
-450.099
  0
LINE
  8
0
 10
-3.31055
 20
-450.099
 11
-3.27148
 21
-449.709
  0
LINE
  8
0
 10
-3.27148
 20
-449.709
 11
-3.16016
 21
-449.345
  0
LINE
  8
0
 10
-3.16016
 20
-449.345
 11
-2.98242
 21
-449.018
  0
LINE
  8
0
 10
-2.98242
 20
-449.018
 11
-2.74707
 21
-448.732
  0
LINE
  8
0
 10
-2.74707
 20
-448.732
 11
-2.46094
 21
-448.495
  0
LINE
  8
0
 10
-2.46094
 20
-448.495
 11
-2.13281
 21
-448.317
  0
LINE
  8
0
 10
-2.13281
 20
-448.317
 11
-1.76953
 21
-448.207
  0
LINE
  8
0
 10
-1.76953
 20
-448.207
 11
-1.37988
 21
-448.168
  0
LINE
  8
0
 10
-1.37988
 20
-448.168
 11
0.964844
 21
-448.168
  0
LINE
  8
0
 10
0.964844
 20
-448.168
 11
1.35547
 21
-448.207
  0
LINE
  8
0
 10
1.35547
 20
-448.207
 11
1.71875
 21
-448.317
  0
LINE
  8
0
 10
1.71875
 20
-448.317
 11
2.04688
 21
-448.495
  0
LINE
  8
0
 10
2.04688
 20
-448.495
 11
2.33203
 21
-448.732
  0
LINE
  8
0
 10
2.33203
 20
-448.732
 11
2.56738
 21
-449.018
  0
LINE
  8
0
 10
2.56738
 20
-449.018
 11
2.74512
 21
-449.345
  0
LINE
  8
0
 10
2.74512
 20
-449.345
 11
2.85742
 21
-449.709
  0
LINE
  8
0
 10
2.85742
 20
-449.709
 11
2.89648
 21
-450.099
  0
LINE
  8
0
 10
2.89648
 20
-450.099
 11
2.89648
 21
-458.969
  0
LINE
  8
0
 10
2.89648
 20
-458.969
 11
2.85742
 21
-459.357
  0
LINE
  8
0
 10
2.85742
 20
-459.357
 11
2.74512
 21
-459.722
  0
LINE
  8
0
 10
2.74512
 20
-459.722
 11
2.56738
 21
-460.05
  0
LINE
  8
0
 10
2.56738
 20
-460.05
 11
2.33203
 21
-460.334
  0
LINE
  8
0
 10
2.33203
 20
-460.334
 11
2.04688
 21
-460.571
  0
LINE
  8
0
 10
2.04688
 20
-460.571
 11
1.71875
 21
-460.749
  0
LINE
  8
0
 10
1.71875
 20
-460.749
 11
1.35547
 21
-460.862
  0
LINE
  8
0
 10
1.35547
 20
-460.862
 11
0.964844
 21
-460.898
  0
LINE
  8
0
 10
0.964844
 20
-460.898
 11
-1.37988
 21
-460.898
  0
LINE
  8
0
 10
-0.668945
 20
-476.328
 11
-1.38965
 21
-476.104
  0
LINE
  8
0
 10
-1.38965
 20
-476.104
 11
-2.04199
 21
-475.749
  0
LINE
  8
0
 10
-2.04199
 20
-475.749
 11
-2.61133
 21
-475.28
  0
LINE
  8
0
 10
-2.61133
 20
-475.28
 11
-3.08008
 21
-474.712
  0
LINE
  8
0
 10
-3.08008
 20
-474.712
 11
-3.43359
 21
-474.061
  0
LINE
  8
0
 10
-3.43359
 20
-474.061
 11
-3.6582
 21
-473.339
  0
LINE
  8
0
 10
-3.6582
 20
-473.339
 11
-3.73633
 21
-472.565
  0
LINE
  8
0
 10
-3.73633
 20
-472.565
 11
-3.6582
 21
-471.791
  0
LINE
  8
0
 10
-3.6582
 20
-471.791
 11
-3.43359
 21
-471.069
  0
LINE
  8
0
 10
-3.43359
 20
-471.069
 11
-3.08008
 21
-470.418
  0
LINE
  8
0
 10
-3.08008
 20
-470.418
 11
-2.61133
 21
-469.85
  0
LINE
  8
0
 10
-2.61133
 20
-469.85
 11
-2.04199
 21
-469.38
  0
LINE
  8
0
 10
-2.04199
 20
-469.38
 11
-1.38965
 21
-469.025
  0
LINE
  8
0
 10
-1.38965
 20
-469.025
 11
-0.668945
 21
-468.803
  0
LINE
  8
0
 10
-0.668945
 20
-468.803
 11
0.104492
 21
-468.725
  0
LINE
  8
0
 10
0.104492
 20
-468.725
 11
0.878906
 21
-468.803
  0
LINE
  8
0
 10
0.878906
 20
-468.803
 11
1.60059
 21
-469.025
  0
LINE
  8
0
 10
1.60059
 20
-469.025
 11
2.25195
 21
-469.38
  0
LINE
  8
0
 10
2.25195
 20
-469.38
 11
2.82129
 21
-469.85
  0
LINE
  8
0
 10
2.82129
 20
-469.85
 11
3.29004
 21
-470.418
  0
LINE
  8
0
 10
3.29004
 20
-470.418
 11
3.64453
 21
-471.069
  0
LINE
  8
0
 10
3.64453
 20
-471.069
 11
3.86719
 21
-471.791
  0
LINE
  8
0
 10
3.86719
 20
-471.791
 11
3.94629
 21
-472.565
  0
LINE
  8
0
 10
3.94629
 20
-472.565
 11
3.86719
 21
-473.339
  0
LINE
  8
0
 10
3.86719
 20
-473.339
 11
3.64453
 21
-474.061
  0
LINE
  8
0
 10
3.64453
 20
-474.061
 11
3.29004
 21
-474.712
  0
LINE
  8
0
 10
3.29004
 20
-474.712
 11
2.82129
 21
-475.28
  0
LINE
  8
0
 10
2.82129
 20
-475.28
 11
2.25195
 21
-475.749
  0
LINE
  8
0
 10
2.25195
 20
-475.749
 11
1.60059
 21
-476.104
  0
LINE
  8
0
 10
1.60059
 20
-476.104
 11
0.878906
 21
-476.328
  0
LINE
  8
0
 10
0.878906
 20
-476.328
 11
0.104492
 21
-476.405
  0
LINE
  8
0
 10
0.104492
 20
-476.405
 11
-0.668945
 21
-476.328
  0
LINE
  8
0
 10
-58
 20
-612
 11
-22.6667
 21
-612
  0
LINE
  8
0
 10
-22.6667
 20
-612
 11
-22.6667
 21
-615.5
  0
LINE
  8
0
 10
-22.6667
 20
-615.5
 11
-17.6667
 21
-615.5
  0
LINE
  8
0
 10
-17.6667
 20
-615.5
 11
-17.6667
 21
-612
  0
LINE
  8
0
 10
-17.6667
 20
-612
 11
17.6667
 21
-612
  0
LINE
  8
0
 10
17.6667
 20
-612
 11
17.6667
 21
-615.5
  0
LINE
  8
0
 10
17.6667
 20
-615.5
 11
22.6667
 21
-615.5
  0
LINE
  8
0
 10
22.6667
 20
-615.5
 11
22.6667
 21
-612
  0
LINE
  8
0
 10
22.6667
 20
-612
 11
58
 21
-612
  0
LINE
  8
0
 10
58
 20
-612
 11
58
 21
-615.5
  0
LINE
  8
0
 10
58
 20
-615.5
 11
63
 21
-615.5
  0
LINE
  8
0
 10
63
 20
-615.5
 11
63
 21
-612
  0
LINE
  8
0
 10
63
 20
-612
 11
73
 21
-612
  0
LINE
  8
0
 10
73
 20
-612
 11
73
 21
-602
  0
LINE
  8
0
 10
73
 20
-602
 11
76.5
 21
-602
  0
LINE
  8
0
 10
76.5
 20
-602
 11
76.5
 21
-597
  0
LINE
  8
0
 10
76.5
 20
-597
 11
73
 21
-597
  0
LINE
  8
0
 10
73
 20
-597
 11
73
 21
-572
  0
LINE
  8
0
 10
73
 20
-572
 11
76.5
 21
-572
  0
LINE
  8
0
 10
76.5
 20
-572
 11
76.5
 21
-567
  0
LINE
  8
0
 10
76.5
 20
-567
 11
73
 21
-567
  0
LINE
  8
0
 10
73
 20
-567
 11
73
 21
-542
  0
LINE
  8
0
 10
73
 20
-542
 11
76.5
 21
-542
  0
LINE
  8
0
 10
76.5
 20
-542
 11
76.5
 21
-537
  0
LINE
  8
0
 10
76.5
 20
-537
 11
73
 21
-537
  0
LINE
  8
0
 10
73
 20
-537
 11
73
 21
-512
  0
LINE
  8
0
 10
73
 20
-512
 11
76.5
 21
-512
  0
LINE
  8
0
 10
76.5
 20
-512
 11
76.5
 21
-507
  0
LINE
  8
0
 10
76.5
 20
-507
 11
73
 21
-507
  0
LINE
  8
0
 10
73
 20
-507
 11
73
 21
-497
  0
LINE
  8
0
 10
73
 20
-497
 11
63
 21
-497
  0
LINE
  8
0
 10
63
 20
-497
 11
63
 21
-493.5
  0
LINE
  8
0
 10
63
 20
-493.5
 11
58
 21
-493.5
  0
LINE
  8
0
 10
58
 20
-493.5
 11
58
 21
-497
  0
LINE
  8
0
 10
58
 20
-497
 11
22.6667
 21
-497
  0
LINE
  8
0
 10
22.6667
 20
-497
 11
22.6667
 21
-493.5
  0
LINE
  8
0
 10
22.6667
 20
-493.5
 11
17.6667
 21
-493.5
  0
LINE
  8
0
 10
17.6667
 20
-493.5
 11
17.6667
 21
-497
  0
LINE
  8
0
 10
17.6667
 20
-497
 11
-17.6667
 21
-497
  0
LINE
  8
0
 10
-17.6667
 20
-497
 11
-17.6667
 21
-493.5
  0
LINE
  8
0
 10
-17.6667
 20
-493.5
 11
-22.6667
 21
-493.5
  0
LINE
  8
0
 10
-22.6667
 20
-493.5
 11
-22.6667
 21
-497
  0
LINE
  8
0
 10
-22.6667
 20
-497
 11
-58
 21
-497
  0
LINE
  8
0
 10
-58
 20
-497
 11
-58
 21
-493.5
  0
LINE
  8
0
 10
-58
 20
-493.5
 11
-63
 21
-493.5
  0
LINE
  8
0
 10
-63
 20
-493.5
 11
-63
 21
-497
  0
LINE
  8
0
 10
-63
 20
-497
 11
-73
 21
-497
  0
LINE
  8
0
 10
-73
 20
-497
 11
-73
 21
-507
  0
LINE
  8
0
 10
-73
 20
-507
 11
-76.5
 21
-507
  0
LINE
  8
0
 10
-76.5
 20
-507
 11
-76.5
 21
-512
  0
LINE
  8
0
 10
-76.5
 20
-512
 11
-73
 21
-512
  0
LINE
  8
0
 10
-73
 20
-512
 11
-73
 21
-537
  0
LINE
  8
0
 10
-73
 20
-537
 11
-76.5
 21
-537
  0
LINE
  8
0
 10
-76.5
 20
-537
 11
-76.5
 21
-542
  0
LINE
  8
0
 10
-76.5
 20
-542
 11
-73
 21
-542
  0
LINE
  8
0
 10
-73
 20
-542
 11
-73
 21
-567
  0
LINE
  8
0
 10
-73
 20
-567
 11
-76.5
 21
-567
  0
LINE
  8
0
 10
-76.5
 20
-567
 11
-76.5
 21
-572
  0
LINE
  8
0
 10
-76.5
 20
-572
 11
-73
 21
-572
  0
LINE
  8
0
 10
-73
 20
-572
 11
-73
 21
-597
  0
LINE
  8
0
 10
-73
 20
-597
 11
-76.5
 21
-597
  0
LINE
  8
0
 10
-76.5
 20
-597
 11
-76.5
 21
-602
  0
LINE
  8
0
 10
-76.5
 20
-602
 11
-73
 21
-602
  0
LINE
  8
0
 10
-73
 20
-602
 11
-73
 21
-612
  0
LINE
  8
0
 10
-73
 20
-612
 11
-63
 21
-612
  0
LINE
  8
0
 10
-63
 20
-612
 11
-63
 21
-615.5
  0
LINE
  8
0
 10
-63
 20
-615.5
 11
-58
 21
-615.5
  0
LINE
  8
0
 10
-58
 20
-615.5
 11
-58
 21
-612
  0
LINE
  8
0
 10
-58
 20
-739
 11
-22.6667
 21
-739
  0
LINE
  8
0
 10
-22.6667
 20
-739
 11
-22.6667
 21
-742.5
  0
LINE
  8
0
 10
-22.6667
 20
-742.5
 11
-17.6667
 21
-742.5
  0
LINE
  8
0
 10
-17.6667
 20
-742.5
 11
-17.6667
 21
-739
  0
LINE
  8
0
 10
-17.6667
 20
-739
 11
17.6667
 21
-739
  0
LINE
  8
0
 10
17.6667
 20
-739
 11
17.6667
 21
-742.5
  0
LINE
  8
0
 10
17.6667
 20
-742.5
 11
22.6667
 21
-742.5
  0
LINE
  8
0
 10
22.6667
 20
-742.5
 11
22.6667
 21
-739
  0
LINE
  8
0
 10
22.6667
 20
-739
 11
58
 21
-739
  0
LINE
  8
0
 10
58
 20
-739
 11
58
 21
-742.5
  0
LINE
  8
0
 10
58
 20
-742.5
 11
63
 21
-742.5
  0
LINE
  8
0
 10
63
 20
-742.5
 11
63
 21
-739
  0
LINE
  8
0
 10
63
 20
-739
 11
73
 21
-739
  0
LINE
  8
0
 10
73
 20
-739
 11
73
 21
-729
  0
LINE
  8
0
 10
73
 20
-729
 11
76.5
 21
-729
  0
LINE
  8
0
 10
76.5
 20
-729
 11
76.5
 21
-724
  0
LINE
  8
0
 10
76.5
 20
-724
 11
73
 21
-724
  0
LINE
  8
0
 10
73
 20
-724
 11
73
 21
-699
  0
LINE
  8
0
 10
73
 20
-699
 11
76.5
 21
-699
  0
LINE
  8
0
 10
76.5
 20
-699
 11
76.5
 21
-694
  0
LINE
  8
0
 10
76.5
 20
-694
 11
73
 21
-694
  0
LINE
  8
0
 10
73
 20
-694
 11
73
 21
-669
  0
LINE
  8
0
 10
73
 20
-669
 11
76.5
 21
-669
  0
LINE
  8
0
 10
76.5
 20
-669
 11
76.5
 21
-664
  0
LINE
  8
0
 10
76.5
 20
-664
 11
73
 21
-664
  0
LINE
  8
0
 10
73
 20
-664
 11
73
 21
-639
  0
LINE
  8
0
 10
73
 20
-639
 11
76.5
 21
-639
  0
LINE
  8
0
 10
76.5
 20
-639
 11
76.5
 21
-634
  0
LINE
  8
0
 10
76.5
 20
-634
 11
73
 21
-634
  0
LINE
  8
0
 10
73
 20
-634
 11
73
 21
-624
  0
LINE
  8
0
 10
73
 20
-624
 11
63
 21
-624
  0
LINE
  8
0
 10
63
 20
-624
 11
63
 21
-620.5
  0
LINE
  8
0
 10
63
 20
-620.5
 11
58
 21
-620.5
  0
LINE
  8
0
 10
58
 20
-620.5
 11
58
 21
-624
  0
LINE
  8
0
 10
58
 20
-624
 11
22.6667
 21
-624
  0
LINE
  8
0
 10
22.6667
 20
-624
 11
22.6667
 21
-620.5
  0
LINE
  8
0
 10
22.6667
 20
-620.5
 11
17.6667
 21
-620.5
  0
LINE
  8
0
 10
17.6667
 20
-620.5
 11
17.6667
 21
-624
  0
LINE
  8
0
 10
17.6667
 20
-624
 11
-17.6667
 21
-624
  0
LINE
  8
0
 10
-17.6667
 20
-624
 11
-17.6667
 21
-620.5
  0
LINE
  8
0
 10
-17.6667
 20
-620.5
 11
-22.6667
 21
-620.5
  0
LINE
  8
0
 10
-22.6667
 20
-620.5
 11
-22.6667
 21
-624
  0
LINE
  8
0
 10
-22.6667
 20
-624
 11
-58
 21
-624
  0
LINE
  8
0
 10
-58
 20
-624
 11
-58
 21
-620.5
  0
LINE
  8
0
 10
-58
 20
-620.5
 11
-63
 21
-620.5
  0
LINE
  8
0
 10
-63
 20
-620.5
 11
-63
 21
-624
  0
LINE
  8
0
 10
-63
 20
-624
 11
-73
 21
-624
  0
LINE
  8
0
 10
-73
 20
-624
 11
-73
 21
-634
  0
LINE
  8
0
 10
-73
 20
-634
 11
-76.5
 21
-634
  0
LINE
  8
0
 10
-76.5
 20
-634
 11
-76.5
 21
-639
  0
LINE
  8
0
 10
-76.5
 20
-639
 11
-73
 21
-639
  0
LINE
  8
0
 10
-73
 20
-639
 11
-73
 21
-664
  0
LINE
  8
0
 10
-73
 20
-664
 11
-76.5
 21
-664
  0
LINE
  8
0
 10
-76.5
 20
-664
 11
-76.5
 21
-669
  0
LINE
  8
0
 10
-76.5
 20
-669
 11
-73
 21
-669
  0
LINE
  8
0
 10
-73
 20
-669
 11
-73
 21
-694
  0
LINE
  8
0
 10
-73
 20
-694
 11
-76.5
 21
-694
  0
LINE
  8
0
 10
-76.5
 20
-694
 11
-76.5
 21
-699
  0
LINE
  8
0
 10
-76.5
 20
-699
 11
-73
 21
-699
  0
LINE
  8
0
 10
-73
 20
-699
 11
-73
 21
-724
  0
LINE
  8
0
 10
-73
 20
-724
 11
-76.5
 21
-724
  0
LINE
  8
0
 10
-76.5
 20
-724
 11
-76.5
 21
-729
  0
LINE
  8
0
 10
-76.5
 20
-729
 11
-73
 21
-729
  0
LINE
  8
0
 10
-73
 20
-729
 11
-73
 21
-739
  0
LINE
  8
0
 10
-73
 20
-739
 11
-63
 21
-739
  0
LINE
  8
0
 10
-63
 20
-739
 11
-63
 21
-742.5
  0
LINE
  8
0
 10
-63
 20
-742.5
 11
-58
 21
-742.5
  0
LINE
  8
0
 10
-58
 20
-742.5
 11
-58
 21
-739
  0
LINE
  8
0
 10
-50.5
 20
-727.72
 11
-50.5
 21
-635.28
  0
LINE
  8
0
 10
-50.5
 20
-635.28
 11
58.5
 21
-635.28
  0
LINE
  8
0
 10
58.5
 20
-635.28
 11
58.5
 21
-727.72
  0
LINE
  8
0
 10
58.5
 20
-727.72
 11
-50.5
 21
-727.72
  0
LINE
  8
0
 10
-57.4787
 20
-639.436
 11
-57.6974
 21
-639.365
  0
LINE
  8
0
 10
-57.6974
 20
-639.365
 11
-57.8966
 21
-639.25
  0
LINE
  8
0
 10
-57.8966
 20
-639.25
 11
-58.0675
 21
-639.096
  0
LINE
  8
0
 10
-58.0675
 20
-639.096
 11
-58.2026
 21
-638.91
  0
LINE
  8
0
 10
-58.2026
 20
-638.91
 11
-58.2962
 21
-638.7
  0
LINE
  8
0
 10
-58.2962
 20
-638.7
 11
-58.344
 21
-638.475
  0
LINE
  8
0
 10
-58.344
 20
-638.475
 11
-58.344
 21
-638.245
  0
LINE
  8
0
 10
-58.344
 20
-638.245
 11
-58.2962
 21
-638.02
  0
LINE
  8
0
 10
-58.2962
 20
-638.02
 11
-58.2026
 21
-637.81
  0
LINE
  8
0
 10
-58.2026
 20
-637.81
 11
-58.0675
 21
-637.624
  0
LINE
  8
0
 10
-58.0675
 20
-637.624
 11
-57.8966
 21
-637.47
  0
LINE
  8
0
 10
-57.8966
 20
-637.47
 11
-57.6974
 21
-637.355
  0
LINE
  8
0
 10
-57.6974
 20
-637.355
 11
-57.4787
 21
-637.284
  0
LINE
  8
0
 10
-57.4787
 20
-637.284
 11
-57.25
 21
-637.26
  0
LINE
  8
0
 10
-57.25
 20
-637.26
 11
-57.0213
 21
-637.284
  0
LINE
  8
0
 10
-57.0213
 20
-637.284
 11
-56.8026
 21
-637.355
  0
LINE
  8
0
 10
-56.8026
 20
-637.355
 11
-56.6034
 21
-637.47
  0
LINE
  8
0
 10
-56.6034
 20
-637.47
 11
-56.4325
 21
-637.624
  0
LINE
  8
0
 10
-56.4325
 20
-637.624
 11
-56.2974
 21
-637.81
  0
LINE
  8
0
 10
-56.2974
 20
-637.81
 11
-56.2038
 21
-638.02
  0
LINE
  8
0
 10
-56.2038
 20
-638.02
 11
-56.156
 21
-638.245
  0
LINE
  8
0
 10
-56.156
 20
-638.245
 11
-56.156
 21
-638.475
  0
LINE
  8
0
 10
-56.156
 20
-638.475
 11
-56.2038
 21
-638.7
  0
LINE
  8
0
 10
-56.2038
 20
-638.7
 11
-56.2974
 21
-638.91
  0
LINE
  8
0
 10
-56.2974
 20
-638.91
 11
-56.4325
 21
-639.096
  0
LINE
  8
0
 10
-56.4325
 20
-639.096
 11
-56.6034
 21
-639.25
  0
LINE
  8
0
 10
-56.6034
 20
-639.25
 11
-56.8026
 21
-639.365
  0
LINE
  8
0
 10
-56.8026
 20
-639.365
 11
-57.0213
 21
-639.436
  0
LINE
  8
0
 10
-57.0213
 20
-639.436
 11
-57.25
 21
-639.46
  0
LINE
  8
0
 10
-57.25
 20
-639.46
 11
-57.4787
 21
-639.436
  0
LINE
  8
0
 10
65.0213
 20
-639.436
 11
64.8026
 21
-639.365
  0
LINE
  8
0
 10
64.8026
 20
-639.365
 11
64.6034
 21
-639.25
  0
LINE
  8
0
 10
64.6034
 20
-639.25
 11
64.4325
 21
-639.096
  0
LINE
  8
0
 10
64.4325
 20
-639.096
 11
64.2974
 21
-638.91
  0
LINE
  8
0
 10
64.2974
 20
-638.91
 11
64.2038
 21
-638.7
  0
LINE
  8
0
 10
64.2038
 20
-638.7
 11
64.156
 21
-638.475
  0
LINE
  8
0
 10
64.156
 20
-638.475
 11
64.156
 21
-638.245
  0
LINE
  8
0
 10
64.156
 20
-638.245
 11
64.2038
 21
-638.02
  0
LINE
  8
0
 10
64.2038
 20
-638.02
 11
64.2974
 21
-637.81
  0
LINE
  8
0
 10
64.2974
 20
-637.81
 11
64.4325
 21
-637.624
  0
LINE
  8
0
 10
64.4325
 20
-637.624
 11
64.6034
 21
-637.47
  0
LINE
  8
0
 10
64.6034
 20
-637.47
 11
64.8026
 21
-637.355
  0
LINE
  8
0
 10
64.8026
 20
-637.355
 11
65.0213
 21
-637.284
  0
LINE
  8
0
 10
65.0213
 20
-637.284
 11
65.25
 21
-637.26
  0
LINE
  8
0
 10
65.25
 20
-637.26
 11
65.4787
 21
-637.284
  0
LINE
  8
0
 10
65.4787
 20
-637.284
 11
65.6974
 21
-637.355
  0
LINE
  8
0
 10
65.6974
 20
-637.355
 11
65.8966
 21
-637.47
  0
LINE
  8
0
 10
65.8966
 20
-637.47
 11
66.0675
 21
-637.624
  0
LINE
  8
0
 10
66.0675
 20
-637.624
 11
66.2026
 21
-637.81
  0
LINE
  8
0
 10
66.2026
 20
-637.81
 11
66.2962
 21
-638.02
  0
LINE
  8
0
 10
66.2962
 20
-638.02
 11
66.344
 21
-638.245
  0
LINE
  8
0
 10
66.344
 20
-638.245
 11
66.344
 21
-638.475
  0
LINE
  8
0
 10
66.344
 20
-638.475
 11
66.2962
 21
-638.7
  0
LINE
  8
0
 10
66.2962
 20
-638.7
 11
66.2026
 21
-638.91
  0
LINE
  8
0
 10
66.2026
 20
-638.91
 11
66.0675
 21
-639.096
  0
LINE
  8
0
 10
66.0675
 20
-639.096
 11
65.8966
 21
-639.25
  0
LINE
  8
0
 10
65.8966
 20
-639.25
 11
65.6974
 21
-639.365
  0
LINE
  8
0
 10
65.6974
 20
-639.365
 11
65.4787
 21
-639.436
  0
LINE
  8
0
 10
65.4787
 20
-639.436
 11
65.25
 21
-639.46
  0
LINE
  8
0
 10
65.25
 20
-639.46
 11
65.0213
 21
-639.436
  0
LINE
  8
0
 10
-57.4787
 20
-644.516
 11
-57.6974
 21
-644.445
  0
LINE
  8
0
 10
-57.6974
 20
-644.445
 11
-57.8966
 21
-644.33
  0
LINE
  8
0
 10
-57.8966
 20
-644.33
 11
-58.0675
 21
-644.176
  0
LINE
  8
0
 10
-58.0675
 20
-644.176
 11
-58.2026
 21
-643.99
  0
LINE
  8
0
 10
-58.2026
 20
-643.99
 11
-58.2962
 21
-643.78
  0
LINE
  8
0
 10
-58.2962
 20
-643.78
 11
-58.344
 21
-643.555
  0
LINE
  8
0
 10
-58.344
 20
-643.555
 11
-58.344
 21
-643.325
  0
LINE
  8
0
 10
-58.344
 20
-643.325
 11
-58.2962
 21
-643.1
  0
LINE
  8
0
 10
-58.2962
 20
-643.1
 11
-58.2026
 21
-642.89
  0
LINE
  8
0
 10
-58.2026
 20
-642.89
 11
-58.0675
 21
-642.704
  0
LINE
  8
0
 10
-58.0675
 20
-642.704
 11
-57.8966
 21
-642.55
  0
LINE
  8
0
 10
-57.8966
 20
-642.55
 11
-57.6974
 21
-642.435
  0
LINE
  8
0
 10
-57.6974
 20
-642.435
 11
-57.4787
 21
-642.364
  0
LINE
  8
0
 10
-57.4787
 20
-642.364
 11
-57.25
 21
-642.34
  0
LINE
  8
0
 10
-57.25
 20
-642.34
 11
-57.0213
 21
-642.364
  0
LINE
  8
0
 10
-57.0213
 20
-642.364
 11
-56.8026
 21
-642.435
  0
LINE
  8
0
 10
-56.8026
 20
-642.435
 11
-56.6034
 21
-642.55
  0
LINE
  8
0
 10
-56.6034
 20
-642.55
 11
-56.4325
 21
-642.704
  0
LINE
  8
0
 10
-56.4325
 20
-642.704
 11
-56.2974
 21
-642.89
  0
LINE
  8
0
 10
-56.2974
 20
-642.89
 11
-56.2038
 21
-643.1
  0
LINE
  8
0
 10
-56.2038
 20
-643.1
 11
-56.156
 21
-643.325
  0
LINE
  8
0
 10
-56.156
 20
-643.325
 11
-56.156
 21
-643.555
  0
LINE
  8
0
 10
-56.156
 20
-643.555
 11
-56.2038
 21
-643.78
  0
LINE
  8
0
 10
-56.2038
 20
-643.78
 11
-56.2974
 21
-643.99
  0
LINE
  8
0
 10
-56.2974
 20
-643.99
 11
-56.4325
 21
-644.176
  0
LINE
  8
0
 10
-56.4325
 20
-644.176
 11
-56.6034
 21
-644.33
  0
LINE
  8
0
 10
-56.6034
 20
-644.33
 11
-56.8026
 21
-644.445
  0
LINE
  8
0
 10
-56.8026
 20
-644.445
 11
-57.0213
 21
-644.516
  0
LINE
  8
0
 10
-57.0213
 20
-644.516
 11
-57.25
 21
-644.54
  0
LINE
  8
0
 10
-57.25
 20
-644.54
 11
-57.4787
 21
-644.516
  0
LINE
  8
0
 10
65.0213
 20
-644.516
 11
64.8026
 21
-644.445
  0
LINE
  8
0
 10
64.8026
 20
-644.445
 11
64.6034
 21
-644.33
  0
LINE
  8
0
 10
64.6034
 20
-644.33
 11
64.4325
 21
-644.176
  0
LINE
  8
0
 10
64.4325
 20
-644.176
 11
64.2974
 21
-643.99
  0
LINE
  8
0
 10
64.2974
 20
-643.99
 11
64.2038
 21
-643.78
  0
LINE
  8
0
 10
64.2038
 20
-643.78
 11
64.156
 21
-643.555
  0
LINE
  8
0
 10
64.156
 20
-643.555
 11
64.156
 21
-643.325
  0
LINE
  8
0
 10
64.156
 20
-643.325
 11
64.2038
 21
-643.1
  0
LINE
  8
0
 10
64.2038
 20
-643.1
 11
64.2974
 21
-642.89
  0
LINE
  8
0
 10
64.2974
 20
-642.89
 11
64.4325
 21
-642.704
  0
LINE
  8
0
 10
64.4325
 20
-642.704
 11
64.6034
 21
-642.55
  0
LINE
  8
0
 10
64.6034
 20
-642.55
 11
64.8026
 21
-642.435
  0
LINE
  8
0
 10
64.8026
 20
-642.435
 11
65.0213
 21
-642.364
  0
LINE
  8
0
 10
65.0213
 20
-642.364
 11
65.25
 21
-642.34
  0
LINE
  8
0
 10
65.25
 20
-642.34
 11
65.4787
 21
-642.364
  0
LINE
  8
0
 10
65.4787
 20
-642.364
 11
65.6974
 21
-642.435
  0
LINE
  8
0
 10
65.6974
 20
-642.435
 11
65.8966
 21
-642.55
  0
LINE
  8
0
 10
65.8966
 20
-642.55
 11
66.0675
 21
-642.704
  0
LINE
  8
0
 10
66.0675
 20
-642.704
 11
66.2026
 21
-642.89
  0
LINE
  8
0
 10
66.2026
 20
-642.89
 11
66.2962
 21
-643.1
  0
LINE
  8
0
 10
66.2962
 20
-643.1
 11
66.344
 21
-643.325
  0
LINE
  8
0
 10
66.344
 20
-643.325
 11
66.344
 21
-643.555
  0
LINE
  8
0
 10
66.344
 20
-643.555
 11
66.2962
 21
-643.78
  0
LINE
  8
0
 10
66.2962
 20
-643.78
 11
66.2026
 21
-643.99
  0
LINE
  8
0
 10
66.2026
 20
-643.99
 11
66.0675
 21
-644.176
  0
LINE
  8
0
 10
66.0675
 20
-644.176
 11
65.8966
 21
-644.33
  0
LINE
  8
0
 10
65.8966
 20
-644.33
 11
65.6974
 21
-644.445
  0
LINE
  8
0
 10
65.6974
 20
-644.445
 11
65.4787
 21
-644.516
  0
LINE
  8
0
 10
65.4787
 20
-644.516
 11
65.25
 21
-644.54
  0
LINE
  8
0
 10
65.25
 20
-644.54
 11
65.0213
 21
-644.516
  0
LINE
  8
0
 10
65.0213
 20
-649.596
 11
64.8026
 21
-649.525
  0
LINE
  8
0
 10
64.8026
 20
-649.525
 11
64.6034
 21
-649.41
  0
LINE
  8
0
 10
64.6034
 20
-649.41
 11
64.4325
 21
-649.256
  0
LINE
  8
0
 10
64.4325
 20
-649.256
 11
64.2974
 21
-649.07
  0
LINE
  8
0
 10
64.2974
 20
-649.07
 11
64.2038
 21
-648.86
  0
LINE
  8
0
 10
64.2038
 20
-648.86
 11
64.156
 21
-648.635
  0
LINE
  8
0
 10
64.156
 20
-648.635
 11
64.156
 21
-648.405
  0
LINE
  8
0
 10
64.156
 20
-648.405
 11
64.2038
 21
-648.18
  0
LINE
  8
0
 10
64.2038
 20
-648.18
 11
64.2974
 21
-647.97
  0
LINE
  8
0
 10
64.2974
 20
-647.97
 11
64.4325
 21
-647.784
  0
LINE
  8
0
 10
64.4325
 20
-647.784
 11
64.6034
 21
-647.63
  0
LINE
  8
0
 10
64.6034
 20
-647.63
 11
64.8026
 21
-647.515
  0
LINE
  8
0
 10
64.8026
 20
-647.515
 11
65.0213
 21
-647.444
  0
LINE
  8
0
 10
65.0213
 20
-647.444
 11
65.25
 21
-647.42
  0
LINE
  8
0
 10
65.25
 20
-647.42
 11
65.4787
 21
-647.444
  0
LINE
  8
0
 10
65.4787
 20
-647.444
 11
65.6974
 21
-647.515
  0
LINE
  8
0
 10
65.6974
 20
-647.515
 11
65.8966
 21
-647.63
  0
LINE
  8
0
 10
65.8966
 20
-647.63
 11
66.0675
 21
-647.784
  0
LINE
  8
0
 10
66.0675
 20
-647.784
 11
66.2026
 21
-647.97
  0
LINE
  8
0
 10
66.2026
 20
-647.97
 11
66.2962
 21
-648.18
  0
LINE
  8
0
 10
66.2962
 20
-648.18
 11
66.344
 21
-648.405
  0
LINE
  8
0
 10
66.344
 20
-648.405
 11
66.344
 21
-648.635
  0
LINE
  8
0
 10
66.344
 20
-648.635
 11
66.2962
 21
-648.86
  0
LINE
  8
0
 10
66.2962
 20
-648.86
 11
66.2026
 21
-649.07
  0
LINE
  8
0
 10
66.2026
 20
-649.07
 11
66.0675
 21
-649.256
  0
LINE
  8
0
 10
66.0675
 20
-649.256
 11
65.8966
 21
-649.41
  0
LINE
  8
0
 10
65.8966
 20
-649.41
 11
65.6974
 21
-649.525
  0
LINE
  8
0
 10
65.6974
 20
-649.525
 11
65.4787
 21
-649.596
  0
LINE
  8
0
 10
65.4787
 20
-649.596
 11
65.25
 21
-649.62
  0
LINE
  8
0
 10
65.25
 20
-649.62
 11
65.0213
 21
-649.596
  0
LINE
  8
0
 10
-57.4787
 20
-649.596
 11
-57.6974
 21
-649.525
  0
LINE
  8
0
 10
-57.6974
 20
-649.525
 11
-57.8966
 21
-649.41
  0
LINE
  8
0
 10
-57.8966
 20
-649.41
 11
-58.0675
 21
-649.256
  0
LINE
  8
0
 10
-58.0675
 20
-649.256
 11
-58.2026
 21
-649.07
  0
LINE
  8
0
 10
-58.2026
 20
-649.07
 11
-58.2962
 21
-648.86
  0
LINE
  8
0
 10
-58.2962
 20
-648.86
 11
-58.344
 21
-648.635
  0
LINE
  8
0
 10
-58.344
 20
-648.635
 11
-58.344
 21
-648.405
  0
LINE
  8
0
 10
-58.344
 20
-648.405
 11
-58.2962
 21
-648.18
  0
LINE
  8
0
 10
-58.2962
 20
-648.18
 11
-58.2026
 21
-647.97
  0
LINE
  8
0
 10
-58.2026
 20
-647.97
 11
-58.0675
 21
-647.784
  0
LINE
  8
0
 10
-58.0675
 20
-647.784
 11
-57.8966
 21
-647.63
  0
LINE
  8
0
 10
-57.8966
 20
-647.63
 11
-57.6974
 21
-647.515
  0
LINE
  8
0
 10
-57.6974
 20
-647.515
 11
-57.4787
 21
-647.444
  0
LINE
  8
0
 10
-57.4787
 20
-647.444
 11
-57.25
 21
-647.42
  0
LINE
  8
0
 10
-57.25
 20
-647.42
 11
-57.0213
 21
-647.444
  0
LINE
  8
0
 10
-57.0213
 20
-647.444
 11
-56.8026
 21
-647.515
  0
LINE
  8
0
 10
-56.8026
 20
-647.515
 11
-56.6034
 21
-647.63
  0
LINE
  8
0
 10
-56.6034
 20
-647.63
 11
-56.4325
 21
-647.784
  0
LINE
  8
0
 10
-56.4325
 20
-647.784
 11
-56.2974
 21
-647.97
  0
LINE
  8
0
 10
-56.2974
 20
-647.97
 11
-56.2038
 21
-648.18
  0
LINE
  8
0
 10
-56.2038
 20
-648.18
 11
-56.156
 21
-648.405
  0
LINE
  8
0
 10
-56.156
 20
-648.405
 11
-56.156
 21
-648.635
  0
LINE
  8
0
 10
-56.156
 20
-648.635
 11
-56.2038
 21
-648.86
  0
LINE
  8
0
 10
-56.2038
 20
-648.86
 11
-56.2974
 21
-649.07
  0
LINE
  8
0
 10
-56.2974
 20
-649.07
 11
-56.4325
 21
-649.256
  0
LINE
  8
0
 10
-56.4325
 20
-649.256
 11
-56.6034
 21
-649.41
  0
LINE
  8
0
 10
-56.6034
 20
-649.41
 11
-56.8026
 21
-649.525
  0
LINE
  8
0
 10
-56.8026
 20
-649.525
 11
-57.0213
 21
-649.596
  0
LINE
  8
0
 10
-57.0213
 20
-649.596
 11
-57.25
 21
-649.62
  0
LINE
  8
0
 10
-57.25
 20
-649.62
 11
-57.4787
 21
-649.596
  0
LINE
  8
0
 10
-57.4787
 20
-654.676
 11
-57.6974
 21
-654.605
  0
LINE
  8
0
 10
-57.6974
 20
-654.605
 11
-57.8966
 21
-654.49
  0
LINE
  8
0
 10
-57.8966
 20
-654.49
 11
-58.0675
 21
-654.336
  0
LINE
  8
0
 10
-58.0675
 20
-654.336
 11
-58.2026
 21
-654.15
  0
LINE
  8
0
 10
-58.2026
 20
-654.15
 11
-58.2962
 21
-653.94
  0
LINE
  8
0
 10
-58.2962
 20
-653.94
 11
-58.344
 21
-653.715
  0
LINE
  8
0
 10
-58.344
 20
-653.715
 11
-58.344
 21
-653.485
  0
LINE
  8
0
 10
-58.344
 20
-653.485
 11
-58.2962
 21
-653.26
  0
LINE
  8
0
 10
-58.2962
 20
-653.26
 11
-58.2026
 21
-653.05
  0
LINE
  8
0
 10
-58.2026
 20
-653.05
 11
-58.0675
 21
-652.864
  0
LINE
  8
0
 10
-58.0675
 20
-652.864
 11
-57.8966
 21
-652.71
  0
LINE
  8
0
 10
-57.8966
 20
-652.71
 11
-57.6974
 21
-652.595
  0
LINE
  8
0
 10
-57.6974
 20
-652.595
 11
-57.4787
 21
-652.524
  0
LINE
  8
0
 10
-57.4787
 20
-652.524
 11
-57.25
 21
-652.5
  0
LINE
  8
0
 10
-57.25
 20
-652.5
 11
-57.0213
 21
-652.524
  0
LINE
  8
0
 10
-57.0213
 20
-652.524
 11
-56.8026
 21
-652.595
  0
LINE
  8
0
 10
-56.8026
 20
-652.595
 11
-56.6034
 21
-652.71
  0
LINE
  8
0
 10
-56.6034
 20
-652.71
 11
-56.4325
 21
-652.864
  0
LINE
  8
0
 10
-56.4325
 20
-652.864
 11
-56.2974
 21
-653.05
  0
LINE
  8
0
 10
-56.2974
 20
-653.05
 11
-56.2038
 21
-653.26
  0
LINE
  8
0
 10
-56.2038
 20
-653.26
 11
-56.156
 21
-653.485
  0
LINE
  8
0
 10
-56.156
 20
-653.485
 11
-56.156
 21
-653.715
  0
LINE
  8
0
 10
-56.156
 20
-653.715
 11
-56.2038
 21
-653.94
  0
LINE
  8
0
 10
-56.2038
 20
-653.94
 11
-56.2974
 21
-654.15
  0
LINE
  8
0
 10
-56.2974
 20
-654.15
 11
-56.4325
 21
-654.336
  0
LINE
  8
0
 10
-56.4325
 20
-654.336
 11
-56.6034
 21
-654.49
  0
LINE
  8
0
 10
-56.6034
 20
-654.49
 11
-56.8026
 21
-654.605
  0
LINE
  8
0
 10
-56.8026
 20
-654.605
 11
-57.0213
 21
-654.676
  0
LINE
  8
0
 10
-57.0213
 20
-654.676
 11
-57.25
 21
-654.7
  0
LINE
  8
0
 10
-57.25
 20
-654.7
 11
-57.4787
 21
-654.676
  0
LINE
  8
0
 10
65.0213
 20
-654.676
 11
64.8026
 21
-654.605
  0
LINE
  8
0
 10
64.8026
 20
-654.605
 11
64.6034
 21
-654.49
  0
LINE
  8
0
 10
64.6034
 20
-654.49
 11
64.4325
 21
-654.336
  0
LINE
  8
0
 10
64.4325
 20
-654.336
 11
64.2974
 21
-654.15
  0
LINE
  8
0
 10
64.2974
 20
-654.15
 11
64.2038
 21
-653.94
  0
LINE
  8
0
 10
64.2038
 20
-653.94
 11
64.156
 21
-653.715
  0
LINE
  8
0
 10
64.156
 20
-653.715
 11
64.156
 21
-653.485
  0
LINE
  8
0
 10
64.156
 20
-653.485
 11
64.2038
 21
-653.26
  0
LINE
  8
0
 10
64.2038
 20
-653.26
 11
64.2974
 21
-653.05
  0
LINE
  8
0
 10
64.2974
 20
-653.05
 11
64.4325
 21
-652.864
  0
LINE
  8
0
 10
64.4325
 20
-652.864
 11
64.6034
 21
-652.71
  0
LINE
  8
0
 10
64.6034
 20
-652.71
 11
64.8026
 21
-652.595
  0
LINE
  8
0
 10
64.8026
 20
-652.595
 11
65.0213
 21
-652.524
  0
LINE
  8
0
 10
65.0213
 20
-652.524
 11
65.25
 21
-652.5
  0
LINE
  8
0
 10
65.25
 20
-652.5
 11
65.4787
 21
-652.524
  0
LINE
  8
0
 10
65.4787
 20
-652.524
 11
65.6974
 21
-652.595
  0
LINE
  8
0
 10
65.6974
 20
-652.595
 11
65.8966
 21
-652.71
  0
LINE
  8
0
 10
65.8966
 20
-652.71
 11
66.0675
 21
-652.864
  0
LINE
  8
0
 10
66.0675
 20
-652.864
 11
66.2026
 21
-653.05
  0
LINE
  8
0
 10
66.2026
 20
-653.05
 11
66.2962
 21
-653.26
  0
LINE
  8
0
 10
66.2962
 20
-653.26
 11
66.344
 21
-653.485
  0
LINE
  8
0
 10
66.344
 20
-653.485
 11
66.344
 21
-653.715
  0
LINE
  8
0
 10
66.344
 20
-653.715
 11
66.2962
 21
-653.94
  0
LINE
  8
0
 10
66.2962
 20
-653.94
 11
66.2026
 21
-654.15
  0
LINE
  8
0
 10
66.2026
 20
-654.15
 11
66.0675
 21
-654.336
  0
LINE
  8
0
 10
66.0675
 20
-654.336
 11
65.8966
 21
-654.49
  0
LINE
  8
0
 10
65.8966
 20
-654.49
 11
65.6974
 21
-654.605
  0
LINE
  8
0
 10
65.6974
 20
-654.605
 11
65.4787
 21
-654.676
  0
LINE
  8
0
 10
65.4787
 20
-654.676
 11
65.25
 21
-654.7
  0
LINE
  8
0
 10
65.25
 20
-654.7
 11
65.0213
 21
-654.676
  0
LINE
  8
0
 10
-57.4787
 20
-659.756
 11
-57.6974
 21
-659.685
  0
LINE
  8
0
 10
-57.6974
 20
-659.685
 11
-57.8966
 21
-659.57
  0
LINE
  8
0
 10
-57.8966
 20
-659.57
 11
-58.0675
 21
-659.416
  0
LINE
  8
0
 10
-58.0675
 20
-659.416
 11
-58.2026
 21
-659.23
  0
LINE
  8
0
 10
-58.2026
 20
-659.23
 11
-58.2962
 21
-659.02
  0
LINE
  8
0
 10
-58.2962
 20
-659.02
 11
-58.344
 21
-658.795
  0
LINE
  8
0
 10
-58.344
 20
-658.795
 11
-58.344
 21
-658.565
  0
LINE
  8
0
 10
-58.344
 20
-658.565
 11
-58.2962
 21
-658.34
  0
LINE
  8
0
 10
-58.2962
 20
-658.34
 11
-58.2026
 21
-658.13
  0
LINE
  8
0
 10
-58.2026
 20
-658.13
 11
-58.0675
 21
-657.944
  0
LINE
  8
0
 10
-58.0675
 20
-657.944
 11
-57.8966
 21
-657.79
  0
LINE
  8
0
 10
-57.8966
 20
-657.79
 11
-57.6974
 21
-657.675
  0
LINE
  8
0
 10
-57.6974
 20
-657.675
 11
-57.4787
 21
-657.604
  0
LINE
  8
0
 10
-57.4787
 20
-657.604
 11
-57.25
 21
-657.58
  0
LINE
  8
0
 10
-57.25
 20
-657.58
 11
-57.0213
 21
-657.604
  0
LINE
  8
0
 10
-57.0213
 20
-657.604
 11
-56.8026
 21
-657.675
  0
LINE
  8
0
 10
-56.8026
 20
-657.675
 11
-56.6034
 21
-657.79
  0
LINE
  8
0
 10
-56.6034
 20
-657.79
 11
-56.4325
 21
-657.944
  0
LINE
  8
0
 10
-56.4325
 20
-657.944
 11
-56.2974
 21
-658.13
  0
LINE
  8
0
 10
-56.2974
 20
-658.13
 11
-56.2038
 21
-658.34
  0
LINE
  8
0
 10
-56.2038
 20
-658.34
 11
-56.156
 21
-658.565
  0
LINE
  8
0
 10
-56.156
 20
-658.565
 11
-56.156
 21
-658.795
  0
LINE
  8
0
 10
-56.156
 20
-658.795
 11
-56.2038
 21
-659.02
  0
LINE
  8
0
 10
-56.2038
 20
-659.02
 11
-56.2974
 21
-659.23
  0
LINE
  8
0
 10
-56.2974
 20
-659.23
 11
-56.4325
 21
-659.416
  0
LINE
  8
0
 10
-56.4325
 20
-659.416
 11
-56.6034
 21
-659.57
  0
LINE
  8
0
 10
-56.6034
 20
-659.57
 11
-56.8026
 21
-659.685
  0
LINE
  8
0
 10
-56.8026
 20
-659.685
 11
-57.0213
 21
-659.756
  0
LINE
  8
0
 10
-57.0213
 20
-659.756
 11
-57.25
 21
-659.78
  0
LINE
  8
0
 10
-57.25
 20
-659.78
 11
-57.4787
 21
-659.756
  0
LINE
  8
0
 10
65.0213
 20
-659.756
 11
64.8026
 21
-659.685
  0
LINE
  8
0
 10
64.8026
 20
-659.685
 11
64.6034
 21
-659.57
  0
LINE
  8
0
 10
64.6034
 20
-659.57
 11
64.4325
 21
-659.416
  0
LINE
  8
0
 10
64.4325
 20
-659.416
 11
64.2974
 21
-659.23
  0
LINE
  8
0
 10
64.2974
 20
-659.23
 11
64.2038
 21
-659.02
  0
LINE
  8
0
 10
64.2038
 20
-659.02
 11
64.156
 21
-658.795
  0
LINE
  8
0
 10
64.156
 20
-658.795
 11
64.156
 21
-658.565
  0
LINE
  8
0
 10
64.156
 20
-658.565
 11
64.2038
 21
-658.34
  0
LINE
  8
0
 10
64.2038
 20
-658.34
 11
64.2974
 21
-658.13
  0
LINE
  8
0
 10
64.2974
 20
-658.13
 11
64.4325
 21
-657.944
  0
LINE
  8
0
 10
64.4325
 20
-657.944
 11
64.6034
 21
-657.79
  0
LINE
  8
0
 10
64.6034
 20
-657.79
 11
64.8026
 21
-657.675
  0
LINE
  8
0
 10
64.8026
 20
-657.675
 11
65.0213
 21
-657.604
  0
LINE
  8
0
 10
65.0213
 20
-657.604
 11
65.25
 21
-657.58
  0
LINE
  8
0
 10
65.25
 20
-657.58
 11
65.4787
 21
-657.604
  0
LINE
  8
0
 10
65.4787
 20
-657.604
 11
65.6974
 21
-657.675
  0
LINE
  8
0
 10
65.6974
 20
-657.675
 11
65.8966
 21
-657.79
  0
LINE
  8
0
 10
65.8966
 20
-657.79
 11
66.0675
 21
-657.944
  0
LINE
  8
0
 10
66.0675
 20
-657.944
 11
66.2026
 21
-658.13
  0
LINE
  8
0
 10
66.2026
 20
-658.13
 11
66.2962
 21
-658.34
  0
LINE
  8
0
 10
66.2962
 20
-658.34
 11
66.344
 21
-658.565
  0
LINE
  8
0
 10
66.344
 20
-658.565
 11
66.344
 21
-658.795
  0
LINE
  8
0
 10
66.344
 20
-658.795
 11
66.2962
 21
-659.02
  0
LINE
  8
0
 10
66.2962
 20
-659.02
 11
66.2026
 21
-659.23
  0
LINE
  8
0
 10
66.2026
 20
-659.23
 11
66.0675
 21
-659.416
  0
LINE
  8
0
 10
66.0675
 20
-659.416
 11
65.8966
 21
-659.57
  0
LINE
  8
0
 10
65.8966
 20
-659.57
 11
65.6974
 21
-659.685
  0
LINE
  8
0
 10
65.6974
 20
-659.685
 11
65.4787
 21
-659.756
  0
LINE
  8
0
 10
65.4787
 20
-659.756
 11
65.25
 21
-659.78
  0
LINE
  8
0
 10
65.25
 20
-659.78
 11
65.0213
 21
-659.756
  0
LINE
  8
0
 10
65.0213
 20
-664.836
 11
64.8026
 21
-664.765
  0
LINE
  8
0
 10
64.8026
 20
-664.765
 11
64.6034
 21
-664.65
  0
LINE
  8
0
 10
64.6034
 20
-664.65
 11
64.4325
 21
-664.496
  0
LINE
  8
0
 10
64.4325
 20
-664.496
 11
64.2974
 21
-664.31
  0
LINE
  8
0
 10
64.2974
 20
-664.31
 11
64.2038
 21
-664.1
  0
LINE
  8
0
 10
64.2038
 20
-664.1
 11
64.156
 21
-663.875
  0
LINE
  8
0
 10
64.156
 20
-663.875
 11
64.156
 21
-663.645
  0
LINE
  8
0
 10
64.156
 20
-663.645
 11
64.2038
 21
-663.42
  0
LINE
  8
0
 10
64.2038
 20
-663.42
 11
64.2974
 21
-663.21
  0
LINE
  8
0
 10
64.2974
 20
-663.21
 11
64.4325
 21
-663.024
  0
LINE
  8
0
 10
64.4325
 20
-663.024
 11
64.6034
 21
-662.87
  0
LINE
  8
0
 10
64.6034
 20
-662.87
 11
64.8026
 21
-662.755
  0
LINE
  8
0
 10
64.8026
 20
-662.755
 11
65.0213
 21
-662.684
  0
LINE
  8
0
 10
65.0213
 20
-662.684
 11
65.25
 21
-662.66
  0
LINE
  8
0
 10
65.25
 20
-662.66
 11
65.4787
 21
-662.684
  0
LINE
  8
0
 10
65.4787
 20
-662.684
 11
65.6974
 21
-662.755
  0
LINE
  8
0
 10
65.6974
 20
-662.755
 11
65.8966
 21
-662.87
  0
LINE
  8
0
 10
65.8966
 20
-662.87
 11
66.0675
 21
-663.024
  0
LINE
  8
0
 10
66.0675
 20
-663.024
 11
66.2026
 21
-663.21
  0
LINE
  8
0
 10
66.2026
 20
-663.21
 11
66.2962
 21
-663.42
  0
LINE
  8
0
 10
66.2962
 20
-663.42
 11
66.344
 21
-663.645
  0
LINE
  8
0
 10
66.344
 20
-663.645
 11
66.344
 21
-663.875
  0
LINE
  8
0
 10
66.344
 20
-663.875
 11
66.2962
 21
-664.1
  0
LINE
  8
0
 10
66.2962
 20
-664.1
 11
66.2026
 21
-664.31
  0
LINE
  8
0
 10
66.2026
 20
-664.31
 11
66.0675
 21
-664.496
  0
LINE
  8
0
 10
66.0675
 20
-664.496
 11
65.8966
 21
-664.65
  0
LINE
  8
0
 10
65.8966
 20
-664.65
 11
65.6974
 21
-664.765
  0
LINE
  8
0
 10
65.6974
 20
-664.765
 11
65.4787
 21
-664.836
  0
LINE
  8
0
 10
65.4787
 20
-664.836
 11
65.25
 21
-664.86
  0
LINE
  8
0
 10
65.25
 20
-664.86
 11
65.0213
 21
-664.836
  0
LINE
  8
0
 10
-57.4787
 20
-664.836
 11
-57.6974
 21
-664.765
  0
LINE
  8
0
 10
-57.6974
 20
-664.765
 11
-57.8966
 21
-664.65
  0
LINE
  8
0
 10
-57.8966
 20
-664.65
 11
-58.0675
 21
-664.496
  0
LINE
  8
0
 10
-58.0675
 20
-664.496
 11
-58.2026
 21
-664.31
  0
LINE
  8
0
 10
-58.2026
 20
-664.31
 11
-58.2962
 21
-664.1
  0
LINE
  8
0
 10
-58.2962
 20
-664.1
 11
-58.344
 21
-663.875
  0
LINE
  8
0
 10
-58.344
 20
-663.875
 11
-58.344
 21
-663.645
  0
LINE
  8
0
 10
-58.344
 20
-663.645
 11
-58.2962
 21
-663.42
  0
LINE
  8
0
 10
-58.2962
 20
-663.42
 11
-58.2026
 21
-663.21
  0
LINE
  8
0
 10
-58.2026
 20
-663.21
 11
-58.0675
 21
-663.024
  0
LINE
  8
0
 10
-58.0675
 20
-663.024
 11
-57.8966
 21
-662.87
  0
LINE
  8
0
 10
-57.8966
 20
-662.87
 11
-57.6974
 21
-662.755
  0
LINE
  8
0
 10
-57.6974
 20
-662.755
 11
-57.4787
 21
-662.684
  0
LINE
  8
0
 10
-57.4787
 20
-662.684
 11
-57.25
 21
-662.66
  0
LINE
  8
0
 10
-57.25
 20
-662.66
 11
-57.0213
 21
-662.684
  0
LINE
  8
0
 10
-57.0213
 20
-662.684
 11
-56.8026
 21
-662.755
  0
LINE
  8
0
 10
-56.8026
 20
-662.755
 11
-56.6034
 21
-662.87
  0
LINE
  8
0
 10
-56.6034
 20
-662.87
 11
-56.4325
 21
-663.024
  0
LINE
  8
0
 10
-56.4325
 20
-663.024
 11
-56.2974
 21
-663.21
  0
LINE
  8
0
 10
-56.2974
 20
-663.21
 11
-56.2038
 21
-663.42
  0
LINE
  8
0
 10
-56.2038
 20
-663.42
 11
-56.156
 21
-663.645
  0
LINE
  8
0
 10
-56.156
 20
-663.645
 11
-56.156
 21
-663.875
  0
LINE
  8
0
 10
-56.156
 20
-663.875
 11
-56.2038
 21
-664.1
  0
LINE
  8
0
 10
-56.2038
 20
-664.1
 11
-56.2974
 21
-664.31
  0
LINE
  8
0
 10
-56.2974
 20
-664.31
 11
-56.4325
 21
-664.496
  0
LINE
  8
0
 10
-56.4325
 20
-664.496
 11
-56.6034
 21
-664.65
  0
LINE
  8
0
 10
-56.6034
 20
-664.65
 11
-56.8026
 21
-664.765
  0
LINE
  8
0
 10
-56.8026
 20
-664.765
 11
-57.0213
 21
-664.836
  0
LINE
  8
0
 10
-57.0213
 20
-664.836
 11
-57.25
 21
-664.86
  0
LINE
  8
0
 10
-57.25
 20
-664.86
 11
-57.4787
 21
-664.836
  0
LINE
  8
0
 10
-57.4787
 20
-669.916
 11
-57.6974
 21
-669.845
  0
LINE
  8
0
 10
-57.6974
 20
-669.845
 11
-57.8966
 21
-669.73
  0
LINE
  8
0
 10
-57.8966
 20
-669.73
 11
-58.0675
 21
-669.576
  0
LINE
  8
0
 10
-58.0675
 20
-669.576
 11
-58.2026
 21
-669.39
  0
LINE
  8
0
 10
-58.2026
 20
-669.39
 11
-58.2962
 21
-669.18
  0
LINE
  8
0
 10
-58.2962
 20
-669.18
 11
-58.344
 21
-668.955
  0
LINE
  8
0
 10
-58.344
 20
-668.955
 11
-58.344
 21
-668.725
  0
LINE
  8
0
 10
-58.344
 20
-668.725
 11
-58.2962
 21
-668.5
  0
LINE
  8
0
 10
-58.2962
 20
-668.5
 11
-58.2026
 21
-668.29
  0
LINE
  8
0
 10
-58.2026
 20
-668.29
 11
-58.0675
 21
-668.104
  0
LINE
  8
0
 10
-58.0675
 20
-668.104
 11
-57.8966
 21
-667.95
  0
LINE
  8
0
 10
-57.8966
 20
-667.95
 11
-57.6974
 21
-667.835
  0
LINE
  8
0
 10
-57.6974
 20
-667.835
 11
-57.4787
 21
-667.764
  0
LINE
  8
0
 10
-57.4787
 20
-667.764
 11
-57.25
 21
-667.74
  0
LINE
  8
0
 10
-57.25
 20
-667.74
 11
-57.0213
 21
-667.764
  0
LINE
  8
0
 10
-57.0213
 20
-667.764
 11
-56.8026
 21
-667.835
  0
LINE
  8
0
 10
-56.8026
 20
-667.835
 11
-56.6034
 21
-667.95
  0
LINE
  8
0
 10
-56.6034
 20
-667.95
 11
-56.4325
 21
-668.104
  0
LINE
  8
0
 10
-56.4325
 20
-668.104
 11
-56.2974
 21
-668.29
  0
LINE
  8
0
 10
-56.2974
 20
-668.29
 11
-56.2038
 21
-668.5
  0
LINE
  8
0
 10
-56.2038
 20
-668.5
 11
-56.156
 21
-668.725
  0
LINE
  8
0
 10
-56.156
 20
-668.725
 11
-56.156
 21
-668.955
  0
LINE
  8
0
 10
-56.156
 20
-668.955
 11
-56.2038
 21
-669.18
  0
LINE
  8
0
 10
-56.2038
 20
-669.18
 11
-56.2974
 21
-669.39
  0
LINE
  8
0
 10
-56.2974
 20
-669.39
 11
-56.4325
 21
-669.576
  0
LINE
  8
0
 10
-56.4325
 20
-669.576
 11
-56.6034
 21
-669.73
  0
LINE
  8
0
 10
-56.6034
 20
-669.73
 11
-56.8026
 21
-669.845
  0
LINE
  8
0
 10
-56.8026
 20
-669.845
 11
-57.0213
 21
-669.916
  0
LINE
  8
0
 10
-57.0213
 20
-669.916
 11
-57.25
 21
-669.94
  0
LINE
  8
0
 10
-57.25
 20
-669.94
 11
-57.4787
 21
-669.916
  0
LINE
  8
0
 10
65.0213
 20
-669.916
 11
64.8026
 21
-669.845
  0
LINE
  8
0
 10
64.8026
 20
-669.845
 11
64.6034
 21
-669.73
  0
LINE
  8
0
 10
64.6034
 20
-669.73
 11
64.4325
 21
-669.576
  0
LINE
  8
0
 10
64.4325
 20
-669.576
 11
64.2974
 21
-669.39
  0
LINE
  8
0
 10
64.2974
 20
-669.39
 11
64.2038
 21
-669.18
  0
LINE
  8
0
 10
64.2038
 20
-669.18
 11
64.156
 21
-668.955
  0
LINE
  8
0
 10
64.156
 20
-668.955
 11
64.156
 21
-668.725
  0
LINE
  8
0
 10
64.156
 20
-668.725
 11
64.2038
 21
-668.5
  0
LINE
  8
0
 10
64.2038
 20
-668.5
 11
64.2974
 21
-668.29
  0
LINE
  8
0
 10
64.2974
 20
-668.29
 11
64.4325
 21
-668.104
  0
LINE
  8
0
 10
64.4325
 20
-668.104
 11
64.6034
 21
-667.95
  0
LINE
  8
0
 10
64.6034
 20
-667.95
 11
64.8026
 21
-667.835
  0
LINE
  8
0
 10
64.8026
 20
-667.835
 11
65.0213
 21
-667.764
  0
LINE
  8
0
 10
65.0213
 20
-667.764
 11
65.25
 21
-667.74
  0
LINE
  8
0
 10
65.25
 20
-667.74
 11
65.4787
 21
-667.764
  0
LINE
  8
0
 10
65.4787
 20
-667.764
 11
65.6974
 21
-667.835
  0
LINE
  8
0
 10
65.6974
 20
-667.835
 11
65.8966
 21
-667.95
  0
LINE
  8
0
 10
65.8966
 20
-667.95
 11
66.0675
 21
-668.104
  0
LINE
  8
0
 10
66.0675
 20
-668.104
 11
66.2026
 21
-668.29
  0
LINE
  8
0
 10
66.2026
 20
-668.29
 11
66.2962
 21
-668.5
  0
LINE
  8
0
 10
66.2962
 20
-668.5
 11
66.344
 21
-668.725
  0
LINE
  8
0
 10
66.344
 20
-668.725
 11
66.344
 21
-668.955
  0
LINE
  8
0
 10
66.344
 20
-668.955
 11
66.2962
 21
-669.18
  0
LINE
  8
0
 10
66.2962
 20
-669.18
 11
66.2026
 21
-669.39
  0
LINE
  8
0
 10
66.2026
 20
-669.39
 11
66.0675
 21
-669.576
  0
LINE
  8
0
 10
66.0675
 20
-669.576
 11
65.8966
 21
-669.73
  0
LINE
  8
0
 10
65.8966
 20
-669.73
 11
65.6974
 21
-669.845
  0
LINE
  8
0
 10
65.6974
 20
-669.845
 11
65.4787
 21
-669.916
  0
LINE
  8
0
 10
65.4787
 20
-669.916
 11
65.25
 21
-669.94
  0
LINE
  8
0
 10
65.25
 20
-669.94
 11
65.0213
 21
-669.916
  0
LINE
  8
0
 10
65.0213
 20
-674.996
 11
64.8026
 21
-674.925
  0
LINE
  8
0
 10
64.8026
 20
-674.925
 11
64.6034
 21
-674.81
  0
LINE
  8
0
 10
64.6034
 20
-674.81
 11
64.4325
 21
-674.656
  0
LINE
  8
0
 10
64.4325
 20
-674.656
 11
64.2974
 21
-674.47
  0
LINE
  8
0
 10
64.2974
 20
-674.47
 11
64.2038
 21
-674.26
  0
LINE
  8
0
 10
64.2038
 20
-674.26
 11
64.156
 21
-674.035
  0
LINE
  8
0
 10
64.156
 20
-674.035
 11
64.156
 21
-673.805
  0
LINE
  8
0
 10
64.156
 20
-673.805
 11
64.2038
 21
-673.58
  0
LINE
  8
0
 10
64.2038
 20
-673.58
 11
64.2974
 21
-673.37
  0
LINE
  8
0
 10
64.2974
 20
-673.37
 11
64.4325
 21
-673.184
  0
LINE
  8
0
 10
64.4325
 20
-673.184
 11
64.6034
 21
-673.03
  0
LINE
  8
0
 10
64.6034
 20
-673.03
 11
64.8026
 21
-672.915
  0
LINE
  8
0
 10
64.8026
 20
-672.915
 11
65.0213
 21
-672.844
  0
LINE
  8
0
 10
65.0213
 20
-672.844
 11
65.25
 21
-672.82
  0
LINE
  8
0
 10
65.25
 20
-672.82
 11
65.4787
 21
-672.844
  0
LINE
  8
0
 10
65.4787
 20
-672.844
 11
65.6974
 21
-672.915
  0
LINE
  8
0
 10
65.6974
 20
-672.915
 11
65.8966
 21
-673.03
  0
LINE
  8
0
 10
65.8966
 20
-673.03
 11
66.0675
 21
-673.184
  0
LINE
  8
0
 10
66.0675
 20
-673.184
 11
66.2026
 21
-673.37
  0
LINE
  8
0
 10
66.2026
 20
-673.37
 11
66.2962
 21
-673.58
  0
LINE
  8
0
 10
66.2962
 20
-673.58
 11
66.344
 21
-673.805
  0
LINE
  8
0
 10
66.344
 20
-673.805
 11
66.344
 21
-674.035
  0
LINE
  8
0
 10
66.344
 20
-674.035
 11
66.2962
 21
-674.26
  0
LINE
  8
0
 10
66.2962
 20
-674.26
 11
66.2026
 21
-674.47
  0
LINE
  8
0
 10
66.2026
 20
-674.47
 11
66.0675
 21
-674.656
  0
LINE
  8
0
 10
66.0675
 20
-674.656
 11
65.8966
 21
-674.81
  0
LINE
  8
0
 10
65.8966
 20
-674.81
 11
65.6974
 21
-674.925
  0
LINE
  8
0
 10
65.6974
 20
-674.925
 11
65.4787
 21
-674.996
  0
LINE
  8
0
 10
65.4787
 20
-674.996
 11
65.25
 21
-675.02
  0
LINE
  8
0
 10
65.25
 20
-675.02
 11
65.0213
 21
-674.996
  0
LINE
  8
0
 10
-57.4787
 20
-674.996
 11
-57.6974
 21
-674.925
  0
LINE
  8
0
 10
-57.6974
 20
-674.925
 11
-57.8966
 21
-674.81
  0
LINE
  8
0
 10
-57.8966
 20
-674.81
 11
-58.0675
 21
-674.656
  0
LINE
  8
0
 10
-58.0675
 20
-674.656
 11
-58.2026
 21
-674.47
  0
LINE
  8
0
 10
-58.2026
 20
-674.47
 11
-58.2962
 21
-674.26
  0
LINE
  8
0
 10
-58.2962
 20
-674.26
 11
-58.344
 21
-674.035
  0
LINE
  8
0
 10
-58.344
 20
-674.035
 11
-58.344
 21
-673.805
  0
LINE
  8
0
 10
-58.344
 20
-673.805
 11
-58.2962
 21
-673.58
  0
LINE
  8
0
 10
-58.2962
 20
-673.58
 11
-58.2026
 21
-673.37
  0
LINE
  8
0
 10
-58.2026
 20
-673.37
 11
-58.0675
 21
-673.184
  0
LINE
  8
0
 10
-58.0675
 20
-673.184
 11
-57.8966
 21
-673.03
  0
LINE
  8
0
 10
-57.8966
 20
-673.03
 11
-57.6974
 21
-672.915
  0
LINE
  8
0
 10
-57.6974
 20
-672.915
 11
-57.4787
 21
-672.844
  0
LINE
  8
0
 10
-57.4787
 20
-672.844
 11
-57.25
 21
-672.82
  0
LINE
  8
0
 10
-57.25
 20
-672.82
 11
-57.0213
 21
-672.844
  0
LINE
  8
0
 10
-57.0213
 20
-672.844
 11
-56.8026
 21
-672.915
  0
LINE
  8
0
 10
-56.8026
 20
-672.915
 11
-56.6034
 21
-673.03
  0
LINE
  8
0
 10
-56.6034
 20
-673.03
 11
-56.4325
 21
-673.184
  0
LINE
  8
0
 10
-56.4325
 20
-673.184
 11
-56.2974
 21
-673.37
  0
LINE
  8
0
 10
-56.2974
 20
-673.37
 11
-56.2038
 21
-673.58
  0
LINE
  8
0
 10
-56.2038
 20
-673.58
 11
-56.156
 21
-673.805
  0
LINE
  8
0
 10
-56.156
 20
-673.805
 11
-56.156
 21
-674.035
  0
LINE
  8
0
 10
-56.156
 20
-674.035
 11
-56.2038
 21
-674.26
  0
LINE
  8
0
 10
-56.2038
 20
-674.26
 11
-56.2974
 21
-674.47
  0
LINE
  8
0
 10
-56.2974
 20
-674.47
 11
-56.4325
 21
-674.656
  0
LINE
  8
0
 10
-56.4325
 20
-674.656
 11
-56.6034
 21
-674.81
  0
LINE
  8
0
 10
-56.6034
 20
-674.81
 11
-56.8026
 21
-674.925
  0
LINE
  8
0
 10
-56.8026
 20
-674.925
 11
-57.0213
 21
-674.996
  0
LINE
  8
0
 10
-57.0213
 20
-674.996
 11
-57.25
 21
-675.02
  0
LINE
  8
0
 10
-57.25
 20
-675.02
 11
-57.4787
 21
-674.996
  0
LINE
  8
0
 10
-57.4787
 20
-680.076
 11
-57.6974
 21
-680.005
  0
LINE
  8
0
 10
-57.6974
 20
-680.005
 11
-57.8966
 21
-679.89
  0
LINE
  8
0
 10
-57.8966
 20
-679.89
 11
-58.0675
 21
-679.736
  0
LINE
  8
0
 10
-58.0675
 20
-679.736
 11
-58.2026
 21
-679.55
  0
LINE
  8
0
 10
-58.2026
 20
-679.55
 11
-58.2962
 21
-679.34
  0
LINE
  8
0
 10
-58.2962
 20
-679.34
 11
-58.344
 21
-679.115
  0
LINE
  8
0
 10
-58.344
 20
-679.115
 11
-58.344
 21
-678.885
  0
LINE
  8
0
 10
-58.344
 20
-678.885
 11
-58.2962
 21
-678.66
  0
LINE
  8
0
 10
-58.2962
 20
-678.66
 11
-58.2026
 21
-678.45
  0
LINE
  8
0
 10
-58.2026
 20
-678.45
 11
-58.0675
 21
-678.264
  0
LINE
  8
0
 10
-58.0675
 20
-678.264
 11
-57.8966
 21
-678.11
  0
LINE
  8
0
 10
-57.8966
 20
-678.11
 11
-57.6974
 21
-677.995
  0
LINE
  8
0
 10
-57.6974
 20
-677.995
 11
-57.4787
 21
-677.924
  0
LINE
  8
0
 10
-57.4787
 20
-677.924
 11
-57.25
 21
-677.9
  0
LINE
  8
0
 10
-57.25
 20
-677.9
 11
-57.0213
 21
-677.924
  0
LINE
  8
0
 10
-57.0213
 20
-677.924
 11
-56.8026
 21
-677.995
  0
LINE
  8
0
 10
-56.8026
 20
-677.995
 11
-56.6034
 21
-678.11
  0
LINE
  8
0
 10
-56.6034
 20
-678.11
 11
-56.4325
 21
-678.264
  0
LINE
  8
0
 10
-56.4325
 20
-678.264
 11
-56.2974
 21
-678.45
  0
LINE
  8
0
 10
-56.2974
 20
-678.45
 11
-56.2038
 21
-678.66
  0
LINE
  8
0
 10
-56.2038
 20
-678.66
 11
-56.156
 21
-678.885
  0
LINE
  8
0
 10
-56.156
 20
-678.885
 11
-56.156
 21
-679.115
  0
LINE
  8
0
 10
-56.156
 20
-679.115
 11
-56.2038
 21
-679.34
  0
LINE
  8
0
 10
-56.2038
 20
-679.34
 11
-56.2974
 21
-679.55
  0
LINE
  8
0
 10
-56.2974
 20
-679.55
 11
-56.4325
 21
-679.736
  0
LINE
  8
0
 10
-56.4325
 20
-679.736
 11
-56.6034
 21
-679.89
  0
LINE
  8
0
 10
-56.6034
 20
-679.89
 11
-56.8026
 21
-680.005
  0
LINE
  8
0
 10
-56.8026
 20
-680.005
 11
-57.0213
 21
-680.076
  0
LINE
  8
0
 10
-57.0213
 20
-680.076
 11
-57.25
 21
-680.1
  0
LINE
  8
0
 10
-57.25
 20
-680.1
 11
-57.4787
 21
-680.076
  0
LINE
  8
0
 10
65.0213
 20
-680.076
 11
64.8026
 21
-680.005
  0
LINE
  8
0
 10
64.8026
 20
-680.005
 11
64.6034
 21
-679.89
  0
LINE
  8
0
 10
64.6034
 20
-679.89
 11
64.4325
 21
-679.736
  0
LINE
  8
0
 10
64.4325
 20
-679.736
 11
64.2974
 21
-679.55
  0
LINE
  8
0
 10
64.2974
 20
-679.55
 11
64.2038
 21
-679.34
  0
LINE
  8
0
 10
64.2038
 20
-679.34
 11
64.156
 21
-679.115
  0
LINE
  8
0
 10
64.156
 20
-679.115
 11
64.156
 21
-678.885
  0
LINE
  8
0
 10
64.156
 20
-678.885
 11
64.2038
 21
-678.66
  0
LINE
  8
0
 10
64.2038
 20
-678.66
 11
64.2974
 21
-678.45
  0
LINE
  8
0
 10
64.2974
 20
-678.45
 11
64.4325
 21
-678.264
  0
LINE
  8
0
 10
64.4325
 20
-678.264
 11
64.6034
 21
-678.11
  0
LINE
  8
0
 10
64.6034
 20
-678.11
 11
64.8026
 21
-677.995
  0
LINE
  8
0
 10
64.8026
 20
-677.995
 11
65.0213
 21
-677.924
  0
LINE
  8
0
 10
65.0213
 20
-677.924
 11
65.25
 21
-677.9
  0
LINE
  8
0
 10
65.25
 20
-677.9
 11
65.4787
 21
-677.924
  0
LINE
  8
0
 10
65.4787
 20
-677.924
 11
65.6974
 21
-677.995
  0
LINE
  8
0
 10
65.6974
 20
-677.995
 11
65.8966
 21
-678.11
  0
LINE
  8
0
 10
65.8966
 20
-678.11
 11
66.0675
 21
-678.264
  0
LINE
  8
0
 10
66.0675
 20
-678.264
 11
66.2026
 21
-678.45
  0
LINE
  8
0
 10
66.2026
 20
-678.45
 11
66.2962
 21
-678.66
  0
LINE
  8
0
 10
66.2962
 20
-678.66
 11
66.344
 21
-678.885
  0
LINE
  8
0
 10
66.344
 20
-678.885
 11
66.344
 21
-679.115
  0
LINE
  8
0
 10
66.344
 20
-679.115
 11
66.2962
 21
-679.34
  0
LINE
  8
0
 10
66.2962
 20
-679.34
 11
66.2026
 21
-679.55
  0
LINE
  8
0
 10
66.2026
 20
-679.55
 11
66.0675
 21
-679.736
  0
LINE
  8
0
 10
66.0675
 20
-679.736
 11
65.8966
 21
-679.89
  0
LINE
  8
0
 10
65.8966
 20
-679.89
 11
65.6974
 21
-680.005
  0
LINE
  8
0
 10
65.6974
 20
-680.005
 11
65.4787
 21
-680.076
  0
LINE
  8
0
 10
65.4787
 20
-680.076
 11
65.25
 21
-680.1
  0
LINE
  8
0
 10
65.25
 20
-680.1
 11
65.0213
 21
-680.076
  0
LINE
  8
0
 10
65.0213
 20
-685.156
 11
64.8026
 21
-685.085
  0
LINE
  8
0
 10
64.8026
 20
-685.085
 11
64.6034
 21
-684.97
  0
LINE
  8
0
 10
64.6034
 20
-684.97
 11
64.4325
 21
-684.816
  0
LINE
  8
0
 10
64.4325
 20
-684.816
 11
64.2974
 21
-684.63
  0
LINE
  8
0
 10
64.2974
 20
-684.63
 11
64.2038
 21
-684.42
  0
LINE
  8
0
 10
64.2038
 20
-684.42
 11
64.156
 21
-684.195
  0
LINE
  8
0
 10
64.156
 20
-684.195
 11
64.156
 21
-683.965
  0
LINE
  8
0
 10
64.156
 20
-683.965
 11
64.2038
 21
-683.74
  0
LINE
  8
0
 10
64.2038
 20
-683.74
 11
64.2974
 21
-683.53
  0
LINE
  8
0
 10
64.2974
 20
-683.53
 11
64.4325
 21
-683.344
  0
LINE
  8
0
 10
64.4325
 20
-683.344
 11
64.6034
 21
-683.19
  0
LINE
  8
0
 10
64.6034
 20
-683.19
 11
64.8026
 21
-683.075
  0
LINE
  8
0
 10
64.8026
 20
-683.075
 11
65.0213
 21
-683.004
  0
LINE
  8
0
 10
65.0213
 20
-683.004
 11
65.25
 21
-682.98
  0
LINE
  8
0
 10
65.25
 20
-682.98
 11
65.4787
 21
-683.004
  0
LINE
  8
0
 10
65.4787
 20
-683.004
 11
65.6974
 21
-683.075
  0
LINE
  8
0
 10
65.6974
 20
-683.075
 11
65.8966
 21
-683.19
  0
LINE
  8
0
 10
65.8966
 20
-683.19
 11
66.0675
 21
-683.344
  0
LINE
  8
0
 10
66.0675
 20
-683.344
 11
66.2026
 21
-683.53
  0
LINE
  8
0
 10
66.2026
 20
-683.53
 11
66.2962
 21
-683.74
  0
LINE
  8
0
 10
66.2962
 20
-683.74
 11
66.344
 21
-683.965
  0
LINE
  8
0
 10
66.344
 20
-683.965
 11
66.344
 21
-684.195
  0
LINE
  8
0
 10
66.344
 20
-684.195
 11
66.2962
 21
-684.42
  0
LINE
  8
0
 10
66.2962
 20
-684.42
 11
66.2026
 21
-684.63
  0
LINE
  8
0
 10
66.2026
 20
-684.63
 11
66.0675
 21
-684.816
  0
LINE
  8
0
 10
66.0675
 20
-684.816
 11
65.8966
 21
-684.97
  0
LINE
  8
0
 10
65.8966
 20
-684.97
 11
65.6974
 21
-685.085
  0
LINE
  8
0
 10
65.6974
 20
-685.085
 11
65.4787
 21
-685.156
  0
LINE
  8
0
 10
65.4787
 20
-685.156
 11
65.25
 21
-685.18
  0
LINE
  8
0
 10
65.25
 20
-685.18
 11
65.0213
 21
-685.156
  0
LINE
  8
0
 10
-57.4787
 20
-685.156
 11
-57.6974
 21
-685.085
  0
LINE
  8
0
 10
-57.6974
 20
-685.085
 11
-57.8966
 21
-684.97
  0
LINE
  8
0
 10
-57.8966
 20
-684.97
 11
-58.0675
 21
-684.816
  0
LINE
  8
0
 10
-58.0675
 20
-684.816
 11
-58.2026
 21
-684.63
  0
LINE
  8
0
 10
-58.2026
 20
-684.63
 11
-58.2962
 21
-684.42
  0
LINE
  8
0
 10
-58.2962
 20
-684.42
 11
-58.344
 21
-684.195
  0
LINE
  8
0
 10
-58.344
 20
-684.195
 11
-58.344
 21
-683.965
  0
LINE
  8
0
 10
-58.344
 20
-683.965
 11
-58.2962
 21
-683.74
  0
LINE
  8
0
 10
-58.2962
 20
-683.74
 11
-58.2026
 21
-683.53
  0
LINE
  8
0
 10
-58.2026
 20
-683.53
 11
-58.0675
 21
-683.344
  0
LINE
  8
0
 10
-58.0675
 20
-683.344
 11
-57.8966
 21
-683.19
  0
LINE
  8
0
 10
-57.8966
 20
-683.19
 11
-57.6974
 21
-683.075
  0
LINE
  8
0
 10
-57.6974
 20
-683.075
 11
-57.4787
 21
-683.004
  0
LINE
  8
0
 10
-57.4787
 20
-683.004
 11
-57.25
 21
-682.98
  0
LINE
  8
0
 10
-57.25
 20
-682.98
 11
-57.0213
 21
-683.004
  0
LINE
  8
0
 10
-57.0213
 20
-683.004
 11
-56.8026
 21
-683.075
  0
LINE
  8
0
 10
-56.8026
 20
-683.075
 11
-56.6034
 21
-683.19
  0
LINE
  8
0
 10
-56.6034
 20
-683.19
 11
-56.4325
 21
-683.344
  0
LINE
  8
0
 10
-56.4325
 20
-683.344
 11
-56.2974
 21
-683.53
  0
LINE
  8
0
 10
-56.2974
 20
-683.53
 11
-56.2038
 21
-683.74
  0
LINE
  8
0
 10
-56.2038
 20
-683.74
 11
-56.156
 21
-683.965
  0
LINE
  8
0
 10
-56.156
 20
-683.965
 11
-56.156
 21
-684.195
  0
LINE
  8
0
 10
-56.156
 20
-684.195
 11
-56.2038
 21
-684.42
  0
LINE
  8
0
 10
-56.2038
 20
-684.42
 11
-56.2974
 21
-684.63
  0
LINE
  8
0
 10
-56.2974
 20
-684.63
 11
-56.4325
 21
-684.816
  0
LINE
  8
0
 10
-56.4325
 20
-684.816
 11
-56.6034
 21
-684.97
  0
LINE
  8
0
 10
-56.6034
 20
-684.97
 11
-56.8026
 21
-685.085
  0
LINE
  8
0
 10
-56.8026
 20
-685.085
 11
-57.0213
 21
-685.156
  0
LINE
  8
0
 10
-57.0213
 20
-685.156
 11
-57.25
 21
-685.18
  0
LINE
  8
0
 10
-57.25
 20
-685.18
 11
-57.4787
 21
-685.156
  0
LINE
  8
0
 10
65.0213
 20
-690.236
 11
64.8026
 21
-690.165
  0
LINE
  8
0
 10
64.8026
 20
-690.165
 11
64.6034
 21
-690.05
  0
LINE
  8
0
 10
64.6034
 20
-690.05
 11
64.4325
 21
-689.896
  0
LINE
  8
0
 10
64.4325
 20
-689.896
 11
64.2974
 21
-689.71
  0
LINE
  8
0
 10
64.2974
 20
-689.71
 11
64.2038
 21
-689.5
  0
LINE
  8
0
 10
64.2038
 20
-689.5
 11
64.156
 21
-689.275
  0
LINE
  8
0
 10
64.156
 20
-689.275
 11
64.156
 21
-689.045
  0
LINE
  8
0
 10
64.156
 20
-689.045
 11
64.2038
 21
-688.82
  0
LINE
  8
0
 10
64.2038
 20
-688.82
 11
64.2974
 21
-688.61
  0
LINE
  8
0
 10
64.2974
 20
-688.61
 11
64.4325
 21
-688.424
  0
LINE
  8
0
 10
64.4325
 20
-688.424
 11
64.6034
 21
-688.27
  0
LINE
  8
0
 10
64.6034
 20
-688.27
 11
64.8026
 21
-688.155
  0
LINE
  8
0
 10
64.8026
 20
-688.155
 11
65.0213
 21
-688.084
  0
LINE
  8
0
 10
65.0213
 20
-688.084
 11
65.25
 21
-688.06
  0
LINE
  8
0
 10
65.25
 20
-688.06
 11
65.4787
 21
-688.084
  0
LINE
  8
0
 10
65.4787
 20
-688.084
 11
65.6974
 21
-688.155
  0
LINE
  8
0
 10
65.6974
 20
-688.155
 11
65.8966
 21
-688.27
  0
LINE
  8
0
 10
65.8966
 20
-688.27
 11
66.0675
 21
-688.424
  0
LINE
  8
0
 10
66.0675
 20
-688.424
 11
66.2026
 21
-688.61
  0
LINE
  8
0
 10
66.2026
 20
-688.61
 11
66.2962
 21
-688.82
  0
LINE
  8
0
 10
66.2962
 20
-688.82
 11
66.344
 21
-689.045
  0
LINE
  8
0
 10
66.344
 20
-689.045
 11
66.344
 21
-689.275
  0
LINE
  8
0
 10
66.344
 20
-689.275
 11
66.2962
 21
-689.5
  0
LINE
  8
0
 10
66.2962
 20
-689.5
 11
66.2026
 21
-689.71
  0
LINE
  8
0
 10
66.2026
 20
-689.71
 11
66.0675
 21
-689.896
  0
LINE
  8
0
 10
66.0675
 20
-689.896
 11
65.8966
 21
-690.05
  0
LINE
  8
0
 10
65.8966
 20
-690.05
 11
65.6974
 21
-690.165
  0
LINE
  8
0
 10
65.6974
 20
-690.165
 11
65.4787
 21
-690.236
  0
LINE
  8
0
 10
65.4787
 20
-690.236
 11
65.25
 21
-690.26
  0
LINE
  8
0
 10
65.25
 20
-690.26
 11
65.0213
 21
-690.236
  0
LINE
  8
0
 10
-57.4787
 20
-690.236
 11
-57.6974
 21
-690.165
  0
LINE
  8
0
 10
-57.6974
 20
-690.165
 11
-57.8966
 21
-690.05
  0
LINE
  8
0
 10
-57.8966
 20
-690.05
 11
-58.0675
 21
-689.896
  0
LINE
  8
0
 10
-58.0675
 20
-689.896
 11
-58.2026
 21
-689.71
  0
LINE
  8
0
 10
-58.2026
 20
-689.71
 11
-58.2962
 21
-689.5
  0
LINE
  8
0
 10
-58.2962
 20
-689.5
 11
-58.344
 21
-689.275
  0
LINE
  8
0
 10
-58.344
 20
-689.275
 11
-58.344
 21
-689.045
  0
LINE
  8
0
 10
-58.344
 20
-689.045
 11
-58.2962
 21
-688.82
  0
LINE
  8
0
 10
-58.2962
 20
-688.82
 11
-58.2026
 21
-688.61
  0
LINE
  8
0
 10
-58.2026
 20
-688.61
 11
-58.0675
 21
-688.424
  0
LINE
  8
0
 10
-58.0675
 20
-688.424
 11
-57.8966
 21
-688.27
  0
LINE
  8
0
 10
-57.8966
 20
-688.27
 11
-57.6974
 21
-688.155
  0
LINE
  8
0
 10
-57.6974
 20
-688.155
 11
-57.4787
 21
-688.084
  0
LINE
  8
0
 10
-57.4787
 20
-688.084
 11
-57.25
 21
-688.06
  0
LINE
  8
0
 10
-57.25
 20
-688.06
 11
-57.0213
 21
-688.084
  0
LINE
  8
0
 10
-57.0213
 20
-688.084
 11
-56.8026
 21
-688.155
  0
LINE
  8
0
 10
-56.8026
 20
-688.155
 11
-56.6034
 21
-688.27
  0
LINE
  8
0
 10
-56.6034
 20
-688.27
 11
-56.4325
 21
-688.424
  0
LINE
  8
0
 10
-56.4325
 20
-688.424
 11
-56.2974
 21
-688.61
  0
LINE
  8
0
 10
-56.2974
 20
-688.61
 11
-56.2038
 21
-688.82
  0
LINE
  8
0
 10
-56.2038
 20
-688.82
 11
-56.156
 21
-689.045
  0
LINE
  8
0
 10
-56.156
 20
-689.045
 11
-56.156
 21
-689.275
  0
LINE
  8
0
 10
-56.156
 20
-689.275
 11
-56.2038
 21
-689.5
  0
LINE
  8
0
 10
-56.2038
 20
-689.5
 11
-56.2974
 21
-689.71
  0
LINE
  8
0
 10
-56.2974
 20
-689.71
 11
-56.4325
 21
-689.896
  0
LINE
  8
0
 10
-56.4325
 20
-689.896
 11
-56.6034
 21
-690.05
  0
LINE
  8
0
 10
-56.6034
 20
-690.05
 11
-56.8026
 21
-690.165
  0
LINE
  8
0
 10
-56.8026
 20
-690.165
 11
-57.0213
 21
-690.236
  0
LINE
  8
0
 10
-57.0213
 20
-690.236
 11
-57.25
 21
-690.26
  0
LINE
  8
0
 10
-57.25
 20
-690.26
 11
-57.4787
 21
-690.236
  0
LINE
  8
0
 10
65.0213
 20
-695.316
 11
64.8026
 21
-695.245
  0
LINE
  8
0
 10
64.8026
 20
-695.245
 11
64.6034
 21
-695.13
  0
LINE
  8
0
 10
64.6034
 20
-695.13
 11
64.4325
 21
-694.976
  0
LINE
  8
0
 10
64.4325
 20
-694.976
 11
64.2974
 21
-694.79
  0
LINE
  8
0
 10
64.2974
 20
-694.79
 11
64.2038
 21
-694.58
  0
LINE
  8
0
 10
64.2038
 20
-694.58
 11
64.156
 21
-694.355
  0
LINE
  8
0
 10
64.156
 20
-694.355
 11
64.156
 21
-694.125
  0
LINE
  8
0
 10
64.156
 20
-694.125
 11
64.2038
 21
-693.9
  0
LINE
  8
0
 10
64.2038
 20
-693.9
 11
64.2974
 21
-693.69
  0
LINE
  8
0
 10
64.2974
 20
-693.69
 11
64.4325
 21
-693.504
  0
LINE
  8
0
 10
64.4325
 20
-693.504
 11
64.6034
 21
-693.35
  0
LINE
  8
0
 10
64.6034
 20
-693.35
 11
64.8026
 21
-693.235
  0
LINE
  8
0
 10
64.8026
 20
-693.235
 11
65.0213
 21
-693.164
  0
LINE
  8
0
 10
65.0213
 20
-693.164
 11
65.25
 21
-693.14
  0
LINE
  8
0
 10
65.25
 20
-693.14
 11
65.4787
 21
-693.164
  0
LINE
  8
0
 10
65.4787
 20
-693.164
 11
65.6974
 21
-693.235
  0
LINE
  8
0
 10
65.6974
 20
-693.235
 11
65.8966
 21
-693.35
  0
LINE
  8
0
 10
65.8966
 20
-693.35
 11
66.0675
 21
-693.504
  0
LINE
  8
0
 10
66.0675
 20
-693.504
 11
66.2026
 21
-693.69
  0
LINE
  8
0
 10
66.2026
 20
-693.69
 11
66.2962
 21
-693.9
  0
LINE
  8
0
 10
66.2962
 20
-693.9
 11
66.344
 21
-694.125
  0
LINE
  8
0
 10
66.344
 20
-694.125
 11
66.344
 21
-694.355
  0
LINE
  8
0
 10
66.344
 20
-694.355
 11
66.2962
 21
-694.58
  0
LINE
  8
0
 10
66.2962
 20
-694.58
 11
66.2026
 21
-694.79
  0
LINE
  8
0
 10
66.2026
 20
-694.79
 11
66.0675
 21
-694.976
  0
LINE
  8
0
 10
66.0675
 20
-694.976
 11
65.8966
 21
-695.13
  0
LINE
  8
0
 10
65.8966
 20
-695.13
 11
65.6974
 21
-695.245
  0
LINE
  8
0
 10
65.6974
 20
-695.245
 11
65.4787
 21
-695.316
  0
LINE
  8
0
 10
65.4787
 20
-695.316
 11
65.25
 21
-695.34
  0
LINE
  8
0
 10
65.25
 20
-695.34
 11
65.0213
 21
-695.316
  0
LINE
  8
0
 10
-57.4787
 20
-695.316
 11
-57.6974
 21
-695.245
  0
LINE
  8
0
 10
-57.6974
 20
-695.245
 11
-57.8966
 21
-695.13
  0
LINE
  8
0
 10
-57.8966
 20
-695.13
 11
-58.0675
 21
-694.976
  0
LINE
  8
0
 10
-58.0675
 20
-694.976
 11
-58.2026
 21
-694.79
  0
LINE
  8
0
 10
-58.2026
 20
-694.79
 11
-58.2962
 21
-694.58
  0
LINE
  8
0
 10
-58.2962
 20
-694.58
 11
-58.344
 21
-694.355
  0
LINE
  8
0
 10
-58.344
 20
-694.355
 11
-58.344
 21
-694.125
  0
LINE
  8
0
 10
-58.344
 20
-694.125
 11
-58.2962
 21
-693.9
  0
LINE
  8
0
 10
-58.2962
 20
-693.9
 11
-58.2026
 21
-693.69
  0
LINE
  8
0
 10
-58.2026
 20
-693.69
 11
-58.0675
 21
-693.504
  0
LINE
  8
0
 10
-58.0675
 20
-693.504
 11
-57.8966
 21
-693.35
  0
LINE
  8
0
 10
-57.8966
 20
-693.35
 11
-57.6974
 21
-693.235
  0
LINE
  8
0
 10
-57.6974
 20
-693.235
 11
-57.4787
 21
-693.164
  0
LINE
  8
0
 10
-57.4787
 20
-693.164
 11
-57.25
 21
-693.14
  0
LINE
  8
0
 10
-57.25
 20
-693.14
 11
-57.0213
 21
-693.164
  0
LINE
  8
0
 10
-57.0213
 20
-693.164
 11
-56.8026
 21
-693.235
  0
LINE
  8
0
 10
-56.8026
 20
-693.235
 11
-56.6034
 21
-693.35
  0
LINE
  8
0
 10
-56.6034
 20
-693.35
 11
-56.4325
 21
-693.504
  0
LINE
  8
0
 10
-56.4325
 20
-693.504
 11
-56.2974
 21
-693.69
  0
LINE
  8
0
 10
-56.2974
 20
-693.69
 11
-56.2038
 21
-693.9
  0
LINE
  8
0
 10
-56.2038
 20
-693.9
 11
-56.156
 21
-694.125
  0
LINE
  8
0
 10
-56.156
 20
-694.125
 11
-56.156
 21
-694.355
  0
LINE
  8
0
 10
-56.156
 20
-694.355
 11
-56.2038
 21
-694.58
  0
LINE
  8
0
 10
-56.2038
 20
-694.58
 11
-56.2974
 21
-694.79
  0
LINE
  8
0
 10
-56.2974
 20
-694.79
 11
-56.4325
 21
-694.976
  0
LINE
  8
0
 10
-56.4325
 20
-694.976
 11
-56.6034
 21
-695.13
  0
LINE
  8
0
 10
-56.6034
 20
-695.13
 11
-56.8026
 21
-695.245
  0
LINE
  8
0
 10
-56.8026
 20
-695.245
 11
-57.0213
 21
-695.316
  0
LINE
  8
0
 10
-57.0213
 20
-695.316
 11
-57.25
 21
-695.34
  0
LINE
  8
0
 10
-57.25
 20
-695.34
 11
-57.4787
 21
-695.316
  0
LINE
  8
0
 10
65.0213
 20
-700.396
 11
64.8026
 21
-700.325
  0
LINE
  8
0
 10
64.8026
 20
-700.325
 11
64.6034
 21
-700.21
  0
LINE
  8
0
 10
64.6034
 20
-700.21
 11
64.4325
 21
-700.056
  0
LINE
  8
0
 10
64.4325
 20
-700.056
 11
64.2974
 21
-699.87
  0
LINE
  8
0
 10
64.2974
 20
-699.87
 11
64.2038
 21
-699.66
  0
LINE
  8
0
 10
64.2038
 20
-699.66
 11
64.156
 21
-699.435
  0
LINE
  8
0
 10
64.156
 20
-699.435
 11
64.156
 21
-699.205
  0
LINE
  8
0
 10
64.156
 20
-699.205
 11
64.2038
 21
-698.98
  0
LINE
  8
0
 10
64.2038
 20
-698.98
 11
64.2974
 21
-698.77
  0
LINE
  8
0
 10
64.2974
 20
-698.77
 11
64.4325
 21
-698.584
  0
LINE
  8
0
 10
64.4325
 20
-698.584
 11
64.6034
 21
-698.43
  0
LINE
  8
0
 10
64.6034
 20
-698.43
 11
64.8026
 21
-698.315
  0
LINE
  8
0
 10
64.8026
 20
-698.315
 11
65.0213
 21
-698.244
  0
LINE
  8
0
 10
65.0213
 20
-698.244
 11
65.25
 21
-698.22
  0
LINE
  8
0
 10
65.25
 20
-698.22
 11
65.4787
 21
-698.244
  0
LINE
  8
0
 10
65.4787
 20
-698.244
 11
65.6974
 21
-698.315
  0
LINE
  8
0
 10
65.6974
 20
-698.315
 11
65.8966
 21
-698.43
  0
LINE
  8
0
 10
65.8966
 20
-698.43
 11
66.0675
 21
-698.584
  0
LINE
  8
0
 10
66.0675
 20
-698.584
 11
66.2026
 21
-698.77
  0
LINE
  8
0
 10
66.2026
 20
-698.77
 11
66.2962
 21
-698.98
  0
LINE
  8
0
 10
66.2962
 20
-698.98
 11
66.344
 21
-699.205
  0
LINE
  8
0
 10
66.344
 20
-699.205
 11
66.344
 21
-699.435
  0
LINE
  8
0
 10
66.344
 20
-699.435
 11
66.2962
 21
-699.66
  0
LINE
  8
0
 10
66.2962
 20
-699.66
 11
66.2026
 21
-699.87
  0
LINE
  8
0
 10
66.2026
 20
-699.87
 11
66.0675
 21
-700.056
  0
LINE
  8
0
 10
66.0675
 20
-700.056
 11
65.8966
 21
-700.21
  0
LINE
  8
0
 10
65.8966
 20
-700.21
 11
65.6974
 21
-700.325
  0
LINE
  8
0
 10
65.6974
 20
-700.325
 11
65.4787
 21
-700.396
  0
LINE
  8
0
 10
65.4787
 20
-700.396
 11
65.25
 21
-700.42
  0
LINE
  8
0
 10
65.25
 20
-700.42
 11
65.0213
 21
-700.396
  0
LINE
  8
0
 10
-57.4787
 20
-700.396
 11
-57.6974
 21
-700.325
  0
LINE
  8
0
 10
-57.6974
 20
-700.325
 11
-57.8966
 21
-700.21
  0
LINE
  8
0
 10
-57.8966
 20
-700.21
 11
-58.0675
 21
-700.056
  0
LINE
  8
0
 10
-58.0675
 20
-700.056
 11
-58.2026
 21
-699.87
  0
LINE
  8
0
 10
-58.2026
 20
-699.87
 11
-58.2962
 21
-699.66
  0
LINE
  8
0
 10
-58.2962
 20
-699.66
 11
-58.344
 21
-699.435
  0
LINE
  8
0
 10
-58.344
 20
-699.435
 11
-58.344
 21
-699.205
  0
LINE
  8
0
 10
-58.344
 20
-699.205
 11
-58.2962
 21
-698.98
  0
LINE
  8
0
 10
-58.2962
 20
-698.98
 11
-58.2026
 21
-698.77
  0
LINE
  8
0
 10
-58.2026
 20
-698.77
 11
-58.0675
 21
-698.584
  0
LINE
  8
0
 10
-58.0675
 20
-698.584
 11
-57.8966
 21
-698.43
  0
LINE
  8
0
 10
-57.8966
 20
-698.43
 11
-57.6974
 21
-698.315
  0
LINE
  8
0
 10
-57.6974
 20
-698.315
 11
-57.4787
 21
-698.244
  0
LINE
  8
0
 10
-57.4787
 20
-698.244
 11
-57.25
 21
-698.22
  0
LINE
  8
0
 10
-57.25
 20
-698.22
 11
-57.0213
 21
-698.244
  0
LINE
  8
0
 10
-57.0213
 20
-698.244
 11
-56.8026
 21
-698.315
  0
LINE
  8
0
 10
-56.8026
 20
-698.315
 11
-56.6034
 21
-698.43
  0
LINE
  8
0
 10
-56.6034
 20
-698.43
 11
-56.4325
 21
-698.584
  0
LINE
  8
0
 10
-56.4325
 20
-698.584
 11
-56.2974
 21
-698.77
  0
LINE
  8
0
 10
-56.2974
 20
-698.77
 11
-56.2038
 21
-698.98
  0
LINE
  8
0
 10
-56.2038
 20
-698.98
 11
-56.156
 21
-699.205
  0
LINE
  8
0
 10
-56.156
 20
-699.205
 11
-56.156
 21
-699.435
  0
LINE
  8
0
 10
-56.156
 20
-699.435
 11
-56.2038
 21
-699.66
  0
LINE
  8
0
 10
-56.2038
 20
-699.66
 11
-56.2974
 21
-699.87
  0
LINE
  8
0
 10
-56.2974
 20
-699.87
 11
-56.4325
 21
-700.056
  0
LINE
  8
0
 10
-56.4325
 20
-700.056
 11
-56.6034
 21
-700.21
  0
LINE
  8
0
 10
-56.6034
 20
-700.21
 11
-56.8026
 21
-700.325
  0
LINE
  8
0
 10
-56.8026
 20
-700.325
 11
-57.0213
 21
-700.396
  0
LINE
  8
0
 10
-57.0213
 20
-700.396
 11
-57.25
 21
-700.42
  0
LINE
  8
0
 10
-57.25
 20
-700.42
 11
-57.4787
 21
-700.396
  0
LINE
  8
0
 10
65.0213
 20
-705.476
 11
64.8026
 21
-705.405
  0
LINE
  8
0
 10
64.8026
 20
-705.405
 11
64.6034
 21
-705.29
  0
LINE
  8
0
 10
64.6034
 20
-705.29
 11
64.4325
 21
-705.136
  0
LINE
  8
0
 10
64.4325
 20
-705.136
 11
64.2974
 21
-704.95
  0
LINE
  8
0
 10
64.2974
 20
-704.95
 11
64.2038
 21
-704.74
  0
LINE
  8
0
 10
64.2038
 20
-704.74
 11
64.156
 21
-704.515
  0
LINE
  8
0
 10
64.156
 20
-704.515
 11
64.156
 21
-704.285
  0
LINE
  8
0
 10
64.156
 20
-704.285
 11
64.2038
 21
-704.06
  0
LINE
  8
0
 10
64.2038
 20
-704.06
 11
64.2974
 21
-703.85
  0
LINE
  8
0
 10
64.2974
 20
-703.85
 11
64.4325
 21
-703.664
  0
LINE
  8
0
 10
64.4325
 20
-703.664
 11
64.6034
 21
-703.51
  0
LINE
  8
0
 10
64.6034
 20
-703.51
 11
64.8026
 21
-703.395
  0
LINE
  8
0
 10
64.8026
 20
-703.395
 11
65.0213
 21
-703.324
  0
LINE
  8
0
 10
65.0213
 20
-703.324
 11
65.25
 21
-703.3
  0
LINE
  8
0
 10
65.25
 20
-703.3
 11
65.4787
 21
-703.324
  0
LINE
  8
0
 10
65.4787
 20
-703.324
 11
65.6974
 21
-703.395
  0
LINE
  8
0
 10
65.6974
 20
-703.395
 11
65.8966
 21
-703.51
  0
LINE
  8
0
 10
65.8966
 20
-703.51
 11
66.0675
 21
-703.664
  0
LINE
  8
0
 10
66.0675
 20
-703.664
 11
66.2026
 21
-703.85
  0
LINE
  8
0
 10
66.2026
 20
-703.85
 11
66.2962
 21
-704.06
  0
LINE
  8
0
 10
66.2962
 20
-704.06
 11
66.344
 21
-704.285
  0
LINE
  8
0
 10
66.344
 20
-704.285
 11
66.344
 21
-704.515
  0
LINE
  8
0
 10
66.344
 20
-704.515
 11
66.2962
 21
-704.74
  0
LINE
  8
0
 10
66.2962
 20
-704.74
 11
66.2026
 21
-704.95
  0
LINE
  8
0
 10
66.2026
 20
-704.95
 11
66.0675
 21
-705.136
  0
LINE
  8
0
 10
66.0675
 20
-705.136
 11
65.8966
 21
-705.29
  0
LINE
  8
0
 10
65.8966
 20
-705.29
 11
65.6974
 21
-705.405
  0
LINE
  8
0
 10
65.6974
 20
-705.405
 11
65.4787
 21
-705.476
  0
LINE
  8
0
 10
65.4787
 20
-705.476
 11
65.25
 21
-705.5
  0
LINE
  8
0
 10
65.25
 20
-705.5
 11
65.0213
 21
-705.476
  0
LINE
  8
0
 10
-57.4787
 20
-705.476
 11
-57.6974
 21
-705.405
  0
LINE
  8
0
 10
-57.6974
 20
-705.405
 11
-57.8966
 21
-705.29
  0
LINE
  8
0
 10
-57.8966
 20
-705.29
 11
-58.0675
 21
-705.136
  0
LINE
  8
0
 10
-58.0675
 20
-705.136
 11
-58.2026
 21
-704.95
  0
LINE
  8
0
 10
-58.2026
 20
-704.95
 11
-58.2962
 21
-704.74
  0
LINE
  8
0
 10
-58.2962
 20
-704.74
 11
-58.344
 21
-704.515
  0
LINE
  8
0
 10
-58.344
 20
-704.515
 11
-58.344
 21
-704.285
  0
LINE
  8
0
 10
-58.344
 20
-704.285
 11
-58.2962
 21
-704.06
  0
LINE
  8
0
 10
-58.2962
 20
-704.06
 11
-58.2026
 21
-703.85
  0
LINE
  8
0
 10
-58.2026
 20
-703.85
 11
-58.0675
 21
-703.664
  0
LINE
  8
0
 10
-58.0675
 20
-703.664
 11
-57.8966
 21
-703.51
  0
LINE
  8
0
 10
-57.8966
 20
-703.51
 11
-57.6974
 21
-703.395
  0
LINE
  8
0
 10
-57.6974
 20
-703.395
 11
-57.4787
 21
-703.324
  0
LINE
  8
0
 10
-57.4787
 20
-703.324
 11
-57.25
 21
-703.3
  0
LINE
  8
0
 10
-57.25
 20
-703.3
 11
-57.0213
 21
-703.324
  0
LINE
  8
0
 10
-57.0213
 20
-703.324
 11
-56.8026
 21
-703.395
  0
LINE
  8
0
 10
-56.8026
 20
-703.395
 11
-56.6034
 21
-703.51
  0
LINE
  8
0
 10
-56.6034
 20
-703.51
 11
-56.4325
 21
-703.664
  0
LINE
  8
0
 10
-56.4325
 20
-703.664
 11
-56.2974
 21
-703.85
  0
LINE
  8
0
 10
-56.2974
 20
-703.85
 11
-56.2038
 21
-704.06
  0
LINE
  8
0
 10
-56.2038
 20
-704.06
 11
-56.156
 21
-704.285
  0
LINE
  8
0
 10
-56.156
 20
-704.285
 11
-56.156
 21
-704.515
  0
LINE
  8
0
 10
-56.156
 20
-704.515
 11
-56.2038
 21
-704.74
  0
LINE
  8
0
 10
-56.2038
 20
-704.74
 11
-56.2974
 21
-704.95
  0
LINE
  8
0
 10
-56.2974
 20
-704.95
 11
-56.4325
 21
-705.136
  0
LINE
  8
0
 10
-56.4325
 20
-705.136
 11
-56.6034
 21
-705.29
  0
LINE
  8
0
 10
-56.6034
 20
-705.29
 11
-56.8026
 21
-705.405
  0
LINE
  8
0
 10
-56.8026
 20
-705.405
 11
-57.0213
 21
-705.476
  0
LINE
  8
0
 10
-57.0213
 20
-705.476
 11
-57.25
 21
-705.5
  0
LINE
  8
0
 10
-57.25
 20
-705.5
 11
-57.4787
 21
-705.476
  0
LINE
  8
0
 10
65.0213
 20
-710.556
 11
64.8026
 21
-710.485
  0
LINE
  8
0
 10
64.8026
 20
-710.485
 11
64.6034
 21
-710.37
  0
LINE
  8
0
 10
64.6034
 20
-710.37
 11
64.4325
 21
-710.216
  0
LINE
  8
0
 10
64.4325
 20
-710.216
 11
64.2974
 21
-710.03
  0
LINE
  8
0
 10
64.2974
 20
-710.03
 11
64.2038
 21
-709.82
  0
LINE
  8
0
 10
64.2038
 20
-709.82
 11
64.156
 21
-709.595
  0
LINE
  8
0
 10
64.156
 20
-709.595
 11
64.156
 21
-709.365
  0
LINE
  8
0
 10
64.156
 20
-709.365
 11
64.2038
 21
-709.14
  0
LINE
  8
0
 10
64.2038
 20
-709.14
 11
64.2974
 21
-708.93
  0
LINE
  8
0
 10
64.2974
 20
-708.93
 11
64.4325
 21
-708.744
  0
LINE
  8
0
 10
64.4325
 20
-708.744
 11
64.6034
 21
-708.59
  0
LINE
  8
0
 10
64.6034
 20
-708.59
 11
64.8026
 21
-708.475
  0
LINE
  8
0
 10
64.8026
 20
-708.475
 11
65.0213
 21
-708.404
  0
LINE
  8
0
 10
65.0213
 20
-708.404
 11
65.25
 21
-708.38
  0
LINE
  8
0
 10
65.25
 20
-708.38
 11
65.4787
 21
-708.404
  0
LINE
  8
0
 10
65.4787
 20
-708.404
 11
65.6974
 21
-708.475
  0
LINE
  8
0
 10
65.6974
 20
-708.475
 11
65.8966
 21
-708.59
  0
LINE
  8
0
 10
65.8966
 20
-708.59
 11
66.0675
 21
-708.744
  0
LINE
  8
0
 10
66.0675
 20
-708.744
 11
66.2026
 21
-708.93
  0
LINE
  8
0
 10
66.2026
 20
-708.93
 11
66.2962
 21
-709.14
  0
LINE
  8
0
 10
66.2962
 20
-709.14
 11
66.344
 21
-709.365
  0
LINE
  8
0
 10
66.344
 20
-709.365
 11
66.344
 21
-709.595
  0
LINE
  8
0
 10
66.344
 20
-709.595
 11
66.2962
 21
-709.82
  0
LINE
  8
0
 10
66.2962
 20
-709.82
 11
66.2026
 21
-710.03
  0
LINE
  8
0
 10
66.2026
 20
-710.03
 11
66.0675
 21
-710.216
  0
LINE
  8
0
 10
66.0675
 20
-710.216
 11
65.8966
 21
-710.37
  0
LINE
  8
0
 10
65.8966
 20
-710.37
 11
65.6974
 21
-710.485
  0
LINE
  8
0
 10
65.6974
 20
-710.485
 11
65.4787
 21
-710.556
  0
LINE
  8
0
 10
65.4787
 20
-710.556
 11
65.25
 21
-710.58
  0
LINE
  8
0
 10
65.25
 20
-710.58
 11
65.0213
 21
-710.556
  0
LINE
  8
0
 10
-57.4787
 20
-710.556
 11
-57.6974
 21
-710.485
  0
LINE
  8
0
 10
-57.6974
 20
-710.485
 11
-57.8966
 21
-710.37
  0
LINE
  8
0
 10
-57.8966
 20
-710.37
 11
-58.0675
 21
-710.216
  0
LINE
  8
0
 10
-58.0675
 20
-710.216
 11
-58.2026
 21
-710.03
  0
LINE
  8
0
 10
-58.2026
 20
-710.03
 11
-58.2962
 21
-709.82
  0
LINE
  8
0
 10
-58.2962
 20
-709.82
 11
-58.344
 21
-709.595
  0
LINE
  8
0
 10
-58.344
 20
-709.595
 11
-58.344
 21
-709.365
  0
LINE
  8
0
 10
-58.344
 20
-709.365
 11
-58.2962
 21
-709.14
  0
LINE
  8
0
 10
-58.2962
 20
-709.14
 11
-58.2026
 21
-708.93
  0
LINE
  8
0
 10
-58.2026
 20
-708.93
 11
-58.0675
 21
-708.744
  0
LINE
  8
0
 10
-58.0675
 20
-708.744
 11
-57.8966
 21
-708.59
  0
LINE
  8
0
 10
-57.8966
 20
-708.59
 11
-57.6974
 21
-708.475
  0
LINE
  8
0
 10
-57.6974
 20
-708.475
 11
-57.4787
 21
-708.404
  0
LINE
  8
0
 10
-57.4787
 20
-708.404
 11
-57.25
 21
-708.38
  0
LINE
  8
0
 10
-57.25
 20
-708.38
 11
-57.0213
 21
-708.404
  0
LINE
  8
0
 10
-57.0213
 20
-708.404
 11
-56.8026
 21
-708.475
  0
LINE
  8
0
 10
-56.8026
 20
-708.475
 11
-56.6034
 21
-708.59
  0
LINE
  8
0
 10
-56.6034
 20
-708.59
 11
-56.4325
 21
-708.744
  0
LINE
  8
0
 10
-56.4325
 20
-708.744
 11
-56.2974
 21
-708.93
  0
LINE
  8
0
 10
-56.2974
 20
-708.93
 11
-56.2038
 21
-709.14
  0
LINE
  8
0
 10
-56.2038
 20
-709.14
 11
-56.156
 21
-709.365
  0
LINE
  8
0
 10
-56.156
 20
-709.365
 11
-56.156
 21
-709.595
  0
LINE
  8
0
 10
-56.156
 20
-709.595
 11
-56.2038
 21
-709.82
  0
LINE
  8
0
 10
-56.2038
 20
-709.82
 11
-56.2974
 21
-710.03
  0
LINE
  8
0
 10
-56.2974
 20
-710.03
 11
-56.4325
 21
-710.216
  0
LINE
  8
0
 10
-56.4325
 20
-710.216
 11
-56.6034
 21
-710.37
  0
LINE
  8
0
 10
-56.6034
 20
-710.37
 11
-56.8026
 21
-710.485
  0
LINE
  8
0
 10
-56.8026
 20
-710.485
 11
-57.0213
 21
-710.556
  0
LINE
  8
0
 10
-57.0213
 20
-710.556
 11
-57.25
 21
-710.58
  0
LINE
  8
0
 10
-57.25
 20
-710.58
 11
-57.4787
 21
-710.556
  0
LINE
  8
0
 10
-57.4787
 20
-715.636
 11
-57.6974
 21
-715.565
  0
LINE
  8
0
 10
-57.6974
 20
-715.565
 11
-57.8966
 21
-715.45
  0
LINE
  8
0
 10
-57.8966
 20
-715.45
 11
-58.0675
 21
-715.296
  0
LINE
  8
0
 10
-58.0675
 20
-715.296
 11
-58.2026
 21
-715.11
  0
LINE
  8
0
 10
-58.2026
 20
-715.11
 11
-58.2962
 21
-714.9
  0
LINE
  8
0
 10
-58.2962
 20
-714.9
 11
-58.344
 21
-714.675
  0
LINE
  8
0
 10
-58.344
 20
-714.675
 11
-58.344
 21
-714.445
  0
LINE
  8
0
 10
-58.344
 20
-714.445
 11
-58.2962
 21
-714.22
  0
LINE
  8
0
 10
-58.2962
 20
-714.22
 11
-58.2026
 21
-714.01
  0
LINE
  8
0
 10
-58.2026
 20
-714.01
 11
-58.0675
 21
-713.824
  0
LINE
  8
0
 10
-58.0675
 20
-713.824
 11
-57.8966
 21
-713.67
  0
LINE
  8
0
 10
-57.8966
 20
-713.67
 11
-57.6974
 21
-713.555
  0
LINE
  8
0
 10
-57.6974
 20
-713.555
 11
-57.4787
 21
-713.484
  0
LINE
  8
0
 10
-57.4787
 20
-713.484
 11
-57.25
 21
-713.46
  0
LINE
  8
0
 10
-57.25
 20
-713.46
 11
-57.0213
 21
-713.484
  0
LINE
  8
0
 10
-57.0213
 20
-713.484
 11
-56.8026
 21
-713.555
  0
LINE
  8
0
 10
-56.8026
 20
-713.555
 11
-56.6034
 21
-713.67
  0
LINE
  8
0
 10
-56.6034
 20
-713.67
 11
-56.4325
 21
-713.824
  0
LINE
  8
0
 10
-56.4325
 20
-713.824
 11
-56.2974
 21
-714.01
  0
LINE
  8
0
 10
-56.2974
 20
-714.01
 11
-56.2038
 21
-714.22
  0
LINE
  8
0
 10
-56.2038
 20
-714.22
 11
-56.156
 21
-714.445
  0
LINE
  8
0
 10
-56.156
 20
-714.445
 11
-56.156
 21
-714.675
  0
LINE
  8
0
 10
-56.156
 20
-714.675
 11
-56.2038
 21
-714.9
  0
LINE
  8
0
 10
-56.2038
 20
-714.9
 11
-56.2974
 21
-715.11
  0
LINE
  8
0
 10
-56.2974
 20
-715.11
 11
-56.4325
 21
-715.296
  0
LINE
  8
0
 10
-56.4325
 20
-715.296
 11
-56.6034
 21
-715.45
  0
LINE
  8
0
 10
-56.6034
 20
-715.45
 11
-56.8026
 21
-715.565
  0
LINE
  8
0
 10
-56.8026
 20
-715.565
 11
-57.0213
 21
-715.636
  0
LINE
  8
0
 10
-57.0213
 20
-715.636
 11
-57.25
 21
-715.66
  0
LINE
  8
0
 10
-57.25
 20
-715.66
 11
-57.4787
 21
-715.636
  0
LINE
  8
0
 10
65.0213
 20
-715.636
 11
64.8026
 21
-715.565
  0
LINE
  8
0
 10
64.8026
 20
-715.565
 11
64.6034
 21
-715.45
  0
LINE
  8
0
 10
64.6034
 20
-715.45
 11
64.4325
 21
-715.296
  0
LINE
  8
0
 10
64.4325
 20
-715.296
 11
64.2974
 21
-715.11
  0
LINE
  8
0
 10
64.2974
 20
-715.11
 11
64.2038
 21
-714.9
  0
LINE
  8
0
 10
64.2038
 20
-714.9
 11
64.156
 21
-714.675
  0
LINE
  8
0
 10
64.156
 20
-714.675
 11
64.156
 21
-714.445
  0
LINE
  8
0
 10
64.156
 20
-714.445
 11
64.2038
 21
-714.22
  0
LINE
  8
0
 10
64.2038
 20
-714.22
 11
64.2974
 21
-714.01
  0
LINE
  8
0
 10
64.2974
 20
-714.01
 11
64.4325
 21
-713.824
  0
LINE
  8
0
 10
64.4325
 20
-713.824
 11
64.6034
 21
-713.67
  0
LINE
  8
0
 10
64.6034
 20
-713.67
 11
64.8026
 21
-713.555
  0
LINE
  8
0
 10
64.8026
 20
-713.555
 11
65.0213
 21
-713.484
  0
LINE
  8
0
 10
65.0213
 20
-713.484
 11
65.25
 21
-713.46
  0
LINE
  8
0
 10
65.25
 20
-713.46
 11
65.4787
 21
-713.484
  0
LINE
  8
0
 10
65.4787
 20
-713.484
 11
65.6974
 21
-713.555
  0
LINE
  8
0
 10
65.6974
 20
-713.555
 11
65.8966
 21
-713.67
  0
LINE
  8
0
 10
65.8966
 20
-713.67
 11
66.0675
 21
-713.824
  0
LINE
  8
0
 10
66.0675
 20
-713.824
 11
66.2026
 21
-714.01
  0
LINE
  8
0
 10
66.2026
 20
-714.01
 11
66.2962
 21
-714.22
  0
LINE
  8
0
 10
66.2962
 20
-714.22
 11
66.344
 21
-714.445
  0
LINE
  8
0
 10
66.344
 20
-714.445
 11
66.344
 21
-714.675
  0
LINE
  8
0
 10
66.344
 20
-714.675
 11
66.2962
 21
-714.9
  0
LINE
  8
0
 10
66.2962
 20
-714.9
 11
66.2026
 21
-715.11
  0
LINE
  8
0
 10
66.2026
 20
-715.11
 11
66.0675
 21
-715.296
  0
LINE
  8
0
 10
66.0675
 20
-715.296
 11
65.8966
 21
-715.45
  0
LINE
  8
0
 10
65.8966
 20
-715.45
 11
65.6974
 21
-715.565
  0
LINE
  8
0
 10
65.6974
 20
-715.565
 11
65.4787
 21
-715.636
  0
LINE
  8
0
 10
65.4787
 20
-715.636
 11
65.25
 21
-715.66
  0
LINE
  8
0
 10
65.25
 20
-715.66
 11
65.0213
 21
-715.636
  0
LINE
  8
0
 10
-57.4787
 20
-720.716
 11
-57.6974
 21
-720.645
  0
LINE
  8
0
 10
-57.6974
 20
-720.645
 11
-57.8966
 21
-720.53
  0
LINE
  8
0
 10
-57.8966
 20
-720.53
 11
-58.0675
 21
-720.376
  0
LINE
  8
0
 10
-58.0675
 20
-720.376
 11
-58.2026
 21
-720.19
  0
LINE
  8
0
 10
-58.2026
 20
-720.19
 11
-58.2962
 21
-719.98
  0
LINE
  8
0
 10
-58.2962
 20
-719.98
 11
-58.344
 21
-719.755
  0
LINE
  8
0
 10
-58.344
 20
-719.755
 11
-58.344
 21
-719.525
  0
LINE
  8
0
 10
-58.344
 20
-719.525
 11
-58.2962
 21
-719.3
  0
LINE
  8
0
 10
-58.2962
 20
-719.3
 11
-58.2026
 21
-719.09
  0
LINE
  8
0
 10
-58.2026
 20
-719.09
 11
-58.0675
 21
-718.904
  0
LINE
  8
0
 10
-58.0675
 20
-718.904
 11
-57.8966
 21
-718.75
  0
LINE
  8
0
 10
-57.8966
 20
-718.75
 11
-57.6974
 21
-718.635
  0
LINE
  8
0
 10
-57.6974
 20
-718.635
 11
-57.4787
 21
-718.564
  0
LINE
  8
0
 10
-57.4787
 20
-718.564
 11
-57.25
 21
-718.54
  0
LINE
  8
0
 10
-57.25
 20
-718.54
 11
-57.0213
 21
-718.564
  0
LINE
  8
0
 10
-57.0213
 20
-718.564
 11
-56.8026
 21
-718.635
  0
LINE
  8
0
 10
-56.8026
 20
-718.635
 11
-56.6034
 21
-718.75
  0
LINE
  8
0
 10
-56.6034
 20
-718.75
 11
-56.4325
 21
-718.904
  0
LINE
  8
0
 10
-56.4325
 20
-718.904
 11
-56.2974
 21
-719.09
  0
LINE
  8
0
 10
-56.2974
 20
-719.09
 11
-56.2038
 21
-719.3
  0
LINE
  8
0
 10
-56.2038
 20
-719.3
 11
-56.156
 21
-719.525
  0
LINE
  8
0
 10
-56.156
 20
-719.525
 11
-56.156
 21
-719.755
  0
LINE
  8
0
 10
-56.156
 20
-719.755
 11
-56.2038
 21
-719.98
  0
LINE
  8
0
 10
-56.2038
 20
-719.98
 11
-56.2974
 21
-720.19
  0
LINE
  8
0
 10
-56.2974
 20
-720.19
 11
-56.4325
 21
-720.376
  0
LINE
  8
0
 10
-56.4325
 20
-720.376
 11
-56.6034
 21
-720.53
  0
LINE
  8
0
 10
-56.6034
 20
-720.53
 11
-56.8026
 21
-720.645
  0
LINE
  8
0
 10
-56.8026
 20
-720.645
 11
-57.0213
 21
-720.716
  0
LINE
  8
0
 10
-57.0213
 20
-720.716
 11
-57.25
 21
-720.74
  0
LINE
  8
0
 10
-57.25
 20
-720.74
 11
-57.4787
 21
-720.716
  0
LINE
  8
0
 10
65.0213
 20
-720.716
 11
64.8026
 21
-720.645
  0
LINE
  8
0
 10
64.8026
 20
-720.645
 11
64.6034
 21
-720.53
  0
LINE
  8
0
 10
64.6034
 20
-720.53
 11
64.4325
 21
-720.376
  0
LINE
  8
0
 10
64.4325
 20
-720.376
 11
64.2974
 21
-720.19
  0
LINE
  8
0
 10
64.2974
 20
-720.19
 11
64.2038
 21
-719.98
  0
LINE
  8
0
 10
64.2038
 20
-719.98
 11
64.156
 21
-719.755
  0
LINE
  8
0
 10
64.156
 20
-719.755
 11
64.156
 21
-719.525
  0
LINE
  8
0
 10
64.156
 20
-719.525
 11
64.2038
 21
-719.3
  0
LINE
  8
0
 10
64.2038
 20
-719.3
 11
64.2974
 21
-719.09
  0
LINE
  8
0
 10
64.2974
 20
-719.09
 11
64.4325
 21
-718.904
  0
LINE
  8
0
 10
64.4325
 20
-718.904
 11
64.6034
 21
-718.75
  0
LINE
  8
0
 10
64.6034
 20
-718.75
 11
64.8026
 21
-718.635
  0
LINE
  8
0
 10
64.8026
 20
-718.635
 11
65.0213
 21
-718.564
  0
LINE
  8
0
 10
65.0213
 20
-718.564
 11
65.25
 21
-718.54
  0
LINE
  8
0
 10
65.25
 20
-718.54
 11
65.4787
 21
-718.564
  0
LINE
  8
0
 10
65.4787
 20
-718.564
 11
65.6974
 21
-718.635
  0
LINE
  8
0
 10
65.6974
 20
-718.635
 11
65.8966
 21
-718.75
  0
LINE
  8
0
 10
65.8966
 20
-718.75
 11
66.0675
 21
-718.904
  0
LINE
  8
0
 10
66.0675
 20
-718.904
 11
66.2026
 21
-719.09
  0
LINE
  8
0
 10
66.2026
 20
-719.09
 11
66.2962
 21
-719.3
  0
LINE
  8
0
 10
66.2962
 20
-719.3
 11
66.344
 21
-719.525
  0
LINE
  8
0
 10
66.344
 20
-719.525
 11
66.344
 21
-719.755
  0
LINE
  8
0
 10
66.344
 20
-719.755
 11
66.2962
 21
-719.98
  0
LINE
  8
0
 10
66.2962
 20
-719.98
 11
66.2026
 21
-720.19
  0
LINE
  8
0
 10
66.2026
 20
-720.19
 11
66.0675
 21
-720.376
  0
LINE
  8
0
 10
66.0675
 20
-720.376
 11
65.8966
 21
-720.53
  0
LINE
  8
0
 10
65.8966
 20
-720.53
 11
65.6974
 21
-720.645
  0
LINE
  8
0
 10
65.6974
 20
-720.645
 11
65.4787
 21
-720.716
  0
LINE
  8
0
 10
65.4787
 20
-720.716
 11
65.25
 21
-720.74
  0
LINE
  8
0
 10
65.25
 20
-720.74
 11
65.0213
 21
-720.716
  0
LINE
  8
0
 10
-57.4787
 20
-725.796
 11
-57.6974
 21
-725.725
  0
LINE
  8
0
 10
-57.6974
 20
-725.725
 11
-57.8966
 21
-725.61
  0
LINE
  8
0
 10
-57.8966
 20
-725.61
 11
-58.0675
 21
-725.456
  0
LINE
  8
0
 10
-58.0675
 20
-725.456
 11
-58.2026
 21
-725.27
  0
LINE
  8
0
 10
-58.2026
 20
-725.27
 11
-58.2962
 21
-725.06
  0
LINE
  8
0
 10
-58.2962
 20
-725.06
 11
-58.344
 21
-724.835
  0
LINE
  8
0
 10
-58.344
 20
-724.835
 11
-58.344
 21
-724.605
  0
LINE
  8
0
 10
-58.344
 20
-724.605
 11
-58.2962
 21
-724.38
  0
LINE
  8
0
 10
-58.2962
 20
-724.38
 11
-58.2026
 21
-724.17
  0
LINE
  8
0
 10
-58.2026
 20
-724.17
 11
-58.0675
 21
-723.984
  0
LINE
  8
0
 10
-58.0675
 20
-723.984
 11
-57.8966
 21
-723.83
  0
LINE
  8
0
 10
-57.8966
 20
-723.83
 11
-57.6974
 21
-723.715
  0
LINE
  8
0
 10
-57.6974
 20
-723.715
 11
-57.4787
 21
-723.644
  0
LINE
  8
0
 10
-57.4787
 20
-723.644
 11
-57.25
 21
-723.62
  0
LINE
  8
0
 10
-57.25
 20
-723.62
 11
-57.0213
 21
-723.644
  0
LINE
  8
0
 10
-57.0213
 20
-723.644
 11
-56.8026
 21
-723.715
  0
LINE
  8
0
 10
-56.8026
 20
-723.715
 11
-56.6034
 21
-723.83
  0
LINE
  8
0
 10
-56.6034
 20
-723.83
 11
-56.4325
 21
-723.984
  0
LINE
  8
0
 10
-56.4325
 20
-723.984
 11
-56.2974
 21
-724.17
  0
LINE
  8
0
 10
-56.2974
 20
-724.17
 11
-56.2038
 21
-724.38
  0
LINE
  8
0
 10
-56.2038
 20
-724.38
 11
-56.156
 21
-724.605
  0
LINE
  8
0
 10
-56.156
 20
-724.605
 11
-56.156
 21
-724.835
  0
LINE
  8
0
 10
-56.156
 20
-724.835
 11
-56.2038
 21
-725.06
  0
LINE
  8
0
 10
-56.2038
 20
-725.06
 11
-56.2974
 21
-725.27
  0
LINE
  8
0
 10
-56.2974
 20
-725.27
 11
-56.4325
 21
-725.456
  0
LINE
  8
0
 10
-56.4325
 20
-725.456
 11
-56.6034
 21
-725.61
  0
LINE
  8
0
 10
-56.6034
 20
-725.61
 11
-56.8026
 21
-725.725
  0
LINE
  8
0
 10
-56.8026
 20
-725.725
 11
-57.0213
 21
-725.796
  0
LINE
  8
0
 10
-57.0213
 20
-725.796
 11
-57.25
 21
-725.82
  0
LINE
  8
0
 10
-57.25
 20
-725.82
 11
-57.4787
 21
-725.796
  0
LINE
  8
0
 10
65.0213
 20
-725.796
 11
64.8026
 21
-725.725
  0
LINE
  8
0
 10
64.8026
 20
-725.725
 11
64.6034
 21
-725.61
  0
LINE
  8
0
 10
64.6034
 20
-725.61
 11
64.4325
 21
-725.456
  0
LINE
  8
0
 10
64.4325
 20
-725.456
 11
64.2974
 21
-725.27
  0
LINE
  8
0
 10
64.2974
 20
-725.27
 11
64.2038
 21
-725.06
  0
LINE
  8
0
 10
64.2038
 20
-725.06
 11
64.156
 21
-724.835
  0
LINE
  8
0
 10
64.156
 20
-724.835
 11
64.156
 21
-724.605
  0
LINE
  8
0
 10
64.156
 20
-724.605
 11
64.2038
 21
-724.38
  0
LINE
  8
0
 10
64.2038
 20
-724.38
 11
64.2974
 21
-724.17
  0
LINE
  8
0
 10
64.2974
 20
-724.17
 11
64.4325
 21
-723.984
  0
LINE
  8
0
 10
64.4325
 20
-723.984
 11
64.6034
 21
-723.83
  0
LINE
  8
0
 10
64.6034
 20
-723.83
 11
64.8026
 21
-723.715
  0
LINE
  8
0
 10
64.8026
 20
-723.715
 11
65.0213
 21
-723.644
  0
LINE
  8
0
 10
65.0213
 20
-723.644
 11
65.25
 21
-723.62
  0
LINE
  8
0
 10
65.25
 20
-723.62
 11
65.4787
 21
-723.644
  0
LINE
  8
0
 10
65.4787
 20
-723.644
 11
65.6974
 21
-723.715
  0
LINE
  8
0
 10
65.6974
 20
-723.715
 11
65.8966
 21
-723.83
  0
LINE
  8
0
 10
65.8966
 20
-723.83
 11
66.0675
 21
-723.984
  0
LINE
  8
0
 10
66.0675
 20
-723.984
 11
66.2026
 21
-724.17
  0
LINE
  8
0
 10
66.2026
 20
-724.17
 11
66.2962
 21
-724.38
  0
LINE
  8
0
 10
66.2962
 20
-724.38
 11
66.344
 21
-724.605
  0
LINE
  8
0
 10
66.344
 20
-724.605
 11
66.344
 21
-724.835
  0
LINE
  8
0
 10
66.344
 20
-724.835
 11
66.2962
 21
-725.06
  0
LINE
  8
0
 10
66.2962
 20
-725.06
 11
66.2026
 21
-725.27
  0
LINE
  8
0
 10
66.2026
 20
-725.27
 11
66.0675
 21
-725.456
  0
LINE
  8
0
 10
66.0675
 20
-725.456
 11
65.8966
 21
-725.61
  0
LINE
  8
0
 10
65.8966
 20
-725.61
 11
65.6974
 21
-725.725
  0
LINE
  8
0
 10
65.6974
 20
-725.725
 11
65.4787
 21
-725.796
  0
LINE
  8
0
 10
65.4787
 20
-725.796
 11
65.25
 21
-725.82
  0
LINE
  8
0
 10
65.25
 20
-725.82
 11
65.0213
 21
-725.796
  0
ENDSEC
  0
SECTION
  2
OBJECTS
  0
DICTIONARY
  0
ENDSEC
  0
EOF
